<svg width="364" height="200" viewBox="0 0 364 200" fill="none" xmlns="http://www.w3.org/2000/svg">
<path fill-rule="evenodd" clip-rule="evenodd" d="M2.35503 196.39C3.33585 196.39 4.13096 197.185 4.13096 198.166C4.13096 199.146 3.33585 199.942 2.35503 199.942C1.37421 199.942 0.579102 199.146 0.579101 198.166C0.579101 197.185 1.37421 196.39 2.35503 196.39ZM134.839 198.166C134.839 197.185 134.044 196.39 133.063 196.39C132.082 196.39 131.287 197.185 131.287 198.166C131.287 199.146 132.082 199.942 133.063 199.942C134.044 199.942 134.839 199.146 134.839 198.166ZM298.225 198.166C298.225 197.185 297.43 196.39 296.449 196.39C295.468 196.39 294.673 197.185 294.673 198.166C294.673 199.146 295.468 199.942 296.449 199.942C297.43 199.942 298.225 199.146 298.225 198.166ZM298.225 165.489C298.225 164.508 297.43 163.713 296.449 163.713C295.468 163.713 294.673 164.508 294.673 165.489C294.673 166.47 295.468 167.265 296.449 167.265C297.43 167.265 298.225 166.47 298.225 165.489ZM296.449 131.035C297.43 131.035 298.225 131.83 298.225 132.811C298.225 133.792 297.43 134.587 296.449 134.587C295.468 134.587 294.673 133.792 294.673 132.811C294.673 131.83 295.468 131.035 296.449 131.035ZM298.225 100.134C298.225 99.1535 297.43 98.3584 296.449 98.3584C295.468 98.3584 294.673 99.1535 294.673 100.134C294.673 101.115 295.468 101.91 296.449 101.91C297.43 101.91 298.225 101.115 298.225 100.134ZM296.449 65.6816C297.43 65.6816 298.225 66.4768 298.225 67.4576C298.225 68.4384 297.43 69.2335 296.449 69.2335C295.468 69.2335 294.673 68.4384 294.673 67.4576C294.673 66.4768 295.468 65.6816 296.449 65.6816ZM298.225 34.7798C298.225 33.799 297.43 33.0039 296.449 33.0039C295.468 33.0039 294.673 33.799 294.673 34.7798C294.673 35.7607 295.468 36.5558 296.449 36.5558C297.43 36.5558 298.225 35.7607 298.225 34.7798ZM296.449 0.326174C297.43 0.326174 298.225 1.12129 298.225 2.10211C298.225 3.08293 297.43 3.87804 296.449 3.87804C295.468 3.87804 294.673 3.08293 294.673 2.10211C294.673 1.12129 295.468 0.326174 296.449 0.326174ZM330.901 198.166C330.901 197.185 330.106 196.39 329.126 196.39C328.145 196.39 327.35 197.185 327.35 198.166C327.35 199.146 328.145 199.942 329.126 199.942C330.106 199.942 330.901 199.146 330.901 198.166ZM361.803 196.39C362.784 196.39 363.579 197.185 363.579 198.166C363.579 199.146 362.784 199.941 361.803 199.941C360.822 199.941 360.027 199.146 360.027 198.166C360.027 197.185 360.822 196.39 361.803 196.39ZM330.901 165.489C330.901 164.508 330.106 163.713 329.126 163.713C328.145 163.713 327.35 164.508 327.35 165.489C327.35 166.47 328.145 167.265 329.126 167.265C330.106 167.265 330.901 166.47 330.901 165.489ZM361.803 163.713C362.784 163.713 363.579 164.508 363.579 165.489C363.579 166.47 362.784 167.265 361.803 167.265C360.822 167.265 360.027 166.47 360.027 165.489C360.027 164.508 360.822 163.713 361.803 163.713ZM330.901 132.811C330.901 131.83 330.106 131.035 329.126 131.035C328.145 131.035 327.35 131.83 327.35 132.811C327.35 133.792 328.145 134.587 329.126 134.587C330.106 134.587 330.901 133.792 330.901 132.811ZM361.803 131.035C362.784 131.035 363.579 131.83 363.579 132.811C363.579 133.792 362.784 134.587 361.803 134.587C360.822 134.587 360.027 133.792 360.027 132.811C360.027 131.83 360.822 131.035 361.803 131.035ZM330.901 100.134C330.901 99.1535 330.106 98.3584 329.126 98.3584C328.145 98.3584 327.35 99.1535 327.35 100.134C327.35 101.115 328.145 101.91 329.126 101.91C330.106 101.91 330.901 101.115 330.901 100.134ZM361.803 98.3584C362.784 98.3584 363.579 99.1535 363.579 100.134C363.579 101.115 362.784 101.91 361.803 101.91C360.822 101.91 360.027 101.115 360.027 100.134C360.027 99.1535 360.822 98.3584 361.803 98.3584ZM330.901 67.4576C330.901 66.4768 330.106 65.6816 329.126 65.6816C328.145 65.6816 327.35 66.4768 327.35 67.4576C327.35 68.4384 328.145 69.2335 329.126 69.2335C330.106 69.2335 330.901 68.4384 330.901 67.4576ZM361.803 65.6816C362.784 65.6816 363.579 66.4767 363.579 67.4576C363.579 68.4384 362.784 69.2335 361.803 69.2335C360.822 69.2335 360.027 68.4384 360.027 67.4576C360.027 66.4767 360.822 65.6816 361.803 65.6816ZM330.901 34.7798C330.901 33.799 330.106 33.0039 329.126 33.0039C328.145 33.0039 327.35 33.799 327.35 34.7798C327.35 35.7607 328.145 36.5558 329.126 36.5558C330.106 36.5558 330.901 35.7607 330.901 34.7798ZM361.803 33.0039C362.784 33.0039 363.579 33.799 363.579 34.7798C363.579 35.7607 362.784 36.5558 361.803 36.5558C360.822 36.5558 360.027 35.7607 360.027 34.7798C360.027 33.799 360.822 33.0039 361.803 33.0039ZM330.901 2.10211C330.901 1.12129 330.106 0.326173 329.126 0.326173C328.145 0.326173 327.35 1.12129 327.35 2.10211C327.35 3.08293 328.145 3.87804 329.126 3.87804C330.106 3.87804 330.901 3.08293 330.901 2.10211ZM361.803 0.326156C362.784 0.326156 363.579 1.12128 363.579 2.1021C363.579 3.08292 362.784 3.87802 361.803 3.87802C360.822 3.87802 360.027 3.08292 360.027 2.1021C360.027 1.12128 360.822 0.326156 361.803 0.326156ZM165.741 196.39C166.722 196.39 167.517 197.185 167.517 198.166C167.517 199.146 166.722 199.942 165.741 199.942C164.76 199.942 163.965 199.146 163.965 198.166C163.965 197.185 164.76 196.39 165.741 196.39ZM134.839 165.489C134.839 164.508 134.044 163.713 133.063 163.713C132.082 163.713 131.287 164.508 131.287 165.489C131.287 166.47 132.082 167.265 133.063 167.265C134.044 167.265 134.839 166.47 134.839 165.489ZM165.741 163.713C166.722 163.713 167.517 164.508 167.517 165.489C167.517 166.47 166.722 167.265 165.741 167.265C164.76 167.265 163.965 166.47 163.965 165.489C163.965 164.508 164.76 163.713 165.741 163.713ZM134.839 132.811C134.839 131.83 134.044 131.035 133.063 131.035C132.082 131.035 131.287 131.83 131.287 132.811C131.287 133.792 132.082 134.587 133.063 134.587C134.044 134.587 134.839 133.792 134.839 132.811ZM165.741 131.035C166.722 131.035 167.517 131.83 167.517 132.811C167.517 133.792 166.722 134.587 165.741 134.587C164.76 134.587 163.965 133.792 163.965 132.811C163.965 131.83 164.76 131.035 165.741 131.035ZM134.839 100.134C134.839 99.1535 134.044 98.3584 133.063 98.3584C132.082 98.3584 131.287 99.1535 131.287 100.134C131.287 101.115 132.082 101.91 133.063 101.91C134.044 101.91 134.839 101.115 134.839 100.134ZM165.741 98.3584C166.722 98.3584 167.517 99.1535 167.517 100.134C167.517 101.115 166.722 101.91 165.741 101.91C164.76 101.91 163.965 101.115 163.965 100.134C163.965 99.1535 164.76 98.3584 165.741 98.3584ZM134.839 67.4576C134.839 66.4768 134.044 65.6816 133.063 65.6816C132.082 65.6816 131.287 66.4768 131.287 67.4576C131.287 68.4384 132.082 69.2335 133.063 69.2335C134.044 69.2335 134.839 68.4384 134.839 67.4576ZM165.741 65.6816C166.722 65.6816 167.517 66.4768 167.517 67.4576C167.517 68.4384 166.722 69.2335 165.741 69.2335C164.76 69.2335 163.965 68.4384 163.965 67.4576C163.965 66.4768 164.76 65.6816 165.741 65.6816ZM134.839 34.7798C134.839 33.799 134.044 33.0039 133.063 33.0039C132.082 33.0039 131.287 33.799 131.287 34.7798C131.287 35.7607 132.082 36.5558 133.063 36.5558C134.044 36.5558 134.839 35.7607 134.839 34.7798ZM165.741 33.0039C166.722 33.0039 167.517 33.799 167.517 34.7798C167.517 35.7607 166.722 36.5558 165.741 36.5558C164.76 36.5558 163.965 35.7607 163.965 34.7798C163.965 33.799 164.76 33.0039 165.741 33.0039ZM134.839 2.10211C134.839 1.12129 134.044 0.326166 133.063 0.326166C132.082 0.326166 131.287 1.12129 131.287 2.10211C131.287 3.08293 132.082 3.87803 133.063 3.87803C134.044 3.87803 134.839 3.08293 134.839 2.10211ZM165.741 0.326165C166.722 0.326165 167.517 1.12128 167.517 2.1021C167.517 3.08292 166.722 3.87803 165.741 3.87803C164.76 3.87803 163.965 3.08292 163.965 2.1021C163.965 1.12128 164.76 0.326165 165.741 0.326165ZM200.194 198.166C200.194 197.185 199.398 196.39 198.418 196.39C197.437 196.39 196.642 197.185 196.642 198.166C196.642 199.146 197.437 199.942 198.418 199.942C199.398 199.942 200.194 199.146 200.194 198.166ZM231.094 196.39C232.075 196.39 232.87 197.185 232.87 198.166C232.87 199.146 232.075 199.942 231.094 199.942C230.113 199.942 229.318 199.146 229.318 198.166C229.318 197.185 230.113 196.39 231.094 196.39ZM200.194 165.489C200.194 164.508 199.398 163.713 198.418 163.713C197.437 163.713 196.642 164.508 196.642 165.489C196.642 166.47 197.437 167.265 198.418 167.265C199.398 167.265 200.194 166.47 200.194 165.489ZM231.094 163.713C232.075 163.713 232.87 164.508 232.87 165.489C232.87 166.47 232.075 167.265 231.094 167.265C230.113 167.265 229.318 166.47 229.318 165.489C229.318 164.508 230.113 163.713 231.094 163.713ZM200.194 132.811C200.194 131.83 199.398 131.035 198.418 131.035C197.437 131.035 196.642 131.83 196.642 132.811C196.642 133.792 197.437 134.587 198.418 134.587C199.398 134.587 200.194 133.792 200.194 132.811ZM231.094 131.035C232.075 131.035 232.87 131.83 232.87 132.811C232.87 133.792 232.075 134.587 231.094 134.587C230.113 134.587 229.318 133.792 229.318 132.811C229.318 131.83 230.113 131.035 231.094 131.035ZM200.194 100.134C200.194 99.1535 199.398 98.3584 198.418 98.3584C197.437 98.3584 196.642 99.1535 196.642 100.134C196.642 101.115 197.437 101.91 198.418 101.91C199.398 101.91 200.194 101.115 200.194 100.134ZM231.094 98.3584C232.075 98.3584 232.87 99.1535 232.87 100.134C232.87 101.115 232.075 101.91 231.094 101.91C230.113 101.91 229.318 101.115 229.318 100.134C229.318 99.1535 230.113 98.3584 231.094 98.3584ZM200.194 67.4576C200.194 66.4768 199.398 65.6816 198.418 65.6816C197.437 65.6816 196.642 66.4768 196.642 67.4576C196.642 68.4384 197.437 69.2335 198.418 69.2335C199.398 69.2335 200.194 68.4384 200.194 67.4576ZM231.094 65.6816C232.075 65.6816 232.87 66.4768 232.87 67.4576C232.87 68.4384 232.075 69.2335 231.094 69.2335C230.113 69.2335 229.318 68.4384 229.318 67.4576C229.318 66.4768 230.113 65.6816 231.094 65.6816ZM200.194 34.7798C200.194 33.799 199.398 33.0039 198.418 33.0039C197.437 33.0039 196.642 33.799 196.642 34.7798C196.642 35.7607 197.437 36.5558 198.418 36.5558C199.398 36.5558 200.194 35.7607 200.194 34.7798ZM231.094 33.0039C232.075 33.0039 232.87 33.799 232.87 34.7799C232.87 35.7607 232.075 36.5558 231.094 36.5558C230.113 36.5558 229.318 35.7607 229.318 34.7799C229.318 33.799 230.113 33.0039 231.094 33.0039ZM200.194 2.1021C200.194 1.12128 199.398 0.326163 198.418 0.326163C197.437 0.326163 196.642 1.12128 196.642 2.1021C196.642 3.08292 197.437 3.87803 198.418 3.87803C199.398 3.87803 200.194 3.08292 200.194 2.1021ZM231.094 0.326177C232.075 0.326177 232.87 1.1213 232.87 2.10212C232.87 3.08294 232.075 3.87804 231.094 3.87804C230.113 3.87804 229.318 3.08294 229.318 2.10212C229.318 1.1213 230.113 0.326177 231.094 0.326177ZM265.548 198.166C265.548 197.185 264.753 196.39 263.772 196.39C262.791 196.39 261.996 197.185 261.996 198.166C261.996 199.146 262.791 199.942 263.772 199.942C264.753 199.942 265.548 199.146 265.548 198.166ZM263.772 163.713C264.753 163.713 265.548 164.508 265.548 165.489C265.548 166.47 264.753 167.265 263.772 167.265C262.791 167.265 261.996 166.47 261.996 165.489C261.996 164.508 262.791 163.713 263.772 163.713ZM265.548 132.811C265.548 131.83 264.753 131.035 263.772 131.035C262.791 131.035 261.996 131.83 261.996 132.811C261.996 133.792 262.791 134.587 263.772 134.587C264.753 134.587 265.548 133.792 265.548 132.811ZM263.772 98.3584C264.753 98.3584 265.548 99.1535 265.548 100.134C265.548 101.115 264.753 101.91 263.772 101.91C262.791 101.91 261.996 101.115 261.996 100.134C261.996 99.1535 262.791 98.3584 263.772 98.3584ZM265.548 67.4576C265.548 66.4767 264.753 65.6816 263.772 65.6816C262.791 65.6816 261.996 66.4767 261.996 67.4576C261.996 68.4384 262.791 69.2335 263.772 69.2335C264.753 69.2335 265.548 68.4384 265.548 67.4576ZM263.772 33.0039C264.753 33.0039 265.548 33.799 265.548 34.7798C265.548 35.7607 264.753 36.5558 263.772 36.5558C262.791 36.5558 261.996 35.7607 261.996 34.7798C261.996 33.799 262.791 33.0039 263.772 33.0039ZM265.548 2.1021C265.548 1.12128 264.753 0.32616 263.772 0.32616C262.791 0.32616 261.996 1.12128 261.996 2.1021C261.996 3.08292 262.791 3.87803 263.772 3.87802C264.753 3.87802 265.548 3.08292 265.548 2.1021ZM36.8077 198.166C36.8077 197.185 36.0126 196.39 35.0318 196.39C34.051 196.39 33.2559 197.185 33.2559 198.166C33.2559 199.146 34.051 199.942 35.0318 199.942C36.0126 199.942 36.8077 199.146 36.8077 198.166ZM2.35503 163.713C3.33585 163.713 4.13096 164.508 4.13096 165.489C4.13096 166.47 3.33585 167.265 2.35503 167.265C1.37421 167.265 0.5791 166.47 0.5791 165.489C0.5791 164.508 1.37421 163.713 2.35503 163.713ZM36.8077 165.489C36.8077 164.508 36.0126 163.713 35.0318 163.713C34.051 163.713 33.2559 164.508 33.2559 165.489C33.2559 166.47 34.051 167.265 35.0318 167.265C36.0126 167.265 36.8077 166.47 36.8077 165.489ZM2.35503 131.035C3.33585 131.035 4.13096 131.83 4.13096 132.811C4.13096 133.792 3.33585 134.587 2.35503 134.587C1.37421 134.587 0.579099 133.792 0.579099 132.811C0.579099 131.83 1.37421 131.035 2.35503 131.035ZM36.8077 132.811C36.8077 131.83 36.0126 131.035 35.0318 131.035C34.051 131.035 33.2559 131.83 33.2559 132.811C33.2559 133.792 34.051 134.587 35.0318 134.587C36.0126 134.587 36.8077 133.792 36.8077 132.811ZM2.35503 98.3584C3.33585 98.3584 4.13096 99.1535 4.13096 100.134C4.13096 101.115 3.33585 101.91 2.35503 101.91C1.37421 101.91 0.579097 101.115 0.579097 100.134C0.579097 99.1535 1.37421 98.3584 2.35503 98.3584ZM36.8077 100.134C36.8077 99.1535 36.0126 98.3584 35.0318 98.3584C34.051 98.3584 33.2559 99.1535 33.2559 100.134C33.2559 101.115 34.051 101.91 35.0318 101.91C36.0126 101.91 36.8077 101.115 36.8077 100.134ZM2.35503 65.6816C3.33584 65.6816 4.13095 66.4768 4.13095 67.4576C4.13095 68.4384 3.33584 69.2335 2.35503 69.2335C1.37421 69.2335 0.579096 68.4384 0.579096 67.4576C0.579096 66.4768 1.37421 65.6816 2.35503 65.6816ZM36.8077 67.4576C36.8077 66.4768 36.0126 65.6816 35.0318 65.6816C34.051 65.6816 33.2559 66.4768 33.2559 67.4576C33.2559 68.4384 34.051 69.2335 35.0318 69.2335C36.0126 69.2335 36.8077 68.4384 36.8077 67.4576ZM2.35502 33.0039C3.33584 33.0039 4.13095 33.799 4.13095 34.7798C4.13095 35.7607 3.33584 36.5558 2.35502 36.5558C1.37421 36.5558 0.579094 35.7607 0.579094 34.7798C0.579094 33.799 1.37421 33.0039 2.35502 33.0039ZM36.8077 34.7798C36.8077 33.799 36.0126 33.0039 35.0318 33.0039C34.051 33.0039 33.2559 33.799 33.2559 34.7798C33.2559 35.7607 34.051 36.5558 35.0318 36.5558C36.0126 36.5558 36.8077 35.7607 36.8077 34.7798ZM2.35502 0.326172C3.33584 0.326172 4.13095 1.12129 4.13095 2.10211C4.13095 3.08293 3.33584 3.87804 2.35502 3.87804C1.3742 3.87804 0.579093 3.08293 0.579093 2.10211C0.579093 1.12129 1.3742 0.326172 2.35502 0.326172ZM36.8077 2.10211C36.8077 1.12129 36.0126 0.32617 35.0318 0.32617C34.051 0.32617 33.2559 1.12129 33.2559 2.10211C33.2559 3.08293 34.051 3.87804 35.0318 3.87803C36.0126 3.87803 36.8077 3.08293 36.8077 2.10211ZM67.7095 196.39C68.6903 196.39 69.4855 197.185 69.4855 198.166C69.4855 199.146 68.6903 199.942 67.7095 199.942C66.7287 199.942 65.9336 199.146 65.9336 198.166C65.9336 197.185 66.7287 196.39 67.7095 196.39ZM102.162 198.166C102.162 197.185 101.367 196.39 100.386 196.39C99.4055 196.39 98.6104 197.185 98.6104 198.166C98.6104 199.146 99.4055 199.942 100.386 199.942C101.367 199.942 102.162 199.146 102.162 198.166ZM67.7095 163.713C68.6903 163.713 69.4854 164.508 69.4854 165.489C69.4854 166.47 68.6903 167.265 67.7095 167.265C66.7287 167.265 65.9336 166.47 65.9336 165.489C65.9336 164.508 66.7287 163.713 67.7095 163.713ZM102.162 165.489C102.162 164.508 101.367 163.713 100.386 163.713C99.4055 163.713 98.6104 164.508 98.6104 165.489C98.6104 166.47 99.4055 167.265 100.386 167.265C101.367 167.265 102.162 166.47 102.162 165.489ZM67.7095 131.035C68.6903 131.035 69.4854 131.83 69.4854 132.811C69.4854 133.792 68.6903 134.587 67.7095 134.587C66.7287 134.587 65.9336 133.792 65.9336 132.811C65.9336 131.83 66.7287 131.035 67.7095 131.035ZM102.162 132.811C102.162 131.83 101.367 131.035 100.386 131.035C99.4055 131.035 98.6103 131.83 98.6103 132.811C98.6103 133.792 99.4055 134.587 100.386 134.587C101.367 134.587 102.162 133.792 102.162 132.811ZM67.7095 98.3584C68.6903 98.3584 69.4855 99.1535 69.4855 100.134C69.4855 101.115 68.6903 101.91 67.7095 101.91C66.7287 101.91 65.9336 101.115 65.9336 100.134C65.9336 99.1535 66.7287 98.3584 67.7095 98.3584ZM102.162 100.134C102.162 99.1535 101.367 98.3584 100.386 98.3584C99.4055 98.3584 98.6103 99.1535 98.6103 100.134C98.6103 101.115 99.4055 101.91 100.386 101.91C101.367 101.91 102.162 101.115 102.162 100.134ZM67.7095 65.6816C68.6903 65.6816 69.4855 66.4768 69.4855 67.4576C69.4855 68.4384 68.6903 69.2335 67.7095 69.2335C66.7287 69.2335 65.9336 68.4384 65.9336 67.4576C65.9336 66.4768 66.7287 65.6816 67.7095 65.6816ZM102.162 67.4576C102.162 66.4768 101.367 65.6816 100.386 65.6816C99.4055 65.6816 98.6103 66.4768 98.6103 67.4576C98.6103 68.4384 99.4055 69.2335 100.386 69.2335C101.367 69.2335 102.162 68.4384 102.162 67.4576ZM67.7095 33.0039C68.6903 33.0039 69.4855 33.799 69.4855 34.7798C69.4855 35.7607 68.6903 36.5558 67.7095 36.5558C66.7287 36.5558 65.9336 35.7607 65.9336 34.7798C65.9336 33.799 66.7287 33.0039 67.7095 33.0039ZM102.162 34.7798C102.162 33.799 101.367 33.0039 100.386 33.0039C99.4055 33.0039 98.6103 33.799 98.6103 34.7798C98.6103 35.7607 99.4055 36.5558 100.386 36.5558C101.367 36.5558 102.162 35.7607 102.162 34.7798ZM67.7095 0.326169C68.6903 0.326169 69.4854 1.12129 69.4854 2.10211C69.4854 3.08293 68.6903 3.87803 67.7095 3.87803C66.7287 3.87803 65.9336 3.08293 65.9336 2.10211C65.9336 1.12129 66.7287 0.326169 67.7095 0.326169ZM102.162 2.10211C102.162 1.12129 101.367 0.326167 100.386 0.326168C99.4055 0.326168 98.6103 1.12129 98.6103 2.10211C98.6103 3.08293 99.4055 3.87803 100.386 3.87803C101.367 3.87803 102.162 3.08293 102.162 2.10211Z" fill="url(#paint0_linear_703_6531)"/>
<defs>
<linearGradient id="paint0_linear_703_6531" x1="0.579103" y1="218.857" x2="360.079" y2="218.857" gradientUnits="userSpaceOnUse">
<stop stop-color="#042042"/>
<stop offset="1" stop-color="#DE3C4B"/>
</linearGradient>
</defs>
</svg>
