<svg width="201" height="364" viewBox="0 0 201 364" fill="none" xmlns="http://www.w3.org/2000/svg">
<path fill-rule="evenodd" clip-rule="evenodd" d="M4.01573 2.24312C4.01573 3.22394 3.22062 4.01905 2.2398 4.01905C1.25898 4.01905 0.463867 3.22394 0.463867 2.24312C0.463867 1.2623 1.25898 0.467194 2.2398 0.467194C3.22062 0.467194 4.01573 1.2623 4.01573 2.24312ZM2.2398 134.727C3.22062 134.727 4.01573 133.932 4.01573 132.951C4.01573 131.971 3.22062 131.176 2.2398 131.176C1.25898 131.176 0.463867 131.971 0.463867 132.951C0.463867 133.932 1.25898 134.727 2.2398 134.727ZM2.2398 298.113C3.22062 298.113 4.01573 297.318 4.01573 296.337C4.01573 295.356 3.22062 294.561 2.2398 294.561C1.25898 294.561 0.463867 295.356 0.463867 296.337C0.463867 297.318 1.25898 298.113 2.2398 298.113ZM34.9166 298.113C35.8974 298.113 36.6925 297.318 36.6925 296.337C36.6925 295.356 35.8974 294.561 34.9166 294.561C33.9357 294.561 33.1406 295.356 33.1406 296.337C33.1406 297.318 33.9357 298.113 34.9166 298.113ZM69.3702 296.337C69.3702 297.318 68.5751 298.113 67.5943 298.113C66.6135 298.113 65.8184 297.318 65.8184 296.337C65.8184 295.356 66.6135 294.561 67.5943 294.561C68.5751 294.561 69.3702 295.356 69.3702 296.337ZM100.271 298.113C101.252 298.113 102.047 297.318 102.047 296.337C102.047 295.356 101.252 294.561 100.271 294.561C99.2902 294.561 98.4951 295.356 98.4951 296.337C98.4951 297.318 99.2902 298.113 100.271 298.113ZM134.724 296.337C134.724 297.318 133.929 298.113 132.948 298.113C131.967 298.113 131.172 297.318 131.172 296.337C131.172 295.356 131.967 294.561 132.948 294.561C133.929 294.561 134.724 295.356 134.724 296.337ZM165.626 298.113C166.606 298.113 167.401 297.318 167.401 296.337C167.401 295.356 166.606 294.561 165.626 294.561C164.645 294.561 163.85 295.356 163.85 296.337C163.85 297.318 164.645 298.113 165.626 298.113ZM200.079 296.337C200.079 297.318 199.284 298.113 198.303 298.113C197.322 298.113 196.527 297.318 196.527 296.337C196.527 295.356 197.322 294.561 198.303 294.561C199.284 294.561 200.079 295.356 200.079 296.337ZM2.2398 330.79C3.22062 330.79 4.01573 329.995 4.01573 329.014C4.01573 328.033 3.22062 327.238 2.2398 327.238C1.25898 327.238 0.463867 328.033 0.463867 329.014C0.463867 329.995 1.25898 330.79 2.2398 330.79ZM4.01573 361.691C4.01573 362.672 3.22062 363.467 2.2398 363.467C1.25898 363.467 0.463867 362.672 0.463867 361.691C0.463867 360.71 1.25898 359.915 2.2398 359.915C3.22062 359.915 4.01573 360.71 4.01573 361.691ZM34.9166 330.79C35.8974 330.79 36.6925 329.995 36.6925 329.014C36.6925 328.033 35.8974 327.238 34.9166 327.238C33.9357 327.238 33.1406 328.033 33.1406 329.014C33.1406 329.995 33.9357 330.79 34.9166 330.79ZM36.6925 361.691C36.6925 362.672 35.8974 363.467 34.9166 363.467C33.9357 363.467 33.1406 362.672 33.1406 361.691C33.1406 360.71 33.9357 359.915 34.9166 359.915C35.8974 359.915 36.6925 360.71 36.6925 361.691ZM67.5943 330.79C68.5751 330.79 69.3702 329.995 69.3702 329.014C69.3702 328.033 68.5751 327.238 67.5943 327.238C66.6135 327.238 65.8184 328.033 65.8184 329.014C65.8184 329.995 66.6135 330.79 67.5943 330.79ZM69.3702 361.691C69.3702 362.672 68.5751 363.467 67.5943 363.467C66.6135 363.467 65.8184 362.672 65.8184 361.691C65.8184 360.71 66.6135 359.915 67.5943 359.915C68.5751 359.915 69.3702 360.71 69.3702 361.691ZM100.271 330.79C101.252 330.79 102.047 329.995 102.047 329.014C102.047 328.033 101.252 327.238 100.271 327.238C99.2902 327.238 98.4951 328.033 98.4951 329.014C98.4951 329.995 99.2902 330.79 100.271 330.79ZM102.047 361.691C102.047 362.672 101.252 363.467 100.271 363.467C99.2902 363.467 98.4951 362.672 98.4951 361.691C98.4951 360.71 99.2902 359.915 100.271 359.915C101.252 359.915 102.047 360.71 102.047 361.691ZM132.948 330.79C133.929 330.79 134.724 329.995 134.724 329.014C134.724 328.033 133.929 327.238 132.948 327.238C131.967 327.238 131.172 328.033 131.172 329.014C131.172 329.995 131.967 330.79 132.948 330.79ZM134.724 361.691C134.724 362.672 133.929 363.467 132.948 363.467C131.967 363.467 131.172 362.672 131.172 361.691C131.172 360.71 131.967 359.915 132.948 359.915C133.929 359.915 134.724 360.71 134.724 361.691ZM165.626 330.79C166.606 330.79 167.401 329.995 167.401 329.014C167.401 328.033 166.606 327.238 165.626 327.238C164.645 327.238 163.85 328.033 163.85 329.014C163.85 329.995 164.645 330.79 165.626 330.79ZM167.401 361.691C167.401 362.672 166.606 363.467 165.626 363.467C164.645 363.467 163.85 362.672 163.85 361.691C163.85 360.71 164.645 359.915 165.626 359.915C166.606 359.915 167.401 360.71 167.401 361.691ZM198.303 330.79C199.284 330.79 200.079 329.995 200.079 329.014C200.079 328.033 199.284 327.238 198.303 327.238C197.322 327.238 196.527 328.033 196.527 329.014C196.527 329.995 197.322 330.79 198.303 330.79ZM200.079 361.691C200.079 362.672 199.284 363.467 198.303 363.467C197.322 363.467 196.527 362.672 196.527 361.691C196.527 360.71 197.322 359.915 198.303 359.915C199.284 359.915 200.079 360.71 200.079 361.691ZM4.01573 165.629C4.01573 166.609 3.22062 167.405 2.2398 167.405C1.25898 167.405 0.463867 166.609 0.463867 165.629C0.463867 164.648 1.25898 163.853 2.2398 163.853C3.22062 163.853 4.01573 164.648 4.01573 165.629ZM34.9166 134.727C35.8974 134.727 36.6925 133.932 36.6925 132.951C36.6925 131.971 35.8974 131.176 34.9166 131.176C33.9357 131.176 33.1406 131.971 33.1406 132.951C33.1406 133.932 33.9357 134.727 34.9166 134.727ZM36.6925 165.629C36.6925 166.609 35.8974 167.405 34.9166 167.405C33.9357 167.405 33.1406 166.609 33.1406 165.629C33.1406 164.648 33.9357 163.853 34.9166 163.853C35.8974 163.853 36.6925 164.648 36.6925 165.629ZM67.5943 134.727C68.5751 134.727 69.3702 133.932 69.3702 132.951C69.3702 131.971 68.5751 131.176 67.5943 131.176C66.6135 131.176 65.8184 131.971 65.8184 132.951C65.8184 133.932 66.6135 134.727 67.5943 134.727ZM69.3702 165.629C69.3702 166.609 68.5751 167.405 67.5943 167.405C66.6135 167.405 65.8184 166.609 65.8184 165.629C65.8184 164.648 66.6135 163.853 67.5943 163.853C68.5751 163.853 69.3702 164.648 69.3702 165.629ZM100.271 134.727C101.252 134.727 102.047 133.932 102.047 132.951C102.047 131.971 101.252 131.176 100.271 131.176C99.2902 131.176 98.4951 131.971 98.4951 132.951C98.4951 133.932 99.2902 134.727 100.271 134.727ZM102.047 165.629C102.047 166.609 101.252 167.405 100.271 167.405C99.2902 167.405 98.4951 166.609 98.4951 165.629C98.4951 164.648 99.2902 163.853 100.271 163.853C101.252 163.853 102.047 164.648 102.047 165.629ZM132.948 134.727C133.929 134.727 134.724 133.932 134.724 132.951C134.724 131.971 133.929 131.176 132.948 131.176C131.967 131.176 131.172 131.971 131.172 132.951C131.172 133.932 131.967 134.727 132.948 134.727ZM134.724 165.629C134.724 166.609 133.929 167.405 132.948 167.405C131.967 167.405 131.172 166.609 131.172 165.629C131.172 164.648 131.967 163.853 132.948 163.853C133.929 163.853 134.724 164.648 134.724 165.629ZM165.626 134.727C166.606 134.727 167.401 133.932 167.401 132.951C167.401 131.971 166.606 131.176 165.626 131.176C164.645 131.176 163.85 131.971 163.85 132.951C163.85 133.932 164.645 134.727 165.626 134.727ZM167.401 165.629C167.401 166.609 166.606 167.405 165.626 167.405C164.645 167.405 163.85 166.609 163.85 165.629C163.85 164.648 164.645 163.853 165.626 163.853C166.606 163.853 167.401 164.648 167.401 165.629ZM198.303 134.727C199.284 134.727 200.079 133.932 200.079 132.951C200.079 131.971 199.284 131.176 198.303 131.176C197.322 131.176 196.527 131.971 196.527 132.951C196.527 133.932 197.322 134.727 198.303 134.727ZM200.079 165.629C200.079 166.609 199.284 167.405 198.303 167.405C197.322 167.405 196.527 166.609 196.527 165.629C196.527 164.648 197.322 163.853 198.303 163.853C199.284 163.853 200.079 164.648 200.079 165.629ZM2.2398 200.082C3.22062 200.082 4.01573 199.287 4.01573 198.306C4.01573 197.325 3.22062 196.53 2.2398 196.53C1.25898 196.53 0.463867 197.325 0.463867 198.306C0.463867 199.287 1.25898 200.082 2.2398 200.082ZM4.01573 230.983C4.01573 231.964 3.22062 232.759 2.2398 232.759C1.25898 232.759 0.463867 231.964 0.463867 230.983C0.463867 230.002 1.25898 229.207 2.2398 229.207C3.22062 229.207 4.01573 230.002 4.01573 230.983ZM34.9166 200.082C35.8974 200.082 36.6925 199.287 36.6925 198.306C36.6925 197.325 35.8974 196.53 34.9166 196.53C33.9357 196.53 33.1406 197.325 33.1406 198.306C33.1406 199.287 33.9357 200.082 34.9166 200.082ZM36.6925 230.983C36.6925 231.964 35.8974 232.759 34.9166 232.759C33.9357 232.759 33.1406 231.964 33.1406 230.983C33.1406 230.002 33.9357 229.207 34.9166 229.207C35.8974 229.207 36.6925 230.002 36.6925 230.983ZM67.5943 200.082C68.5751 200.082 69.3702 199.287 69.3702 198.306C69.3702 197.325 68.5751 196.53 67.5943 196.53C66.6135 196.53 65.8184 197.325 65.8184 198.306C65.8184 199.287 66.6135 200.082 67.5943 200.082ZM69.3702 230.983C69.3702 231.964 68.5751 232.759 67.5943 232.759C66.6135 232.759 65.8184 231.964 65.8184 230.983C65.8184 230.002 66.6135 229.207 67.5943 229.207C68.5751 229.207 69.3702 230.002 69.3702 230.983ZM100.271 200.082C101.252 200.082 102.047 199.287 102.047 198.306C102.047 197.325 101.252 196.53 100.271 196.53C99.2902 196.53 98.4951 197.325 98.4951 198.306C98.4951 199.287 99.2902 200.082 100.271 200.082ZM102.047 230.983C102.047 231.964 101.252 232.759 100.271 232.759C99.2902 232.759 98.4951 231.964 98.4951 230.983C98.4951 230.002 99.2902 229.207 100.271 229.207C101.252 229.207 102.047 230.002 102.047 230.983ZM132.948 200.082C133.929 200.082 134.724 199.287 134.724 198.306C134.724 197.325 133.929 196.53 132.948 196.53C131.967 196.53 131.172 197.325 131.172 198.306C131.172 199.287 131.967 200.082 132.948 200.082ZM134.724 230.983C134.724 231.964 133.929 232.759 132.948 232.759C131.967 232.759 131.172 231.964 131.172 230.983C131.172 230.002 131.967 229.207 132.948 229.207C133.929 229.207 134.724 230.002 134.724 230.983ZM165.626 200.082C166.606 200.082 167.401 199.287 167.401 198.306C167.401 197.325 166.606 196.53 165.626 196.53C164.645 196.53 163.85 197.325 163.85 198.306C163.85 199.287 164.645 200.082 165.626 200.082ZM167.401 230.983C167.401 231.964 166.606 232.759 165.626 232.759C164.645 232.759 163.85 231.964 163.85 230.983C163.85 230.002 164.645 229.207 165.626 229.207C166.606 229.207 167.401 230.002 167.401 230.983ZM198.303 200.082C199.284 200.082 200.079 199.287 200.079 198.306C200.079 197.325 199.284 196.53 198.303 196.53C197.322 196.53 196.527 197.325 196.527 198.306C196.527 199.287 197.322 200.082 198.303 200.082ZM200.079 230.983C200.079 231.964 199.284 232.759 198.303 232.759C197.322 232.759 196.527 231.964 196.527 230.983C196.527 230.002 197.322 229.207 198.303 229.207C199.284 229.207 200.079 230.002 200.079 230.983ZM2.2398 265.436C3.22062 265.436 4.01573 264.641 4.01573 263.66C4.01573 262.679 3.22062 261.884 2.2398 261.884C1.25898 261.884 0.463867 262.679 0.463867 263.66C0.463867 264.641 1.25898 265.436 2.2398 265.436ZM36.6925 263.66C36.6925 264.641 35.8974 265.436 34.9166 265.436C33.9357 265.436 33.1406 264.641 33.1406 263.66C33.1406 262.679 33.9357 261.884 34.9166 261.884C35.8974 261.884 36.6925 262.679 36.6925 263.66ZM67.5943 265.436C68.5751 265.436 69.3702 264.641 69.3702 263.66C69.3702 262.679 68.5751 261.884 67.5943 261.884C66.6135 261.884 65.8184 262.679 65.8184 263.66C65.8184 264.641 66.6135 265.436 67.5943 265.436ZM102.047 263.66C102.047 264.641 101.252 265.436 100.271 265.436C99.2902 265.436 98.4951 264.641 98.4951 263.66C98.4951 262.679 99.2902 261.884 100.271 261.884C101.252 261.884 102.047 262.679 102.047 263.66ZM132.948 265.436C133.929 265.436 134.724 264.641 134.724 263.66C134.724 262.679 133.929 261.884 132.948 261.884C131.967 261.884 131.172 262.679 131.172 263.66C131.172 264.641 131.967 265.436 132.948 265.436ZM167.401 263.66C167.401 264.641 166.606 265.436 165.626 265.436C164.645 265.436 163.85 264.641 163.85 263.66C163.85 262.679 164.645 261.884 165.626 261.884C166.606 261.884 167.401 262.679 167.401 263.66ZM198.303 265.436C199.284 265.436 200.079 264.641 200.079 263.66C200.079 262.679 199.284 261.884 198.303 261.884C197.322 261.884 196.527 262.679 196.527 263.66C196.527 264.641 197.322 265.436 198.303 265.436ZM2.2398 36.6962C3.22062 36.6962 4.01573 35.9011 4.01573 34.9202C4.01573 33.9394 3.22062 33.1443 2.2398 33.1443C1.25898 33.1443 0.463867 33.9394 0.463867 34.9202C0.463867 35.9011 1.25898 36.6962 2.2398 36.6962ZM36.6925 2.24312C36.6925 3.22394 35.8974 4.01905 34.9166 4.01905C33.9357 4.01905 33.1406 3.22394 33.1406 2.24312C33.1406 1.2623 33.9357 0.467194 34.9166 0.467194C35.8974 0.467194 36.6925 1.2623 36.6925 2.24312ZM34.9166 36.6962C35.8974 36.6962 36.6925 35.9011 36.6925 34.9202C36.6925 33.9394 35.8974 33.1443 34.9166 33.1443C33.9357 33.1443 33.1406 33.9394 33.1406 34.9202C33.1406 35.9011 33.9357 36.6962 34.9166 36.6962ZM69.3702 2.24312C69.3702 3.22394 68.5751 4.01905 67.5943 4.01905C66.6135 4.01905 65.8184 3.22394 65.8184 2.24312C65.8184 1.2623 66.6135 0.467194 67.5943 0.467194C68.5751 0.467194 69.3702 1.2623 69.3702 2.24312ZM67.5943 36.6962C68.5751 36.6962 69.3702 35.9011 69.3702 34.9202C69.3702 33.9394 68.5751 33.1443 67.5943 33.1443C66.6135 33.1443 65.8184 33.9394 65.8184 34.9202C65.8184 35.9011 66.6135 36.6962 67.5943 36.6962ZM102.047 2.24312C102.047 3.22394 101.252 4.01905 100.271 4.01905C99.2902 4.01905 98.4951 3.22394 98.4951 2.24312C98.4951 1.2623 99.2902 0.467194 100.271 0.467194C101.252 0.467194 102.047 1.2623 102.047 2.24312ZM100.271 36.6962C101.252 36.6962 102.047 35.9011 102.047 34.9202C102.047 33.9394 101.252 33.1443 100.271 33.1443C99.2902 33.1443 98.4951 33.9394 98.4951 34.9202C98.4951 35.9011 99.2902 36.6962 100.271 36.6962ZM134.724 2.24312C134.724 3.22394 133.929 4.01905 132.948 4.01905C131.967 4.01905 131.172 3.22394 131.172 2.24312C131.172 1.2623 131.967 0.467194 132.948 0.467194C133.929 0.467194 134.724 1.2623 134.724 2.24312ZM132.948 36.6962C133.929 36.6962 134.724 35.9011 134.724 34.9202C134.724 33.9394 133.929 33.1443 132.948 33.1443C131.967 33.1443 131.172 33.9394 131.172 34.9202C131.172 35.9011 131.967 36.6962 132.948 36.6962ZM167.401 2.24312C167.401 3.22394 166.606 4.01905 165.626 4.01905C164.645 4.01905 163.85 3.22394 163.85 2.24312C163.85 1.2623 164.645 0.467194 165.626 0.467194C166.606 0.467194 167.401 1.2623 167.401 2.24312ZM165.626 36.6962C166.606 36.6962 167.401 35.9011 167.401 34.9202C167.401 33.9394 166.606 33.1443 165.626 33.1443C164.645 33.1443 163.85 33.9394 163.85 34.9202C163.85 35.9011 164.645 36.6962 165.626 36.6962ZM200.079 2.24312C200.079 3.22394 199.284 4.01905 198.303 4.01905C197.322 4.01905 196.527 3.22394 196.527 2.24312C196.527 1.2623 197.322 0.467194 198.303 0.467194C199.284 0.467194 200.079 1.2623 200.079 2.24312ZM198.303 36.6962C199.284 36.6962 200.079 35.9011 200.079 34.9202C200.079 33.9394 199.284 33.1443 198.303 33.1443C197.322 33.1443 196.527 33.9394 196.527 34.9202C196.527 35.9011 197.322 36.6962 198.303 36.6962ZM4.01573 67.5974C4.01573 68.5782 3.22062 69.3733 2.2398 69.3733C1.25898 69.3733 0.463867 68.5782 0.463867 67.5974C0.463867 66.6166 1.25898 65.8214 2.2398 65.8214C3.22062 65.8214 4.01573 66.6166 4.01573 67.5974ZM2.2398 102.05C3.22062 102.05 4.01573 101.255 4.01573 100.274C4.01573 99.2936 3.22062 98.4984 2.2398 98.4984C1.25898 98.4984 0.463867 99.2936 0.463867 100.274C0.463867 101.255 1.25898 102.05 2.2398 102.05ZM36.6925 67.5974C36.6925 68.5782 35.8974 69.3733 34.9166 69.3733C33.9357 69.3733 33.1406 68.5782 33.1406 67.5974C33.1406 66.6166 33.9357 65.8214 34.9166 65.8214C35.8974 65.8214 36.6925 66.6166 36.6925 67.5974ZM34.9166 102.05C35.8974 102.05 36.6925 101.255 36.6925 100.274C36.6925 99.2936 35.8974 98.4984 34.9166 98.4984C33.9357 98.4984 33.1406 99.2936 33.1406 100.274C33.1406 101.255 33.9357 102.05 34.9166 102.05ZM69.3702 67.5974C69.3702 68.5782 68.5751 69.3733 67.5943 69.3733C66.6135 69.3733 65.8184 68.5782 65.8184 67.5974C65.8184 66.6166 66.6135 65.8214 67.5943 65.8214C68.5751 65.8214 69.3702 66.6166 69.3702 67.5974ZM67.5943 102.05C68.5751 102.05 69.3702 101.255 69.3702 100.274C69.3702 99.2936 68.5751 98.4984 67.5943 98.4984C66.6135 98.4984 65.8184 99.2936 65.8184 100.274C65.8184 101.255 66.6135 102.05 67.5943 102.05ZM102.047 67.5974C102.047 68.5782 101.252 69.3733 100.271 69.3733C99.2902 69.3733 98.4951 68.5782 98.4951 67.5974C98.4951 66.6166 99.2902 65.8214 100.271 65.8214C101.252 65.8214 102.047 66.6166 102.047 67.5974ZM100.271 102.05C101.252 102.05 102.047 101.255 102.047 100.274C102.047 99.2936 101.252 98.4984 100.271 98.4984C99.2902 98.4984 98.4951 99.2936 98.4951 100.274C98.4951 101.255 99.2902 102.05 100.271 102.05ZM134.724 67.5974C134.724 68.5782 133.929 69.3733 132.948 69.3733C131.967 69.3733 131.172 68.5782 131.172 67.5974C131.172 66.6166 131.967 65.8214 132.948 65.8214C133.929 65.8214 134.724 66.6166 134.724 67.5974ZM132.948 102.05C133.929 102.05 134.724 101.255 134.724 100.274C134.724 99.2936 133.929 98.4984 132.948 98.4984C131.967 98.4984 131.172 99.2936 131.172 100.274C131.172 101.255 131.967 102.05 132.948 102.05ZM167.401 67.5974C167.401 68.5782 166.606 69.3733 165.626 69.3733C164.645 69.3733 163.85 68.5782 163.85 67.5974C163.85 66.6166 164.645 65.8214 165.626 65.8214C166.606 65.8214 167.401 66.6166 167.401 67.5974ZM165.626 102.05C166.606 102.05 167.401 101.255 167.401 100.274C167.401 99.2936 166.606 98.4984 165.626 98.4984C164.645 98.4984 163.85 99.2936 163.85 100.274C163.85 101.255 164.645 102.05 165.626 102.05ZM200.079 67.5974C200.079 68.5782 199.284 69.3733 198.303 69.3733C197.322 69.3733 196.527 68.5782 196.527 67.5974C196.527 66.6166 197.322 65.8214 198.303 65.8214C199.284 65.8214 200.079 66.6166 200.079 67.5974ZM198.303 102.05C199.284 102.05 200.079 101.255 200.079 100.274C200.079 99.2936 199.284 98.4984 198.303 98.4984C197.322 98.4984 196.527 99.2936 196.527 100.274C196.527 101.255 197.322 102.05 198.303 102.05Z" fill="url(#paint0_linear_701_493)"/>
<defs>
<linearGradient id="paint0_linear_701_493" x1="-18.4513" y1="0.467194" x2="-18.4513" y2="359.967" gradientUnits="userSpaceOnUse">
<stop stop-color="white" stop-opacity="0"/>
<stop offset="1" stop-color="#DE3C4B"/>
</linearGradient>
</defs>
</svg>
