<svg width="32" height="32" viewBox="0 0 32 32" fill="none" xmlns="http://www.w3.org/2000/svg">
<g clip-path="url(#clip0_415_373)">
<rect width="32" height="32" fill="white"/>
<rect width="32" height="32" fill="#DE3C4B"/>
<path d="M13.2607 13C13.8482 13.5708 14.1781 14.344 14.1781 15.15C14.1781 15.956 13.8482 16.7291 13.2607 17.3L9.4123 21.0266C8.50802 21.9025 8 23.0905 8 24.3293C8 25.568 8.50802 26.7561 9.4123 27.632C10.3166 28.5079 11.5431 29 12.8219 29C14.1007 29 15.3272 28.5079 16.2315 27.632L20.0788 23.9053C20.3708 23.6226 20.6025 23.287 20.7606 22.9175C20.9186 22.548 21 22.152 21 21.7521C21 21.3521 20.9186 20.9561 20.7606 20.5866C20.6025 20.2172 20.3708 19.8815 20.0788 19.5988L17.3993 17.01C17.9886 17.5812 18.3196 18.3557 18.3196 19.1633C18.3196 19.9708 17.9886 20.7453 17.3993 21.3166L13.9414 24.6661C13.675 24.9241 13.0035 25.0233 12.5573 24.5911C12.1111 24.1589 12.2158 23.5084 12.4799 23.2493L15.9378 19.9009C16.5271 19.3296 16.8581 18.5551 16.8581 17.7476C16.8581 16.94 16.5271 16.1655 15.9378 15.5943L15.4825 15.1533L13.2607 13Z" fill="white"/>
<path opacity="0.6" d="M18.7401 19C18.1525 18.4292 17.8226 17.656 17.8226 16.85C17.8226 16.044 18.1525 15.2709 18.7401 14.7L22.5876 10.9734C23.4919 10.0975 24 8.90947 24 7.67072C24 6.43196 23.4919 5.24395 22.5876 4.36802C21.6832 3.49209 20.4567 3 19.1777 3C17.8988 3 16.6723 3.49209 15.7679 4.36802L11.9204 8.09465C11.331 8.66589 11 9.44039 11 10.2479C11 11.0555 11.331 11.83 11.9204 12.4012L14.6 14.99C14.3079 14.7073 14.0762 14.3716 13.9181 14.0022C13.76 13.6327 13.6787 13.2367 13.6787 12.8367C13.6787 12.4368 13.76 12.0408 13.9181 11.6713C14.0762 11.3018 14.3079 10.9661 14.6 10.6834L18.0571 7.33389C18.3246 7.07589 18.9962 6.97666 19.4424 7.40886C19.8886 7.84106 19.7839 8.49156 19.5198 8.75066L16.0616 12.0991C15.7695 12.3818 15.5378 12.7175 15.3797 13.087C15.2216 13.4564 15.1403 13.8525 15.1403 14.2524C15.1403 14.6523 15.2216 15.0484 15.3797 15.4178C15.5378 15.7873 15.7695 16.123 16.0616 16.4057L16.5169 16.8467L18.7401 19Z" fill="white"/>
</g>
<defs>
<clipPath id="clip0_415_373">
<rect width="32" height="32" fill="white"/>
</clipPath>
</defs>
</svg>
