<svg width="233" height="363" viewBox="0 0 233 363" fill="none" xmlns="http://www.w3.org/2000/svg">
<path fill-rule="evenodd" clip-rule="evenodd" d="M3.55186 1.77593C3.55186 2.75675 2.75674 3.55186 1.77592 3.55186C0.795105 3.55186 0 2.75675 0 1.77593C0 0.795113 0.795105 0 1.77592 0C2.75674 0 3.55186 0.795113 3.55186 1.77593ZM1.77592 134.26C2.75674 134.26 3.55186 133.465 3.55186 132.484C3.55186 131.503 2.75674 130.708 1.77592 130.708C0.795105 130.708 0 131.503 0 132.484C0 133.465 0.795105 134.26 1.77592 134.26ZM1.77592 297.646C2.75674 297.646 3.55186 296.851 3.55186 295.87C3.55186 294.889 2.75674 294.094 1.77592 294.094C0.795105 294.094 0 294.889 0 295.87C0 296.851 0.795105 297.646 1.77592 297.646ZM34.4537 297.646C35.4345 297.646 36.2296 296.851 36.2296 295.87C36.2296 294.889 35.4345 294.094 34.4537 294.094C33.4728 294.094 32.6777 294.889 32.6777 295.87C32.6777 296.851 33.4728 297.646 34.4537 297.646ZM68.9064 295.87C68.9064 296.851 68.1112 297.646 67.1304 297.646C66.1496 297.646 65.3545 296.851 65.3545 295.87C65.3545 294.889 66.1496 294.094 67.1304 294.094C68.1112 294.094 68.9064 294.889 68.9064 295.87ZM99.8072 297.646C100.788 297.646 101.583 296.851 101.583 295.87C101.583 294.889 100.788 294.094 99.8072 294.094C98.8264 294.094 98.0312 294.889 98.0312 295.87C98.0312 296.851 98.8264 297.646 99.8072 297.646ZM134.261 295.87C134.261 296.851 133.466 297.646 132.485 297.646C131.504 297.646 130.709 296.851 130.709 295.87C130.709 294.889 131.504 294.094 132.485 294.094C133.466 294.094 134.261 294.889 134.261 295.87ZM1.77592 330.323C2.75674 330.323 3.55186 329.528 3.55186 328.547C3.55186 327.566 2.75674 326.771 1.77592 326.771C0.795105 326.771 0 327.566 0 328.547C0 329.528 0.795105 330.323 1.77592 330.323ZM3.55186 361.224C3.55186 362.205 2.75674 363 1.77592 363C0.795105 363 0 362.205 0 361.224C0 360.243 0.795105 359.448 1.77592 359.448C2.75674 359.448 3.55186 360.243 3.55186 361.224ZM34.4537 330.323C35.4345 330.323 36.2296 329.528 36.2296 328.547C36.2296 327.566 35.4345 326.771 34.4537 326.771C33.4728 326.771 32.6777 327.566 32.6777 328.547C32.6777 329.528 33.4728 330.323 34.4537 330.323ZM36.2296 361.224C36.2296 362.205 35.4345 363 34.4537 363C33.4728 363 32.6777 362.205 32.6777 361.224C32.6777 360.243 33.4728 359.448 34.4537 359.448C35.4345 359.448 36.2296 360.243 36.2296 361.224ZM67.1304 330.323C68.1112 330.323 68.9064 329.528 68.9064 328.547C68.9064 327.566 68.1112 326.771 67.1304 326.771C66.1496 326.771 65.3545 327.566 65.3545 328.547C65.3545 329.528 66.1496 330.323 67.1304 330.323ZM68.9064 361.224C68.9064 362.205 68.1112 363 67.1304 363C66.1496 363 65.3545 362.205 65.3545 361.224C65.3545 360.243 66.1496 359.448 67.1304 359.448C68.1112 359.448 68.9064 360.243 68.9064 361.224ZM99.8072 330.323C100.788 330.323 101.583 329.528 101.583 328.547C101.583 327.566 100.788 326.771 99.8072 326.771C98.8264 326.771 98.0312 327.566 98.0312 328.547C98.0312 329.528 98.8264 330.323 99.8072 330.323ZM101.583 361.224C101.583 362.205 100.788 363 99.8072 363C98.8264 363 98.0312 362.205 98.0312 361.224C98.0312 360.243 98.8264 359.448 99.8072 359.448C100.788 359.448 101.583 360.243 101.583 361.224ZM132.485 330.323C133.466 330.323 134.261 329.528 134.261 328.547C134.261 327.566 133.466 326.771 132.485 326.771C131.504 326.771 130.709 327.566 130.709 328.547C130.709 329.528 131.504 330.323 132.485 330.323ZM134.261 361.224C134.261 362.205 133.466 363 132.485 363C131.504 363 130.709 362.205 130.709 361.224C130.709 360.243 131.504 359.448 132.485 359.448C133.466 359.448 134.261 360.243 134.261 361.224ZM3.55186 165.161C3.55186 166.142 2.75674 166.937 1.77592 166.937C0.795105 166.937 0 166.142 0 165.161C0 164.181 0.795105 163.385 1.77592 163.385C2.75674 163.385 3.55186 164.181 3.55186 165.161ZM34.4537 134.26C35.4345 134.26 36.2296 133.465 36.2296 132.484C36.2296 131.503 35.4345 130.708 34.4537 130.708C33.4728 130.708 32.6777 131.503 32.6777 132.484C32.6777 133.465 33.4728 134.26 34.4537 134.26ZM36.2296 165.161C36.2296 166.142 35.4345 166.937 34.4537 166.937C33.4728 166.937 32.6777 166.142 32.6777 165.161C32.6777 164.181 33.4728 163.385 34.4537 163.385C35.4345 163.385 36.2296 164.181 36.2296 165.161ZM67.1304 134.26C68.1112 134.26 68.9064 133.465 68.9064 132.484C68.9064 131.503 68.1112 130.708 67.1304 130.708C66.1496 130.708 65.3545 131.503 65.3545 132.484C65.3545 133.465 66.1496 134.26 67.1304 134.26ZM68.9064 165.161C68.9064 166.142 68.1112 166.937 67.1304 166.937C66.1496 166.937 65.3545 166.142 65.3545 165.161C65.3545 164.181 66.1496 163.385 67.1304 163.385C68.1112 163.385 68.9064 164.181 68.9064 165.161ZM99.8072 134.26C100.788 134.26 101.583 133.465 101.583 132.484C101.583 131.503 100.788 130.708 99.8072 130.708C98.8264 130.708 98.0312 131.503 98.0312 132.484C98.0312 133.465 98.8264 134.26 99.8072 134.26ZM101.583 165.161C101.583 166.142 100.788 166.937 99.8072 166.937C98.8264 166.937 98.0312 166.142 98.0312 165.161C98.0312 164.181 98.8264 163.385 99.8072 163.385C100.788 163.385 101.583 164.181 101.583 165.161ZM132.485 134.26C133.466 134.26 134.261 133.465 134.261 132.484C134.261 131.503 133.466 130.708 132.485 130.708C131.504 130.708 130.709 131.503 130.709 132.484C130.709 133.465 131.504 134.26 132.485 134.26ZM134.261 165.161C134.261 166.142 133.466 166.937 132.485 166.937C131.504 166.937 130.709 166.142 130.709 165.161C130.709 164.181 131.504 163.385 132.485 163.385C133.466 163.385 134.261 164.181 134.261 165.161ZM1.77592 199.614C2.75674 199.614 3.55186 198.819 3.55186 197.839C3.55186 196.858 2.75674 196.063 1.77592 196.063C0.795105 196.063 0 196.858 0 197.839C0 198.819 0.795105 199.614 1.77592 199.614ZM3.55186 230.516C3.55186 231.496 2.75674 232.292 1.77592 232.292C0.795105 232.292 0 231.496 0 230.516C0 229.535 0.795105 228.74 1.77592 228.74C2.75674 228.74 3.55186 229.535 3.55186 230.516ZM34.4537 199.614C35.4345 199.614 36.2296 198.819 36.2296 197.839C36.2296 196.858 35.4345 196.063 34.4537 196.063C33.4728 196.063 32.6777 196.858 32.6777 197.839C32.6777 198.819 33.4728 199.614 34.4537 199.614ZM36.2296 230.516C36.2296 231.496 35.4345 232.292 34.4537 232.292C33.4728 232.292 32.6777 231.496 32.6777 230.516C32.6777 229.535 33.4728 228.74 34.4537 228.74C35.4345 228.74 36.2296 229.535 36.2296 230.516ZM67.1304 199.614C68.1112 199.614 68.9064 198.819 68.9064 197.839C68.9064 196.858 68.1112 196.063 67.1304 196.063C66.1496 196.063 65.3545 196.858 65.3545 197.839C65.3545 198.819 66.1496 199.614 67.1304 199.614ZM68.9064 230.516C68.9064 231.496 68.1112 232.292 67.1304 232.292C66.1496 232.292 65.3545 231.496 65.3545 230.516C65.3545 229.535 66.1496 228.74 67.1304 228.74C68.1112 228.74 68.9064 229.535 68.9064 230.516ZM99.8072 199.614C100.788 199.614 101.583 198.819 101.583 197.839C101.583 196.858 100.788 196.063 99.8072 196.063C98.8264 196.063 98.0312 196.858 98.0312 197.839C98.0312 198.819 98.8264 199.614 99.8072 199.614ZM101.583 230.516C101.583 231.496 100.788 232.292 99.8072 232.292C98.8264 232.292 98.0312 231.496 98.0312 230.516C98.0312 229.535 98.8264 228.74 99.8072 228.74C100.788 228.74 101.583 229.535 101.583 230.516ZM132.485 199.614C133.466 199.614 134.261 198.819 134.261 197.839C134.261 196.858 133.466 196.063 132.485 196.063C131.504 196.063 130.709 196.858 130.709 197.839C130.709 198.819 131.504 199.614 132.485 199.614ZM134.261 230.516C134.261 231.496 133.466 232.292 132.485 232.292C131.504 232.292 130.709 231.496 130.709 230.516C130.709 229.535 131.504 228.74 132.485 228.74C133.466 228.74 134.261 229.535 134.261 230.516ZM1.77592 264.969C2.75674 264.969 3.55186 264.174 3.55186 263.193C3.55186 262.212 2.75674 261.417 1.77592 261.417C0.795105 261.417 0 262.212 0 263.193C0 264.174 0.795105 264.969 1.77592 264.969ZM36.2296 263.193C36.2296 264.174 35.4345 264.969 34.4537 264.969C33.4728 264.969 32.6777 264.174 32.6777 263.193C32.6777 262.212 33.4728 261.417 34.4537 261.417C35.4345 261.417 36.2296 262.212 36.2296 263.193ZM67.1304 264.969C68.1112 264.969 68.9064 264.174 68.9064 263.193C68.9064 262.212 68.1112 261.417 67.1304 261.417C66.1496 261.417 65.3545 262.212 65.3545 263.193C65.3545 264.174 66.1496 264.969 67.1304 264.969ZM101.583 263.193C101.583 264.174 100.788 264.969 99.8072 264.969C98.8264 264.969 98.0312 264.174 98.0312 263.193C98.0312 262.212 98.8264 261.417 99.8072 261.417C100.788 261.417 101.583 262.212 101.583 263.193ZM132.485 264.969C133.466 264.969 134.261 264.174 134.261 263.193C134.261 262.212 133.466 261.417 132.485 261.417C131.504 261.417 130.709 262.212 130.709 263.193C130.709 264.174 131.504 264.969 132.485 264.969ZM1.77592 36.229C2.75674 36.229 3.55186 35.4339 3.55186 34.4531C3.55186 33.4722 2.75674 32.6771 1.77592 32.6771C0.795105 32.6771 0 33.4722 0 34.4531C0 35.4339 0.795105 36.229 1.77592 36.229ZM36.2296 1.77593C36.2296 2.75675 35.4345 3.55186 34.4537 3.55186C33.4728 3.55186 32.6777 2.75675 32.6777 1.77593C32.6777 0.795113 33.4728 0 34.4537 0C35.4345 0 36.2296 0.795113 36.2296 1.77593ZM34.4537 36.229C35.4345 36.229 36.2296 35.4339 36.2296 34.4531C36.2296 33.4722 35.4345 32.6771 34.4537 32.6771C33.4728 32.6771 32.6777 33.4722 32.6777 34.4531C32.6777 35.4339 33.4728 36.229 34.4537 36.229ZM68.9064 1.77593C68.9064 2.75675 68.1112 3.55186 67.1304 3.55186C66.1496 3.55186 65.3545 2.75675 65.3545 1.77593C65.3545 0.795113 66.1496 0 67.1304 0C68.1112 0 68.9064 0.795113 68.9064 1.77593ZM67.1304 36.229C68.1112 36.229 68.9064 35.4339 68.9064 34.4531C68.9064 33.4722 68.1112 32.6771 67.1304 32.6771C66.1496 32.6771 65.3545 33.4722 65.3545 34.4531C65.3545 35.4339 66.1496 36.229 67.1304 36.229ZM101.583 1.77593C101.583 2.75675 100.788 3.55186 99.8072 3.55186C98.8264 3.55186 98.0312 2.75675 98.0312 1.77593C98.0312 0.795113 98.8264 0 99.8072 0C100.788 0 101.583 0.795113 101.583 1.77593ZM99.8072 36.229C100.788 36.229 101.583 35.4339 101.583 34.4531C101.583 33.4722 100.788 32.6771 99.8072 32.6771C98.8264 32.6771 98.0312 33.4722 98.0312 34.4531C98.0312 35.4339 98.8264 36.229 99.8072 36.229ZM134.261 1.77593C134.261 2.75675 133.466 3.55186 132.485 3.55186C131.504 3.55186 130.709 2.75675 130.709 1.77593C130.709 0.795113 131.504 0 132.485 0C133.466 0 134.261 0.795113 134.261 1.77593ZM132.485 36.229C133.466 36.229 134.261 35.4339 134.261 34.4531C134.261 33.4722 133.466 32.6771 132.485 32.6771C131.504 32.6771 130.709 33.4722 130.709 34.4531C130.709 35.4339 131.504 36.229 132.485 36.229ZM3.55186 67.1302C3.55186 68.111 2.75674 68.9061 1.77592 68.9061C0.795105 68.9061 0 68.111 0 67.1302C0 66.1494 0.795105 65.3542 1.77592 65.3542C2.75674 65.3542 3.55186 66.1494 3.55186 67.1302ZM1.77592 101.583C2.75674 101.583 3.55186 100.788 3.55186 99.8072C3.55186 98.8264 2.75674 98.0312 1.77592 98.0312C0.795105 98.0312 0 98.8264 0 99.8072C0 100.788 0.795105 101.583 1.77592 101.583ZM36.2296 67.1302C36.2296 68.111 35.4345 68.9061 34.4537 68.9061C33.4728 68.9061 32.6777 68.111 32.6777 67.1302C32.6777 66.1494 33.4728 65.3542 34.4537 65.3542C35.4345 65.3542 36.2296 66.1494 36.2296 67.1302ZM34.4537 101.583C35.4345 101.583 36.2296 100.788 36.2296 99.8072C36.2296 98.8264 35.4345 98.0312 34.4537 98.0312C33.4728 98.0312 32.6777 98.8264 32.6777 99.8072C32.6777 100.788 33.4728 101.583 34.4537 101.583ZM68.9064 67.1302C68.9064 68.111 68.1112 68.9061 67.1304 68.9061C66.1496 68.9061 65.3545 68.111 65.3545 67.1302C65.3545 66.1494 66.1496 65.3542 67.1304 65.3542C68.1112 65.3542 68.9064 66.1494 68.9064 67.1302ZM67.1304 101.583C68.1112 101.583 68.9064 100.788 68.9064 99.8072C68.9064 98.8264 68.1112 98.0312 67.1304 98.0312C66.1496 98.0312 65.3545 98.8264 65.3545 99.8072C65.3545 100.788 66.1496 101.583 67.1304 101.583ZM101.583 67.1302C101.583 68.111 100.788 68.9061 99.8072 68.9061C98.8264 68.9061 98.0312 68.111 98.0312 67.1302C98.0312 66.1494 98.8264 65.3542 99.8072 65.3542C100.788 65.3542 101.583 66.1494 101.583 67.1302ZM99.8072 101.583C100.788 101.583 101.583 100.788 101.583 99.8072C101.583 98.8264 100.788 98.0312 99.8072 98.0312C98.8264 98.0312 98.0312 98.8264 98.0312 99.8072C98.0312 100.788 98.8264 101.583 99.8072 101.583ZM134.261 67.1302C134.261 68.111 133.466 68.9061 132.485 68.9061C131.504 68.9061 130.709 68.111 130.709 67.1302C130.709 66.1494 131.504 65.3542 132.485 65.3542C133.466 65.3542 134.261 66.1494 134.261 67.1302ZM132.485 101.583C133.466 101.583 134.261 100.788 134.261 99.8072C134.261 98.8264 133.466 98.0312 132.485 98.0312C131.504 98.0312 130.709 98.8264 130.709 99.8072C130.709 100.788 131.504 101.583 132.485 101.583ZM166.938 295.87C166.938 296.851 166.142 297.646 165.162 297.646C164.181 297.646 163.386 296.851 163.386 295.87C163.386 294.889 164.181 294.094 165.162 294.094C166.142 294.094 166.938 294.889 166.938 295.87ZM197.838 297.646C198.819 297.646 199.614 296.851 199.614 295.87C199.614 294.889 198.819 294.094 197.838 294.094C196.858 294.094 196.062 294.889 196.062 295.87C196.062 296.851 196.858 297.646 197.838 297.646ZM166.938 328.547C166.938 329.528 166.142 330.323 165.162 330.323C164.181 330.323 163.386 329.528 163.386 328.547C163.386 327.566 164.181 326.771 165.162 326.771C166.142 326.771 166.938 327.566 166.938 328.547ZM165.162 363C166.142 363 166.938 362.205 166.938 361.224C166.938 360.243 166.142 359.448 165.162 359.448C164.181 359.448 163.386 360.243 163.386 361.224C163.386 362.205 164.181 363 165.162 363ZM199.614 328.547C199.614 329.528 198.819 330.323 197.838 330.323C196.858 330.323 196.062 329.528 196.062 328.547C196.062 327.566 196.858 326.771 197.838 326.771C198.819 326.771 199.614 327.566 199.614 328.547ZM197.838 363C198.819 363 199.614 362.205 199.614 361.224C199.614 360.243 198.819 359.448 197.838 359.448C196.858 359.448 196.062 360.243 196.062 361.224C196.062 362.205 196.858 363 197.838 363ZM166.938 132.484C166.938 133.465 166.142 134.26 165.162 134.26C164.181 134.26 163.386 133.465 163.386 132.484C163.386 131.503 164.181 130.708 165.162 130.708C166.142 130.708 166.938 131.503 166.938 132.484ZM165.162 166.937C166.142 166.937 166.938 166.142 166.938 165.161C166.938 164.181 166.142 163.385 165.162 163.385C164.181 163.385 163.386 164.181 163.386 165.161C163.386 166.142 164.181 166.937 165.162 166.937ZM199.614 132.484C199.614 133.465 198.819 134.26 197.838 134.26C196.858 134.26 196.062 133.465 196.062 132.484C196.062 131.503 196.858 130.708 197.838 130.708C198.819 130.708 199.614 131.503 199.614 132.484ZM197.838 166.937C198.819 166.937 199.614 166.142 199.614 165.161C199.614 164.181 198.819 163.385 197.838 163.385C196.858 163.385 196.062 164.181 196.062 165.161C196.062 166.142 196.858 166.937 197.838 166.937ZM166.938 197.839C166.938 198.819 166.142 199.614 165.162 199.614C164.181 199.614 163.386 198.819 163.386 197.839C163.386 196.858 164.181 196.063 165.162 196.063C166.142 196.063 166.938 196.858 166.938 197.839ZM165.162 232.292C166.142 232.292 166.938 231.496 166.938 230.516C166.938 229.535 166.142 228.74 165.162 228.74C164.181 228.74 163.386 229.535 163.386 230.516C163.386 231.496 164.181 232.292 165.162 232.292ZM199.614 197.839C199.614 198.819 198.819 199.614 197.838 199.614C196.858 199.614 196.062 198.819 196.062 197.839C196.062 196.858 196.858 196.063 197.838 196.063C198.819 196.063 199.614 196.858 199.614 197.839ZM197.838 232.292C198.819 232.292 199.614 231.496 199.614 230.516C199.614 229.535 198.819 228.74 197.838 228.74C196.858 228.74 196.062 229.535 196.062 230.516C196.062 231.496 196.858 232.292 197.838 232.292ZM166.938 263.193C166.938 264.174 166.142 264.969 165.162 264.969C164.181 264.969 163.386 264.174 163.386 263.193C163.386 262.212 164.181 261.417 165.162 261.417C166.142 261.417 166.938 262.212 166.938 263.193ZM197.838 264.969C198.819 264.969 199.614 264.174 199.614 263.193C199.614 262.212 198.819 261.417 197.838 261.417C196.858 261.417 196.062 262.212 196.062 263.193C196.062 264.174 196.858 264.969 197.838 264.969ZM166.938 1.77593C166.938 2.75675 166.142 3.55186 165.162 3.55186C164.181 3.55186 163.386 2.75675 163.386 1.77593C163.386 0.795113 164.181 0 165.162 0C166.142 0 166.938 0.795113 166.938 1.77593ZM165.162 36.229C166.142 36.229 166.938 35.4339 166.938 34.4531C166.938 33.4722 166.142 32.6771 165.162 32.6771C164.181 32.6771 163.386 33.4722 163.386 34.4531C163.386 35.4339 164.181 36.229 165.162 36.229ZM199.614 1.77593C199.614 2.75675 198.819 3.55186 197.838 3.55186C196.858 3.55186 196.062 2.75675 196.062 1.77593C196.062 0.795113 196.858 0 197.838 0C198.819 0 199.614 0.795113 199.614 1.77593ZM197.838 36.229C198.819 36.229 199.614 35.4339 199.614 34.4531C199.614 33.4722 198.819 32.6771 197.838 32.6771C196.858 32.6771 196.062 33.4722 196.062 34.4531C196.062 35.4339 196.858 36.229 197.838 36.229ZM166.938 67.1302C166.938 68.111 166.142 68.9061 165.162 68.9061C164.181 68.9061 163.386 68.111 163.386 67.1302C163.386 66.1494 164.181 65.3542 165.162 65.3542C166.142 65.3542 166.938 66.1494 166.938 67.1302ZM165.162 101.583C166.142 101.583 166.938 100.788 166.938 99.8072C166.938 98.8264 166.142 98.0312 165.162 98.0312C164.181 98.0312 163.386 98.8264 163.386 99.8072C163.386 100.788 164.181 101.583 165.162 101.583ZM199.614 67.1302C199.614 68.111 198.819 68.9061 197.838 68.9061C196.858 68.9061 196.062 68.111 196.062 67.1302C196.062 66.1494 196.858 65.3542 197.838 65.3542C198.819 65.3542 199.614 66.1494 199.614 67.1302ZM197.838 101.583C198.819 101.583 199.614 100.788 199.614 99.8072C199.614 98.8264 198.819 98.0312 197.838 98.0312C196.858 98.0312 196.062 98.8264 196.062 99.8072C196.062 100.788 196.858 101.583 197.838 101.583Z" fill="url(#paint0_linear_510_530)"/>
<defs>
<linearGradient id="paint0_linear_510_530" x1="-18.9151" y1="4.48836e-07" x2="-18.9151" y2="359.5" gradientUnits="userSpaceOnUse">
<stop stop-color="white"/>
<stop offset="1" stop-color="#DE3C4B"/>
</linearGradient>
</defs>
</svg>
