<svg viewBox="0 0 331 45" fill="none" xmlns="http://www.w3.org/2000/svg">
<circle cx="1.77593" cy="1.77593" r="1.77593" fill="white"/>
<circle cx="34.4532" cy="1.77593" r="1.77593" fill="white"/>
<circle cx="67.1299" cy="1.77593" r="1.77593" fill="white"/>
<circle cx="99.8072" cy="1.77593" r="1.77593" fill="white"/>
<circle cx="132.484" cy="1.77593" r="1.77593" fill="white"/>
<circle cx="165.162" cy="1.77593" r="1.77593" fill="white"/>
<circle cx="197.838" cy="1.77593" r="1.77593" fill="white"/>
<circle cx="230.516" cy="1.77593" r="1.77593" fill="white"/>
<circle cx="263.193" cy="1.77593" r="1.77593" fill="white"/>
<circle cx="295.87" cy="1.77593" r="1.77593" fill="white"/>
<circle cx="328.547" cy="1.77593" r="1.77593" fill="white"/>
<circle cx="1.77593" cy="22.3277" r="1.77593" fill="white"/>
<circle cx="34.4532" cy="22.3277" r="1.77593" fill="white"/>
<circle cx="67.1299" cy="22.3277" r="1.77593" fill="white"/>
<circle cx="99.8072" cy="22.3277" r="1.77593" fill="white"/>
<circle cx="132.484" cy="22.3277" r="1.77593" fill="white"/>
<circle cx="165.162" cy="22.3277" r="1.77593" fill="white"/>
<circle cx="197.838" cy="22.3277" r="1.77593" fill="white"/>
<circle cx="230.516" cy="22.3277" r="1.77593" fill="white"/>
<circle cx="263.193" cy="22.3277" r="1.77593" fill="white"/>
<circle cx="295.87" cy="22.3277" r="1.77593" fill="white"/>
<circle cx="328.547" cy="22.3277" r="1.77593" fill="white"/>
<circle cx="1.77593" cy="42.8797" r="1.77593" fill="#DE3C4B"/>
<circle cx="34.4532" cy="42.8797" r="1.77593" fill="#DE3C4B"/>
<circle cx="67.1299" cy="42.8797" r="1.77593" fill="#DE3C4B"/>
<circle cx="99.8072" cy="42.8797" r="1.77593" fill="#DE3C4B"/>
<circle cx="132.484" cy="42.8797" r="1.77593" fill="#DE3C4B"/>
<circle cx="165.162" cy="42.8797" r="1.77593" fill="#DE3C4B"/>
<circle cx="197.838" cy="42.8797" r="1.77593" fill="#DE3C4B"/>
<circle cx="230.516" cy="42.8797" r="1.77593" fill="#DE3C4B"/>
<circle cx="263.193" cy="42.8797" r="1.77593" fill="#DE3C4B"/>
<circle cx="295.87" cy="42.8797" r="1.77593" fill="#DE3C4B"/>
<circle cx="328.547" cy="42.8797" r="1.77593" fill="#DE3C4B"/>
</svg>
