<svg width="178" height="52" viewBox="0 0 178 52" fill="none" xmlns="http://www.w3.org/2000/svg">
<path d="M76.1886 25.9058L77.1299 21.8725L74 19.1608L78.1229 18.804L79.7376 15L81.3523 18.8033L85.4744 19.1601L82.3452 21.8717L83.2866 25.905L79.7376 23.7643L76.1886 25.9058Z" fill="#FFA115"/>
<path d="M90.07 25.9058L91.0113 21.8725L87.8814 19.1608L92.0043 18.804L93.619 15L95.2337 18.8033L99.3558 19.1601L96.2266 21.8717L97.168 25.905L93.619 23.7643L90.07 25.9058Z" fill="#FFA115"/>
<path d="M103.951 25.9058L104.893 21.8725L101.763 19.1608L105.886 18.804L107.5 15L109.115 18.8033L113.237 19.1601L110.108 21.8717L111.049 25.905L107.5 23.7643L103.951 25.9058Z" fill="#FFA115"/>
<path d="M117.833 25.9058L118.774 21.8725L115.644 19.1608L119.767 18.804L121.382 15L122.996 18.8033L127.119 19.1601L123.989 21.8717L124.931 25.905L121.382 23.7643L117.833 25.9058Z" fill="#FFA115"/>
<path d="M131.714 25.9058L132.656 21.8725L129.526 19.1608L133.649 18.804L135.263 15L136.878 18.8033L141 19.1601L137.871 21.8717L138.812 25.905L135.263 23.7643L131.714 25.9058Z" fill="#FFA115"/>
<path d="M41.2511 24.1542H39.875V24.0833H24.5V30.9167H34.1547C32.7461 34.8945 28.9613 37.75 24.5 37.75C18.8395 37.75 14.25 33.1606 14.25 27.5C14.25 21.8394 18.8395 17.25 24.5 17.25C27.1129 17.25 29.4901 18.2357 31.3 19.8458L36.1321 15.0138C33.081 12.1703 28.9998 10.4167 24.5 10.4167C15.0657 10.4167 7.41669 18.0657 7.41669 27.5C7.41669 36.9343 15.0657 44.5833 24.5 44.5833C33.9343 44.5833 41.5834 36.9343 41.5834 27.5C41.5834 26.3546 41.4655 25.2365 41.2511 24.1542Z" fill="#FFC107"/>
<path d="M9.38635 19.5486L14.9991 23.6648C16.5178 19.9047 20.1958 17.25 24.5 17.25C27.1129 17.25 29.49 18.2357 31.3 19.8458L36.132 15.0138C33.0809 12.1703 28.9997 10.4167 24.5 10.4167C17.9383 10.4167 12.2478 14.1212 9.38635 19.5486Z" fill="#FF3D00"/>
<path d="M24.5 44.5833C28.9126 44.5833 32.9221 42.8947 35.9535 40.1485L30.6662 35.6744C28.8934 37.0226 26.7272 37.7518 24.5 37.75C20.0566 37.75 16.2838 34.9167 14.8624 30.9628L9.29156 35.255C12.1189 40.7874 17.8606 44.5833 24.5 44.5833Z" fill="#4CAF50"/>
<path d="M41.2511 24.1542H39.875V24.0833H24.5V30.9167H34.1546C33.4809 32.8098 32.2672 34.4642 30.6637 35.6752L30.6662 35.6735L35.9535 40.1476C35.5794 40.4876 41.5833 36.0417 41.5833 27.5C41.5833 26.3546 41.4655 25.2365 41.2511 24.1542Z" fill="#1976D2"/>
<path d="M52.868 39.14H49.22L48.548 41H47.396L50.42 32.684H51.68L54.692 41H53.54L52.868 39.14ZM52.556 38.252L51.044 34.028L49.532 38.252H52.556ZM58.4579 39.992L60.4979 34.424H61.6619L59.0819 41H57.8099L55.2299 34.424H56.4059L58.4579 39.992ZM68.7365 37.46C68.7365 37.668 68.7245 37.888 68.7005 38.12H63.4445C63.4845 38.768 63.7045 39.276 64.1045 39.644C64.5125 40.004 65.0045 40.184 65.5805 40.184C66.0525 40.184 66.4445 40.076 66.7565 39.86C67.0765 39.636 67.3005 39.34 67.4285 38.972H68.6045C68.4285 39.604 68.0765 40.12 67.5485 40.52C67.0205 40.912 66.3645 41.108 65.5805 41.108C64.9565 41.108 64.3965 40.968 63.9005 40.688C63.4125 40.408 63.0285 40.012 62.7485 39.5C62.4685 38.98 62.3285 38.38 62.3285 37.7C62.3285 37.02 62.4645 36.424 62.7365 35.912C63.0085 35.4 63.3885 35.008 63.8765 34.736C64.3725 34.456 64.9405 34.316 65.5805 34.316C66.2045 34.316 66.7565 34.452 67.2365 34.724C67.7165 34.996 68.0845 35.372 68.3405 35.852C68.6045 36.324 68.7365 36.86 68.7365 37.46ZM67.6085 37.232C67.6085 36.816 67.5165 36.46 67.3325 36.164C67.1485 35.86 66.8965 35.632 66.5765 35.48C66.2645 35.32 65.9165 35.24 65.5325 35.24C64.9805 35.24 64.5085 35.416 64.1165 35.768C63.7325 36.12 63.5125 36.608 63.4565 37.232H67.6085ZM71.2699 35.492C71.4619 35.116 71.7339 34.824 72.0859 34.616C72.4459 34.408 72.8819 34.304 73.3939 34.304V35.432H73.1059C71.8819 35.432 71.2699 36.096 71.2699 37.424V41H70.1779V34.424H71.2699V35.492ZM74.2465 37.688C74.2465 37.016 74.3825 36.428 74.6545 35.924C74.9265 35.412 75.2985 35.016 75.7705 34.736C76.2505 34.456 76.7825 34.316 77.3665 34.316C77.9425 34.316 78.4425 34.44 78.8665 34.688C79.2905 34.936 79.6065 35.248 79.8145 35.624V34.424H80.9185V41H79.8145V39.776C79.5985 40.16 79.2745 40.48 78.8425 40.736C78.4185 40.984 77.9225 41.108 77.3545 41.108C76.7705 41.108 76.2425 40.964 75.7705 40.676C75.2985 40.388 74.9265 39.984 74.6545 39.464C74.3825 38.944 74.2465 38.352 74.2465 37.688ZM79.8145 37.7C79.8145 37.204 79.7145 36.772 79.5145 36.404C79.3145 36.036 79.0425 35.756 78.6985 35.564C78.3625 35.364 77.9905 35.264 77.5825 35.264C77.1745 35.264 76.8025 35.36 76.4665 35.552C76.1305 35.744 75.8625 36.024 75.6625 36.392C75.4625 36.76 75.3625 37.192 75.3625 37.688C75.3625 38.192 75.4625 38.632 75.6625 39.008C75.8625 39.376 76.1305 39.66 76.4665 39.86C76.8025 40.052 77.1745 40.148 77.5825 40.148C77.9905 40.148 78.3625 40.052 78.6985 39.86C79.0425 39.66 79.3145 39.376 79.5145 39.008C79.7145 38.632 79.8145 38.196 79.8145 37.7ZM85.4758 34.316C86.0438 34.316 86.5398 34.44 86.9638 34.688C87.3958 34.936 87.7158 35.248 87.9238 35.624V34.424H89.0278V41.144C89.0278 41.744 88.8998 42.276 88.6438 42.74C88.3878 43.212 88.0198 43.58 87.5398 43.844C87.0678 44.108 86.5158 44.24 85.8838 44.24C85.0198 44.24 84.2998 44.036 83.7238 43.628C83.1478 43.22 82.8078 42.664 82.7038 41.96H83.7838C83.9038 42.36 84.1518 42.68 84.5278 42.92C84.9038 43.168 85.3558 43.292 85.8838 43.292C86.4838 43.292 86.9718 43.104 87.3478 42.728C87.7318 42.352 87.9238 41.824 87.9238 41.144V39.764C87.7078 40.148 87.3878 40.468 86.9638 40.724C86.5398 40.98 86.0438 41.108 85.4758 41.108C84.8918 41.108 84.3598 40.964 83.8798 40.676C83.4078 40.388 83.0358 39.984 82.7638 39.464C82.4918 38.944 82.3558 38.352 82.3558 37.688C82.3558 37.016 82.4918 36.428 82.7638 35.924C83.0358 35.412 83.4078 35.016 83.8798 34.736C84.3598 34.456 84.8918 34.316 85.4758 34.316ZM87.9238 37.7C87.9238 37.204 87.8238 36.772 87.6238 36.404C87.4238 36.036 87.1518 35.756 86.8078 35.564C86.4718 35.364 86.0998 35.264 85.6918 35.264C85.2838 35.264 84.9118 35.36 84.5758 35.552C84.2398 35.744 83.9718 36.024 83.7718 36.392C83.5718 36.76 83.4718 37.192 83.4718 37.688C83.4718 38.192 83.5718 38.632 83.7718 39.008C83.9718 39.376 84.2398 39.66 84.5758 39.86C84.9118 40.052 85.2838 40.148 85.6918 40.148C86.0998 40.148 86.4718 40.052 86.8078 39.86C87.1518 39.66 87.4238 39.376 87.6238 39.008C87.8238 38.632 87.9238 38.196 87.9238 37.7ZM96.8732 37.46C96.8732 37.668 96.8612 37.888 96.8372 38.12H91.5812C91.6212 38.768 91.8412 39.276 92.2412 39.644C92.6492 40.004 93.1412 40.184 93.7172 40.184C94.1892 40.184 94.5812 40.076 94.8932 39.86C95.2132 39.636 95.4372 39.34 95.5652 38.972H96.7412C96.5652 39.604 96.2132 40.12 95.6852 40.52C95.1572 40.912 94.5012 41.108 93.7172 41.108C93.0932 41.108 92.5332 40.968 92.0372 40.688C91.5492 40.408 91.1652 40.012 90.8852 39.5C90.6052 38.98 90.4652 38.38 90.4652 37.7C90.4652 37.02 90.6012 36.424 90.8732 35.912C91.1452 35.4 91.5252 35.008 92.0132 34.736C92.5092 34.456 93.0772 34.316 93.7172 34.316C94.3412 34.316 94.8932 34.452 95.3732 34.724C95.8532 34.996 96.2212 35.372 96.4772 35.852C96.7412 36.324 96.8732 36.86 96.8732 37.46ZM95.7452 37.232C95.7452 36.816 95.6532 36.46 95.4692 36.164C95.2852 35.86 95.0332 35.632 94.7132 35.48C94.4012 35.32 94.0532 35.24 93.6692 35.24C93.1172 35.24 92.6452 35.416 92.2532 35.768C91.8692 36.12 91.6492 36.608 91.5932 37.232H95.7452ZM105.918 41L103.926 37.58H102.606V41H101.514V32.636H104.214C104.846 32.636 105.378 32.744 105.81 32.96C106.25 33.176 106.578 33.468 106.794 33.836C107.01 34.204 107.118 34.624 107.118 35.096C107.118 35.672 106.95 36.18 106.614 36.62C106.286 37.06 105.79 37.352 105.126 37.496L107.226 41H105.918ZM102.606 36.704H104.214C104.806 36.704 105.25 36.56 105.546 36.272C105.842 35.976 105.99 35.584 105.99 35.096C105.99 34.6 105.842 34.216 105.546 33.944C105.258 33.672 104.814 33.536 104.214 33.536H102.606V36.704ZM108.407 37.688C108.407 37.016 108.543 36.428 108.815 35.924C109.087 35.412 109.459 35.016 109.931 34.736C110.411 34.456 110.943 34.316 111.527 34.316C112.103 34.316 112.603 34.44 113.027 34.688C113.451 34.936 113.767 35.248 113.975 35.624V34.424H115.079V41H113.975V39.776C113.759 40.16 113.435 40.48 113.003 40.736C112.579 40.984 112.083 41.108 111.515 41.108C110.931 41.108 110.403 40.964 109.931 40.676C109.459 40.388 109.087 39.984 108.815 39.464C108.543 38.944 108.407 38.352 108.407 37.688ZM113.975 37.7C113.975 37.204 113.875 36.772 113.675 36.404C113.475 36.036 113.203 35.756 112.859 35.564C112.523 35.364 112.151 35.264 111.743 35.264C111.335 35.264 110.963 35.36 110.627 35.552C110.291 35.744 110.023 36.024 109.823 36.392C109.623 36.76 109.523 37.192 109.523 37.688C109.523 38.192 109.623 38.632 109.823 39.008C110.023 39.376 110.291 39.66 110.627 39.86C110.963 40.052 111.335 40.148 111.743 40.148C112.151 40.148 112.523 40.052 112.859 39.86C113.203 39.66 113.475 39.376 113.675 39.008C113.875 38.632 113.975 38.196 113.975 37.7ZM118.256 35.324V39.2C118.256 39.52 118.324 39.748 118.46 39.884C118.596 40.012 118.832 40.076 119.168 40.076H119.972V41H118.988C118.38 41 117.924 40.86 117.62 40.58C117.316 40.3 117.164 39.84 117.164 39.2V35.324H116.312V34.424H117.164V32.768H118.256V34.424H119.972V35.324H118.256ZM121.859 33.356C121.651 33.356 121.475 33.284 121.331 33.14C121.187 32.996 121.115 32.82 121.115 32.612C121.115 32.404 121.187 32.228 121.331 32.084C121.475 31.94 121.651 31.868 121.859 31.868C122.059 31.868 122.227 31.94 122.363 32.084C122.507 32.228 122.579 32.404 122.579 32.612C122.579 32.82 122.507 32.996 122.363 33.14C122.227 33.284 122.059 33.356 121.859 33.356ZM122.387 34.424V41H121.295V34.424H122.387ZM127.452 34.304C128.252 34.304 128.9 34.548 129.396 35.036C129.892 35.516 130.14 36.212 130.14 37.124V41H129.06V37.28C129.06 36.624 128.896 36.124 128.568 35.78C128.24 35.428 127.792 35.252 127.224 35.252C126.648 35.252 126.188 35.432 125.844 35.792C125.508 36.152 125.34 36.676 125.34 37.364V41H124.248V34.424H125.34V35.36C125.556 35.024 125.848 34.764 126.216 34.58C126.592 34.396 127.004 34.304 127.452 34.304ZM134.636 34.316C135.204 34.316 135.7 34.44 136.124 34.688C136.556 34.936 136.876 35.248 137.084 35.624V34.424H138.188V41.144C138.188 41.744 138.06 42.276 137.804 42.74C137.548 43.212 137.18 43.58 136.7 43.844C136.228 44.108 135.676 44.24 135.044 44.24C134.18 44.24 133.46 44.036 132.884 43.628C132.308 43.22 131.968 42.664 131.864 41.96H132.944C133.064 42.36 133.312 42.68 133.688 42.92C134.064 43.168 134.516 43.292 135.044 43.292C135.644 43.292 136.132 43.104 136.508 42.728C136.892 42.352 137.084 41.824 137.084 41.144V39.764C136.868 40.148 136.548 40.468 136.124 40.724C135.7 40.98 135.204 41.108 134.636 41.108C134.052 41.108 133.52 40.964 133.04 40.676C132.568 40.388 132.196 39.984 131.924 39.464C131.652 38.944 131.516 38.352 131.516 37.688C131.516 37.016 131.652 36.428 131.924 35.924C132.196 35.412 132.568 35.016 133.04 34.736C133.52 34.456 134.052 34.316 134.636 34.316ZM137.084 37.7C137.084 37.204 136.984 36.772 136.784 36.404C136.584 36.036 136.312 35.756 135.968 35.564C135.632 35.364 135.26 35.264 134.852 35.264C134.444 35.264 134.072 35.36 133.736 35.552C133.4 35.744 133.132 36.024 132.932 36.392C132.732 36.76 132.632 37.192 132.632 37.688C132.632 38.192 132.732 38.632 132.932 39.008C133.132 39.376 133.4 39.66 133.736 39.86C134.072 40.052 134.444 40.148 134.852 40.148C135.26 40.148 135.632 40.052 135.968 39.86C136.312 39.66 136.584 39.376 136.784 39.008C136.984 38.632 137.084 38.196 137.084 37.7Z" fill="white"/>
<path d="M55.688 16.272H50.504V19.008C50.728 18.7307 51.048 18.5067 51.464 18.336C51.88 18.1547 52.3227 18.064 52.792 18.064C53.6453 18.064 54.344 18.2507 54.888 18.624C55.432 18.9973 55.8267 19.4773 56.072 20.064C56.3173 20.64 56.44 21.2587 56.44 21.92C56.44 23.1467 56.088 24.1333 55.384 24.88C54.6907 25.6267 53.6987 26 52.408 26C51.192 26 50.2213 25.696 49.496 25.088C48.7707 24.48 48.36 23.6853 48.264 22.704H50.44C50.536 23.1307 50.7493 23.472 51.08 23.728C51.4213 23.984 51.8533 24.112 52.376 24.112C53.0053 24.112 53.48 23.9147 53.8 23.52C54.12 23.1253 54.28 22.6027 54.28 21.952C54.28 21.2907 54.1147 20.7893 53.784 20.448C53.464 20.096 52.9893 19.92 52.36 19.92C51.912 19.92 51.5387 20.032 51.24 20.256C50.9413 20.48 50.728 20.7787 50.6 21.152H48.456V14.304H55.688V16.272ZM59.3929 26.112C58.9875 26.112 58.6515 25.9893 58.3849 25.744C58.1289 25.488 58.0009 25.1733 58.0009 24.8C58.0009 24.4267 58.1289 24.1173 58.3849 23.872C58.6515 23.616 58.9875 23.488 59.3929 23.488C59.7875 23.488 60.1129 23.616 60.3689 23.872C60.6249 24.1173 60.7529 24.4267 60.7529 24.8C60.7529 25.1733 60.6249 25.488 60.3689 25.744C60.1129 25.9893 59.7875 26.112 59.3929 26.112ZM62.3011 20.016C62.3011 18.1707 62.6318 16.7253 63.2931 15.68C63.9651 14.6347 65.0745 14.112 66.6211 14.112C68.1678 14.112 69.2718 14.6347 69.9331 15.68C70.6051 16.7253 70.9411 18.1707 70.9411 20.016C70.9411 21.872 70.6051 23.328 69.9331 24.384C69.2718 25.44 68.1678 25.968 66.6211 25.968C65.0745 25.968 63.9651 25.44 63.2931 24.384C62.6318 23.328 62.3011 21.872 62.3011 20.016ZM68.7331 20.016C68.7331 19.2267 68.6798 18.5653 68.5731 18.032C68.4771 17.488 68.2745 17.0453 67.9651 16.704C67.6665 16.3627 67.2185 16.192 66.6211 16.192C66.0238 16.192 65.5705 16.3627 65.2611 16.704C64.9625 17.0453 64.7598 17.488 64.6531 18.032C64.5571 18.5653 64.5091 19.2267 64.5091 20.016C64.5091 20.8267 64.5571 21.5093 64.6531 22.064C64.7491 22.608 64.9518 23.0507 65.2611 23.392C65.5705 23.7227 66.0238 23.888 66.6211 23.888C67.2185 23.888 67.6718 23.7227 67.9811 23.392C68.2905 23.0507 68.4931 22.608 68.5891 22.064C68.6851 21.5093 68.7331 20.8267 68.7331 20.016Z" fill="white"/>
</svg>
