<?xml version="1.0" standalone="no"?>
<!DOCTYPE svg PUBLIC "-//W3C//DTD SVG 20010904//EN"
 "http://www.w3.org/TR/2001/REC-SVG-20010904/DTD/svg10.dtd">
<svg version="1.0" xmlns="http://www.w3.org/2000/svg"
 width="979.000000pt" height="1063.000000pt" viewBox="0 0 979.000000 1063.000000"
 preserveAspectRatio="xMidYMid meet">

<g transform="translate(0.000000,1063.000000) scale(0.100000,-0.100000)"
fill="#000000" stroke="none">
<path d="M4078 10610 c-27 -4 -83 -20 -125 -33 -43 -14 -103 -28 -134 -30 -32
-3 -82 -18 -115 -33 -34 -16 -80 -30 -109 -31 -168 -10 -226 -22 -288 -58
-118 -70 -183 -119 -276 -214 -116 -119 -161 -185 -227 -331 -141 -313 -181
-526 -132 -718 7 -27 8 -47 2 -49 -5 -2 -77 -41 -161 -87 -438 -243 -787 -509
-1138 -868 -399 -407 -675 -804 -921 -1323 -400 -842 -539 -1830 -389 -2761
79 -489 210 -902 430 -1349 233 -474 497 -850 864 -1228 548 -564 1260 -1012
1981 -1245 243 -79 531 -150 735 -182 39 -6 81 -13 95 -15 186 -30 499 -53
725 -52 726 0 1432 157 2095 462 69 32 130 61 135 65 6 4 84 49 175 100 1309
734 2190 1985 2425 3447 53 330 70 803 40 1143 -158 1822 -1337 3393 -3054
4069 -405 160 -897 281 -1281 316 -136 12 -126 7 -133 80 -21 218 -149 419
-335 525 -34 20 -107 79 -165 136 -116 112 -238 198 -342 239 -62 25 -85 28
-200 31 -71 2 -151 -1 -177 -6z m517 -1092 c50 -11 94 -24 99 -29 6 -5 16 -9
24 -9 18 0 113 -75 105 -83 -3 -4 2 -9 11 -13 9 -3 16 -14 16 -23 0 -9 7 -25
15 -35 8 -10 12 -22 10 -27 -3 -4 -1 -10 5 -14 5 -3 10 -17 10 -30 0 -13 5
-25 11 -27 5 -2 13 -23 16 -47 6 -42 5 -43 -16 -31 -13 6 -20 14 -17 18 12 12
-69 41 -99 35 -111 -20 -253 -91 -332 -167 -33 -30 -43 -48 -43 -72 0 -41 21
-58 102 -84 73 -25 62 -26 206 28 28 11 52 18 52 15 0 -3 6 0 13 6 12 10 63
20 122 24 35 3 135 -56 135 -79 0 -8 5 -14 12 -14 6 0 8 -3 5 -6 -3 -4 0 -16
8 -28 8 -11 15 -29 15 -39 0 -14 -5 -17 -22 -11 -31 9 -49 24 -42 35 3 5 -3 6
-12 2 -10 -4 -15 -2 -11 4 12 19 -197 -26 -252 -54 -95 -49 -156 -158 -115
-205 25 -27 59 -16 114 37 81 79 209 124 315 110 59 -7 67 -16 81 -92 4 -18
10 -33 14 -33 4 0 10 -10 13 -22 3 -13 13 -50 22 -83 12 -44 18 -118 21 -275
2 -118 4 -221 4 -227 3 -95 -4 -185 -15 -204 -5 -8 -4 -10 3 -5 9 5 9 0 2 -19
-6 -15 -8 -30 -5 -35 3 -5 1 -10 -4 -12 -5 -1 -10 -19 -12 -38 -2 -19 -6 -39
-9 -45 -4 -5 -7 -23 -8 -39 -1 -16 -8 -37 -15 -45 -7 -9 -13 -23 -12 -31 1 -8
-5 -28 -13 -43 -7 -16 -11 -35 -8 -43 3 -7 1 -16 -5 -20 -5 -3 -7 -14 -4 -25
4 -11 2 -19 -4 -19 -6 0 -11 -4 -11 -10 0 -5 4 -10 10 -10 14 0 63 77 56 88
-3 6 5 13 18 16 18 4 23 11 19 26 -3 11 0 20 6 20 6 0 11 14 11 31 0 17 4 28
10 24 6 -3 10 -1 10 5 0 13 30 45 31 33 0 -4 4 2 9 15 6 12 18 22 30 22 25 0
26 18 3 36 -16 13 -15 14 9 10 30 -5 47 8 23 18 -17 6 -20 26 -4 26 5 0 7 -5
3 -11 -4 -7 -1 -10 7 -7 8 3 13 16 11 29 -1 17 1 20 7 10 11 -17 23 1 15 23
-3 9 -1 16 5 16 14 0 64 106 97 205 12 39 23 62 23 52 2 -52 -162 -425 -186
-420 -5 1 -9 -8 -9 -20 1 -15 -5 -22 -16 -21 -20 2 -24 -12 -6 -18 14 -5 -106
-237 -167 -324 -120 -168 -269 -194 -558 -98 -43 14 -80 24 -83 21 -5 -5 87
-46 97 -44 4 1 15 -6 25 -15 17 -15 166 -88 180 -88 3 0 19 -9 35 -21 16 -11
29 -18 29 -14 0 5 17 -4 130 -69 25 -14 57 -36 72 -48 14 -13 36 -30 47 -38
12 -8 21 -20 21 -26 0 -7 4 -14 8 -16 17 -7 53 -69 57 -97 7 -61 27 -111 59
-148 10 -12 23 -20 27 -17 4 2 14 -4 21 -13 7 -10 22 -19 32 -21 22 -4 46 -26
46 -42 0 -6 6 -13 14 -16 21 -8 7 -52 -28 -81 -17 -15 -24 -24 -16 -21 8 3 26
8 40 12 l25 7 -26 -15 c-15 -9 -67 -27 -115 -41 -299 -87 -648 -69 -881 45
-92 45 -125 80 -173 181 -35 75 -37 105 -10 183 12 32 23 92 26 134 6 79 -21
442 -34 453 -4 4 -52 30 -106 59 -190 99 -311 199 -412 340 -103 144 -97 140
-250 139 -99 -1 -129 3 -176 21 -121 45 -217 141 -254 252 -23 70 -16 178 15
242 l25 50 35 -45 c79 -99 189 -188 252 -204 29 -7 55 16 62 55 4 21 4 20 6
-7 1 -29 50 -103 51 -77 0 15 -42 137 -74 211 -18 44 -26 80 -26 121 0 55 -13
110 -85 342 -33 109 -31 122 20 125 53 3 95 52 171 203 90 176 112 207 153
209 26 1 39 -5 53 -23 11 -13 25 -24 33 -24 7 0 64 37 127 82 202 146 331 222
410 242 53 13 125 3 383 -56z m1039 -701 c-16 -34 -52 -80 -90 -116 -35 -33
-64 -58 -64 -55 0 3 30 37 68 77 37 40 76 91 86 115 11 23 21 40 23 38 3 -2
-8 -29 -23 -59z m-117 -714 c-3 -10 -5 -4 -5 12 0 17 2 24 5 18 2 -7 2 -21 0
-30z m-10 -55 c-3 -8 -6 -5 -6 6 -1 11 2 17 5 13 3 -3 4 -12 1 -19z m-367
-662 c0 -3 -4 -8 -10 -11 -5 -3 -10 -1 -10 4 0 6 5 11 10 11 6 0 10 -2 10 -4z
m-629 -1947 c28 -30 43 -67 17 -41 -9 9 -15 5 -24 -17 -7 -16 -55 -94 -107
-173 -52 -79 -102 -164 -111 -189 -17 -45 -17 -48 4 -98 13 -28 26 -51 29 -51
4 0 41 23 82 52 41 28 108 74 149 102 69 47 75 54 72 83 -3 25 4 38 34 67 24
23 44 34 53 31 9 -4 5 5 -9 21 -21 24 -17 22 26 -9 29 -20 54 -37 57 -37 3 0
42 22 87 49 178 109 441 174 562 141 35 -10 78 -50 78 -73 0 -5 -9 2 -21 17
-11 14 -31 26 -43 26 -31 0 -165 -49 -202 -74 -89 -60 -175 -134 -181 -154
-12 -48 39 -68 84 -32 14 11 32 20 41 20 8 0 56 22 106 50 116 62 184 80 309
80 117 0 157 -15 182 -66 13 -28 14 -41 5 -69 -6 -18 -18 -39 -27 -47 -13 -10
-13 -7 2 15 16 24 16 30 4 38 -8 5 -10 9 -5 9 5 0 3 7 -4 15 -9 11 -10 18 -1
28 8 11 6 18 -11 33 -19 16 -20 16 -9 2 8 -11 9 -18 3 -18 -6 0 -14 5 -18 11
-8 13 -87 6 -124 -11 -14 -6 -33 -28 -44 -50 -26 -54 -68 -91 -161 -140 -44
-23 -88 -49 -97 -58 -38 -33 -11 -78 39 -67 15 4 73 22 128 40 61 20 130 36
177 39 43 3 81 6 85 7 33 5 61 -6 94 -40 34 -33 39 -45 39 -83 0 -25 -7 -53
-16 -64 -15 -18 -15 -18 -5 3 15 30 14 79 -2 95 -14 13 -17 21 -17 38 0 5 -13
16 -30 25 -26 13 -29 14 -24 0 4 -10 0 -15 -10 -15 -9 0 -16 -4 -16 -8 0 -4
-14 -16 -31 -26 -17 -10 -39 -36 -48 -57 -10 -21 -20 -37 -22 -34 -3 2 -30
-20 -61 -49 -30 -29 -75 -63 -99 -75 -83 -42 -124 -75 -127 -104 -2 -18 2 -29
13 -33 19 -8 146 34 241 77 96 44 219 72 259 59 46 -15 67 -42 72 -93 4 -36 1
-48 -18 -68 -13 -14 -18 -18 -12 -9 18 23 28 80 15 80 -6 0 -9 -6 -6 -13 3 -8
-2 -14 -11 -14 -19 0 -19 6 1 28 9 10 14 25 11 34 -7 16 -65 55 -82 55 -5 0
-2 -5 7 -11 16 -9 13 -15 -27 -56 -25 -25 -45 -50 -45 -55 0 -5 -10 -24 -22
-41 -12 -18 -18 -29 -13 -25 4 4 14 3 22 -3 8 -8 13 -8 13 -1 0 6 -6 13 -12
15 -7 3 -8 6 -3 6 13 1 41 -17 35 -22 -3 -2 -40 -21 -83 -42 -42 -21 -75 -40
-73 -42 2 -3 18 3 36 12 18 9 34 14 38 11 3 -3 1 -6 -4 -6 -20 0 -195 -107
-437 -268 -139 -92 -297 -196 -352 -231 l-100 -64 95 -89 c95 -90 161 -143
146 -119 -5 7 -4 16 2 20 5 3 38 49 73 101 127 192 201 270 375 396 110 80
197 123 249 126 76 4 119 -11 166 -55 62 -60 100 -107 93 -118 -3 -5 -2 -9 3
-9 4 0 24 -14 43 -30 19 -16 41 -30 48 -30 6 0 12 -4 12 -10 0 -5 7 -6 17 -3
10 4 14 2 10 -4 -4 -6 8 -16 26 -24 35 -14 90 -50 95 -61 2 -5 10 -8 18 -8 13
0 19 -13 15 -34 -1 -5 5 -6 14 -2 13 4 15 1 10 -14 -5 -16 -3 -19 12 -13 10 3
15 3 11 -2 -4 -4 2 -21 13 -36 11 -16 22 -41 23 -55 2 -14 8 -29 14 -33 11 -7
10 -95 -2 -141 -4 -14 -11 -47 -15 -75 -7 -47 -26 -84 -88 -177 -21 -31 -29
-36 -52 -32 -18 4 -34 -1 -51 -15 l-25 -21 32 17 c30 17 32 17 51 0 17 -16 20
-16 25 -3 13 33 162 248 181 262 11 8 40 14 63 14 55 0 66 20 66 123 0 102
-19 130 -108 163 -17 7 -15 9 12 12 35 4 82 -18 185 -84 79 -50 96 -74 112
-151 l11 -57 265 -183 c146 -101 367 -248 491 -327 225 -142 492 -326 485
-334 -3 -2 -17 5 -33 15 -20 13 -25 14 -16 2 10 -12 8 -15 -8 -15 -10 0 -19 5
-19 10 0 6 -3 6 -9 0 -13 -13 3 -80 18 -76 8 1 11 -6 9 -20 -2 -15 2 -22 11
-20 8 2 11 -3 8 -13 -4 -8 -2 -15 4 -15 6 0 7 -5 4 -10 -3 -6 1 -13 9 -16 9
-3 16 -10 16 -16 0 -5 -6 -6 -12 -2 -7 4 -3 -4 9 -17 13 -14 26 -39 29 -57 4
-18 13 -32 20 -32 8 0 14 -7 14 -15 0 -8 7 -15 16 -15 8 0 13 -4 10 -9 -4 -5
-1 -11 4 -13 6 -2 12 -13 13 -26 0 -12 5 -22 9 -22 4 0 8 -8 8 -18 0 -10 9
-26 21 -35 12 -11 18 -25 15 -34 -4 -8 -1 -22 5 -29 8 -10 8 -14 0 -14 -6 0
-9 -13 -7 -32 5 -42 -9 -86 -34 -108 -12 -11 -17 -21 -11 -24 18 -12 -1 -36
-28 -36 -22 -1 -24 -2 -9 -11 17 -9 17 -11 0 -28 -9 -10 -25 -21 -34 -24 -11
-4 -15 -12 -12 -21 5 -12 10 -13 26 -5 14 7 18 7 14 1 -4 -6 2 -10 14 -9 11 1
20 4 20 8 0 4 10 7 23 7 63 0 88 7 108 28 12 12 27 20 35 17 10 -4 12 0 8 11
-5 12 -2 15 10 10 21 -8 56 22 56 48 0 11 7 18 20 18 13 0 25 12 35 33 l15 32
-6 -35 c-10 -59 -34 -98 -95 -154 -78 -72 -188 -112 -288 -103 -212 18 -570
202 -1179 606 -447 297 -625 408 -663 415 -49 9 -217 115 -238 150 -19 33
-130 100 -334 202 -281 141 -410 234 -696 503 -68 64 -129 117 -136 119 -30 7
-750 -442 -1039 -648 -174 -124 -936 -644 -1461 -997 -349 -235 -443 -274
-650 -269 -101 3 -132 8 -195 31 -108 39 -153 68 -204 130 -66 82 -72 156 -25
340 40 155 158 483 166 460 2 -6 30 -8 64 -7 72 5 179 -13 228 -36 47 -23 58
-17 180 91 123 108 340 275 500 384 732 501 1307 916 1372 991 45 51 157 224
186 290 14 29 40 114 59 189 l33 135 -30 40 c-16 23 -29 54 -29 70 0 63 54
118 115 118 32 0 32 10 0 40 -57 53 -50 141 14 174 40 21 62 20 115 -6 l45
-22 41 46 c52 59 125 108 163 108 20 0 38 -10 58 -31z m59 -114 c11 -13 10
-14 -4 -9 -9 3 -16 10 -16 15 0 13 6 11 20 -6z m1780 -1420 c52 -43 89 -76 83
-74 -32 11 -215 175 -358 321 l-160 162 170 -165 c94 -91 213 -201 265 -244z"/>
<path d="M3860 8794 c-122 -26 -288 -122 -305 -175 -10 -30 20 -67 64 -80 36
-11 44 -9 117 26 87 41 189 78 246 89 70 13 80 69 23 130 -27 30 -49 31 -145
10z"/>
<path d="M4460 8494 c0 -3 20 -57 45 -120 25 -62 45 -120 45 -128 0 -21 20
-31 64 -31 23 0 41 -5 43 -13 3 -8 -5 -12 -25 -10 -37 3 -80 -19 -87 -43 -4
-10 -9 -18 -13 -18 -4 1 -9 0 -12 -1 -3 -2 -24 -4 -48 -4 -55 -3 -80 -26 -65
-59 13 -28 33 -33 180 -43 216 -14 245 21 151 181 -71 117 -278 334 -278 289z"/>
<path d="M3908 8396 c-54 -26 -153 -100 -174 -130 -22 -32 -18 -65 11 -78 22
-10 30 -6 82 37 100 83 189 113 258 88 67 -25 104 2 70 53 -37 57 -161 72
-247 30z"/>
<path d="M3072 8227 c-22 -23 -29 -47 -14 -47 9 0 46 60 40 66 -3 2 -14 -6
-26 -19z"/>
<path d="M4914 8028 c-32 -24 -106 -66 -164 -95 -124 -62 -125 -71 -2 -13 47
22 87 38 90 35 3 -3 0 -16 -5 -28 -19 -41 -325 -177 -395 -177 -53 0 -66 15
-32 34 36 19 27 20 -45 2 -31 -8 -69 -17 -84 -20 -38 -9 -26 -22 37 -40 97
-28 181 -22 302 24 149 57 199 85 262 143 50 48 79 90 102 152 13 34 2 32 -66
-17z"/>
<path d="M4600 7865 c-14 -8 -20 -14 -15 -14 6 0 21 6 35 14 14 8 21 14 15 14
-5 0 -21 -6 -35 -14z"/>
<path d="M4540 7840 c-8 -5 -10 -10 -5 -10 6 0 17 5 25 10 8 5 11 10 5 10 -5
0 -17 -5 -25 -10z"/>
<path d="M6715 3710 c10 -11 20 -20 23 -20 3 0 -3 9 -13 20 -10 11 -20 20 -23
20 -3 0 3 -9 13 -20z"/>
<path d="M6756 3635 c8 -37 14 -45 14 -19 0 10 -5 26 -10 34 -8 11 -9 7 -4
-15z"/>
<path d="M6791 3469 c-11 -65 -10 -72 9 -96 23 -29 26 -64 8 -96 -19 -37 -200
-320 -226 -355 -14 -18 -39 -39 -56 -47 l-31 -13 32 1 c18 1 33 5 33 9 0 4 7
5 15 2 8 -4 13 -10 10 -14 -10 -17 28 -3 41 15 9 12 14 14 14 6 0 -10 3 -11
14 -2 11 9 15 7 19 -8 4 -16 10 -19 33 -12 22 6 30 14 32 36 3 21 6 25 13 14
7 -11 9 -9 9 9 0 12 6 22 13 22 6 0 19 13 29 29 30 54 107 91 201 96 26 2 54
8 62 15 8 7 15 9 15 4 0 -5 14 -10 30 -11 17 -1 29 1 26 5 -6 10 47 9 55 -1 3
-4 27 4 53 18 53 28 56 29 56 14 0 -5 -4 -8 -9 -5 -4 3 -17 -1 -27 -9 -18 -14
-18 -14 2 -15 12 0 33 6 48 13 l26 14 -25 11 c-14 6 -25 16 -25 22 0 6 -4 9
-9 6 -9 -6 -61 41 -61 55 0 5 -4 9 -9 9 -13 0 -71 59 -71 71 0 6 5 7 12 3 6
-4 8 -3 5 3 -4 6 -17 8 -31 6 -17 -4 -27 1 -35 15 -6 11 -8 22 -5 25 3 3 -3 4
-13 4 -9 -1 -18 3 -18 10 0 17 -226 174 -238 166 -6 -3 -7 -1 -3 5 3 6 2 13
-2 16 -5 3 -14 -26 -21 -65z m-181 -589 c0 -5 -4 -10 -10 -10 -5 0 -10 5 -10
10 0 6 5 10 10 10 6 0 10 -4 10 -10z"/>
<path d="M6433 3368 c-192 -295 -186 -284 -155 -310 24 -20 191 -124 225 -139
24 -11 30 -10 46 7 27 27 222 334 235 367 10 26 8 31 -16 50 -47 38 -227 147
-241 147 -8 0 -51 -55 -94 -122z"/>
<path d="M6190 3169 c0 -5 5 -7 10 -4 6 3 10 8 10 11 0 2 -4 4 -10 4 -5 0 -10
-5 -10 -11z"/>
<path d="M6180 3077 c0 -23 -41 -64 -83 -82 l-32 -14 38 -1 c40 0 100 21 112
39 3 7 -3 26 -14 44 -15 23 -21 27 -21 14z"/>
<path d="M6468 2873 c7 -3 16 -2 19 1 4 3 -2 6 -13 5 -11 0 -14 -3 -6 -6z"/>
<path d="M6635 2850 c-3 -5 -1 -10 4 -10 6 0 11 5 11 10 0 6 -2 10 -4 10 -3 0
-8 -4 -11 -10z"/>
<path d="M8195 1900 c3 -5 8 -10 11 -10 2 0 4 5 4 10 0 6 -5 10 -11 10 -5 0
-7 -4 -4 -10z"/>
</g>
</svg>
