<svg width="343" height="63" viewBox="0 0 343 63" fill="none" xmlns="http://www.w3.org/2000/svg">
<path d="M0 58.5C0 56.0147 2.01472 54 4.5 54H67V63H4.5C2.01472 63 0 60.9853 0 58.5Z" fill="#3CDE73"/>
<rect x="69" y="54" width="67" height="9" fill="#3CDE73"/>
<rect x="138" y="54" width="67" height="9" fill="#3CDE73"/>
<rect x="207" y="54" width="67" height="9" fill="#3CDE73"/>
<path d="M276 54H338.5C340.985 54 343 56.0147 343 58.5C343 60.9853 340.985 63 338.5 63H276V54Z" fill="#3CDE73"/>
<path d="M34.9787 10.9091V24H32.6073V13.2166H32.5306L29.4688 15.1726V12.9993L32.7224 10.9091H34.9787Z" fill="#DE3C4B"/>
<path d="M97.9936 24V22.2869L102.538 17.8317C102.973 17.3928 103.335 17.0028 103.625 16.6619C103.915 16.321 104.132 15.9908 104.277 15.6712C104.422 15.3516 104.494 15.0107 104.494 14.6484C104.494 14.2351 104.401 13.8814 104.213 13.5874C104.026 13.2891 103.768 13.0589 103.44 12.897C103.111 12.7351 102.739 12.6541 102.321 12.6541C101.891 12.6541 101.513 12.7436 101.19 12.9226C100.866 13.0973 100.614 13.3466 100.435 13.6705C100.261 13.9943 100.173 14.38 100.173 14.8274H97.9169C97.9169 13.9964 98.1065 13.2741 98.4857 12.6605C98.865 12.0469 99.387 11.5717 100.052 11.2351C100.721 10.8984 101.488 10.7301 102.353 10.7301C103.231 10.7301 104.002 10.8942 104.667 11.2223C105.332 11.5504 105.847 12 106.214 12.571C106.584 13.142 106.77 13.794 106.77 14.527C106.77 15.017 106.676 15.4986 106.489 15.9716C106.301 16.4446 105.971 16.9687 105.498 17.544C105.029 18.1193 104.371 18.8161 103.523 19.6342L101.266 21.929V22.0185H106.968V24H97.9936Z" fill="#DE3C4B"/>
<path d="M169.419 24.179C168.499 24.179 167.681 24.0213 166.965 23.706C166.253 23.3906 165.691 22.9517 165.277 22.3892C164.864 21.8267 164.644 21.1768 164.619 20.4396H167.022C167.044 20.7933 167.161 21.1023 167.374 21.3665C167.587 21.6264 167.87 21.8288 168.224 21.9737C168.578 22.1186 168.974 22.1911 169.413 22.1911C169.882 22.1911 170.297 22.1101 170.659 21.9482C171.022 21.782 171.305 21.5518 171.509 21.2578C171.714 20.9638 171.814 20.625 171.81 20.2415C171.814 19.8452 171.712 19.4957 171.503 19.1932C171.294 18.8906 170.992 18.6541 170.595 18.4837C170.203 18.3132 169.73 18.228 169.176 18.228H168.019V16.3999H169.176C169.632 16.3999 170.031 16.321 170.372 16.1634C170.717 16.0057 170.987 15.7841 171.183 15.4986C171.379 15.2088 171.475 14.8743 171.471 14.495C171.475 14.1243 171.392 13.8026 171.222 13.5298C171.056 13.2528 170.819 13.0376 170.512 12.8842C170.21 12.7308 169.854 12.6541 169.445 12.6541C169.044 12.6541 168.674 12.7266 168.333 12.8714C167.992 13.0163 167.717 13.223 167.508 13.4915C167.299 13.7557 167.188 14.071 167.176 14.4375H164.894C164.911 13.7045 165.122 13.0611 165.526 12.5071C165.936 11.9489 166.481 11.5142 167.163 11.2031C167.845 10.8878 168.61 10.7301 169.458 10.7301C170.331 10.7301 171.09 10.8942 171.733 11.2223C172.381 11.5462 172.882 11.983 173.235 12.5327C173.589 13.0824 173.766 13.6896 173.766 14.3544C173.77 15.0916 173.553 15.7095 173.114 16.2081C172.679 16.7067 172.108 17.0327 171.401 17.1861V17.2884C172.321 17.4162 173.026 17.7571 173.517 18.3111C174.011 18.8608 174.256 19.5447 174.252 20.3629C174.252 21.0959 174.043 21.7521 173.625 22.3317C173.212 22.907 172.641 23.3587 171.912 23.6868C171.188 24.0149 170.357 24.179 169.419 24.179Z" fill="#DE3C4B"/>
<path d="M235.353 21.571V19.6854L240.907 10.9091H242.48V13.5938H241.521L237.782 19.5192V19.6214H245.535V21.571H235.353ZM241.598 24V20.9957L241.623 20.152V10.9091H243.861V24H241.598Z" fill="#DE3C4B"/>
<path d="M293.752 16.375C293.752 7.83789 300.654 0.875 309.252 0.875C317.789 0.875 324.752 7.83789 324.752 16.375C324.752 24.9727 317.789 31.875 309.252 31.875C300.654 31.875 293.752 24.9727 293.752 16.375ZM316.215 13.7109C316.881 13.0449 316.881 12.0156 316.215 11.3496C315.549 10.6836 314.519 10.6836 313.853 11.3496L307.314 17.8887L304.59 15.2246C303.924 14.5586 302.894 14.5586 302.228 15.2246C301.562 15.8906 301.562 16.9199 302.228 17.5859L306.103 21.4609C306.769 22.127 307.799 22.127 308.465 21.4609L316.215 13.7109Z" fill="#3CDE73"/>
</svg>
