<svg width="838" height="58" viewBox="0 0 838 58" fill="none" xmlns="http://www.w3.org/2000/svg">
<path d="M0 53.5C0 51.0147 2.01472 49 4.5 49H127V58H4.5C2.01472 58 0 55.9853 0 53.5Z" fill="#3CDE73"/>
<rect x="138" y="49" width="127" height="9" fill="#3CDE73"/>
<rect x="276" y="49" width="127" height="9" fill="#3CDE73"/>
<rect x="414" y="49" width="126" height="9" fill="#3CDE73"/>
<rect x="551" y="49" width="126" height="9" fill="#3CDE73"/>
<path d="M688 49H810.5C812.985 49 815 51.0147 815 53.5C815 55.9853 812.985 58 810.5 58H688V49Z" fill="#3CDE73"/>
<path d="M65.6637 5.90909V19H63.2923V8.21662H63.2156L60.1538 10.1726V7.99929L63.4073 5.90909H65.6637Z" fill="#3CDE73"/>
<path d="M196.574 19V17.2869L201.118 12.8317C201.553 12.3928 201.915 12.0028 202.205 11.6619C202.495 11.321 202.712 10.9908 202.857 10.6712C203.002 10.3516 203.074 10.0107 203.074 9.64844C203.074 9.23508 202.98 8.88139 202.793 8.58736C202.605 8.28906 202.348 8.05895 202.02 7.89702C201.691 7.73508 201.319 7.65412 200.901 7.65412C200.471 7.65412 200.093 7.74361 199.77 7.92259C199.446 8.0973 199.194 8.34659 199.015 8.67045C198.841 8.99432 198.753 9.37997 198.753 9.82741H196.497C196.497 8.99645 196.686 8.27415 197.066 7.66051C197.445 7.04687 197.967 6.57173 198.632 6.23509C199.301 5.89844 200.068 5.73011 200.933 5.73011C201.811 5.73011 202.582 5.89418 203.247 6.2223C203.912 6.55043 204.427 7 204.794 7.57102C205.164 8.14204 205.35 8.79403 205.35 9.52699C205.35 10.017 205.256 10.4986 205.069 10.9716C204.881 11.4446 204.551 11.9687 204.078 12.544C203.609 13.1193 202.951 13.8161 202.103 14.6342L199.846 16.929V17.0185H205.548V19H196.574Z" fill="#3CDE73"/>
<path d="M338.999 19.179C338.079 19.179 337.261 19.0213 336.545 18.706C335.833 18.3906 335.271 17.9517 334.857 17.3892C334.444 16.8267 334.224 16.1768 334.199 15.4396H336.602C336.623 15.7933 336.741 16.1023 336.954 16.3665C337.167 16.6264 337.45 16.8288 337.804 16.9737C338.158 17.1186 338.554 17.1911 338.993 17.1911C339.462 17.1911 339.877 17.1101 340.239 16.9482C340.601 16.782 340.885 16.5518 341.089 16.2578C341.294 15.9638 341.394 15.625 341.39 15.2415C341.394 14.8452 341.292 14.4957 341.083 14.1932C340.874 13.8906 340.572 13.6541 340.175 13.4837C339.783 13.3132 339.31 13.228 338.756 13.228H337.599V11.3999H338.756C339.212 11.3999 339.611 11.321 339.952 11.1634C340.297 11.0057 340.567 10.7841 340.763 10.4986C340.959 10.2088 341.055 9.87429 341.051 9.49503C341.055 9.12429 340.972 8.80256 340.802 8.52983C340.636 8.25284 340.399 8.03764 340.092 7.88423C339.79 7.73082 339.434 7.65412 339.025 7.65412C338.624 7.65412 338.253 7.72656 337.913 7.87145C337.572 8.01633 337.297 8.22301 337.088 8.49148C336.879 8.75568 336.768 9.07102 336.756 9.4375H334.474C334.491 8.70455 334.702 8.06108 335.106 7.5071C335.516 6.94886 336.061 6.5142 336.743 6.20312C337.425 5.88778 338.19 5.73011 339.038 5.73011C339.911 5.73011 340.67 5.89418 341.313 6.2223C341.961 6.54616 342.462 6.98295 342.815 7.53267C343.169 8.08239 343.346 8.68963 343.346 9.3544C343.35 10.0916 343.133 10.7095 342.694 11.2081C342.259 11.7067 341.688 12.0327 340.981 12.1861V12.2884C341.901 12.4162 342.606 12.7571 343.097 13.3111C343.591 13.8608 343.836 14.5447 343.832 15.3629C343.832 16.0959 343.623 16.7521 343.205 17.3317C342.792 17.907 342.221 18.3587 341.492 18.6868C340.768 19.0149 339.937 19.179 338.999 19.179Z" fill="#3CDE73"/>
<path d="M471.933 16.571V14.6854L477.487 5.90909H479.06V8.59375H478.101L474.362 14.5192V14.6214H482.115V16.571H471.933ZM478.178 19V15.9957L478.203 15.152V5.90909H480.441V19H478.178Z" fill="#3CDE73"/>
<path d="M614.019 19.179C613.167 19.179 612.404 19.0192 611.731 18.6996C611.058 18.3757 610.523 17.9325 610.126 17.37C609.734 16.8075 609.526 16.1641 609.5 15.4396H611.801C611.844 15.9766 612.076 16.4155 612.498 16.7564C612.92 17.093 613.427 17.2614 614.019 17.2614C614.484 17.2614 614.897 17.1548 615.259 16.9418C615.621 16.7287 615.907 16.4325 616.116 16.0533C616.325 15.674 616.427 15.2415 616.423 14.7557C616.427 14.2614 616.322 13.8224 616.109 13.4389C615.896 13.0554 615.604 12.755 615.234 12.5376C614.863 12.3161 614.437 12.2053 613.955 12.2053C613.563 12.201 613.178 12.2734 612.798 12.4226C612.419 12.5717 612.119 12.7678 611.897 13.0107L609.756 12.6591L610.44 5.90909H618.033V7.89062H612.402L612.025 11.3615H612.102C612.344 11.076 612.688 10.8395 613.131 10.652C613.574 10.4602 614.06 10.3643 614.588 10.3643C615.381 10.3643 616.088 10.5518 616.71 10.9268C617.332 11.2976 617.822 11.8089 618.18 12.4609C618.538 13.1129 618.717 13.8587 618.717 14.6982C618.717 15.5632 618.517 16.3345 618.116 17.0121C617.72 17.6854 617.168 18.2159 616.461 18.6037C615.758 18.9872 614.944 19.179 614.019 19.179Z" fill="#3CDE73"/>
<path d="M742 16.375C742 7.83789 748.902 0.875 757.5 0.875C766.037 0.875 773 7.83789 773 16.375C773 24.9727 766.037 31.875 757.5 31.875C748.902 31.875 742 24.9727 742 16.375ZM764.463 13.7109C765.129 13.0449 765.129 12.0156 764.463 11.3496C763.797 10.6836 762.768 10.6836 762.102 11.3496L755.562 17.8887L752.838 15.2246C752.172 14.5586 751.143 14.5586 750.477 15.2246C749.811 15.8906 749.811 16.9199 750.477 17.5859L754.352 21.4609C755.018 22.127 756.047 22.127 756.713 21.4609L764.463 13.7109Z" fill="#3CDE73"/>
</svg>
