<svg width="338" height="64" viewBox="0 0 338 64" fill="none" xmlns="http://www.w3.org/2000/svg">
<path d="M0 59.5C0 57.0147 2.01472 55 4.5 55H65.7446V64H4.5C2.01471 64 0 61.9853 0 59.5V59.5Z" fill="#DE3C4B"/>
<rect x="68.1647" y="55" width="65.7446" height="9" fill="#EDF1F5"/>
<rect x="136.329" y="55" width="65.7446" height="9" fill="#EDF1F5"/>
<rect x="204" y="55" width="65.3413" height="9" fill="#EDF1F5"/>
<path d="M272 55H333.245C335.73 55 337.745 57.0147 337.745 59.5V59.5C337.745 61.9853 335.73 64 333.245 64H272V55Z" fill="#EDF1F5"/>
<path d="M35.036 11.9091V25H32.6645V14.2166H32.5878L29.5261 16.1726V13.9993L32.7796 11.9091H35.036Z" fill="#DE3C4B"/>
<path d="M96.8122 25V23.2869L101.357 18.8317C101.792 18.3928 102.154 18.0028 102.444 17.6619C102.733 17.321 102.951 16.9908 103.096 16.6712C103.24 16.3516 103.313 16.0107 103.313 15.6484C103.313 15.2351 103.219 14.8814 103.032 14.5874C102.844 14.2891 102.586 14.0589 102.258 13.897C101.93 13.7351 101.557 13.6541 101.14 13.6541C100.709 13.6541 100.332 13.7436 100.008 13.9226C99.6843 14.0973 99.4329 14.3466 99.2539 14.6705C99.0792 14.9943 98.9918 15.38 98.9918 15.8274H96.7355C96.7355 14.9964 96.9251 14.2741 97.3043 13.6605C97.6836 13.0469 98.2056 12.5717 98.8704 12.2351C99.5394 11.8984 100.306 11.7301 101.172 11.7301C102.049 11.7301 102.821 11.8942 103.485 12.2223C104.15 12.5504 104.666 13 105.032 13.571C105.403 14.142 105.588 14.794 105.588 15.527C105.588 16.017 105.495 16.4986 105.307 16.9716C105.12 17.4446 104.789 17.9687 104.316 18.544C103.848 19.1193 103.189 19.8161 102.341 20.6342L100.085 22.929V23.0185H105.787V25H96.8122Z" fill="#DE3C4B"/>
<path d="M170.209 25.179C169.289 25.179 168.471 25.0213 167.755 24.706C167.043 24.3906 166.481 23.9517 166.067 23.3892C165.654 22.8267 165.434 22.1768 165.409 21.4396H167.812C167.834 21.7933 167.951 22.1023 168.164 22.3665C168.377 22.6264 168.66 22.8288 169.014 22.9737C169.368 23.1186 169.764 23.1911 170.203 23.1911C170.672 23.1911 171.087 23.1101 171.449 22.9482C171.812 22.782 172.095 22.5518 172.299 22.2578C172.504 21.9638 172.604 21.625 172.6 21.2415C172.604 20.8452 172.502 20.4957 172.293 20.1932C172.084 19.8906 171.782 19.6541 171.385 19.4837C170.993 19.3132 170.52 19.228 169.966 19.228H168.809V17.3999H169.966C170.422 17.3999 170.821 17.321 171.162 17.1634C171.507 17.0057 171.777 16.7841 171.973 16.4986C172.17 16.2088 172.265 15.8743 172.261 15.495C172.265 15.1243 172.182 14.8026 172.012 14.5298C171.846 14.2528 171.609 14.0376 171.302 13.8842C171 13.7308 170.644 13.6541 170.235 13.6541C169.834 13.6541 169.464 13.7266 169.123 13.8714C168.782 14.0163 168.507 14.223 168.298 14.4915C168.089 14.7557 167.978 15.071 167.966 15.4375H165.684C165.701 14.7045 165.912 14.0611 166.317 13.5071C166.726 12.9489 167.271 12.5142 167.953 12.2031C168.635 11.8878 169.4 11.7301 170.248 11.7301C171.121 11.7301 171.88 11.8942 172.523 12.2223C173.171 12.5462 173.672 12.983 174.025 13.5327C174.379 14.0824 174.556 14.6896 174.556 15.3544C174.56 16.0916 174.343 16.7095 173.904 17.2081C173.469 17.7067 172.898 18.0327 172.191 18.1861V18.2884C173.111 18.4162 173.817 18.7571 174.307 19.3111C174.801 19.8608 175.046 20.5447 175.042 21.3629C175.042 22.0959 174.833 22.7521 174.415 23.3317C174.002 23.907 173.431 24.3587 172.702 24.6868C171.978 25.0149 171.147 25.179 170.209 25.179Z" fill="#DE3C4B"/>
<path d="M232.097 22.571V20.6854L237.652 11.9091H239.225V14.5938H238.266L234.526 20.5192V20.6214H242.28V22.571H232.097ZM238.342 25V21.9957L238.368 21.152V11.9091H240.605V25H238.342Z" fill="#DE3C4B"/>
<path d="M290.031 16.375C290.031 7.83789 296.933 0.875 305.531 0.875C314.068 0.875 321.031 7.83789 321.031 16.375C321.031 24.9727 314.068 31.875 305.531 31.875C296.933 31.875 290.031 24.9727 290.031 16.375ZM312.494 13.7109C313.16 13.0449 313.16 12.0156 312.494 11.3496C311.828 10.6836 310.799 10.6836 310.133 11.3496L303.594 17.8887L300.869 15.2246C300.203 14.5586 299.174 14.5586 298.508 15.2246C297.842 15.8906 297.842 16.9199 298.508 17.5859L302.383 21.4609C303.049 22.127 304.078 22.127 304.744 21.4609L312.494 13.7109Z" fill="#3CDE73"/>
</svg>
