<svg width="338" height="64" viewBox="0 0 338 64" fill="none" xmlns="http://www.w3.org/2000/svg">
<path d="M0 59.5C0 57.0147 2.01472 55 4.5 55H55V64H4.5C2.01472 64 0 61.9853 0 59.5Z" fill="#3CDE73"/>
<rect x="57" y="55" width="55" height="9" fill="#3CDE73"/>
<rect x="114" y="55" width="55" height="9" fill="#3CDE73"/>
<rect x="171" y="55" width="55" height="9" fill="#3CDE73"/>
<rect x="228" y="55" width="55" height="9" fill="#3CDE73"/>
<path d="M285 55H333.5C335.985 55 338 57.0147 338 59.5C338 61.9853 335.985 64 333.5 64H285V55Z" fill="#3CDE73"/>
<path d="M29.9787 11.9091V25H27.6073V14.2166H27.5306L24.4688 16.1726V13.9993L27.7224 11.9091H29.9787Z" fill="#3CDE73"/>
<path d="M79.9936 25V23.2869L84.5383 18.8317C84.973 18.3928 85.3352 18.0028 85.6249 17.6619C85.9147 17.321 86.1321 16.9908 86.2769 16.6712C86.4218 16.3516 86.4943 16.0107 86.4943 15.6484C86.4943 15.2351 86.4005 14.8814 86.213 14.5874C86.0255 14.2891 85.7677 14.0589 85.4396 13.897C85.1115 13.7351 84.7386 13.6541 84.321 13.6541C83.8906 13.6541 83.5134 13.7436 83.1896 13.9226C82.8657 14.0973 82.6143 14.3466 82.4353 14.6705C82.2606 14.9943 82.1732 15.38 82.1732 15.8274H79.9169C79.9169 14.9964 80.1065 14.2741 80.4857 13.6605C80.865 13.0469 81.387 12.5717 82.0518 12.2351C82.7208 11.8984 83.4879 11.7301 84.3529 11.7301C85.2308 11.7301 86.0021 11.8942 86.6669 12.2223C87.3316 12.5504 87.8472 13 88.2137 13.571C88.5845 14.142 88.7698 14.794 88.7698 15.527C88.7698 16.017 88.6761 16.4986 88.4886 16.9716C88.3011 17.4446 87.9708 17.9687 87.4978 18.544C87.0291 19.1193 86.3707 19.8161 85.5227 20.6342L83.2663 22.929V23.0185H88.968V25H79.9936Z" fill="#3CDE73"/>
<path d="M141.419 25.179C140.499 25.179 139.681 25.0213 138.965 24.706C138.253 24.3906 137.691 23.9517 137.277 23.3892C136.864 22.8267 136.644 22.1768 136.619 21.4396H139.022C139.044 21.7933 139.161 22.1023 139.374 22.3665C139.587 22.6264 139.87 22.8288 140.224 22.9737C140.578 23.1186 140.974 23.1911 141.413 23.1911C141.882 23.1911 142.297 23.1101 142.659 22.9482C143.022 22.782 143.305 22.5518 143.509 22.2578C143.714 21.9638 143.814 21.625 143.81 21.2415C143.814 20.8452 143.712 20.4957 143.503 20.1932C143.294 19.8906 142.992 19.6541 142.595 19.4837C142.203 19.3132 141.73 19.228 141.176 19.228H140.019V17.3999H141.176C141.632 17.3999 142.031 17.321 142.372 17.1634C142.717 17.0057 142.987 16.7841 143.183 16.4986C143.379 16.2088 143.475 15.8743 143.471 15.495C143.475 15.1243 143.392 14.8026 143.222 14.5298C143.056 14.2528 142.819 14.0376 142.512 13.8842C142.21 13.7308 141.854 13.6541 141.445 13.6541C141.044 13.6541 140.674 13.7266 140.333 13.8714C139.992 14.0163 139.717 14.223 139.508 14.4915C139.299 14.7557 139.188 15.071 139.176 15.4375H136.894C136.911 14.7045 137.122 14.0611 137.526 13.5071C137.936 12.9489 138.481 12.5142 139.163 12.2031C139.845 11.8878 140.61 11.7301 141.458 11.7301C142.331 11.7301 143.09 11.8942 143.733 12.2223C144.381 12.5462 144.882 12.983 145.235 13.5327C145.589 14.0824 145.766 14.6896 145.766 15.3544C145.77 16.0916 145.553 16.7095 145.114 17.2081C144.679 17.7067 144.108 18.0327 143.401 18.1861V18.2884C144.321 18.4162 145.026 18.7571 145.517 19.3111C146.011 19.8608 146.256 20.5447 146.252 21.3629C146.252 22.0959 146.043 22.7521 145.625 23.3317C145.212 23.907 144.641 24.3587 143.912 24.6868C143.188 25.0149 142.357 25.179 141.419 25.179Z" fill="#3CDE73"/>
<path d="M193.353 22.571V20.6854L198.907 11.9091H200.48V14.5938H199.521L195.782 20.5192V20.6214H203.535V22.571H193.353ZM199.598 25V21.9957L199.623 21.152V11.9091H201.861V25H199.598Z" fill="#3CDE73"/>
<path d="M255.439 25.179C254.587 25.179 253.824 25.0192 253.151 24.6996C252.478 24.3757 251.943 23.9325 251.546 23.37C251.154 22.8075 250.946 22.1641 250.92 21.4396H253.221C253.264 21.9766 253.496 22.4155 253.918 22.7564C254.34 23.093 254.847 23.2614 255.439 23.2614C255.904 23.2614 256.317 23.1548 256.679 22.9418C257.041 22.7287 257.327 22.4325 257.536 22.0533C257.745 21.674 257.847 21.2415 257.843 20.7557C257.847 20.2614 257.742 19.8224 257.529 19.4389C257.316 19.0554 257.024 18.755 256.654 18.5376C256.283 18.3161 255.857 18.2053 255.375 18.2053C254.983 18.201 254.598 18.2734 254.218 18.4226C253.839 18.5717 253.539 18.7678 253.317 19.0107L251.176 18.6591L251.86 11.9091H259.453V13.8906H253.822L253.445 17.3615H253.522C253.765 17.076 254.108 16.8395 254.551 16.652C254.994 16.4602 255.48 16.3643 256.008 16.3643C256.801 16.3643 257.508 16.5518 258.13 16.9268C258.752 17.2976 259.242 17.8089 259.6 18.4609C259.958 19.1129 260.137 19.8587 260.137 20.6982C260.137 21.5632 259.937 22.3345 259.537 23.0121C259.14 23.6854 258.588 24.2159 257.881 24.6037C257.178 24.9872 256.364 25.179 255.439 25.179Z" fill="#3CDE73"/>
<path d="M295.752 16.375C295.752 7.83789 302.654 0.875 311.252 0.875C319.789 0.875 326.752 7.83789 326.752 16.375C326.752 24.9727 319.789 31.875 311.252 31.875C302.654 31.875 295.752 24.9727 295.752 16.375ZM318.215 13.7109C318.881 13.0449 318.881 12.0156 318.215 11.3496C317.549 10.6836 316.519 10.6836 315.853 11.3496L309.314 17.8887L306.59 15.2246C305.924 14.5586 304.894 14.5586 304.228 15.2246C303.562 15.8906 303.562 16.9199 304.228 17.5859L308.103 21.4609C308.769 22.127 309.799 22.127 310.465 21.4609L318.215 13.7109Z" fill="#3CDE73"/>
</svg>
