<svg width="838" height="57" viewBox="0 0 838 57" fill="none" xmlns="http://www.w3.org/2000/svg">
<path d="M0 52.5C0 50.0147 2.01472 48 4.5 48H150V57H4.5C2.01471 57 0 54.9853 0 52.5Z" fill="#DE3C4B"/>
<rect x="170" y="48" width="150" height="9" fill="#EDF1F5"/>
<rect x="345" y="48" width="150" height="9" fill="#EDF1F5"/>
<rect x="520" y="48" width="150" height="9" fill="#EDF1F5"/>
<path d="M688 48H833.5C835.985 48 838 50.0147 838 52.5C838 54.9853 835.985 57 833.5 57H688V48Z" fill="#EDF1F5"/>
<path d="M76.6637 15.9091V29H74.2923V18.2166H74.2156L71.1538 20.1726V17.9993L74.4073 15.9091H76.6637Z" fill="#DE3C4B"/>
<path d="M240.574 29V27.2869L245.118 22.8317C245.553 22.3928 245.915 22.0028 246.205 21.6619C246.495 21.321 246.712 20.9908 246.857 20.6712C247.002 20.3516 247.074 20.0107 247.074 19.6484C247.074 19.2351 246.98 18.8814 246.793 18.5874C246.605 18.2891 246.348 18.0589 246.02 17.897C245.691 17.7351 245.319 17.6541 244.901 17.6541C244.471 17.6541 244.093 17.7436 243.77 17.9226C243.446 18.0973 243.194 18.3466 243.015 18.6705C242.841 18.9943 242.753 19.38 242.753 19.8274H240.497C240.497 18.9964 240.686 18.2741 241.066 17.6605C241.445 17.0469 241.967 16.5717 242.632 16.2351C243.301 15.8984 244.068 15.7301 244.933 15.7301C245.811 15.7301 246.582 15.8942 247.247 16.2223C247.912 16.5504 248.427 17 248.794 17.571C249.164 18.142 249.35 18.794 249.35 19.527C249.35 20.017 249.256 20.4986 249.069 20.9716C248.881 21.4446 248.551 21.9687 248.078 22.544C247.609 23.1193 246.951 23.8161 246.103 24.6342L243.846 26.929V27.0185H249.548V29H240.574Z" fill="#DE3C4B"/>
<path d="M418.999 29.179C418.079 29.179 417.261 29.0213 416.545 28.706C415.833 28.3906 415.271 27.9517 414.857 27.3892C414.444 26.8267 414.224 26.1768 414.199 25.4396H416.602C416.623 25.7933 416.741 26.1023 416.954 26.3665C417.167 26.6264 417.45 26.8288 417.804 26.9737C418.158 27.1186 418.554 27.1911 418.993 27.1911C419.462 27.1911 419.877 27.1101 420.239 26.9482C420.601 26.782 420.885 26.5518 421.089 26.2578C421.294 25.9638 421.394 25.625 421.39 25.2415C421.394 24.8452 421.292 24.4957 421.083 24.1932C420.874 23.8906 420.572 23.6541 420.175 23.4837C419.783 23.3132 419.31 23.228 418.756 23.228H417.599V21.3999H418.756C419.212 21.3999 419.611 21.321 419.952 21.1634C420.297 21.0057 420.567 20.7841 420.763 20.4986C420.959 20.2088 421.055 19.8743 421.051 19.495C421.055 19.1243 420.972 18.8026 420.802 18.5298C420.636 18.2528 420.399 18.0376 420.092 17.8842C419.79 17.7308 419.434 17.6541 419.025 17.6541C418.624 17.6541 418.253 17.7266 417.913 17.8714C417.572 18.0163 417.297 18.223 417.088 18.4915C416.879 18.7557 416.768 19.071 416.756 19.4375H414.474C414.491 18.7045 414.702 18.0611 415.106 17.5071C415.516 16.9489 416.061 16.5142 416.743 16.2031C417.425 15.8878 418.19 15.7301 419.038 15.7301C419.911 15.7301 420.67 15.8942 421.313 16.2223C421.961 16.5462 422.462 16.983 422.815 17.5327C423.169 18.0824 423.346 18.6896 423.346 19.3544C423.35 20.0916 423.133 20.7095 422.694 21.2081C422.259 21.7067 421.688 22.0327 420.981 22.1861V22.2884C421.901 22.4162 422.606 22.7571 423.097 23.3111C423.591 23.8608 423.836 24.5447 423.832 25.3629C423.832 26.0959 423.623 26.7521 423.205 27.3317C422.792 27.907 422.221 28.3587 421.492 28.6868C420.768 29.0149 419.937 29.179 418.999 29.179Z" fill="#DE3C4B"/>
<path d="M587.933 26.571V24.6854L593.487 15.9091H595.06V18.5938H594.101L590.362 24.5192V24.6214H598.115V26.571H587.933ZM594.178 29V25.9957L594.203 25.152V15.9091H596.441V29H594.178Z" fill="#DE3C4B"/>
<path d="M748 26.375C748 17.8379 754.902 10.875 763.5 10.875C772.037 10.875 779 17.8379 779 26.375C779 34.9727 772.037 41.875 763.5 41.875C754.902 41.875 748 34.9727 748 26.375ZM770.463 23.7109C771.129 23.0449 771.129 22.0156 770.463 21.3496C769.797 20.6836 768.768 20.6836 768.102 21.3496L761.562 27.8887L758.838 25.2246C758.172 24.5586 757.143 24.5586 756.477 25.2246C755.811 25.8906 755.811 26.9199 756.477 27.5859L760.352 31.4609C761.018 32.127 762.047 32.127 762.713 31.4609L770.463 23.7109Z" fill="#3CDE73"/>
</svg>
