<svg width="207" height="58" viewBox="0 0 207 58" fill="none" xmlns="http://www.w3.org/2000/svg">
<path d="M11.2091 22.3594C12.4584 23.6125 13.1599 25.3098 13.1599 27.0792C13.1599 28.8487 12.4584 30.5459 11.2091 31.799L3.02567 39.9801C1.10275 41.903 0.0224609 44.5111 0.0224609 47.2305C0.022461 49.9499 1.10275 52.558 3.02567 54.4809C4.9486 56.4038 7.55663 57.4841 10.2761 57.4841C12.9955 57.4841 15.6035 56.4038 17.5265 54.4809L25.7075 46.2998C26.3285 45.6792 26.8212 44.9423 27.1574 44.1312C27.4935 43.3201 27.6665 42.4507 27.6665 41.5727C27.6665 40.6947 27.4935 39.8254 27.1574 39.0143C26.8212 38.2032 26.3285 37.4663 25.7075 36.8456L20.0098 31.1625C21.2629 32.4165 21.9668 34.1168 21.9668 35.8896C21.9668 37.6624 21.2629 39.3626 20.0098 40.6167L12.6566 47.9699C12.0902 48.5363 10.6621 48.7542 9.71332 47.8053C8.76451 46.8565 8.98719 45.4285 9.54873 44.8597L16.902 37.5088C18.1551 36.2548 18.859 34.5545 18.859 32.7817C18.859 31.0089 18.1551 29.3087 16.902 28.0546L15.9338 27.0865L11.2091 22.3594Z" fill="#DE3C4B"/>
<g opacity="0.65">
<path d="M24.4295 35.6086C23.1802 34.3555 22.4787 32.6582 22.4787 30.8888C22.4787 29.1193 23.1802 27.4221 24.4295 26.1689L32.6105 17.9879C34.5334 16.065 35.6137 13.4569 35.6137 10.7375C35.6137 8.01806 34.5334 5.41001 32.6105 3.48709C30.6876 1.56416 28.0795 0.483887 25.3601 0.483887C22.6407 0.483887 20.0326 1.56416 18.1097 3.48709L9.92866 11.6681C8.67557 12.9222 7.97168 14.6224 7.97168 16.3952C7.97168 18.168 8.67557 19.8683 9.92866 21.1223L15.6264 26.8055C15.0053 26.1849 14.5126 25.448 14.1765 24.6369C13.8404 23.8258 13.6674 22.9564 13.6674 22.0784C13.6674 21.2004 13.8404 20.331 14.1765 19.5199C14.5126 18.7088 15.0053 17.9719 15.6264 17.3513L22.9772 9.99804C23.546 9.43166 24.9741 9.21382 25.9229 10.1626C26.8717 11.1114 26.649 12.5395 26.0874 13.1083L18.7342 20.4591C18.1131 21.0798 17.6205 21.8167 17.2843 22.6278C16.9482 23.4389 16.7752 24.3082 16.7752 25.1862C16.7752 26.0642 16.9482 26.9336 17.2843 27.7447C17.6205 28.5558 18.1131 29.2927 18.7342 29.9133L19.7024 30.8815L24.4295 35.6086Z" fill="#DE3C4B"/>
</g>
<path d="M62.227 42.8917V26.2827H55.9338V21.7759H74.1427V26.2827H67.8496V42.8917H62.227Z" fill="#042042"/>
<path d="M82.3335 42.8917V21.7759H97.4007V26.0455H87.7601V30.0199H96.7762V34.2919H87.7601V38.6221H97.4007V42.8917H82.3335Z" fill="#042042"/>
<path d="M116.469 43.1576C114.255 43.1576 112.337 42.7082 110.715 41.8094C109.121 40.9373 107.817 39.6181 106.964 38.0142C106.083 36.3828 105.643 34.4796 105.645 32.3044C105.646 30.1293 106.086 28.2405 106.964 26.6382C107.821 25.0406 109.124 23.7269 110.715 22.8575C112.337 21.9587 114.255 21.5093 116.469 21.5093C117.832 21.5065 119.188 21.7164 120.487 22.1314C121.638 22.4693 122.704 23.0466 123.616 23.8257L121.922 27.771C121.109 27.1685 120.212 26.6889 119.259 26.3477C118.403 26.0531 117.503 25.9027 116.597 25.9024C114.917 25.9024 113.617 26.4365 112.698 27.5047C111.778 28.5729 111.318 30.1744 111.318 32.3093C111.318 34.4441 111.778 36.0577 112.698 37.1501C113.617 38.2425 114.917 38.7863 116.597 38.7815C117.503 38.7812 118.403 38.6307 119.259 38.3361C120.212 37.9949 121.109 37.5154 121.922 36.9129L123.616 40.8582C122.705 41.6382 121.638 42.2157 120.487 42.5525C119.187 42.9629 117.831 43.1671 116.469 43.1576Z" fill="#042042"/>
<path d="M132.453 42.8917V21.7759H137.911V42.8917H132.453ZM134.085 34.35V29.9932H149.745V34.35H134.085ZM146.453 42.8917V21.7759H151.909V42.8917H146.453Z" fill="#042042"/>
<path d="M169.29 43.1577C168.235 43.1581 167.182 43.0642 166.143 42.877C165.137 42.7003 164.15 42.4321 163.193 42.0758C162.355 41.7736 161.562 41.36 160.835 40.8462L162.583 36.9009C163.594 37.565 164.699 38.0748 165.86 38.4137C166.994 38.7433 168.169 38.9096 169.35 38.9075C170.556 38.9075 171.471 38.7396 172.095 38.404C172.72 38.0684 173.03 37.6133 173.027 37.0389C173.029 36.709 172.914 36.389 172.703 36.1361C172.367 35.7921 171.951 35.5367 171.492 35.393C170.661 35.0989 169.809 34.8659 168.944 34.6959C167.652 34.4662 166.385 34.1137 165.161 33.643C164.302 33.323 163.508 32.8507 162.818 32.2489C162.283 31.7677 161.875 31.1615 161.632 30.4844C161.395 29.7778 161.28 29.0364 161.29 28.2915C161.277 27.0469 161.662 25.8307 162.389 24.8206C163.171 23.7509 164.226 22.9108 165.444 22.388C166.885 21.768 168.443 21.4651 170.011 21.4997C171.016 21.4998 172.018 21.5938 173.005 21.7805C173.945 21.9545 174.864 22.2229 175.75 22.5817C176.501 22.8733 177.197 23.2889 177.81 23.8112L176.091 27.7565C175.184 27.1054 174.184 26.5954 173.124 26.2438C172.139 25.9147 171.108 25.7448 170.069 25.7403C169.062 25.7403 168.255 25.9332 167.649 26.3188C167.369 26.471 167.136 26.696 166.974 26.97C166.812 27.2441 166.727 27.5568 166.729 27.8751C166.728 28.189 166.838 28.4932 167.039 28.7344C167.376 29.0731 167.792 29.3227 168.249 29.4605C169.13 29.7675 170.032 30.0102 170.948 30.1867C172.201 30.4202 173.428 30.7778 174.61 31.2541C175.456 31.5885 176.238 32.0649 176.924 32.6628C177.459 33.1426 177.874 33.7422 178.134 34.4127C178.378 35.0927 178.498 35.8107 178.49 36.533C178.522 37.7934 178.148 39.0307 177.422 40.062C176.711 41.0512 175.672 41.8128 174.307 42.3469C172.942 42.881 171.27 43.1513 169.29 43.1577Z" fill="#042042"/>
<path d="M191.918 42.8912V33.4007L193.071 36.4868L183.045 21.7778H189.338L195.389 31.3264H193.966L200.107 21.7778H206.453L196.396 36.4868L197.522 33.4032V42.8936L191.918 42.8912Z" fill="#042042"/>
</svg>
