<svg width="228" height="67" viewBox="0 0 228 67" fill="none" xmlns="http://www.w3.org/2000/svg">
<path d="M20.7785 40.4201C16.1113 40.3555 11.7808 39.3015 7.98749 36.4402C4.10359 33.5046 1.78297 29.5538 0.902623 24.8691C-0.362879 18.1314 1.03856 11.9692 5.78662 6.82537C9.00378 3.34013 13.1304 1.60398 17.8008 1.00586C22.4712 0.407745 26.9797 0.795713 31.2876 2.70322C37.7058 5.54831 40.9812 10.608 41.6156 17.5236C42.0687 22.4475 41.1916 27.0611 38.5214 31.2382C35.2848 36.3109 30.5659 39.1786 24.6267 40.0386C23.3548 40.2391 22.0634 40.2876 20.7785 40.4201ZM19.9305 3.40157C14.1046 3.24315 10.033 6.67663 8.57655 11.6976C7.04328 16.7751 7.15657 22.2069 8.90021 27.2163C10.4246 31.6068 13.1401 35.1114 17.6681 36.7474C24.5588 39.2368 30.9381 37.006 33.2781 29.9159C35.2783 23.8862 35.2201 17.7531 32.5499 11.9045C30.1322 6.59258 25.9537 3.54059 19.9305 3.40157Z" fill="#C3CAD1"/>
<path d="M107.733 18.9494C107.374 21.691 107.011 24.4455 106.662 27.1743C106.289 30.084 105.956 33.0132 105.551 35.9229C105.283 37.8628 105.733 38.4706 107.736 38.6387C108.189 38.6775 108.633 38.8004 109.083 38.8844L109.134 39.2465C108.879 39.4097 108.596 39.5258 108.299 39.5892C105.19 39.6129 102.08 39.6129 98.9682 39.5892C98.7093 39.5892 98.4569 39.3403 98.2012 39.2045C98.4633 39.0234 98.7093 38.7163 98.9941 38.6743C101.26 38.351 101.477 38.2572 101.855 36.0361C102.7 31.0766 103.454 26.1041 104.237 21.1349C104.927 16.7606 105.584 12.3798 106.322 8.01517C106.422 7.42998 106.921 6.91266 107.234 6.36304C107.726 6.8189 108.396 7.18748 108.684 7.75003C110.95 12.189 113.167 16.6701 115.394 21.1349L120.524 31.4064C121.022 30.4138 121.433 29.6217 121.818 28.8199C125.271 21.8128 128.713 14.8078 132.146 7.80501C132.195 7.65064 132.274 7.50766 132.379 7.3847C132.81 7.02906 133.266 6.70251 133.713 6.36304C134.004 6.80273 134.467 7.21336 134.554 7.68862C135.014 10.2751 135.386 12.8615 135.781 15.448C136.644 21.0519 137.507 26.6613 138.37 32.276C138.542 33.3882 138.694 34.5036 138.934 35.6061C139.406 37.8369 140.196 38.4868 142.465 38.6484C142.989 38.684 143.51 38.7939 144.031 38.8682L144.063 39.2594C143.74 39.3758 143.397 39.5827 143.067 39.5827C139.83 39.5245 136.599 39.4405 133.373 39.3306C133.049 39.3306 132.726 39.1398 132.179 38.9685C133.622 37.9016 133.04 36.6472 132.884 35.4574C132.133 29.7931 131.378 24.1287 130.619 18.4644C130.619 18.445 130.551 18.4353 130.366 18.3674C129.282 20.5206 128.182 22.6933 127.094 24.8691C124.867 29.3307 122.642 33.7923 120.417 38.254C120.254 38.5784 120.062 38.8878 119.844 39.1786C119.443 39.7121 118.977 39.7606 118.55 39.2142C118.195 38.7768 117.883 38.307 117.617 37.811C114.687 32.0777 111.768 26.3423 108.859 20.6047C108.571 20.0357 108.293 19.4634 108.011 18.8944L107.733 18.9494Z" fill="#C3CAD1"/>
<path d="M161.954 39.3888H147.483L147.415 38.9103C147.9 38.7775 148.394 38.6866 148.894 38.6387C150.024 38.6193 150.768 38.1829 150.869 36.9866C151.008 35.3054 151.212 33.6178 151.218 31.9334C151.247 25.3476 151.218 18.7619 151.192 12.1761C151.192 11.9724 151.192 11.772 151.192 11.5683C151.079 8.79111 150.733 8.43868 147.956 8.18327C147.547 8.11925 147.143 8.02964 146.745 7.91494C146.745 7.76298 146.729 7.61102 146.723 7.45906C147.289 7.33765 147.863 7.25555 148.441 7.21335C152.6 7.19072 156.763 7.14545 160.922 7.21335C162.652 7.24181 164.376 7.43013 166.071 7.7759C171.026 8.80078 173.046 13.3142 171.538 17.918C170.155 22.1469 167.058 24.3389 162.77 25.0308C161.973 25.1573 161.168 25.2243 160.362 25.2312C159.911 25.176 159.469 25.0675 159.044 24.9079L158.999 24.5555C159.327 24.349 159.684 24.1911 160.057 24.0867C164.343 23.5339 166.854 20.3169 166.365 15.9846C165.877 11.6523 162.77 9.05621 158.543 9.25019C157.591 9.29869 157.099 9.57348 157.109 10.6857C157.157 18.6842 157.148 26.6829 157.157 34.6847C157.158 34.9666 157.173 35.2482 157.203 35.5285C157.526 38.2669 157.824 38.5385 160.585 38.6355C161.059 38.6818 161.529 38.7584 161.993 38.865L161.954 39.3888Z" fill="#C3CAD1"/>
<path d="M226.988 7.902C227.334 10.2039 226.735 15.9233 225.978 16.4114C225.848 15.7907 225.722 15.2314 225.622 14.6656C225.5 13.9114 225.228 13.1891 224.823 12.5411C224.418 11.8932 223.887 11.3327 223.262 10.8926C219.964 8.46132 210.801 8.18652 207.387 11.1836C205.248 13.054 203.836 15.6166 203.399 18.4224C202.697 22.3247 202.839 26.1817 204.723 29.7381C207.332 34.6621 211.442 37.3423 217.1 37.4134C218.389 37.4357 219.679 37.3524 220.955 37.1644C223.615 36.77 225.243 35.1308 226.104 32.6382C226.291 32.2505 226.525 31.8868 226.8 31.5551C226.958 32.0013 227.295 32.4701 227.246 32.8936C227.065 34.4487 226.732 35.9876 226.499 37.5395C226.305 38.8521 225.379 39.4179 224.253 39.544C221.615 39.8414 218.961 40.1712 216.31 40.1906C212.536 40.21 208.847 39.5796 205.406 37.879C199.431 34.9207 196.133 29.1044 196.395 22.5543C196.719 14.1806 202.658 8.34819 210.497 7.0776C215.113 6.33076 219.653 6.69608 224.207 7.46231L226.988 7.902Z" fill="#C3CAD1"/>
<path d="M91.0514 39.4342H76.6389L76.4609 39.1852C76.8137 39.0009 77.1503 38.6905 77.516 38.655C79.4968 38.4578 79.9435 38.2379 80.0114 36.3078C80.1312 32.968 80.1182 29.6153 79.9305 26.2853C79.869 25.1957 79.2152 24.0674 78.6067 23.0943C76.3411 19.4344 73.9655 15.8231 71.6125 12.2086C70.292 10.1847 68.8679 8.27069 66.1718 8.00558C66.0812 8.00558 66.0003 7.86009 65.709 7.59174C66.2721 7.43009 66.68 7.21346 67.0878 7.21022C70.3567 7.1822 73.6267 7.1822 76.8978 7.21022C77.2914 7.25259 77.6797 7.33492 78.0565 7.45594C78.008 7.72752 78.0209 7.85362 77.9756 7.87625C76.1599 8.84617 76.1567 8.84615 77.2409 10.6858C79.5551 14.6463 81.8757 18.6035 84.2708 22.6966C84.5297 22.2989 84.7336 22.0209 84.9181 21.7267C86.7014 18.6617 88.4945 15.6033 90.2487 12.5189C90.6776 11.7015 91.0602 10.8607 91.3945 10.0004C91.8282 8.99164 91.4592 8.38385 90.4235 8.12844C90.1039 7.99274 89.7973 7.82824 89.5075 7.63701C90.171 7.43009 90.54 7.21993 90.909 7.2167C93.7734 7.19083 96.6377 7.1973 99.5053 7.2167C99.8784 7.25114 100.225 7.42421 100.476 7.70166C100.241 7.87728 99.9772 8.01077 99.6963 8.09612C97.544 8.3289 96.0487 9.55099 94.9418 11.2807C92.3137 15.3931 89.6823 19.4991 87.174 23.6827C86.6207 24.7068 86.3232 25.8491 86.3066 27.0127C86.1901 29.9225 86.2613 32.8322 86.2839 35.742C86.3033 37.8532 87.0348 38.5548 89.1289 38.6324C89.7762 38.655 90.4526 38.7875 91.1161 38.8684L91.0514 39.4342Z" fill="#C3CAD1"/>
<path d="M69.4112 32.6188C69.518 33.0132 69.7543 33.4238 69.7122 33.802C69.5439 35.3184 69.272 36.8282 69.0649 38.3283C68.9483 39.198 68.4693 39.6216 67.6213 39.6216C64.9997 39.6216 62.3813 39.5731 59.7597 39.5666C55.7625 39.5666 51.7621 39.5666 47.7649 39.5666H46.001L45.8715 39.0461C46.2359 38.8513 46.626 38.7087 47.0302 38.6226C48.7942 38.4868 49.2667 38.1441 49.3703 36.3885C49.5148 33.8926 49.5925 31.3934 49.6033 28.891C49.6357 23.0715 49.6033 17.252 49.6033 11.4325C49.6033 9.01742 49.1081 8.4581 46.7325 8.16066C46.6106 8.15826 46.4896 8.13865 46.3732 8.10245C46.0754 7.96989 45.7874 7.81148 45.4961 7.66276C45.8198 7.49787 46.1434 7.19397 46.4671 7.18751C47.7164 7.16164 48.9689 7.26186 50.2183 7.25862C52.9661 7.25862 55.7204 7.18426 58.4586 7.17456C58.9455 7.21105 59.4284 7.28895 59.9021 7.40737L59.9312 7.87939C59.4037 7.97638 58.8794 8.1057 58.3453 8.1639C56.193 8.40638 55.756 8.72968 55.7269 10.8247C55.6719 18.2607 55.701 25.6968 55.7269 33.1328C55.7588 33.6156 55.8259 34.0953 55.9276 34.5683C56.1542 36.0458 56.8986 36.7442 58.7078 36.8573C60.7216 36.9904 62.7414 37.0055 64.757 36.9026C67.1941 36.7636 67.9936 35.9973 68.6409 33.6695C68.7444 33.3042 68.8868 32.9486 69.0131 32.5865L69.4112 32.6188Z" fill="#C3CAD1"/>
<path d="M177.467 39.0299C177.854 38.8552 178.261 38.7271 178.678 38.6484C180.442 38.5255 180.82 38.2895 180.966 36.5307C181.141 34.4842 181.206 32.4247 181.212 30.3717C181.235 23.9476 181.212 17.5268 181.212 11.1059C181.212 8.99797 180.649 8.40309 178.558 8.16061C178.14 8.08438 177.729 7.97629 177.328 7.83731C177.348 7.69828 177.37 7.55601 177.393 7.41699H190.857L190.98 7.7403C190.674 7.91648 190.348 8.05543 190.009 8.15414C187.585 8.56797 187.248 8.90098 187.245 11.3484C187.226 18.9806 187.226 26.6138 187.245 34.2482C187.261 34.9746 187.323 35.6992 187.433 36.4176C187.65 38.0891 188.148 38.532 189.857 38.6225C190.342 38.611 190.827 38.6272 191.31 38.671C191.579 38.713 191.812 38.962 192.061 39.1172C191.796 39.2853 191.533 39.586 191.265 39.5924C189.812 39.6312 188.352 39.5924 186.899 39.5924C184.478 39.5924 182.044 39.5924 179.633 39.6118H177.594L177.467 39.0299Z" fill="#C3CAD1"/>
<path d="M19.2466 62.9188H16.3336V65.182H19.5702V66.3361H14.916V58.635H19.3987V59.7892H16.3207V61.7775H19.2336L19.2466 62.9188Z" fill="#C3CAD1"/>
<path d="M25.0566 66.3267V58.6255H26.6426L28.6331 61.9297C29.1303 62.761 29.5704 63.6252 29.9503 64.5161H29.973C29.8791 63.488 29.8468 62.4955 29.8468 61.3187V58.632H31.1414V66.3331H29.6882L27.675 62.9513C27.1644 62.0906 26.702 61.2023 26.2898 60.2905H26.2574C26.3124 61.2863 26.3254 62.3015 26.3254 63.5689V66.3234L25.0566 66.3267Z" fill="#C3CAD1"/>
<path d="M38.4913 59.8023H36.2969V58.6255H42.1227V59.8023H39.9121V66.3267H38.5042L38.4913 59.8023Z" fill="#C3CAD1"/>
<path d="M51.5649 62.9188H48.652V65.182H51.8886V66.3361H47.2344V58.635H51.717V59.7892H48.652V61.7775H51.5649V62.9188Z" fill="#C3CAD1"/>
<path d="M57.3906 58.716C58.0941 58.607 58.8052 58.554 59.5171 58.5575C60.6272 58.5575 61.3813 58.7386 61.8959 59.1718C62.1151 59.3628 62.2885 59.6006 62.4033 59.8675C62.5182 60.1344 62.5715 60.4237 62.5594 60.714C62.5576 61.1421 62.4222 61.5589 62.1722 61.9065C61.9222 62.2542 61.57 62.5154 61.1645 62.6538V62.6862C61.7115 62.8931 62.0448 63.4298 62.239 64.1734C62.3889 64.9025 62.5912 65.62 62.8443 66.3201H61.391C61.1691 65.7298 60.997 65.1221 60.8764 64.5031C60.6596 63.4977 60.2938 63.1776 59.4944 63.1549H58.7856V66.3201H57.3906V58.716ZM58.7856 62.1204H59.6206C60.5689 62.1204 61.1645 61.6192 61.1645 60.853C61.1645 60.0059 60.5689 59.618 59.653 59.618C59.3623 59.6103 59.0716 59.633 58.7856 59.6859V62.1204Z" fill="#C3CAD1"/>
<path d="M69.6449 59.8023H67.4473V58.6255H73.2731V59.8023H71.056V66.3267H69.6481L69.6449 59.8023Z" fill="#C3CAD1"/>
<path d="M79.1115 64.1443L78.448 66.3267H76.998L79.4676 58.6255H81.2639L83.769 66.3267H82.2575L81.5616 64.1443H79.1115ZM81.3221 63.0807L80.7136 61.1861C80.5648 60.7173 80.4385 60.1903 80.3252 59.7474H80.3026C80.1893 60.1903 80.0728 60.7173 79.9369 61.1861L79.3413 63.0807H81.3221Z" fill="#C3CAD1"/>
<path d="M90.4789 58.6255V66.3267H89.0742V58.6255H90.4789Z" fill="#C3CAD1"/>
<path d="M96.3223 66.3267V58.6255H97.9406L99.9311 61.9297C100.427 62.761 100.866 63.6252 101.245 64.5161H101.268C101.177 63.488 101.142 62.4955 101.142 61.3187V58.632H102.436V66.3331H100.983L98.9698 62.9513C98.459 62.0913 97.9975 61.2029 97.5878 60.2905H97.5522C97.6104 61.2863 97.6201 62.3015 97.6201 63.5689V66.3234L96.3223 66.3267Z" fill="#C3CAD1"/>
<path d="M114.795 63.1841C114.746 62.1915 114.691 60.9921 114.701 59.951H114.669C114.416 60.8886 114.096 61.9297 113.753 62.8996L112.633 66.2361H111.545L110.516 62.9449C110.218 61.9749 109.943 60.9113 109.736 59.951H109.713C109.681 60.9565 109.636 62.1786 109.577 63.2294L109.406 66.3267H108.092L108.606 58.6255H110.471L111.477 61.7228C111.752 62.6248 111.992 63.5397 112.186 64.3965H112.222C112.426 63.5624 112.691 62.6151 112.989 61.7098L114.05 58.6255H115.882L116.329 66.3267H114.953L114.795 63.1841Z" fill="#C3CAD1"/>
<path d="M126.284 62.9188H123.371V65.182H126.607V66.3361H121.953V58.635H126.436V59.7892H123.361V61.7775H126.274L126.284 62.9188Z" fill="#C3CAD1"/>
<path d="M132.094 66.3267V58.6255H133.712L135.703 61.9297C136.2 62.7604 136.639 63.6246 137.017 64.5161H137.01C136.919 63.488 136.884 62.4955 136.884 61.3187V58.632H138.179V66.3331H136.725L134.745 62.9449C134.234 62.0848 133.772 61.1965 133.362 60.2841H133.327C133.385 61.2798 133.395 62.295 133.395 63.5624V66.317L132.094 66.3267Z" fill="#C3CAD1"/>
<path d="M145.532 59.8023H143.334V58.6255H149.16V59.8023H146.94V66.3267H145.535L145.532 59.8023Z" fill="#C3CAD1"/>
<path d="M167.065 65.9741C166.267 66.2539 165.428 66.4003 164.583 66.4074C163.288 66.4074 162.294 66.0841 161.563 65.3793C161.2 65.0047 160.917 64.56 160.733 64.0724C160.548 63.5848 160.465 63.0647 160.488 62.5439C160.488 60.1126 162.226 58.5446 164.777 58.5446C165.478 58.5257 166.175 58.6512 166.826 58.9131L166.502 60.0415C165.949 59.8093 165.353 59.699 164.754 59.7182C163.107 59.7182 161.951 60.6881 161.951 62.4825C161.951 64.2768 163.026 65.2694 164.628 65.2694C164.989 65.2879 165.35 65.234 165.689 65.1109V63.1905H164.343V62.0816H167.065V65.9741Z" fill="#C3CAD1"/>
<path d="M172.736 58.7159C173.44 58.6072 174.151 58.5543 174.863 58.5575C175.973 58.5575 176.73 58.7386 177.245 59.1718C177.46 59.3652 177.63 59.6038 177.742 59.8704C177.853 60.1371 177.905 60.4251 177.892 60.714C177.89 61.1424 177.754 61.5595 177.504 61.9072C177.253 62.2549 176.9 62.5159 176.494 62.6538V62.6861C177.044 62.8931 177.378 63.4297 177.572 64.1733C177.72 64.9029 177.922 65.6205 178.177 66.3201H176.74C176.517 65.7303 176.344 65.1224 176.225 64.5031C176.009 63.4976 175.643 63.1775 174.84 63.1549H174.131V66.3201H172.736V58.7159ZM174.131 62.1204H174.966C175.918 62.1204 176.51 61.6192 176.51 60.853C176.51 60.0059 175.918 59.618 175.002 59.618C174.71 59.6105 174.418 59.6333 174.131 59.6858V62.1204Z" fill="#C3CAD1"/>
<path d="M190.314 62.3954C190.314 64.9818 188.747 66.4529 186.621 66.4529C184.446 66.4529 183.061 64.7975 183.061 62.5344C183.061 60.1678 184.549 58.4995 186.721 58.4995C188.987 58.4995 190.314 60.2034 190.314 62.3954ZM184.562 62.5118C184.562 64.0766 185.352 65.3213 186.698 65.3213C188.045 65.3213 188.828 64.0636 188.828 62.4536C188.828 61.0019 188.106 59.6311 186.698 59.6311C185.291 59.6311 184.562 60.9243 184.562 62.5118Z" fill="#C3CAD1"/>
<path d="M197.153 58.6255V63.1162C197.153 64.6261 197.781 65.3212 198.729 65.3212C199.748 65.3212 200.347 64.6261 200.347 63.1162V58.6255H201.755V63.0257C201.755 65.402 200.532 66.4528 198.677 66.4528C196.894 66.4528 195.738 65.4602 195.738 63.0354V58.6255H197.153Z" fill="#C3CAD1"/>
<path d="M207.603 58.7158C208.315 58.6002 209.035 58.5472 209.756 58.5574C210.785 58.5574 211.539 58.774 212.021 59.1846C212.265 59.3949 212.459 59.6565 212.589 59.9505C212.72 60.2445 212.783 60.5637 212.776 60.8852C212.792 61.2066 212.741 61.528 212.627 61.829C212.513 62.13 212.337 62.4042 212.112 62.6343C211.552 63.1936 210.672 63.4587 209.675 63.4587C209.445 63.4631 209.216 63.4469 208.989 63.4102V66.32H207.594L207.603 58.7158ZM208.998 62.3045C209.224 62.3501 209.454 62.3686 209.685 62.3595C210.736 62.3595 211.377 61.8454 211.377 60.9434C211.377 60.0413 210.785 59.6307 209.811 59.6307C209.538 59.6243 209.266 59.6471 208.998 59.6987V62.3045Z" fill="#C3CAD1"/>
<path d="M227.259 47.4487H0.458984V48.9036H227.259V47.4487Z" fill="#C3CAD1"/>
</svg>
