<svg viewBox="0 0 215 511" fill="none" xmlns="http://www.w3.org/2000/svg">
<g opacity="0.3">
<circle cx="28.5" cy="186.5" r="2.5" fill="#DE3C4B"/>
<circle cx="28.5" cy="232.5" r="2.5" fill="#DE3C4B"/>
<circle cx="74.5" cy="186.5" r="2.5" fill="#DE3C4B"/>
<circle cx="74.5" cy="232.5" r="2.5" fill="#DE3C4B"/>
<circle cx="120.5" cy="186.5" r="2.5" fill="#DE3C4B"/>
<circle cx="120.5" cy="232.5" r="2.5" fill="#DE3C4B"/>
<circle cx="166.5" cy="186.5" r="2.5" fill="#DE3C4B"/>
<circle cx="166.5" cy="232.5" r="2.5" fill="#DE3C4B"/>
<circle cx="212.5" cy="186.5" r="2.5" fill="#DE3C4B"/>
<circle cx="212.5" cy="232.5" r="2.5" fill="#DE3C4B"/>
<circle cx="28.5" cy="278.5" r="2.5" fill="#DE3C4B"/>
<circle cx="28.5" cy="324.5" r="2.5" fill="#DE3C4B"/>
<circle cx="74.5" cy="278.5" r="2.5" fill="#DE3C4B"/>
<circle cx="74.5" cy="324.5" r="2.5" fill="#DE3C4B"/>
<circle cx="120.5" cy="278.5" r="2.5" fill="#DE3C4B"/>
<circle cx="120.5" cy="324.5" r="2.5" fill="#DE3C4B"/>
<circle cx="166.5" cy="278.5" r="2.5" fill="#DE3C4B"/>
<circle cx="166.5" cy="324.5" r="2.5" fill="#DE3C4B"/>
<circle cx="212.5" cy="278.5" r="2.5" fill="#DE3C4B"/>
<circle cx="212.5" cy="324.5" r="2.5" fill="#DE3C4B"/>
<circle cx="28.5" cy="370.5" r="2.5" fill="#DE3C4B"/>
<circle cx="28.5" cy="416.5" r="2.5" fill="#DE3C4B"/>
<circle cx="74.5" cy="370.5" r="2.5" fill="#DE3C4B"/>
<circle cx="74.5" cy="416.5" r="2.5" fill="#DE3C4B"/>
<circle cx="120.5" cy="370.5" r="2.5" fill="#DE3C4B"/>
<circle cx="120.5" cy="416.5" r="2.5" fill="#DE3C4B"/>
<circle cx="166.5" cy="370.5" r="2.5" fill="#DE3C4B"/>
<circle cx="166.5" cy="416.5" r="2.5" fill="#DE3C4B"/>
<circle cx="212.5" cy="370.5" r="2.5" fill="#DE3C4B"/>
<circle cx="212.5" cy="416.5" r="2.5" fill="#DE3C4B"/>
<circle cx="28.5" cy="462.5" r="2.5" fill="#DE3C4B"/>
<circle cx="28.5" cy="508.5" r="2.5" fill="#DE3C4B"/>
<circle cx="74.5" cy="462.5" r="2.5" fill="#DE3C4B"/>
<circle cx="74.5" cy="508.5" r="2.5" fill="#DE3C4B"/>
<circle cx="120.5" cy="462.5" r="2.5" fill="#DE3C4B"/>
<circle cx="120.5" cy="508.5" r="2.5" fill="#DE3C4B"/>
<circle cx="166.5" cy="462.5" r="2.5" fill="#DE3C4B"/>
<circle cx="166.5" cy="508.5" r="2.5" fill="#DE3C4B"/>
<circle cx="212.5" cy="462.5" r="2.5" fill="#DE3C4B"/>
<circle cx="212.5" cy="508.5" r="2.5" fill="#DE3C4B"/>
<circle cx="28.5" cy="2.5" r="2.5" fill="#DE3C4B"/>
<circle cx="28.5" cy="48.5" r="2.5" fill="#DE3C4B"/>
<circle cx="74.5" cy="2.5" r="2.5" fill="#DE3C4B"/>
<circle cx="74.5" cy="48.5" r="2.5" fill="#DE3C4B"/>
<circle cx="120.5" cy="2.5" r="2.5" fill="#DE3C4B"/>
<circle cx="120.5" cy="48.5" r="2.5" fill="#DE3C4B"/>
<circle cx="166.5" cy="2.5" r="2.5" fill="#DE3C4B"/>
<circle cx="166.5" cy="48.5" r="2.5" fill="#DE3C4B"/>
<circle cx="212.5" cy="2.5" r="2.5" fill="#DE3C4B"/>
<circle cx="212.5" cy="48.5" r="2.5" fill="#DE3C4B"/>
<circle cx="28.5" cy="94.5" r="2.5" fill="#DE3C4B"/>
<circle cx="28.5" cy="140.5" r="2.5" fill="#DE3C4B"/>
<circle cx="74.5" cy="94.5" r="2.5" fill="#DE3C4B"/>
<circle cx="74.5" cy="140.5" r="2.5" fill="#DE3C4B"/>
<circle cx="120.5" cy="94.5" r="2.5" fill="#DE3C4B"/>
<circle cx="120.5" cy="140.5" r="2.5" fill="#DE3C4B"/>
<circle cx="166.5" cy="94.5" r="2.5" fill="#DE3C4B"/>
<circle cx="166.5" cy="140.5" r="2.5" fill="#DE3C4B"/>
<circle cx="212.5" cy="94.5" r="2.5" fill="#DE3C4B"/>
<circle cx="212.5" cy="140.5" r="2.5" fill="#DE3C4B"/>
</g>
</svg>
