<svg width="40" height="36" viewBox="0 0 40 36" fill="none" xmlns="http://www.w3.org/2000/svg">
<path fill-rule="evenodd" clip-rule="evenodd" d="M17.5 31.9604C17.5 34.0307 15.8203 35.7104 13.75 35.7104H3.74999C1.67968 35.7104 0 34.0307 0 31.9604V13.2104C0 6.30416 5.59371 0.710449 12.5 0.710449H13.125C14.164 0.710449 15 1.5464 15 2.58544V6.33544C15 7.37448 14.164 8.21043 13.125 8.21043H12.5C9.74218 8.21043 7.49998 10.4526 7.49998 13.2104V18.2104H13.75C15.8203 18.2104 17.5 19.8901 17.5 21.9604V31.9604ZM39.9999 31.9604C39.9999 34.0307 38.3202 35.7104 36.2499 35.7104H26.2499C24.1796 35.7104 22.4999 34.0307 22.4999 31.9604V13.2104C22.4999 6.30416 28.0937 0.710449 34.9999 0.710449H35.6249C36.664 0.710449 37.4999 1.5464 37.4999 2.58544V6.33544C37.4999 7.37448 36.664 8.21043 35.6249 8.21043H34.9999C32.2421 8.21043 29.9999 10.4526 29.9999 13.2104V18.2104H36.2499C38.3202 18.2104 39.9999 19.8901 39.9999 21.9604V31.9604Z" fill="white"/>
</svg>
