<svg
          
          viewBox="0 0 410 511"
          fill="none"
          xmlns="http://www.w3.org/2000/svg"
        >
          <circle cx="2.5" cy="186.5" r="2.5" fill="#861C26" />
          <circle cx="2.5" cy="232.5" r="2.5" fill="#861C26" />
          <circle cx="48.5" cy="186.5" r="2.5" fill="#861C26" />
          <circle cx="48.5" cy="232.5" r="2.5" fill="#861C26" />
          <circle cx="94.5" cy="186.5" r="2.5" fill="#861C26" />
          <circle cx="94.5" cy="232.5" r="2.5" fill="#861C26" />
          <circle cx="140.5" cy="186.5" r="2.5" fill="#861C26" />
          <circle cx="140.5" cy="232.5" r="2.5" fill="#861C26" />
          <circle cx="186.5" cy="186.5" r="2.5" fill="#861C26" />
          <circle cx="186.5" cy="232.5" r="2.5" fill="#861C26" />
          <circle cx="232.5" cy="186.5" r="2.5" fill="#861C26" />
          <circle cx="232.5" cy="232.5" r="2.5" fill="#861C26" />
          <circle cx="278.5" cy="186.5" r="2.5" fill="#861C26" />
          <circle cx="278.5" cy="232.5" r="2.5" fill="#861C26" />
          <circle cx="324.5" cy="186.5" r="2.5" fill="#861C26" />
          <circle cx="324.5" cy="232.5" r="2.5" fill="#861C26" />
          <circle cx="370.5" cy="186.5" r="2.5" fill="#861C26" />
          <circle cx="370.5" cy="232.5" r="2.5" fill="#861C26" />
          <circle cx="2.5" cy="278.5" r="2.5" fill="#861C26" />
          <circle cx="2.5" cy="324.5" r="2.5" fill="#861C26" />
          <circle cx="48.5" cy="278.5" r="2.5" fill="#861C26" />
          <circle cx="48.5" cy="324.5" r="2.5" fill="#861C26" />
          <circle cx="94.5" cy="278.5" r="2.5" fill="#861C26" />
          <circle cx="94.5" cy="324.5" r="2.5" fill="#861C26" />
          <circle cx="140.5" cy="278.5" r="2.5" fill="#861C26" />
          <circle cx="140.5" cy="324.5" r="2.5" fill="#861C26" />
          <circle cx="186.5" cy="278.5" r="2.5" fill="#861C26" />
          <circle cx="186.5" cy="324.5" r="2.5" fill="#861C26" />
          <circle cx="232.5" cy="278.5" r="2.5" fill="#861C26" />
          <circle cx="232.5" cy="324.5" r="2.5" fill="#861C26" />
          <circle cx="278.5" cy="278.5" r="2.5" fill="#861C26" />
          <circle cx="278.5" cy="324.5" r="2.5" fill="#861C26" />
          <circle cx="324.5" cy="278.5" r="2.5" fill="#861C26" />
          <circle cx="324.5" cy="324.5" r="2.5" fill="#861C26" />
          <circle cx="370.5" cy="278.5" r="2.5" fill="#861C26" />
          <circle cx="370.5" cy="324.5" r="2.5" fill="#861C26" />
          <circle cx="2.5" cy="370.5" r="2.5" fill="#861C26" />
          <circle cx="2.5" cy="416.5" r="2.5" fill="#861C26" />
          <circle cx="48.5" cy="370.5" r="2.5" fill="#861C26" />
          <circle cx="48.5" cy="416.5" r="2.5" fill="#861C26" />
          <circle cx="94.5" cy="370.5" r="2.5" fill="#861C26" />
          <circle cx="94.5" cy="416.5" r="2.5" fill="#861C26" />
          <circle cx="140.5" cy="370.5" r="2.5" fill="#861C26" />
          <circle cx="140.5" cy="416.5" r="2.5" fill="#861C26" />
          <circle cx="186.5" cy="370.5" r="2.5" fill="#861C26" />
          <circle cx="186.5" cy="416.5" r="2.5" fill="#861C26" />
          <circle cx="232.5" cy="370.5" r="2.5" fill="#861C26" />
          <circle cx="232.5" cy="416.5" r="2.5" fill="#861C26" />
          <circle cx="278.5" cy="370.5" r="2.5" fill="#861C26" />
          <circle cx="278.5" cy="416.5" r="2.5" fill="#861C26" />
          <circle cx="324.5" cy="370.5" r="2.5" fill="#861C26" />
          <circle cx="324.5" cy="416.5" r="2.5" fill="#861C26" />
          <circle cx="370.5" cy="370.5" r="2.5" fill="#861C26" />
          <circle cx="370.5" cy="416.5" r="2.5" fill="#861C26" />
          <circle cx="2.5" cy="462.5" r="2.5" fill="#861C26" />
          <circle cx="2.5" cy="508.5" r="2.5" fill="#861C26" />
          <circle cx="48.5" cy="462.5" r="2.5" fill="#861C26" />
          <circle cx="48.5" cy="508.5" r="2.5" fill="#861C26" />
          <circle cx="94.5" cy="462.5" r="2.5" fill="#861C26" />
          <circle cx="94.5" cy="508.5" r="2.5" fill="#861C26" />
          <circle cx="140.5" cy="462.5" r="2.5" fill="#861C26" />
          <circle cx="140.5" cy="508.5" r="2.5" fill="#861C26" />
          <circle cx="186.5" cy="462.5" r="2.5" fill="#861C26" />
          <circle cx="186.5" cy="508.5" r="2.5" fill="#861C26" />
          <circle cx="232.5" cy="462.5" r="2.5" fill="#861C26" />
          <circle cx="232.5" cy="508.5" r="2.5" fill="#861C26" />
          <circle cx="278.5" cy="462.5" r="2.5" fill="#861C26" />
          <circle cx="278.5" cy="508.5" r="2.5" fill="#861C26" />
          <circle cx="324.5" cy="462.5" r="2.5" fill="#861C26" />
          <circle cx="324.5" cy="508.5" r="2.5" fill="#861C26" />
          <circle cx="370.5" cy="462.5" r="2.5" fill="#861C26" />
          <circle cx="370.5" cy="508.5" r="2.5" fill="#861C26" />
          <circle cx="2.5" cy="2.5" r="2.5" fill="#861C26" />
          <circle cx="2.5" cy="48.5" r="2.5" fill="#861C26" />
          <circle cx="48.5" cy="2.5" r="2.5" fill="#861C26" />
          <circle cx="48.5" cy="48.5" r="2.5" fill="#861C26" />
          <circle cx="94.5" cy="2.5" r="2.5" fill="#861C26" />
          <circle cx="94.5" cy="48.5" r="2.5" fill="#861C26" />
          <circle cx="140.5" cy="2.5" r="2.5" fill="#861C26" />
          <circle cx="140.5" cy="48.5" r="2.5" fill="#861C26" />
          <circle cx="186.5" cy="2.5" r="2.5" fill="#861C26" />
          <circle cx="186.5" cy="48.5" r="2.5" fill="#861C26" />
          <circle cx="232.5" cy="2.5" r="2.5" fill="#861C26" />
          <circle cx="232.5" cy="48.5" r="2.5" fill="#861C26" />
          <circle cx="278.5" cy="2.5" r="2.5" fill="#861C26" />
          <circle cx="278.5" cy="48.5" r="2.5" fill="#861C26" />
          <circle cx="324.5" cy="2.5" r="2.5" fill="#861C26" />
          <circle cx="324.5" cy="48.5" r="2.5" fill="#861C26" />
          <circle cx="370.5" cy="2.5" r="2.5" fill="#861C26" />
          <circle cx="370.5" cy="48.5" r="2.5" fill="#861C26" />
          <circle cx="2.5" cy="94.5" r="2.5" fill="#861C26" />
          <circle cx="2.5" cy="140.5" r="2.5" fill="#861C26" />
          <circle cx="48.5" cy="94.5" r="2.5" fill="#861C26" />
          <circle cx="48.5" cy="140.5" r="2.5" fill="#861C26" />
          <circle cx="94.5" cy="94.5" r="2.5" fill="#861C26" />
          <circle cx="94.5" cy="140.5" r="2.5" fill="#861C26" />
          <circle cx="140.5" cy="94.5" r="2.5" fill="#861C26" />
          <circle cx="140.5" cy="140.5" r="2.5" fill="#861C26" />
          <circle cx="186.5" cy="94.5" r="2.5" fill="#861C26" />
          <circle cx="186.5" cy="140.5" r="2.5" fill="#861C26" />
          <circle cx="232.5" cy="94.5" r="2.5" fill="#861C26" />
          <circle cx="232.5" cy="140.5" r="2.5" fill="#861C26" />
          <circle cx="278.5" cy="94.5" r="2.5" fill="#861C26" />
          <circle cx="278.5" cy="140.5" r="2.5" fill="#861C26" />
          <circle cx="324.5" cy="94.5" r="2.5" fill="#861C26" />
          <circle cx="324.5" cy="140.5" r="2.5" fill="#861C26" />
          <circle cx="370.5" cy="94.5" r="2.5" fill="#861C26" />
          <circle cx="370.5" cy="140.5" r="2.5" fill="#861C26" />
        </svg>