<svg width="168" height="70" viewBox="0 0 168 70" fill="none" xmlns="http://www.w3.org/2000/svg">
<path d="M135.697 0.0251278V47.7879H130.68V10.3932H130.527C128.063 22.8349 125.6 35.2906 123.137 47.7601H117.953C115.397 35.4947 112.845 23.2223 110.298 10.9429H110.145V47.7879H105.476V0.032093C107.863 0.032093 110.222 0.032093 112.574 0.032093C112.727 0.032093 112.963 0.421769 113.012 0.665314C114.181 6.23207 115.341 11.7988 116.491 17.3656C117.851 23.9622 119.205 30.5611 120.555 37.1624C120.59 37.3224 120.646 37.4755 120.771 37.8582C121.147 36.0073 121.467 34.379 121.808 32.7577C123.366 24.9503 124.918 17.1452 126.463 9.3425C127.033 6.4617 127.625 3.58785 128.168 0.700098C128.272 0.143422 128.474 -0.030539 129.024 0.00425327C131.209 0.0390455 133.428 0.0251278 135.697 0.0251278Z" fill="#DE3C4B"/>
<path d="M64.2891 0.0669018H71.7276C74.3162 12.6246 76.9024 25.1707 79.4863 37.7052H79.6324C82.1282 25.1799 84.624 12.6315 87.1197 0.0599365H94.5653V47.7879H89.5204V10.5255H89.3464C86.8785 22.9254 84.4129 35.3462 81.9496 47.7879H76.7795L69.0765 10.9082H68.9095V47.7879H64.2891V0.0669018Z" fill="#DE3C4B"/>
<path d="M0.111328 0.150393C0.173954 0.101683 0.194831 0.0668945 0.215706 0.0668945C4.71086 0.143437 9.26169 -0.0375017 13.6942 0.373047C17.9458 0.76272 20.3256 3.23297 21.0771 7.44283C21.6743 10.9816 21.6907 14.594 21.1258 18.138C20.967 19.6123 20.3833 21.0088 19.4457 22.1576C18.5081 23.3064 17.257 24.1582 15.8444 24.6093C15.8444 24.7068 15.8444 24.7763 15.8861 24.7833C19.5115 26.0706 21.1119 28.8749 21.3555 32.4863C21.5573 35.555 21.4946 38.6445 21.5155 41.7271C21.5155 43.7729 21.4668 45.8257 22.4619 47.8366C20.6666 47.8366 18.9826 47.8366 17.3474 47.8366C17.1456 47.8366 16.8255 47.4887 16.7907 47.266C16.4798 45.6567 16.266 44.0301 16.1506 42.3951C16.0392 39.3195 16.1506 36.2299 16.0323 33.1543C15.8931 29.8212 14.1883 27.9633 10.883 27.5876C9.08219 27.4862 7.27711 27.4862 5.47629 27.5876V47.7879H0.111328V0.150393ZM5.53196 5.02131V22.4592C7.5012 22.4592 9.40086 22.5983 11.2727 22.4592C14.0561 22.2087 15.7122 20.7404 15.9418 17.9988C16.1853 15.1255 16.1853 12.2367 15.9418 9.36337C15.7052 6.71916 14.1883 5.25788 11.8363 5.07697C9.74182 4.88909 7.65429 5.01434 5.53196 5.01434V5.02131Z" fill="#DE3C4B"/>
<path d="M162.835 0.0668945H167.866V0.943645C167.866 12.773 167.866 24.6024 167.866 36.4317C167.899 38.4346 167.56 40.4263 166.864 42.3047C166.342 43.7793 165.442 45.0909 164.253 46.1082C163.065 47.1255 161.63 47.8127 160.093 48.1011C158.105 48.5534 156.041 48.5534 154.053 48.1011C149.968 47.1478 147.735 44.3853 146.879 40.4468C146.586 39.0628 146.441 37.6515 146.447 36.2369C146.413 24.498 146.447 12.7521 146.447 1.01323V0.136462H151.729V1.16632C151.729 12.8287 151.729 24.4841 151.729 36.1464C151.74 37.5292 151.954 38.9029 152.362 40.2241C153.058 42.3673 154.839 43.4389 157.282 43.4528C159.724 43.4667 161.457 42.423 162.153 40.3076C162.555 39.1287 162.767 37.8931 162.779 36.6474C162.821 24.8181 162.779 12.9887 162.779 1.15935L162.835 0.0668945Z" fill="#DE3C4B"/>
<path d="M48.577 0.0669027H53.5801V0.992367C53.5801 12.9887 53.5801 24.9828 53.5801 36.9745C53.6068 39.0631 53.167 41.1313 52.2928 43.0284C51.7605 44.2237 50.9643 45.283 49.964 46.1266C48.9637 46.9702 47.7853 47.5763 46.5173 47.8993C44.1253 48.5845 41.589 48.5845 39.197 47.8993C35.3768 46.7859 33.3797 44.0095 32.6004 40.245C32.3466 39.0228 32.2207 37.7775 32.2246 36.5292C32.1968 24.7044 32.1968 12.8751 32.2246 1.04108V0.0181885H37.513V1.07587C37.513 12.8496 37.513 24.6163 37.513 36.39C37.52 37.6329 37.7075 38.8682 38.0697 40.0571C38.7656 42.2977 40.5608 43.4041 43.0728 43.4041C45.5848 43.4041 47.3175 42.2769 48.0133 40.078C48.3698 38.9118 48.555 37.6999 48.5631 36.4805C48.5979 24.6859 48.5631 12.8844 48.5631 1.0898L48.577 0.0669027Z" fill="#DE3C4B"/>
<path d="M0 64.4464V62.7764H35.5438V64.4464H0Z" fill="#DE3C4B"/>
<path d="M132.461 64.4883V62.8322H167.949V64.4883H132.461Z" fill="#DE3C4B"/>
<path d="M35.5438 66.9445V68.6006H0.0556641V66.9445H35.5438Z" fill="#DE3C4B"/>
<path d="M167.998 66.9584V68.6215H132.454V66.9584H167.998Z" fill="#DE3C4B"/>
<path d="M124.341 69.4148C123.645 69.6584 123.346 69.4148 123.165 68.7747C122.689 67.0991 122.113 65.4539 121.439 63.8481V69.4148C121.001 69.4705 120.576 69.7419 120.569 69.0391V61.5796C121.425 61.2943 121.829 61.51 122.051 62.3659C122.423 63.768 122.916 65.1348 123.526 66.4505V61.517L124.341 61.4822V69.4148Z" fill="#DE3C4B"/>
<path d="M99.1022 61.4404C100.292 61.6979 101.684 60.8907 102.47 62.3311C102.674 62.8381 102.745 63.389 102.676 63.9311C102.606 64.4733 102.399 64.9886 102.073 65.4276C102.31 66.0692 102.498 66.7274 102.637 67.3969C102.686 68.0779 102.686 68.7616 102.637 69.4426H101.691C101.691 68.8164 101.691 68.218 101.691 67.6195C101.691 66.2626 101.433 66.0469 99.9511 66.1652V69.4635H99.0813L99.1022 61.4404ZM100.021 62.3381V65.1841C101.412 65.3232 101.691 65.1075 101.712 63.9942C101.746 62.4494 101.559 62.2615 100.021 62.3381Z" fill="#DE3C4B"/>
<path d="M68.2485 61.4404C69.4315 61.6909 70.7675 60.9185 71.5955 62.2337C72.1174 63.0687 71.8252 64.8083 71.1085 65.6363C72.3888 66.6662 71.4773 68.1622 71.9713 69.3939C71.2337 69.6514 70.858 69.4913 70.9136 68.698C70.9136 68.3362 70.9136 68.0022 70.9136 67.6195C70.9136 66.3113 70.5587 66.0191 69.1531 66.2278V69.4844L68.2416 69.5331L68.2485 61.4404ZM69.1879 65.3997C69.8072 65.1632 70.5796 65.0866 70.6909 64.7805C70.9125 64.1023 70.9125 63.3711 70.6909 62.6929C70.5866 62.3937 69.7933 62.3311 69.2018 62.1154L69.1879 65.3997Z" fill="#DE3C4B"/>
<path d="M47.0045 68.8581L47.4985 69.7975C46.406 69.6931 45.5014 69.6792 44.6247 69.5192C44.2603 69.4577 43.932 69.2624 43.7041 68.9715C43.4763 68.6806 43.3653 68.315 43.393 67.9465C43.393 66.3183 43.3582 64.683 43.393 63.0756C43.3856 62.8663 43.4195 62.6576 43.4928 62.4615C43.566 62.2653 43.6773 62.0855 43.8201 61.9323C43.9629 61.7791 44.1345 61.6556 44.3251 61.5688C44.5157 61.482 44.7215 61.4337 44.9308 61.4265C46.0512 61.3151 46.914 61.7605 46.9766 62.7695C47.088 64.7457 47.0045 66.7567 47.0045 68.8581ZM46.0999 65.4833V63.3261C46.0999 62.7277 45.912 62.2754 45.2301 62.2545C44.5481 62.2337 44.2837 62.672 44.2768 63.2635C44.2768 64.7573 44.2768 66.251 44.2768 67.7447C44.2768 68.3432 44.6038 68.7746 45.2509 68.7468C45.8981 68.7189 46.1068 68.3153 46.0999 67.7239C46.0929 66.9793 46.0999 66.2348 46.0999 65.4833Z" fill="#DE3C4B"/>
<path d="M62.118 61.4404C63.3149 61.6979 64.7066 60.8907 65.4859 62.3311C65.7106 62.8726 65.7769 63.4668 65.6771 64.0446C65.5773 64.6223 65.3156 65.1598 64.9223 65.5946C66.2096 66.6454 65.4164 68.1275 65.7852 69.4009C65.0545 69.6236 64.6996 69.4844 64.7553 68.7051C64.7553 68.3223 64.7553 67.9327 64.7553 67.543C64.7553 66.2626 64.3448 65.9634 62.9531 66.2V69.4357H62.1111L62.118 61.4404ZM62.9948 65.3859C63.6211 65.1702 64.3865 65.1075 64.5187 64.8083C64.738 64.144 64.738 63.4268 64.5187 62.7625C64.4004 62.4355 63.6002 62.352 62.9809 62.1154L62.9948 65.3859Z" fill="#DE3C4B"/>
<path d="M118.147 65.4972C118.147 66.2417 118.147 66.9932 118.147 67.7378C118.167 67.9893 118.133 68.2422 118.045 68.4788C117.958 68.7155 117.82 68.9303 117.641 69.1084C117.462 69.2865 117.247 69.4235 117.01 69.5101C116.773 69.5966 116.52 69.6306 116.269 69.6096C115.127 69.6096 114.473 68.9138 114.459 67.6891C114.459 66.2185 114.459 64.7503 114.459 63.2844C114.459 62.0388 115.107 61.3917 116.276 61.3917C116.527 61.3658 116.78 61.396 117.018 61.48C117.256 61.564 117.472 61.6998 117.651 61.8775C117.83 62.0553 117.968 62.2705 118.054 62.5078C118.139 62.7451 118.171 62.9984 118.147 63.2496C118.168 63.9941 118.147 64.7457 118.147 65.4972ZM117.173 65.5459V63.2217C117.173 62.6859 116.944 62.3032 116.366 62.2545C116.241 62.2312 116.112 62.2366 115.99 62.2702C115.867 62.3037 115.754 62.3646 115.658 62.4483C115.562 62.532 115.487 62.6363 115.437 62.7534C115.387 62.8705 115.365 62.9973 115.371 63.1243C115.329 64.6969 115.329 66.2765 115.371 67.8491C115.375 67.9679 115.403 68.0847 115.452 68.1929C115.501 68.3011 115.571 68.3985 115.658 68.4796C115.745 68.5607 115.847 68.6239 115.958 68.6655C116.07 68.7072 116.188 68.7265 116.307 68.7224C116.426 68.7183 116.543 68.6908 116.651 68.6416C116.759 68.5923 116.856 68.5222 116.937 68.4353C117.019 68.3484 117.082 68.2464 117.123 68.135C117.165 68.0237 117.184 67.9053 117.18 67.7865L117.173 65.5459Z" fill="#DE3C4B"/>
<path d="M56.8923 61.4961H58.2422L59.7661 69.4148C59.2651 69.5122 58.7711 69.7071 58.7363 68.9347C58.7015 68.1623 58.2701 67.8561 57.4142 67.8491C56.5583 67.8422 56.4052 68.2875 56.3356 68.9416C56.3356 69.1017 56.2591 69.2548 56.2104 69.4566H55.3684C55.8764 66.7915 56.3774 64.1751 56.8923 61.4961ZM57.5881 62.9922H57.4351L56.6836 67.042H58.3814L57.5881 62.9922Z" fill="#DE3C4B"/>
<path d="M49.5163 61.51L50.414 61.4683V65.7964C50.414 66.3531 50.414 66.9098 50.414 67.4595C50.414 68.3362 50.7549 68.8094 51.3533 68.7538C52.1118 68.6772 52.251 68.1275 52.251 67.4873C52.251 65.7477 52.251 64.0081 52.251 62.2546V61.5587L53.0095 61.4891C53.0548 61.5982 53.0852 61.7129 53.0999 61.8301C53.0999 63.8272 53.0999 65.8173 53.0999 67.8144C53.1227 68.0512 53.0949 68.2902 53.0182 68.5155C52.9415 68.7407 52.8178 68.9471 52.6552 69.1209C52.4927 69.2946 52.295 69.4318 52.0753 69.5233C51.8556 69.6147 51.619 69.6584 51.3812 69.6514C51.1449 69.683 50.9046 69.6626 50.677 69.5916C50.4494 69.5205 50.2402 69.4006 50.0638 69.2402C49.8875 69.0798 49.7484 68.8827 49.6562 68.6629C49.564 68.443 49.521 68.2057 49.5302 67.9675C49.4607 65.8103 49.5163 63.6741 49.5163 61.51Z" fill="#DE3C4B"/>
<path d="M94.0434 69.4635H93.1666V61.5796C95.4072 61.1482 96.451 61.5796 96.6459 62.9713C97.0355 65.4763 96.5902 66.0956 94.0156 66.4505V69.4844L94.0434 69.4635ZM94.0991 62.1015V65.6781C94.7044 65.4555 95.4907 65.365 95.5882 65.0797C95.7796 64.3168 95.7796 63.5185 95.5882 62.7556C95.5116 62.4633 94.6905 62.359 94.0991 62.1015Z" fill="#DE3C4B"/>
<path d="M108.538 67.1463H109.303C109.303 67.3551 109.345 67.536 109.373 67.7169C109.456 68.3223 109.7 68.8233 110.417 68.7329C110.558 68.722 110.695 68.6772 110.816 68.6022C110.936 68.5272 111.037 68.4242 111.11 68.302C111.182 68.1798 111.224 68.0419 111.232 67.9001C111.239 67.7583 111.213 67.6167 111.154 67.4873C110.936 66.9368 110.618 66.4318 110.215 65.9982C109.867 65.5737 109.359 65.3023 109.025 64.85C108.727 64.4799 108.546 64.0289 108.506 63.5551C108.467 63.0813 108.57 62.6066 108.802 62.1919C108.982 61.8727 109.263 61.6226 109.601 61.4814C109.939 61.3402 110.314 61.3159 110.667 61.4126C111.69 61.5239 112.156 62.2197 112.122 63.5906H111.328C111.311 63.5092 111.286 63.4299 111.252 63.354C111.099 62.9748 110.88 62.626 110.605 62.3241C110.456 62.2844 110.3 62.2827 110.15 62.3192C110 62.3557 109.862 62.4292 109.749 62.5329C109.541 62.9384 109.484 63.4045 109.589 63.848C109.861 64.3235 110.208 64.7513 110.618 65.1145C111.085 65.5405 111.513 66.0061 111.899 66.5062C112.12 66.9103 112.217 67.3704 112.178 67.8293C112.14 68.2882 111.968 68.7258 111.683 69.0877C111.381 69.3557 111.009 69.5305 110.61 69.591C110.211 69.6515 109.803 69.5951 109.436 69.4287C108.705 69.0808 108.42 68.371 108.538 67.1463Z" fill="#DE3C4B"/>
<path d="M78.3452 61.5587C77.6494 64.1473 76.216 66.5758 76.7518 69.4427L75.7219 69.5122C76.2299 66.6245 74.8034 64.1751 74.1075 61.5657C74.8034 61.2804 75.1165 61.5657 75.2905 62.2615C75.5458 63.2224 75.8978 64.155 76.3412 65.0449C76.6543 64.0846 76.9953 63.1383 77.2597 62.1641C77.4267 61.5727 77.6911 61.3082 78.3452 61.5587Z" fill="#DE3C4B"/>
<path d="M105.212 61.51H106.061V69.4426H105.212V61.51Z" fill="#DE3C4B"/>
<path d="M85.902 69.9298C85.3105 70.1177 85.1296 69.9298 85.1365 69.3522C85.1365 66.7683 85.1365 64.1891 85.1365 61.6144C85.1365 61.0508 85.2966 60.8281 85.902 61.016V69.9298Z" fill="#DE3C4B"/>
</svg>
