<svg width="720" height="720" viewBox="0 0 720 720" fill="none" xmlns="http://www.w3.org/2000/svg">
<rect width="720" height="720" fill="#DE3C4B"/>
<path d="M308.905 304.106C319.838 314.729 325.977 329.118 325.977 344.118C325.977 359.118 319.838 373.507 308.905 384.13L237.284 453.485C220.455 469.787 211 491.896 211 514.95C211 538.004 220.455 560.114 237.284 576.415C254.113 592.717 276.938 601.875 300.738 601.875C324.538 601.875 347.364 592.717 364.193 576.415L435.793 507.061C441.228 501.799 445.54 495.552 448.482 488.676C451.423 481.8 452.938 474.43 452.938 466.987C452.938 459.544 451.423 452.173 448.482 445.297C445.54 438.421 441.228 432.174 435.793 426.913L385.927 378.734C396.894 389.365 403.054 403.779 403.054 418.808C403.054 433.837 396.894 448.251 385.927 458.882L321.572 521.219C316.615 526.02 304.117 527.867 295.813 519.824C287.509 511.78 289.458 499.674 294.373 494.852L358.728 432.535C369.695 421.904 375.855 407.49 375.855 392.461C375.855 377.432 369.695 363.018 358.728 352.387L350.254 344.18L308.905 304.106Z" fill="white"/>
<path opacity="0.6" d="M410.879 415.769C399.945 405.146 393.805 390.757 393.805 375.757C393.805 360.756 399.945 346.368 410.879 335.745L482.483 266.39C499.314 250.088 508.769 227.979 508.769 204.925C508.769 181.871 499.314 159.761 482.483 143.46C465.653 127.158 442.826 118 419.024 118C395.222 118 372.395 127.158 355.565 143.46L283.96 212.814C272.992 223.445 266.832 237.859 266.832 252.888C266.832 267.917 272.992 282.331 283.96 292.962L333.829 341.141C328.394 335.88 324.081 329.633 321.139 322.757C318.197 315.881 316.683 308.51 316.683 301.067C316.683 293.624 318.197 286.254 321.139 279.378C324.081 272.502 328.394 266.255 333.829 260.993L398.168 198.656C403.146 193.855 415.645 192.008 423.95 200.051C432.254 208.095 430.305 220.201 425.39 225.023L361.031 287.34C355.595 292.601 351.283 298.848 348.341 305.724C345.399 312.6 343.884 319.971 343.884 327.414C343.884 334.857 345.399 342.227 348.341 349.103C351.283 355.979 355.595 362.226 361.031 367.488L369.505 375.695L410.879 415.769Z" fill="white"/>
</svg>
