<?xml version="1.0" encoding="utf-8"?>
<!-- Generator: Adobe Illustrator 27.3.0, SVG Export Plug-In . SVG Version: 6.00 Build 0)  -->
<svg version="1.1" id="Layer_1" xmlns="http://www.w3.org/2000/svg" xmlns:xlink="http://www.w3.org/1999/xlink" x="0px" y="0px"
	 viewBox="0 0 32.7 363" style="enable-background:new 0 0 32.7 363;" xml:space="preserve">
<style type="text/css">
	.st0{fill-rule:evenodd;clip-rule:evenodd;fill:url(#SVGID_1_);}
</style>
<linearGradient id="SVGID_1_" gradientUnits="userSpaceOnUse" x1="99.8075" y1="364" x2="99.8075" y2="4.5" gradientTransform="matrix(1 0 0 -1 0 364)">
	<stop  offset="0" style="stop-color:#FFFFFF"/>
	<stop  offset="1" style="stop-color:#DE3C4B"/>
</linearGradient>
<path class="st0" d="M3.6,1.8c0,1-0.8,1.8-1.8,1.8C0.8,3.6,0,2.8,0,1.8C0,0.8,0.8,0,1.8,0C2.8,0,3.6,0.8,3.6,1.8z M1.8,134.3
	c1,0,1.8-0.8,1.8-1.8c0-1-0.8-1.8-1.8-1.8c-1,0-1.8,0.8-1.8,1.8C0,133.5,0.8,134.3,1.8,134.3z M1.8,297.6c1,0,1.8-0.8,1.8-1.8
	c0-1-0.8-1.8-1.8-1.8c-1,0-1.8,0.8-1.8,1.8C0,296.9,0.8,297.6,1.8,297.6z M34.5,297.6c1,0,1.8-0.8,1.8-1.8c0-1-0.8-1.8-1.8-1.8
	c-1,0-1.8,0.8-1.8,1.8C32.7,296.9,33.5,297.6,34.5,297.6z M68.9,295.9c0,1-0.8,1.8-1.8,1.8c-1,0-1.8-0.8-1.8-1.8
	c0-1,0.8-1.8,1.8-1.8C68.1,294.1,68.9,294.9,68.9,295.9z M99.8,297.6c1,0,1.8-0.8,1.8-1.8c0-1-0.8-1.8-1.8-1.8c-1,0-1.8,0.8-1.8,1.8
	C98,296.9,98.8,297.6,99.8,297.6z M134.3,295.9c0,1-0.8,1.8-1.8,1.8c-1,0-1.8-0.8-1.8-1.8c0-1,0.8-1.8,1.8-1.8
	C133.5,294.1,134.3,294.9,134.3,295.9z M165.2,297.6c1,0,1.8-0.8,1.8-1.8c0-1-0.8-1.8-1.8-1.8c-1,0-1.8,0.8-1.8,1.8
	C163.4,296.9,164.2,297.6,165.2,297.6z M199.6,295.9c0,1-0.8,1.8-1.8,1.8s-1.8-0.8-1.8-1.8c0-1,0.8-1.8,1.8-1.8
	S199.6,294.9,199.6,295.9z M1.8,330.3c1,0,1.8-0.8,1.8-1.8c0-1-0.8-1.8-1.8-1.8c-1,0-1.8,0.8-1.8,1.8C0,329.5,0.8,330.3,1.8,330.3z
	 M3.6,361.2c0,1-0.8,1.8-1.8,1.8c-1,0-1.8-0.8-1.8-1.8s0.8-1.8,1.8-1.8C2.8,359.4,3.6,360.2,3.6,361.2z M34.5,330.3
	c1,0,1.8-0.8,1.8-1.8c0-1-0.8-1.8-1.8-1.8c-1,0-1.8,0.8-1.8,1.8C32.7,329.5,33.5,330.3,34.5,330.3z M36.2,361.2c0,1-0.8,1.8-1.8,1.8
	c-1,0-1.8-0.8-1.8-1.8s0.8-1.8,1.8-1.8C35.4,359.4,36.2,360.2,36.2,361.2z M67.1,330.3c1,0,1.8-0.8,1.8-1.8c0-1-0.8-1.8-1.8-1.8
	c-1,0-1.8,0.8-1.8,1.8C65.4,329.5,66.1,330.3,67.1,330.3z M68.9,361.2c0,1-0.8,1.8-1.8,1.8c-1,0-1.8-0.8-1.8-1.8s0.8-1.8,1.8-1.8
	C68.1,359.4,68.9,360.2,68.9,361.2z M99.8,330.3c1,0,1.8-0.8,1.8-1.8c0-1-0.8-1.8-1.8-1.8c-1,0-1.8,0.8-1.8,1.8
	C98,329.5,98.8,330.3,99.8,330.3z M101.6,361.2c0,1-0.8,1.8-1.8,1.8c-1,0-1.8-0.8-1.8-1.8s0.8-1.8,1.8-1.8
	C100.8,359.4,101.6,360.2,101.6,361.2z M132.5,330.3c1,0,1.8-0.8,1.8-1.8c0-1-0.8-1.8-1.8-1.8c-1,0-1.8,0.8-1.8,1.8
	C130.7,329.5,131.5,330.3,132.5,330.3z M134.3,361.2c0,1-0.8,1.8-1.8,1.8c-1,0-1.8-0.8-1.8-1.8s0.8-1.8,1.8-1.8
	C133.5,359.4,134.3,360.2,134.3,361.2z M165.2,330.3c1,0,1.8-0.8,1.8-1.8c0-1-0.8-1.8-1.8-1.8c-1,0-1.8,0.8-1.8,1.8
	C163.4,329.5,164.2,330.3,165.2,330.3z M166.9,361.2c0,1-0.8,1.8-1.8,1.8c-1,0-1.8-0.8-1.8-1.8s0.8-1.8,1.8-1.8
	C166.1,359.4,166.9,360.2,166.9,361.2z M197.8,330.3c1,0,1.8-0.8,1.8-1.8c0-1-0.8-1.8-1.8-1.8s-1.8,0.8-1.8,1.8
	C196.1,329.5,196.9,330.3,197.8,330.3z M199.6,361.2c0,1-0.8,1.8-1.8,1.8s-1.8-0.8-1.8-1.8s0.8-1.8,1.8-1.8S199.6,360.2,199.6,361.2
	z M3.6,165.2c0,1-0.8,1.8-1.8,1.8c-1,0-1.8-0.8-1.8-1.8c0-1,0.8-1.8,1.8-1.8C2.8,163.4,3.6,164.2,3.6,165.2z M34.5,134.3
	c1,0,1.8-0.8,1.8-1.8c0-1-0.8-1.8-1.8-1.8c-1,0-1.8,0.8-1.8,1.8C32.7,133.5,33.5,134.3,34.5,134.3z M36.2,165.2c0,1-0.8,1.8-1.8,1.8
	c-1,0-1.8-0.8-1.8-1.8c0-1,0.8-1.8,1.8-1.8C35.4,163.4,36.2,164.2,36.2,165.2z M67.1,134.3c1,0,1.8-0.8,1.8-1.8c0-1-0.8-1.8-1.8-1.8
	c-1,0-1.8,0.8-1.8,1.8C65.4,133.5,66.1,134.3,67.1,134.3z M68.9,165.2c0,1-0.8,1.8-1.8,1.8c-1,0-1.8-0.8-1.8-1.8
	c0-1,0.8-1.8,1.8-1.8C68.1,163.4,68.9,164.2,68.9,165.2z M99.8,134.3c1,0,1.8-0.8,1.8-1.8c0-1-0.8-1.8-1.8-1.8c-1,0-1.8,0.8-1.8,1.8
	C98,133.5,98.8,134.3,99.8,134.3z M101.6,165.2c0,1-0.8,1.8-1.8,1.8c-1,0-1.8-0.8-1.8-1.8c0-1,0.8-1.8,1.8-1.8
	C100.8,163.4,101.6,164.2,101.6,165.2z M132.5,134.3c1,0,1.8-0.8,1.8-1.8c0-1-0.8-1.8-1.8-1.8c-1,0-1.8,0.8-1.8,1.8
	C130.7,133.5,131.5,134.3,132.5,134.3z M134.3,165.2c0,1-0.8,1.8-1.8,1.8c-1,0-1.8-0.8-1.8-1.8c0-1,0.8-1.8,1.8-1.8
	C133.5,163.4,134.3,164.2,134.3,165.2z M165.2,134.3c1,0,1.8-0.8,1.8-1.8c0-1-0.8-1.8-1.8-1.8c-1,0-1.8,0.8-1.8,1.8
	C163.4,133.5,164.2,134.3,165.2,134.3z M166.9,165.2c0,1-0.8,1.8-1.8,1.8c-1,0-1.8-0.8-1.8-1.8c0-1,0.8-1.8,1.8-1.8
	C166.1,163.4,166.9,164.2,166.9,165.2z M197.8,134.3c1,0,1.8-0.8,1.8-1.8c0-1-0.8-1.8-1.8-1.8s-1.8,0.8-1.8,1.8
	C196.1,133.5,196.9,134.3,197.8,134.3z M199.6,165.2c0,1-0.8,1.8-1.8,1.8s-1.8-0.8-1.8-1.8c0-1,0.8-1.8,1.8-1.8
	S199.6,164.2,199.6,165.2z M1.8,199.6c1,0,1.8-0.8,1.8-1.8c0-1-0.8-1.8-1.8-1.8c-1,0-1.8,0.8-1.8,1.8C0,198.8,0.8,199.6,1.8,199.6z
	 M3.6,230.5c0,1-0.8,1.8-1.8,1.8c-1,0-1.8-0.8-1.8-1.8c0-1,0.8-1.8,1.8-1.8C2.8,228.7,3.6,229.5,3.6,230.5z M34.5,199.6
	c1,0,1.8-0.8,1.8-1.8c0-1-0.8-1.8-1.8-1.8c-1,0-1.8,0.8-1.8,1.8C32.7,198.8,33.5,199.6,34.5,199.6z M36.2,230.5c0,1-0.8,1.8-1.8,1.8
	c-1,0-1.8-0.8-1.8-1.8c0-1,0.8-1.8,1.8-1.8C35.4,228.7,36.2,229.5,36.2,230.5z M67.1,199.6c1,0,1.8-0.8,1.8-1.8c0-1-0.8-1.8-1.8-1.8
	c-1,0-1.8,0.8-1.8,1.8C65.4,198.8,66.1,199.6,67.1,199.6z M68.9,230.5c0,1-0.8,1.8-1.8,1.8c-1,0-1.8-0.8-1.8-1.8
	c0-1,0.8-1.8,1.8-1.8C68.1,228.7,68.9,229.5,68.9,230.5z M99.8,199.6c1,0,1.8-0.8,1.8-1.8c0-1-0.8-1.8-1.8-1.8c-1,0-1.8,0.8-1.8,1.8
	C98,198.8,98.8,199.6,99.8,199.6z M101.6,230.5c0,1-0.8,1.8-1.8,1.8c-1,0-1.8-0.8-1.8-1.8c0-1,0.8-1.8,1.8-1.8
	C100.8,228.7,101.6,229.5,101.6,230.5z M132.5,199.6c1,0,1.8-0.8,1.8-1.8c0-1-0.8-1.8-1.8-1.8c-1,0-1.8,0.8-1.8,1.8
	C130.7,198.8,131.5,199.6,132.5,199.6z M134.3,230.5c0,1-0.8,1.8-1.8,1.8c-1,0-1.8-0.8-1.8-1.8c0-1,0.8-1.8,1.8-1.8
	C133.5,228.7,134.3,229.5,134.3,230.5z M165.2,199.6c1,0,1.8-0.8,1.8-1.8c0-1-0.8-1.8-1.8-1.8c-1,0-1.8,0.8-1.8,1.8
	C163.4,198.8,164.2,199.6,165.2,199.6z M166.9,230.5c0,1-0.8,1.8-1.8,1.8c-1,0-1.8-0.8-1.8-1.8c0-1,0.8-1.8,1.8-1.8
	C166.1,228.7,166.9,229.5,166.9,230.5z M197.8,199.6c1,0,1.8-0.8,1.8-1.8c0-1-0.8-1.8-1.8-1.8s-1.8,0.8-1.8,1.8
	C196.1,198.8,196.9,199.6,197.8,199.6z M199.6,230.5c0,1-0.8,1.8-1.8,1.8s-1.8-0.8-1.8-1.8c0-1,0.8-1.8,1.8-1.8
	S199.6,229.5,199.6,230.5z M1.8,265c1,0,1.8-0.8,1.8-1.8c0-1-0.8-1.8-1.8-1.8c-1,0-1.8,0.8-1.8,1.8C0,264.2,0.8,265,1.8,265z
	 M36.2,263.2c0,1-0.8,1.8-1.8,1.8c-1,0-1.8-0.8-1.8-1.8c0-1,0.8-1.8,1.8-1.8C35.4,261.4,36.2,262.2,36.2,263.2z M67.1,265
	c1,0,1.8-0.8,1.8-1.8c0-1-0.8-1.8-1.8-1.8c-1,0-1.8,0.8-1.8,1.8C65.4,264.2,66.1,265,67.1,265z M101.6,263.2c0,1-0.8,1.8-1.8,1.8
	c-1,0-1.8-0.8-1.8-1.8c0-1,0.8-1.8,1.8-1.8C100.8,261.4,101.6,262.2,101.6,263.2z M132.5,265c1,0,1.8-0.8,1.8-1.8
	c0-1-0.8-1.8-1.8-1.8c-1,0-1.8,0.8-1.8,1.8C130.7,264.2,131.5,265,132.5,265z M166.9,263.2c0,1-0.8,1.8-1.8,1.8
	c-1,0-1.8-0.8-1.8-1.8c0-1,0.8-1.8,1.8-1.8C166.1,261.4,166.9,262.2,166.9,263.2z M197.8,265c1,0,1.8-0.8,1.8-1.8
	c0-1-0.8-1.8-1.8-1.8s-1.8,0.8-1.8,1.8C196.1,264.2,196.9,265,197.8,265z M1.8,36.2c1,0,1.8-0.8,1.8-1.8c0-1-0.8-1.8-1.8-1.8
	c-1,0-1.8,0.8-1.8,1.8C0,35.4,0.8,36.2,1.8,36.2z M36.2,1.8c0,1-0.8,1.8-1.8,1.8c-1,0-1.8-0.8-1.8-1.8c0-1,0.8-1.8,1.8-1.8
	C35.4,0,36.2,0.8,36.2,1.8z M34.5,36.2c1,0,1.8-0.8,1.8-1.8c0-1-0.8-1.8-1.8-1.8c-1,0-1.8,0.8-1.8,1.8
	C32.7,35.4,33.5,36.2,34.5,36.2z M68.9,1.8c0,1-0.8,1.8-1.8,1.8c-1,0-1.8-0.8-1.8-1.8c0-1,0.8-1.8,1.8-1.8C68.1,0,68.9,0.8,68.9,1.8
	z M67.1,36.2c1,0,1.8-0.8,1.8-1.8c0-1-0.8-1.8-1.8-1.8c-1,0-1.8,0.8-1.8,1.8C65.4,35.4,66.1,36.2,67.1,36.2z M101.6,1.8
	c0,1-0.8,1.8-1.8,1.8c-1,0-1.8-0.8-1.8-1.8c0-1,0.8-1.8,1.8-1.8C100.8,0,101.6,0.8,101.6,1.8z M99.8,36.2c1,0,1.8-0.8,1.8-1.8
	c0-1-0.8-1.8-1.8-1.8c-1,0-1.8,0.8-1.8,1.8C98,35.4,98.8,36.2,99.8,36.2z M134.3,1.8c0,1-0.8,1.8-1.8,1.8c-1,0-1.8-0.8-1.8-1.8
	c0-1,0.8-1.8,1.8-1.8C133.5,0,134.3,0.8,134.3,1.8z M132.5,36.2c1,0,1.8-0.8,1.8-1.8c0-1-0.8-1.8-1.8-1.8c-1,0-1.8,0.8-1.8,1.8
	C130.7,35.4,131.5,36.2,132.5,36.2z M166.9,1.8c0,1-0.8,1.8-1.8,1.8c-1,0-1.8-0.8-1.8-1.8c0-1,0.8-1.8,1.8-1.8
	C166.1,0,166.9,0.8,166.9,1.8z M165.2,36.2c1,0,1.8-0.8,1.8-1.8c0-1-0.8-1.8-1.8-1.8c-1,0-1.8,0.8-1.8,1.8
	C163.4,35.4,164.2,36.2,165.2,36.2z M199.6,1.8c0,1-0.8,1.8-1.8,1.8s-1.8-0.8-1.8-1.8c0-1,0.8-1.8,1.8-1.8S199.6,0.8,199.6,1.8z
	 M197.8,36.2c1,0,1.8-0.8,1.8-1.8c0-1-0.8-1.8-1.8-1.8s-1.8,0.8-1.8,1.8C196.1,35.4,196.9,36.2,197.8,36.2z M3.6,67.1
	c0,1-0.8,1.8-1.8,1.8c-1,0-1.8-0.8-1.8-1.8c0-1,0.8-1.8,1.8-1.8C2.8,65.4,3.6,66.1,3.6,67.1z M1.8,101.6c1,0,1.8-0.8,1.8-1.8
	c0-1-0.8-1.8-1.8-1.8c-1,0-1.8,0.8-1.8,1.8C0,100.8,0.8,101.6,1.8,101.6z M36.2,67.1c0,1-0.8,1.8-1.8,1.8c-1,0-1.8-0.8-1.8-1.8
	c0-1,0.8-1.8,1.8-1.8C35.4,65.4,36.2,66.1,36.2,67.1z M34.5,101.6c1,0,1.8-0.8,1.8-1.8c0-1-0.8-1.8-1.8-1.8c-1,0-1.8,0.8-1.8,1.8
	C32.7,100.8,33.5,101.6,34.5,101.6z M68.9,67.1c0,1-0.8,1.8-1.8,1.8c-1,0-1.8-0.8-1.8-1.8c0-1,0.8-1.8,1.8-1.8
	C68.1,65.4,68.9,66.1,68.9,67.1z M67.1,101.6c1,0,1.8-0.8,1.8-1.8c0-1-0.8-1.8-1.8-1.8c-1,0-1.8,0.8-1.8,1.8
	C65.4,100.8,66.1,101.6,67.1,101.6z M101.6,67.1c0,1-0.8,1.8-1.8,1.8c-1,0-1.8-0.8-1.8-1.8c0-1,0.8-1.8,1.8-1.8
	C100.8,65.4,101.6,66.1,101.6,67.1z M99.8,101.6c1,0,1.8-0.8,1.8-1.8c0-1-0.8-1.8-1.8-1.8c-1,0-1.8,0.8-1.8,1.8
	C98,100.8,98.8,101.6,99.8,101.6z M134.3,67.1c0,1-0.8,1.8-1.8,1.8c-1,0-1.8-0.8-1.8-1.8c0-1,0.8-1.8,1.8-1.8
	C133.5,65.4,134.3,66.1,134.3,67.1z M132.5,101.6c1,0,1.8-0.8,1.8-1.8c0-1-0.8-1.8-1.8-1.8c-1,0-1.8,0.8-1.8,1.8
	C130.7,100.8,131.5,101.6,132.5,101.6z M166.9,67.1c0,1-0.8,1.8-1.8,1.8c-1,0-1.8-0.8-1.8-1.8c0-1,0.8-1.8,1.8-1.8
	C166.1,65.4,166.9,66.1,166.9,67.1z M165.2,101.6c1,0,1.8-0.8,1.8-1.8c0-1-0.8-1.8-1.8-1.8c-1,0-1.8,0.8-1.8,1.8
	C163.4,100.8,164.2,101.6,165.2,101.6z M199.6,67.1c0,1-0.8,1.8-1.8,1.8s-1.8-0.8-1.8-1.8c0-1,0.8-1.8,1.8-1.8
	S199.6,66.1,199.6,67.1z M197.8,101.6c1,0,1.8-0.8,1.8-1.8c0-1-0.8-1.8-1.8-1.8s-1.8,0.8-1.8,1.8
	C196.1,100.8,196.9,101.6,197.8,101.6z"/>
</svg>
