<svg width="75" height="74" viewBox="0 0 75 74" fill="none" xmlns="http://www.w3.org/2000/svg">
<path d="M74.1655 3.73829C74.1716 3.29769 74.1158 2.85841 73.9998 2.43331C73.5579 0.916132 72.2347 0 70.5499 0H35.1576C24.9756 0 14.7935 0 4.61153 0C3.70569 0 2.88915 0.229033 2.19295 0.824907C1.29229 1.59676 0.97201 2.59959 0.972657 3.75899C0.977833 25.0591 0.979127 46.3591 0.976539 67.6592C0.976539 68.3062 0.976539 68.9532 0.976539 69.6002C0.976539 70.4911 1.21529 71.2992 1.80732 71.9843C2.57404 72.8713 3.56593 73.2 4.71117 73.2C26.6164 73.1961 48.5213 73.1961 70.4257 73.2C70.4904 73.2 70.5551 73.2 70.6198 73.2C72.3797 73.1677 73.7255 72.1331 74.0768 70.4827C74.181 69.9948 74.1713 69.4772 74.1713 68.9726C74.1743 47.2248 74.1724 25.48 74.1655 3.73829ZM48.0457 5.73618C48.1392 5.61974 48.2591 5.5273 48.3955 5.46654C48.5319 5.40577 48.6808 5.37844 48.8299 5.38681C50.6823 5.3991 52.5354 5.39263 54.3878 5.39263H54.7113C52.1621 8.08409 51.1301 11.3895 50.4669 14.8593C49.8004 18.3421 50.4326 21.6811 51.6037 24.9523C52.164 26.52 52.8867 28.0061 53.9524 29.3026C54.1834 29.5834 54.4428 29.8416 54.7152 30.1392C54.6296 30.1539 54.5432 30.1639 54.4564 30.169C52.5606 30.169 50.6649 30.169 48.7691 30.1728C48.6407 30.1784 48.5128 30.1542 48.3953 30.1023C48.2778 30.0503 48.1739 29.9719 48.0916 29.8733C45.6517 27.1275 44.0574 23.9669 43.5372 20.3192C42.7472 14.7629 44.4243 9.94482 48.0457 5.73618ZM34.3779 8.02069C34.9104 7.1906 35.5626 6.43622 36.1838 5.6663C36.3155 5.51529 36.5015 5.4223 36.7014 5.40751C38.6703 5.3881 40.6418 5.39198 42.6133 5.39198C42.6446 5.39504 42.6755 5.40089 42.7058 5.40945C42.7058 5.43339 42.7168 5.46186 42.7058 5.47415C41.2713 6.8587 40.3914 8.58874 39.7042 10.4255C38.8773 12.6318 38.3332 14.9027 38.2439 17.2681C38.1559 19.5875 38.6256 21.8228 39.3206 24.0174C39.8815 25.7895 40.6088 27.4859 41.7365 28.9817C42.0381 29.3822 42.3868 29.7471 42.753 30.1735H39.6991C38.7512 30.1735 37.8026 30.1644 36.8521 30.1774C36.7135 30.185 36.575 30.1596 36.448 30.1034C36.3211 30.0471 36.2092 29.9616 36.1217 29.8539C33.7924 27.1974 32.2447 24.1604 31.6391 20.6667C30.8471 16.0873 31.8946 11.889 34.3779 8.02069ZM24.1252 5.75688C24.3562 5.48838 24.6098 5.38292 24.9663 5.38616C26.7974 5.40104 28.6291 5.39263 30.4602 5.39328C30.5631 5.39328 30.6653 5.40298 30.8102 5.4101C30.5242 5.71871 30.259 5.98139 30.0254 6.26994C28.8006 7.78065 28.0319 9.52687 27.4373 11.3578C26.7133 13.5893 26.2235 15.8667 26.3018 18.2262C26.3794 20.5327 26.9035 22.7551 27.6883 24.9219C28.2597 26.4973 28.9733 27.9983 30.0422 29.3065C30.2719 29.5893 30.5307 29.8481 30.8271 30.1715H30.1153C28.3923 30.1715 26.6686 30.1638 24.9449 30.1774C24.7906 30.1849 24.6366 30.156 24.4954 30.0931C24.3543 30.0301 24.2299 29.9349 24.1323 29.8151C21.8159 27.1954 20.2618 24.1856 19.6879 20.7256C18.7439 15.0321 20.4035 10.0833 24.1252 5.75688ZM15.5107 66.144C14.9749 66.1517 14.4385 66.144 13.8485 66.144C14.0031 65.7286 14.137 65.3605 14.2761 64.9936C14.5434 64.291 14.8061 63.5864 15.0856 62.8883C15.1292 62.792 15.1477 62.6861 15.1394 62.5807C15.131 62.4752 15.096 62.3736 15.0377 62.2853C13.4253 59.4662 11.8174 56.6428 10.2141 53.815C10.1585 53.7167 10.1054 53.6164 10.0239 53.4676C11.2908 53.4508 12.5298 53.2735 13.5495 54.1611C13.8347 54.4067 14.08 54.695 14.2768 55.0158C14.9885 56.2069 15.6672 57.4181 16.3596 58.6208C16.4165 58.7198 16.4806 58.8149 16.5647 58.9482C17.0338 57.7112 17.4867 56.5168 17.9402 55.3251C18.1499 54.7732 18.3524 54.2174 18.5776 53.672C18.6151 53.5801 18.751 53.4695 18.8428 53.4682C19.8658 53.4546 20.8894 53.4598 21.913 53.4624C21.9628 53.4692 22.0117 53.4809 22.0592 53.4973C22.0288 53.5976 22.0068 53.6882 21.9745 53.7742C20.6286 57.3314 19.2822 60.8881 17.9351 64.4443C17.532 65.5022 16.643 66.1233 15.5107 66.144ZM34.9622 66.1757C34.4666 66.1757 33.971 66.1627 33.474 66.1809C33.2508 66.1893 33.1505 66.1077 33.0755 65.9065C32.7228 64.949 32.3521 63.9979 32.0027 63.0397C31.927 62.8321 31.8235 62.7667 31.6048 62.768C29.8384 62.7771 28.0718 62.7771 26.305 62.768C26.1031 62.768 25.9964 62.823 25.9265 63.0223C25.7414 63.5489 25.5383 64.0704 25.3319 64.5886C25.1444 65.0491 24.8259 65.4445 24.4159 65.7258C24.0059 66.0071 23.5224 66.1619 23.0252 66.1711C22.5341 66.1763 22.0424 66.1711 21.5138 66.1711C21.5623 66.0133 21.5908 65.9007 21.6315 65.7933C23.1443 61.7949 24.6559 57.7963 26.1665 53.7975C26.2571 53.5575 26.3716 53.4773 26.6304 53.4812C27.7181 53.4973 28.8064 53.487 29.894 53.4883C30.4031 53.4855 30.9009 53.6384 31.3207 53.9264C31.7405 54.2145 32.0622 54.6239 32.2427 55.0999C33.0658 57.2565 33.8853 59.416 34.7014 61.5782C35.2316 62.9744 35.7613 64.3704 36.2905 65.7661C36.3352 65.8839 36.3688 66.0049 36.4232 66.1718L34.9622 66.1757ZM37.5542 49.4394C30.8851 49.4394 24.2162 49.4394 17.5475 49.4394C16.313 49.4394 15.0856 49.31 13.9714 48.7342C12.251 47.8472 11.2707 46.3604 10.8411 44.523C10.4529 42.8531 10.909 41.2881 11.633 39.7819C12.4185 38.1428 13.1896 36.4984 13.9462 34.8486C14.0879 34.5238 14.1947 34.1848 14.2645 33.8374C14.5136 32.6974 13.9662 31.8874 12.8236 31.668C12.6657 31.6376 12.5052 31.6137 12.3512 31.5684C11.4655 31.3096 10.9278 30.5869 10.9181 29.6475C10.9181 29.346 10.9343 29.0438 10.9394 28.7417C10.944 28.479 11.065 28.347 11.3367 28.3477C12.6308 28.3516 13.9248 28.3276 15.215 28.3574C16.3052 28.3833 17.4556 29.3738 17.8095 30.5753C17.9304 30.9986 17.9988 31.4351 18.0134 31.8751C18.0748 33.4673 18.0994 35.0615 18.1538 36.6544C18.1726 36.9739 18.2222 37.2909 18.3019 37.6009C18.4203 38.1081 18.7419 38.42 19.2608 38.5312C19.6452 38.6128 19.7442 38.5416 19.7552 38.1482C19.8089 36.2558 20.5898 34.7393 22.1491 33.6595C24.2546 32.1979 27.1183 32.4561 28.9779 34.2476C29.335 34.5911 29.335 34.5911 29.7012 34.2424C31.8409 32.2011 35.1317 32.2089 37.2552 34.2611C37.5865 34.5846 37.6118 34.5846 37.9314 34.2728C40.0795 32.194 43.3865 32.1953 45.5307 34.2728C45.8458 34.5782 45.871 34.5704 46.2094 34.2592C47.8011 32.7951 49.6529 32.3286 51.7053 33.0053C53.7576 33.6821 54.9585 35.1753 55.3707 37.2923C55.4302 37.5964 55.4276 37.9134 55.4457 38.2246C55.4638 38.5358 55.5564 38.6018 55.8559 38.5338C56.5224 38.3818 56.8685 38.0104 56.9151 37.1803C57.0128 35.44 57.0387 33.6957 57.1241 31.9546C57.1463 31.4508 57.228 30.9513 57.3674 30.4666C57.7692 29.1079 59.2088 28.2668 60.3528 28.3263C61.4708 28.3839 62.5934 28.338 63.7173 28.3393C64.1126 28.3393 64.1954 28.4124 64.2039 28.8051C64.2123 29.181 64.2349 29.5614 64.1903 29.9322C64.0861 30.7927 63.5064 31.3989 62.6568 31.591C62.4685 31.6337 62.277 31.6661 62.0913 31.7172C61.1208 31.9863 60.607 32.7653 60.8665 33.7371C61.0847 34.5228 61.3675 35.2891 61.7122 36.0281C62.3475 37.4275 63.058 38.7933 63.6985 40.1908C64.4103 41.7384 64.7506 43.3649 64.1728 45.0166C63.0729 48.1539 61.1758 49.1612 58.6931 49.3637C58.0183 49.4187 57.3383 49.4284 56.6602 49.4284C50.29 49.4366 43.9213 49.4392 37.5542 49.4362V49.4394ZM48.9062 66.1239C48.7691 66.1394 48.6785 66.1582 48.5885 66.1588C47.6517 66.1588 46.7122 66.153 45.7772 66.1653C45.5592 66.1653 45.4537 66.0864 45.3573 65.9001C44.6818 64.5556 43.9888 63.2183 43.3179 61.8739C43.2105 61.6578 43.0856 61.5847 42.8488 61.5918C42.2665 61.6086 41.6841 61.5969 41.0494 61.5969V66.1375H38.0459V53.5103C38.1423 53.5025 38.2251 53.4896 38.3086 53.4896C40.4438 53.4896 42.5738 53.4844 44.7064 53.4928C45.4299 53.4971 46.1432 53.6638 46.7937 53.9806C48.4617 54.7822 49.0246 56.3505 48.8926 57.9919C48.7632 59.5777 47.9363 60.6446 46.434 61.2314L48.9062 66.1239ZM62.8535 66.087C61.9865 65.9531 61.3414 65.4316 60.9907 64.608C60.7636 64.0749 60.5611 63.5301 60.3683 62.9841C60.3036 62.7965 60.2059 62.7479 60.0189 62.7486C58.2422 62.7544 56.4648 62.757 54.6881 62.7486C54.4661 62.7486 54.3645 62.8178 54.2927 63.0203C53.9498 63.9591 53.5868 64.8895 53.2458 65.8282C53.1637 66.0547 53.0517 66.1388 52.8046 66.1343C51.8483 66.1187 50.8913 66.1284 49.8929 66.1284C49.9447 65.9693 49.9777 65.8483 50.0224 65.7318C51.3535 62.217 52.6849 58.7017 54.0164 55.186C54.4383 54.0725 55.3487 53.4391 56.5444 53.4391C57.6003 53.4391 58.6556 53.4443 59.7109 53.4346C59.9264 53.4346 60.0344 53.4993 60.1108 53.707C61.6347 57.7472 63.1624 61.785 64.6937 65.8205C64.7267 65.9072 64.7461 65.9984 64.7765 66.1058C64.1165 66.1058 63.4714 66.1828 62.8535 66.087ZM25.2186 34.9392C24.793 34.9355 24.3709 35.0161 23.9765 35.1764C23.5822 35.3366 23.2235 35.5733 22.9211 35.8728C22.6186 36.1723 22.3785 36.5287 22.2145 36.9215C22.0505 37.3142 21.9658 37.7356 21.9654 38.1612C21.9703 39.0211 22.3151 39.8442 22.9246 40.4509C23.534 41.0576 24.3586 41.3988 25.2186 41.4C26.0722 41.3932 26.8884 41.0493 27.4895 40.4434C28.0906 39.8375 28.4279 39.0186 28.4279 38.1651C28.4324 37.7416 28.3525 37.3215 28.193 36.9292C28.0335 36.5369 27.7976 36.1803 27.4989 35.88C27.2002 35.5798 26.8448 35.342 26.4533 35.1805C26.0618 35.019 25.6421 34.9369 25.2186 34.9392ZM41.743 34.9392C41.3199 34.934 40.9 35.0128 40.5077 35.1711C40.1153 35.3295 39.7583 35.5641 39.4573 35.8615C39.1564 36.1589 38.9175 36.5131 38.7545 36.9035C38.5915 37.2939 38.5077 37.7129 38.5079 38.1359C38.502 38.775 38.686 39.4013 39.0366 39.9357C39.3872 40.47 39.8885 40.8881 40.4771 41.1372C41.0657 41.3862 41.7149 41.4548 42.3426 41.3344C42.9702 41.214 43.5479 40.9099 44.0025 40.4607C44.4571 40.0115 44.768 39.4375 44.8959 38.8113C45.0238 38.1852 44.9629 37.5352 44.7208 36.9438C44.4788 36.3523 44.0666 35.8461 43.5364 35.4892C43.0063 35.1323 42.3821 34.9409 41.743 34.9392ZM49.9945 41.4C50.8542 41.3964 51.6774 41.0528 52.2845 40.4443C52.8917 39.8357 53.2333 39.0117 53.2348 38.1521C53.2311 37.5147 53.0389 36.8927 52.6823 36.3644C52.3257 35.8361 51.8207 35.4251 51.2309 35.1833C50.6412 34.9414 49.993 34.8795 49.3681 35.0053C48.7433 35.1312 48.1696 35.4391 47.7194 35.8903C47.2692 36.3415 46.9626 36.9159 46.8383 37.5411C46.714 38.1662 46.7774 38.8142 47.0207 39.4033C47.264 39.9924 47.6762 40.4964 48.2054 40.8517C48.7346 41.207 49.3571 41.3978 49.9945 41.4ZM33.4844 34.9392C31.7102 34.9288 30.2493 36.3483 30.2383 38.0965C30.2247 39.9203 31.652 41.3883 33.4507 41.4C34.3047 41.4016 35.1247 41.0654 35.7318 40.4649C36.339 39.8643 36.684 39.0481 36.6917 38.1942C36.702 36.3768 35.2961 34.9495 33.4844 34.9392ZM29.3234 55.9863C29.2958 55.9051 29.2616 55.8263 29.2211 55.7508C29.0555 55.4642 28.862 55.4674 28.7035 55.7618C28.6501 55.8664 28.6038 55.9744 28.5651 56.0853C28.2256 56.9781 27.887 57.8716 27.5492 58.7657C27.3228 59.3649 27.0963 59.9653 26.8621 60.5909H31.0561C31.0289 60.4997 31.0147 60.4382 30.9914 60.3793C30.4367 58.9145 29.8807 57.4502 29.3234 55.9863ZM44.2619 55.767C43.2635 55.7146 42.2619 55.7327 41.2616 55.7353C41.1905 55.7353 41.0578 55.8614 41.0572 55.9294C41.0442 57.0797 41.0481 58.2294 41.0481 59.3739C42.2283 59.3739 43.3671 59.4147 44.5013 59.3571C45.1004 59.3267 45.5365 58.9307 45.6828 58.3219C45.7674 57.9897 45.8028 57.6467 45.7876 57.3042C45.728 56.346 45.2214 55.8161 44.2619 55.765V55.767ZM57.5498 55.6511C57.4127 55.4687 57.2632 55.4622 57.1377 55.6544C57.0592 55.7821 56.9942 55.9176 56.9436 56.0588C56.6416 56.8403 56.3434 57.6229 56.0487 58.4067C55.7796 59.1183 55.513 59.83 55.2328 60.5728H59.4573C58.8439 58.9624 58.2435 57.3909 57.6411 55.8187C57.6184 55.7584 57.5878 55.7013 57.5498 55.6492V55.6511Z" fill="#C3CAD1"/>
</svg>
