<svg width="56" height="56" viewBox="0 0 56 56" fill="none" xmlns="http://www.w3.org/2000/svg">
<path fill-rule="evenodd" clip-rule="evenodd" d="M11.1528 16.4903L27.9499 10.3045V14.7212L17.5068 38.7056L21.4132 38.6249L23.5226 33.1921H27.9499V47.5808L13.731 39.4317L11.1528 16.4903ZM27.9499 22.5086V30.0185H24.9029L27.9499 22.5086ZM45.1899 16.3827L27.95 10.3045L27.9501 10.3044L45.1901 16.3827L42.4036 39.3242L27.9501 47.5809L27.95 47.5808L42.4033 39.3242L45.1899 16.3827Z" fill="white" fill-opacity="0.8"/>
<path fill-rule="evenodd" clip-rule="evenodd" d="M27.9497 10.3044L45.1897 16.3827L42.4032 39.3242L27.9497 47.5809V33.1921H32.8717L35.1634 38.6787L38.8874 38.7594L27.9757 14.6615L27.9497 14.7212V10.3044ZM27.9497 30.0185V22.5086L28.0017 22.3803L31.5435 30.0185H27.9497Z" fill="white"/>
</svg>
