<svg width="40" height="40" viewBox="0 0 40 40" fill="none" xmlns="http://www.w3.org/2000/svg">
<circle cx="20" cy="20" r="18.625" stroke="white" stroke-width="2"/>
<mask id="path-2-outside-1_1364_21673" maskUnits="userSpaceOnUse" x="14.08" y="13.9199" width="14" height="13" fill="black">
<rect fill="white" x="14.08" y="13.9199" width="14" height="13"/>
<path d="M21.1729 26.374L19.9088 25.1222L23.6949 21.3361H14.4965V19.5074H23.6949L19.9088 15.7274L21.1729 14.4695L27.1252 20.4217L21.1729 26.374Z"/>
</mask>
<path d="M21.1729 26.374L19.9088 25.1222L23.6949 21.3361H14.4965V19.5074H23.6949L19.9088 15.7274L21.1729 14.4695L27.1252 20.4217L21.1729 26.374Z" fill="white"/>
<path d="M21.1729 26.374L21.0673 26.4806L21.1734 26.5856L21.2789 26.4801L21.1729 26.374ZM19.9088 25.1222L19.8027 25.0161L19.6961 25.1227L19.8032 25.2288L19.9088 25.1222ZM23.6949 21.3361L23.801 21.4421L24.0571 21.1861H23.6949V21.3361ZM14.4965 21.3361H14.3465V21.4861H14.4965V21.3361ZM14.4965 19.5074V19.3574H14.3465V19.5074H14.4965ZM23.6949 19.5074V19.6574H24.0575L23.8009 19.4013L23.6949 19.5074ZM19.9088 15.7274L19.803 15.6211L19.6963 15.7272L19.8028 15.8336L19.9088 15.7274ZM21.1729 14.4695L21.2789 14.3634L21.1731 14.2576L21.0671 14.3631L21.1729 14.4695ZM27.1252 20.4217L27.2312 20.5278L27.3373 20.4217L27.2312 20.3157L27.1252 20.4217ZM21.2784 26.2674L20.0143 25.0156L19.8032 25.2288L21.0673 26.4806L21.2784 26.2674ZM20.0149 25.2283L23.801 21.4421L23.5889 21.23L19.8027 25.0161L20.0149 25.2283ZM23.6949 21.1861H14.4965V21.4861H23.6949V21.1861ZM14.6465 21.3361V19.5074H14.3465V21.3361H14.6465ZM14.4965 19.6574H23.6949V19.3574H14.4965V19.6574ZM23.8009 19.4013L20.0148 15.6213L19.8028 15.8336L23.5889 19.6136L23.8009 19.4013ZM20.0146 15.8337L21.2787 14.5758L21.0671 14.3631L19.803 15.6211L20.0146 15.8337ZM21.0668 14.5755L27.0191 20.5278L27.2312 20.3157L21.2789 14.3634L21.0668 14.5755ZM27.0191 20.3157L21.0668 26.2679L21.2789 26.4801L27.2312 20.5278L27.0191 20.3157Z" fill="white" mask="url(#path-2-outside-1_1364_21673)"/>
</svg>
