<svg width="56" height="55" viewBox="0 0 56 55" fill="none" xmlns="http://www.w3.org/2000/svg">
<g clip-path="url(#clip0_745_5174)">
<path d="M3.23633 17.2861V37.7117C3.23633 40.2394 4.58383 42.5746 6.77466 43.8396L24.4617 54.0513C25.5374 54.6729 26.7578 55.0001 28.0001 55.0001C29.2424 55.0001 30.4628 54.6729 31.5384 54.0513L49.2255 43.8396C50.3013 43.2188 51.1948 42.3256 51.8159 41.2499C52.437 40.1741 52.7639 38.9539 52.7638 37.7117V17.2861C52.7642 16.0442 52.4374 14.8241 51.8162 13.7487C51.195 12.6733 50.3015 11.7806 49.2255 11.1605L31.5384 0.948803C30.4628 0.327247 29.2424 0 28.0001 0C26.7578 0 25.5374 0.327247 24.4617 0.948803L6.77466 11.1605C5.69884 11.7808 4.80539 12.6736 4.18424 13.7489C3.56309 14.8242 3.23615 16.0442 3.23633 17.2861ZM15.6182 23.964V31.0384C15.6176 31.2709 15.6629 31.5012 15.7516 31.7161C15.8403 31.931 15.9706 32.1263 16.135 32.2907C16.2994 32.4551 16.4947 32.5854 16.7096 32.6741C16.9245 32.7628 17.1549 32.8082 17.3874 32.8075C17.8564 32.8069 18.306 32.6204 18.6377 32.2887C18.9693 31.9571 19.1559 31.5074 19.1565 31.0384C19.158 30.6894 19.2625 30.3485 19.4569 30.0587C19.6514 29.7688 19.9271 29.5429 20.2496 29.4092C20.572 29.2756 20.9267 29.2401 21.2692 29.3074C21.6117 29.3746 21.9267 29.5415 22.1747 29.7871C22.5058 30.1194 22.692 30.5693 22.6926 31.0384C22.6926 31.7352 22.5553 32.4252 22.2887 33.069C22.022 33.7128 21.6311 34.2978 21.1384 34.7905C20.6456 35.2833 20.0607 35.6741 19.4169 35.9408C18.7731 36.2075 18.0831 36.3447 17.3862 36.3447C16.6894 36.3447 15.9994 36.2075 15.3556 35.9408C14.7118 35.6741 14.1268 35.2833 13.6341 34.7905C13.1413 34.2978 12.7505 33.7128 12.4838 33.069C12.2171 32.4252 12.0799 31.7352 12.0799 31.0384V23.964C12.0799 22.5546 12.639 21.2071 13.6359 20.2126C14.1281 19.7191 14.7128 19.3275 15.3565 19.0604C16.0003 18.7932 16.6904 18.6557 17.3874 18.6557C18.0843 18.6557 18.7745 18.7932 19.4182 19.0604C20.0619 19.3275 20.6466 19.7191 21.1388 20.2126C22.1334 21.2071 22.6926 22.5569 22.6926 23.964C22.6927 24.196 22.647 24.4258 22.5582 24.6401C22.4693 24.8545 22.339 25.0491 22.1747 25.213C22.0112 25.3784 21.8165 25.5097 21.6019 25.5993C21.3873 25.6889 21.1571 25.735 20.9246 25.735C20.692 25.735 20.4618 25.6889 20.2472 25.5993C20.0326 25.5097 19.8379 25.3784 19.6745 25.213C19.5103 25.0491 19.38 24.8544 19.2911 24.6401C19.2023 24.4257 19.1565 24.196 19.1565 23.964C19.1571 23.7315 19.1118 23.5012 19.0231 23.2863C18.9344 23.0713 18.8041 22.8761 18.6397 22.7117C18.4753 22.5473 18.28 22.417 18.0651 22.3283C17.8502 22.2396 17.6199 22.1942 17.3874 22.1948C17.155 22.1945 16.9248 22.2401 16.71 22.3289C16.4952 22.4177 16.3 22.548 16.1357 22.7123C15.9714 22.8767 15.8411 23.0718 15.7523 23.2866C15.6635 23.5014 15.6179 23.7316 15.6182 23.964ZM43.9203 31.0384C43.9209 31.2709 43.8755 31.5012 43.7868 31.7161C43.6982 31.931 43.5679 32.1263 43.4035 32.2907C43.2391 32.4551 43.0438 32.5854 42.8289 32.6741C42.6139 32.7628 42.3836 32.8082 42.1511 32.8075H40.382V34.5767C40.3589 35.0304 40.1624 35.4578 39.8331 35.7707C39.5039 36.0836 39.067 36.2581 38.6128 36.2581C38.1586 36.2581 37.7217 36.0836 37.3924 35.7707C37.0632 35.4578 36.8667 35.0304 36.8436 34.5767V32.8075H33.3053V34.5767C33.3039 34.9257 33.1993 35.2666 33.0049 35.5564C32.8104 35.8463 32.5347 36.0722 32.2123 36.2059C31.8898 36.3395 31.5351 36.375 31.1926 36.3077C30.8501 36.2405 30.5351 36.0736 30.2872 35.828C29.956 35.4957 29.7699 35.0458 29.7692 34.5767V32.8075H28.0001C27.5309 32.8075 27.0809 32.6212 26.7491 32.2894C26.4173 31.9576 26.2309 31.5076 26.2309 31.0384C26.2309 30.5692 26.4173 30.1192 26.7491 29.7874C27.0809 29.4556 27.5309 29.2692 28.0001 29.2692H29.7692V25.7332H28.0001C27.5309 25.7332 27.0809 25.5468 26.7491 25.215C26.4173 24.8832 26.2309 24.4332 26.2309 23.964C26.2309 23.4948 26.4173 23.0448 26.7491 22.713C27.0809 22.3812 27.5309 22.1948 28.0001 22.1948H29.7692V20.4257C29.7707 20.0766 29.8752 19.7358 30.0696 19.446C30.2641 19.1561 30.5398 18.9302 30.8623 18.7965C31.1847 18.6629 31.5394 18.6274 31.8819 18.6947C32.2244 18.7619 32.5394 18.9288 32.7874 19.1744C33.1185 19.5067 33.3047 19.9566 33.3053 20.4257V22.1948H36.8436V20.4257C36.8667 19.972 37.0632 19.5446 37.3924 19.2317C37.7217 18.9188 38.1586 18.7443 38.6128 18.7443C39.067 18.7443 39.5039 18.9188 39.8331 19.2317C40.1624 19.5446 40.3589 19.972 40.382 20.4257V22.1948H42.1511C42.6203 22.1948 43.0703 22.3812 43.4021 22.713C43.7339 23.0448 43.9203 23.4948 43.9203 23.964C43.9203 24.4332 43.7339 24.8832 43.4021 25.215C43.0703 25.5468 42.6203 25.7332 42.1511 25.7332H40.382V29.2692H42.1511C42.6196 29.2716 43.0682 29.4588 43.3994 29.7901C43.7307 30.1213 43.9179 30.5699 43.9203 31.0384ZM36.8436 25.7332H33.3053V29.2692H36.8436V25.7332Z" fill="white"/>
</g>
<defs>
<clipPath id="clip0_745_5174">
<rect width="55" height="55" fill="white" transform="translate(0.5)"/>
</clipPath>
</defs>
</svg>
