<svg width="64" height="64" viewBox="0 0 64 64" fill="none" xmlns="http://www.w3.org/2000/svg">
<circle opacity="0.15" cx="32" cy="32" r="32" fill="#3CDE60"/>
<path d="M31.9987 28C34.576 28 36.6654 25.9107 36.6654 23.3334C36.6654 20.756 34.576 18.6667 31.9987 18.6667C29.4214 18.6667 27.332 20.756 27.332 23.3334C27.332 25.9107 29.4214 28 31.9987 28Z" stroke="#3CDE60" stroke-width="3" stroke-linecap="round" stroke-linejoin="round"/>
<path d="M18.666 43.3334C18.666 37.442 24.0387 32.6667 30.666 32.6667M37.2327 34.6667C35.8153 34.6667 34.666 36.006 34.666 37.6574C34.666 40.6487 37.6993 43.3674 39.3327 44C40.966 43.3674 43.9993 40.6487 43.9993 37.6574C43.9993 36.0067 42.85 34.6667 41.4327 34.6667C40.5647 34.6667 39.7973 35.1687 39.3327 35.9374C38.868 35.1687 38.1007 34.6667 37.2327 34.6667Z" stroke="#3CDE60" stroke-width="3" stroke-linecap="round" stroke-linejoin="round"/>
</svg>
