<svg
              viewBox="0 0 64 64"
              fill="none"
              xmlns="http://www.w3.org/2000/svg"
            >
              <circle opacity="0.1" cx="32" cy="32" r="32" fill="#DB3CDE" />
              <path
                d="M38.7153 16H25.3006C19.4737 16 16 19.3635 16 25.0055V37.979C16 43.6365 19.4737 47 25.3006 47H38.6993C44.5262 47 47.9999 43.6365 47.9999 37.9945V25.0055C48.016 19.3635 44.5422 16 38.7153 16ZM26.4052 22.789C28.054 22.789 29.4147 24.091 29.4147 25.703C29.4147 27.315 28.07 28.617 26.4052 28.617C24.7404 28.617 23.3957 27.284 23.3957 25.6875C23.3957 24.091 24.7564 22.789 26.4052 22.789ZM32.008 42.474C27.7018 42.474 24.1961 39.0795 24.1961 34.91C24.1961 33.825 25.1085 32.926 26.2291 32.926H37.7548C38.8754 32.926 39.7879 33.8095 39.7879 34.91C39.8199 39.0795 36.3141 42.474 32.008 42.474ZM37.6108 28.586C35.9619 28.586 34.6013 27.284 34.6013 25.672C34.6013 24.06 35.9459 22.758 37.6108 22.758C39.2756 22.758 40.6203 24.06 40.6203 25.672C40.6203 27.284 39.2596 28.586 37.6108 28.586Z"
                fill="#DB3CDE"
              />
            </svg>