<svg width="177" height="213" viewBox="0 0 177 213" fill="none" xmlns="http://www.w3.org/2000/svg">
<path d="M173 75C173 86.031 170.814 96.9541 166.568 107.145C162.321 117.337 156.097 126.597 148.251 134.397C140.404 142.197 131.089 148.384 120.837 152.606C110.585 156.827 99.5967 159 88.5 159C77.4033 159 66.4153 156.827 56.1632 152.606C45.9112 148.384 36.596 142.197 28.7495 134.397C20.9029 126.597 14.6787 117.337 10.4322 107.145C6.18566 96.9541 4 86.031 4 75" stroke="#DB3CDE" stroke-width="8" stroke-linecap="round"/>
<path d="M89 156.667C86.0545 156.667 83.6667 159.054 83.6667 162C83.6667 164.946 86.0545 167.333 89 167.333C91.9455 167.333 94.3333 164.946 94.3333 162C94.3333 159.054 91.9455 156.667 89 156.667ZM88 212C88 212.552 88.4477 213 89 213C89.5523 213 90 212.552 90 212L88 212ZM88 162L88 212L90 212L90 162L88 162Z" fill="#DB3CDE"/>
<circle opacity="0.25" cx="89" cy="75" r="75" fill="#DB3CDE"/>
<path d="M124.857 94.9257L107.168 77.238C103.679 73.7488 98.4677 73.0691 94.2684 75.1385L78.1661 59.0368V49.6568L58.8312 35.1562L49.1638 44.8233L63.6649 64.1573H73.0454L89.1477 80.259C87.0934 84.4581 87.758 89.6692 91.2473 93.1584L108.936 110.846C111.141 113.051 114.706 113.051 116.896 110.846L124.857 102.886C127.047 100.681 127.047 97.1158 124.857 94.9257ZM99.2683 69.1419C103.543 69.1419 107.561 70.8034 110.582 73.8243L113.513 76.7547C115.899 75.7124 118.165 74.2624 120.129 72.2988C125.733 66.6949 127.636 58.8103 125.854 51.6506C125.521 50.2912 123.814 49.8229 122.818 50.8198L111.579 62.0578L101.323 60.3509L99.6157 50.0948L110.854 38.8569C111.851 37.86 111.368 36.1532 109.993 35.8058C102.833 34.0385 94.9482 35.9417 89.3592 41.5304C85.0541 45.8353 83.03 51.5147 83.1358 57.1789L95.5373 69.5799C96.7608 69.2929 98.0296 69.1419 99.2683 69.1419ZM83.5738 81.5278L75.0091 72.9634L51.9885 95.9981C48.2122 99.7743 48.2122 105.892 51.9885 109.668C55.7648 113.444 61.8825 113.444 65.6589 109.668L84.3291 90.9984C83.1811 87.9926 82.8337 84.7149 83.5738 81.5278ZM58.8312 106.451C56.8373 106.451 55.2059 104.819 55.2059 102.825C55.2059 100.816 56.8222 99.2003 58.8312 99.2003C60.8402 99.2003 62.4565 100.816 62.4565 102.825C62.4565 104.819 60.8402 106.451 58.8312 106.451Z" fill="#DB3CDE"/>
</svg>
