<svg width="177" height="213" viewBox="0 0 177 213" fill="none" xmlns="http://www.w3.org/2000/svg">
<path d="M173 75C173 86.031 170.814 96.9541 166.568 107.145C162.321 117.337 156.097 126.597 148.251 134.397C140.404 142.197 131.089 148.384 120.837 152.606C110.585 156.827 99.5967 159 88.5 159C77.4033 159 66.4153 156.827 56.1632 152.606C45.9112 148.384 36.596 142.197 28.7495 134.397C20.9029 126.597 14.6787 117.337 10.4322 107.145C6.18566 96.9541 4 86.031 4 75" stroke="#DE3C4B" stroke-width="8" stroke-linecap="round"/>
<path d="M89 156.667C86.0545 156.667 83.6667 159.054 83.6667 162C83.6667 164.946 86.0545 167.333 89 167.333C91.9455 167.333 94.3333 164.946 94.3333 162C94.3333 159.054 91.9455 156.667 89 156.667ZM88 212C88 212.552 88.4477 213 89 213C89.5523 213 90 212.552 90 212L88 212ZM88 162L88 212L90 212L90 162L88 162Z" fill="#DE3C4B"/>
<circle opacity="0.25" cx="89" cy="75" r="75" fill="#DE3C3C"/>
<path d="M92.9056 39.8438C78.1791 39.8438 66.3041 51.3672 65.5619 65.8594L58.0619 75.7422C57.1244 76.9531 58.0619 78.9062 59.7025 78.9062H65.5619V90.625C65.5619 94.9609 69.0384 98.4375 73.3744 98.4375H77.2806V110.156H104.624V91.8359C113.882 87.4609 120.249 78.125 120.249 67.1875C120.249 52.1094 108.062 39.8438 92.9056 39.8438ZM96.8119 82.8125H88.9994V78.9062H96.8119V82.8125ZM103.062 65.2344C102.022 66.9909 100.54 68.4452 98.765 69.4531V75H87.0463V69.4531C81.4603 66.2109 79.5072 59.0625 82.7494 53.5156C85.9916 47.9688 93.1791 45.9375 98.765 49.1406C104.351 52.3438 106.304 59.5703 103.062 65.2344Z" fill="#DE3C3C"/>
</svg>
