<svg width="177" height="213" viewBox="0 0 177 213" fill="none" xmlns="http://www.w3.org/2000/svg">
<path d="M4 138C4 126.969 6.18566 116.046 10.4322 105.855C14.6787 95.6632 20.9029 86.4031 28.7495 78.603C36.596 70.8029 45.9112 64.6155 56.1633 60.3941C66.4153 56.1727 77.4033 54 88.5 54C99.5967 54 110.585 56.1727 120.837 60.3941C131.089 64.6155 140.404 70.8029 148.251 78.603C156.097 86.4032 162.321 95.6632 166.568 105.855C170.814 116.046 173 126.969 173 138" stroke="#00A3FF" stroke-width="8" stroke-linecap="round"/>
<path d="M89 56.3333C91.9455 56.3333 94.3333 53.9455 94.3333 51C94.3333 48.0545 91.9455 45.6667 89 45.6667C86.0545 45.6667 83.6667 48.0545 83.6667 51C83.6667 53.9455 86.0545 56.3333 89 56.3333ZM90 1C90 0.447716 89.5523 0 89 0C88.4477 0 88 0.447716 88 1H90ZM90 51V1H88V51H90Z" fill="#00A3FF"/>
<circle opacity="0.15" cx="89" cy="138" r="75" fill="#00A3FF"/>
<path d="M114.781 118.165C114.216 118.165 112.438 118.278 112.438 119.86C112.438 120.953 113.327 121.594 114.781 121.594C116.236 121.594 117.125 120.953 117.125 119.86C117.125 118.617 115.913 118.165 114.781 118.165ZM114.781 115.045C115.872 115.045 116.559 114.48 116.559 113.613C116.559 112.558 115.63 112.219 114.781 112.219C113.933 112.219 113.003 112.596 113.003 113.613C113.003 114.48 113.69 115.045 114.781 115.045Z" fill="#00A3FF"/>
<path d="M115.962 100.5C112.145 100.496 108.466 101.928 105.656 104.511C102.846 107.093 101.111 110.637 100.795 114.439C100.719 114.858 100.719 115.315 100.719 115.734C100.719 124.151 107.54 130.969 115.962 130.969C117.296 130.969 118.553 130.816 119.773 130.474C123.361 129.544 126.487 127.339 128.565 124.272C130.644 121.205 131.533 117.486 131.066 113.811C130.599 110.136 128.807 106.757 126.027 104.307C123.247 101.857 119.669 100.503 115.962 100.5ZM115.962 124.113C112.189 124.113 109.865 122.209 109.865 119.124C109.865 117.639 110.551 116.306 111.77 115.392C110.856 114.592 110.36 113.487 110.36 112.23C110.36 109.298 112.608 107.355 115.924 107.355C119.239 107.355 121.488 109.336 121.488 112.23C121.488 113.487 121.03 114.592 120.078 115.392C121.335 116.268 122.021 117.601 122.021 119.124C122.059 122.209 119.735 124.113 115.962 124.113Z" fill="#00A3FF"/>
<path d="M115.746 137.087C111.625 137.102 107.598 135.851 104.207 133.502C104.151 133.46 104.086 133.435 104.017 133.429C103.948 133.423 103.879 133.436 103.817 133.467C103.755 133.498 103.703 133.545 103.667 133.604C103.63 133.663 103.611 133.731 103.611 133.801L103.648 151.799C103.648 152.541 103.354 153.254 102.831 153.779C102.307 154.304 101.597 154.599 100.857 154.599C100.116 154.599 99.4061 154.304 98.8825 153.779C98.3589 153.254 98.0648 152.541 98.0648 151.799V133.353C98.0648 132.12 98.8837 131.075 100 130.701C100.298 130.589 100.484 130.179 100.261 129.955C97.0469 126.247 95.2756 121.5 95.273 116.587C95.273 115.952 95.3102 115.28 95.3846 114.645C95.3846 114.496 95.4219 114.384 95.4219 114.235C95.4765 113.822 95.402 113.403 95.2086 113.035C95.0152 112.667 94.7124 112.369 94.3424 112.181L90.9922 110.575C90.0008 110.114 88.921 109.875 87.8281 109.875C86.7352 109.875 85.6555 110.114 84.6641 110.575L60.4683 122.001C57.8626 123.234 56.1875 125.847 56.1875 128.76V156.615C56.1875 159.528 57.8626 162.142 60.4683 163.374L84.6641 174.8C86.6742 175.733 88.9821 175.733 90.9922 174.8L115.188 163.374C117.794 162.142 119.469 159.528 119.469 156.615V139.028C119.469 137.871 118.389 136.975 117.235 137.049C116.751 137.087 116.267 137.087 115.746 137.087ZM92.4812 144.555C92.4812 150.23 87.9026 154.823 82.2445 154.823C76.5864 154.823 72.0078 150.23 72.0078 144.555V133.353C72.0078 131.822 73.2734 130.552 74.7996 130.552C76.3258 130.552 77.5915 131.822 77.5915 133.353V144.555C77.5915 145.792 78.0817 146.98 78.9543 147.855C79.8269 148.73 81.0104 149.222 82.2445 149.222C83.4785 149.222 84.6621 148.73 85.5347 147.855C86.4073 146.98 86.8975 145.792 86.8975 144.555V133.353C86.8975 131.822 88.1631 130.552 89.6893 130.552C91.2155 130.552 92.4812 131.822 92.4812 133.353V144.555Z" fill="#00A3FF"/>
</svg>
