<svg width="75" height="75" viewBox="0 0 75 75" fill="none" xmlns="http://www.w3.org/2000/svg">
<circle opacity="0.15" cx="37.5" cy="37.5" r="37.5" fill="#DE3C3C"/>
<path d="M39.4538 19.9219C32.0905 19.9219 26.153 25.6836 25.7819 32.9297L22.0319 37.8711C21.5632 38.4766 22.0319 39.4531 22.8522 39.4531H25.7819V45.3125C25.7819 47.4805 27.5202 49.2188 29.6882 49.2188H31.6413V55.0781H45.3132V45.918C49.9421 43.7305 53.1257 39.0625 53.1257 33.5938C53.1257 26.0547 47.0319 19.9219 39.4538 19.9219ZM41.4069 41.4062H37.5007V39.4531H41.4069V41.4062ZM44.5319 32.6172C44.0117 33.4954 43.2711 34.2226 42.3835 34.7266V37.5H36.5241V34.7266C33.7311 33.1055 32.7546 29.5312 34.3757 26.7578C35.9968 23.9844 39.5905 22.9688 42.3835 24.5703C45.1765 26.1719 46.153 29.7852 44.5319 32.6172Z" fill="#DE3C3C"/>
</svg>
