<svg width="177" height="213" viewBox="0 0 177 213" fill="none" xmlns="http://www.w3.org/2000/svg">
<path d="M4 138C4 126.969 6.18566 116.046 10.4322 105.855C14.6787 95.6632 20.9029 86.4031 28.7495 78.603C36.596 70.8029 45.9112 64.6155 56.1633 60.3941C66.4153 56.1727 77.4033 54 88.5 54C99.5967 54 110.585 56.1727 120.837 60.3941C131.089 64.6155 140.404 70.8029 148.251 78.603C156.097 86.4032 162.321 95.6632 166.568 105.855C170.814 116.046 173 126.969 173 138" stroke="#FFA115" stroke-width="8" stroke-linecap="round"/>
<path d="M89 56.3333C91.9455 56.3333 94.3333 53.9455 94.3333 51C94.3333 48.0545 91.9455 45.6667 89 45.6667C86.0545 45.6667 83.6667 48.0545 83.6667 51C83.6667 53.9455 86.0545 56.3333 89 56.3333ZM90 1C90 0.447716 89.5523 0 89 0C88.4477 0 88 0.447716 88 1H90ZM90 51V1H88V51H90Z" fill="#FFA115"/>
<circle opacity="0.25" cx="89" cy="138" r="75" fill="#FFA115"/>
<path d="M80.5674 117.517C73.5947 125.344 68.8096 136.589 68.3652 137.648L55.9922 132.351L69.835 118.508C71.4414 116.901 73.7656 116.184 76.0215 116.628L80.5674 117.517ZM87.335 153.918C87.335 153.918 100.118 148.62 107.467 141.271C125.924 122.814 122.848 108.391 121.856 105.144C118.609 104.118 104.186 101.076 85.7285 119.533C78.3799 126.882 73.082 139.665 73.082 139.665L87.335 153.918ZM109.483 146.433C101.656 153.405 90.4111 158.19 89.3516 158.635L94.6494 171.008L108.492 157.165C110.099 155.559 110.816 153.234 110.372 150.979L109.483 146.433ZM79.918 157.336C79.918 160.173 78.7559 162.736 76.9102 164.582C72.877 168.615 55.9922 171.008 55.9922 171.008C55.9922 171.008 58.3848 154.123 62.418 150.09C63.8494 148.651 65.6761 147.67 67.6663 147.271C69.6564 146.872 71.7201 147.074 73.5953 147.851C75.4706 148.627 77.0728 149.943 78.1985 151.632C79.3243 153.321 79.9227 155.306 79.918 157.336ZM93.5898 126.574C93.5898 122.814 96.666 119.738 100.426 119.738C104.186 119.738 107.262 122.814 107.262 126.574C107.262 130.334 104.186 133.41 100.426 133.41C96.666 133.41 93.5898 130.334 93.5898 126.574Z" fill="#FFA115"/>
</svg>
