<svg width="177" height="213" viewBox="0 0 177 213" fill="none" xmlns="http://www.w3.org/2000/svg">
<path d="M173 75C173 86.031 170.814 96.9541 166.568 107.145C162.321 117.337 156.097 126.597 148.251 134.397C140.404 142.197 131.089 148.384 120.837 152.606C110.585 156.827 99.5967 159 88.5 159C77.4033 159 66.4153 156.827 56.1632 152.606C45.9112 148.384 36.596 142.197 28.7495 134.397C20.9029 126.597 14.6787 117.337 10.4322 107.145C6.18566 96.9541 4 86.031 4 75" stroke="#3CDE60" stroke-width="8" stroke-linecap="round"/>
<path d="M90 156.667C87.0545 156.667 84.6667 159.054 84.6667 162C84.6667 164.946 87.0545 167.333 90 167.333C92.9455 167.333 95.3333 164.946 95.3333 162C95.3333 159.054 92.9455 156.667 90 156.667ZM89 212C89 212.552 89.4477 213 90 213C90.5523 213 91 212.552 91 212L89 212ZM89 162L89 212L91 212L91 162L89 162Z" fill="#3CDE60"/>
<circle opacity="0.25" cx="89" cy="75" r="75" fill="#3CDE60"/>
<path d="M53.3311 77.3438L68.7998 61.875L73.2186 66.2938L62.1686 77.3438L73.2186 88.3938L68.7998 92.8125L53.3311 77.3438ZM78.9592 104.619L92.9779 48.5563L99.0404 50.0719L85.0248 106.134L78.9623 104.619H78.9592ZM104.781 88.3938L115.831 77.3438L104.781 66.2938L109.203 61.875L124.672 77.3438L109.203 92.8125L104.781 88.3938Z" fill="#3CDE60"/>
</svg>
