<svg width="64" height="64" viewBox="0 0 64 64" fill="none" xmlns="http://www.w3.org/2000/svg">
<circle cx="32" cy="32" r="32" fill="#3CDE73" fill-opacity="0.1"/>
<path d="M33.2267 20.25H32.7734L29.0475 27.6875H36.9525L33.2267 20.25ZM39.3184 27.6875H46.6284L43.6959 21.8225C43.4613 21.3504 43.0997 20.9532 42.6517 20.6754C42.2037 20.3976 41.6872 20.2503 41.16 20.25H35.5925L39.3184 27.6875ZM46.2884 29.8125H34.0625V44.475L46.2884 29.8125ZM31.9375 44.475V29.8125H19.7117L31.9375 44.475ZM26.6817 27.6875L30.3934 20.25H24.84C24.3129 20.2503 23.7963 20.3976 23.3484 20.6754C22.9004 20.9532 22.5388 21.3504 22.3042 21.8225L19.3717 27.6875H26.6817Z" fill="#3CDE60"/>
</svg>
