<svg width="56" height="56" viewBox="0 0 56 56" fill="none" xmlns="http://www.w3.org/2000/svg">
<path d="M44.0079 32.4648C43.7837 32.4106 43.5644 32.3361 43.3525 32.242C43.1787 32.1618 43.0209 32.0476 42.8873 31.9054C43.0156 30.7237 42.8873 29.697 42.995 28.5347C43.4166 24.0258 46.1001 25.4545 48.5087 24.716C50.0097 24.2704 51.5107 23.3551 51.8888 21.4808C50.2678 19.4746 48.4235 17.6826 46.3958 16.1438C39.8646 11.233 31.3305 9.26672 23.5756 10.63C24.7615 12.8167 26.5508 14.5688 28.7043 15.6522C28.7043 15.6522 26.6028 15.6522 24.8016 14.2308C24.2745 14.4536 23.2158 14.8943 22.7093 15.1607C24.722 17.2051 27.3615 18.4197 30.149 18.5841C32.9365 18.7485 35.6875 17.8518 37.9029 16.0566C37.88 16.0978 37.479 16.7468 36.9931 19.4467C35.9161 25.2099 32.8086 24.762 28.9632 23.3115C20.9768 20.2507 16.5815 23.0863 12.5894 17.2819C11.4276 17.9745 10.7103 19.2676 10.7103 20.6769C10.7103 22.1274 11.4688 23.3551 12.5665 24.0258C13.1669 23.1831 13.4373 22.9458 14.4823 22.9458C12.8644 23.9144 12.6719 24.762 11.9753 27.106C11.1319 29.9416 11.4894 32.845 7.53864 33.6029C5.44637 33.7143 5.48991 35.2108 4.72908 37.4434C3.77805 40.3468 2.51077 41.5067 0.0380859 44.2527C1.05328 45.5482 2.10973 45.7056 3.18681 45.2358C5.40512 44.2527 7.11698 41.2161 8.72113 39.2523C10.5178 37.0632 14.8284 38.0004 18.0825 35.8573C20.3214 34.4068 21.4214 32.443 19.941 29.1158C20.8932 30.2239 21.4598 31.6417 21.5475 33.1355C25.308 32.6198 30.3382 37.4652 34.9215 38.2691C34.4664 37.6631 34.0903 36.9952 33.8032 36.2835C33.2761 34.942 33.1065 33.7167 33.2119 32.644C33.6336 35.3004 36.1681 38.7147 40.2473 39.0295C41.2831 39.1167 42.4243 38.9835 43.6068 38.6033C45.0231 38.1577 46.3339 37.5766 47.8968 37.889C49.0587 38.1142 50.1357 38.7365 50.8118 39.7874C51.827 41.3493 54.043 41.6859 55.0376 39.7656C52.7986 33.5811 46.6272 33.1791 44.0079 32.4648Z" fill="white"/>
</svg>
