<svg width="77" height="77" viewBox="0 0 77 77" fill="none" xmlns="http://www.w3.org/2000/svg">
<g opacity="1">
<path fill-rule="evenodd" clip-rule="evenodd" d="M47.8661 46.1448C48.1139 45.4922 48.3948 44.8497 48.6043 44.1844C49.7878 40.4251 50.96 36.6627 52.1245 32.897C52.5719 31.4504 53.0624 30.0261 53.9428 28.7828C55.3354 26.8182 57.2752 25.789 59.571 25.4293C60.4754 25.2917 61.3881 25.2199 62.3023 25.2143C65.027 25.1878 67.7526 25.2063 70.4777 25.209C70.6226 25.209 70.7674 25.2243 70.9728 25.2365C70.9061 25.3975 70.8699 25.5146 70.8119 25.62C69.8006 27.4708 68.8089 29.3327 67.7676 31.1649C65.9545 34.3548 64.1382 37.5435 62.2682 40.6984C61.0686 42.7214 59.7676 44.6818 58.2917 46.5113C57.2028 47.861 56.0565 49.1514 54.5951 50.0974C53.5993 50.7421 52.5357 51.1192 51.3284 51.1128C47.0462 51.089 42.764 51.1065 38.4818 51.1001C37.2087 51.098 36.1187 50.6017 35.1938 49.7213C33.868 48.4601 33.0765 46.8546 32.4288 45.1617C31.2473 42.0709 30.5857 38.8312 29.8263 35.6197C29.4704 34.1164 29.0659 32.6248 28.6805 31.1289C28.6557 31.032 28.607 30.9414 28.5512 30.8021L28.2527 31.0892C26.5828 32.7879 25.1122 34.6599 23.7962 36.6499C23.4377 37.1924 23.3171 37.9074 23.1169 38.5521C22.3803 40.9198 21.7088 43.3104 20.9112 45.6559C20.1471 47.9029 18.7773 49.6901 16.6362 50.7463C15.3947 51.3626 14.0381 51.6977 12.6587 51.7289C10.5999 51.7755 8.53997 51.7808 6.4806 51.7999C5.98813 51.8046 5.96537 51.7633 6.09366 51.2755C6.97669 47.9182 8.09561 44.6468 9.49749 41.4803C10.9428 38.2136 12.6453 35.0985 14.79 32.2534C16.2503 30.3163 17.8632 28.5291 19.8817 27.1779C20.9055 26.493 21.9939 25.9516 23.2323 25.8091C23.4361 25.7853 23.6425 25.7704 23.8474 25.7704C28.233 25.7683 32.6187 25.8139 37.0038 25.7498C39.356 25.7154 41.0589 26.7324 42.3341 28.6711C43.1271 29.8767 43.6946 31.193 44.172 32.5527C45.1347 35.2955 45.7333 38.1395 46.4094 40.9633C46.7963 42.5794 47.2272 44.1844 47.64 45.7941C47.6711 45.9149 47.7212 46.0304 47.7631 46.148L47.8661 46.1448Z" fill="white"/>
</g>
</svg>
