<svg width="64" height="64" viewBox="0 0 64 64" fill="none" xmlns="http://www.w3.org/2000/svg">
<circle cx="32" cy="32" r="32" fill="#3CDE60" fill-opacity="0.15"/>
<path d="M46.3996 39.2V24.8C46.3996 23.472 45.3276 22.4 43.9996 22.4H21.5836C20.2556 22.4 19.1836 23.472 19.1836 24.8V39.2C19.1836 40.528 20.2556 41.6 21.5836 41.6H43.9996C45.3276 41.6 46.3996 40.528 46.3996 39.2ZM44.3036 24.624C44.8316 25.152 44.5436 25.696 44.2556 25.968L37.7596 31.92L43.9996 38.416C44.1916 38.64 44.3196 38.992 44.0956 39.232C43.8876 39.488 43.4076 39.472 43.1996 39.312L36.2076 33.344L32.7836 36.464L29.3756 33.344L22.3836 39.312C22.1756 39.472 21.6956 39.488 21.4876 39.232C21.2636 38.992 21.3916 38.64 21.5836 38.416L27.8236 31.92L21.3276 25.968C21.0396 25.696 20.7516 25.152 21.2796 24.624C21.8076 24.096 22.3516 24.352 22.7996 24.736L32.7836 32.8L42.7836 24.736C43.2316 24.352 43.7756 24.096 44.3036 24.624Z" fill="#3CDE60"/>
</svg>
