<svg width="64" height="64" viewBox="0 0 64 64" fill="none" xmlns="http://www.w3.org/2000/svg">
<circle cx="32" cy="32" r="32" fill="#9747FF" fill-opacity="0.15"/>
<path fill-rule="evenodd" clip-rule="evenodd" d="M18.3358 31.545C20.5033 25.9925 25.6045 22 31.9995 22C38.3945 22 43.4958 25.9925 45.6633 31.545C45.7776 31.8376 45.7776 32.1624 45.6633 32.455C43.4958 38.0075 38.3945 42 31.9995 42C25.6045 42 20.5033 38.0075 18.3358 32.455C18.2214 32.1624 18.2214 31.8376 18.3358 31.545ZM31.9995 35.75C32.9941 35.75 33.9479 35.3549 34.6512 34.6517C35.3544 33.9484 35.7495 32.9946 35.7495 32C35.7495 31.0054 35.3544 30.0516 34.6512 29.3483C33.9479 28.6451 32.9941 28.25 31.9995 28.25C31.0049 28.25 30.0511 28.6451 29.3479 29.3483C28.6446 30.0516 28.2495 31.0054 28.2495 32C28.2495 32.9946 28.6446 33.9484 29.3479 34.6517C30.0511 35.3549 31.0049 35.75 31.9995 35.75Z" fill="#9747FF"/>
</svg>
