<svg
              width="161"
              height="45"
              viewBox="0 0 161 45"
              fill="none"
              xmlns="http://www.w3.org/2000/svg"
            >
              <path
                d="M8.72475 17.061C9.69907 18.0384 10.2462 19.3621 10.2462 20.7421C10.2462 22.1222 9.69907 23.4459 8.72475 24.4233L2.34228 30.8038C0.842543 32.3036 -1.58022e-08 34.3377 0 36.4586C1.58023e-08 38.5795 0.842543 40.6136 2.34228 42.1133C3.84201 43.6131 5.87608 44.4556 7.99702 44.4556C10.118 44.4556 12.152 43.6131 13.6518 42.1133L20.0324 35.7327C20.5167 35.2487 20.901 34.674 21.1631 34.0414C21.4253 33.4088 21.5602 32.7307 21.5602 32.046C21.5602 31.3612 21.4253 30.6832 21.1631 30.0506C20.901 29.418 20.5167 28.8432 20.0324 28.3592L15.5886 23.9268C16.5659 24.9048 17.1149 26.2309 17.1149 27.6136C17.1149 28.9962 16.5659 30.3223 15.5886 31.3003L9.85362 37.0353C9.41189 37.477 8.29812 37.6469 7.55813 36.9069C6.81813 36.1669 6.9918 35.0532 7.42976 34.6096L13.1647 28.8764C14.142 27.8984 14.691 26.5723 14.691 25.1897C14.691 23.807 14.142 22.4809 13.1647 21.5029L12.4096 20.7478L8.72475 17.061Z"
                fill="#DE3C4B"
              />
              <g opacity="0.65">
                <path
                  d="M19.0356 27.3946C18.0613 26.4172 17.5142 25.0935 17.5142 23.7135C17.5142 22.3334 18.0613 21.0097 19.0356 20.0324L25.4162 13.6518C26.916 12.152 27.7585 10.118 27.7585 7.99702C27.7585 5.87608 26.916 3.842 25.4162 2.34226C23.9165 0.842532 21.8824 4.18089e-08 19.7615 0C17.6405 -4.18088e-08 15.6065 0.842532 14.1067 2.34226L7.72612 8.72286C6.74881 9.70091 6.19983 11.027 6.19983 12.4096C6.19983 13.7923 6.74881 15.1184 7.72612 16.0964L12.1699 20.5288C11.6855 20.0448 11.3013 19.4701 11.0391 18.8375C10.777 18.2049 10.642 17.5268 10.642 16.8421C10.642 16.1573 10.777 15.4792 11.0391 14.8467C11.3013 14.2141 11.6855 13.6393 12.1699 13.1553L17.903 7.42031C18.3466 6.97858 19.4604 6.80868 20.2004 7.54868C20.9404 8.28868 20.7667 9.40244 20.3287 9.84606L14.5938 15.5792C14.1094 16.0632 13.7251 16.6379 13.463 17.2705C13.2008 17.9031 13.0659 18.5812 13.0659 19.2659C13.0659 19.9507 13.2008 20.6287 13.463 21.2613C13.7251 21.8939 14.1094 22.4687 14.5938 22.9527L15.3489 23.7078L19.0356 27.3946Z"
                  fill="#DE3C4B"
                />
              </g>
              <path
                d="M48.5147 33.0749V20.1212H43.6066V16.6062H57.8081V20.1212H52.9V33.0749H48.5147Z"
                fill="#042042"
              />
              <path
                d="M64.1962 33.0749V16.6062H75.9475V19.9362H68.4286V23.0359H75.4604V26.3678H68.4286V29.7449H75.9475V33.0749H64.1962Z"
                fill="#042042"
              />
              <path
                d="M90.8192 33.2825C89.0925 33.2825 87.5968 32.932 86.332 32.231C85.0889 31.5508 84.0718 30.5219 83.406 29.271C82.7188 27.9987 82.3759 26.5143 82.3771 24.8178C82.3784 23.1214 82.7213 21.6483 83.406 20.3986C84.0745 19.1526 85.0911 18.128 86.332 17.4499C87.5968 16.749 89.0925 16.3985 90.8192 16.3985C91.8826 16.3963 92.9398 16.56 93.9528 16.8836C94.8505 17.1471 95.6823 17.5975 96.3937 18.205L95.0723 21.2821C94.4383 20.8122 93.7386 20.4382 92.9957 20.1721C92.3275 19.9423 91.6258 19.8249 90.9192 19.8247C89.6091 19.8247 88.5954 20.2413 87.878 21.0744C87.1607 21.9075 86.802 23.1566 86.802 24.8216C86.802 26.4866 87.1607 27.7451 87.878 28.5971C88.5954 29.4491 89.6091 29.8732 90.9192 29.8694C91.6258 29.8692 92.3275 29.7519 92.9957 29.5221C93.7386 29.256 94.4383 28.882 95.0723 28.4121L96.3937 31.4891C95.6828 32.0975 94.8508 32.5479 93.9528 32.8105C92.9393 33.1306 91.882 33.2899 90.8192 33.2825Z"
                fill="#042042"
              />
              <path
                d="M103.286 33.0749V16.6062H107.543V33.0749H103.286ZM104.558 26.4131V23.0151H116.772V26.4131H104.558ZM114.205 33.0749V16.6062H118.46V33.0749H114.205Z"
                fill="#042042"
              />
              <path
                d="M132.015 33.2826C131.193 33.2829 130.371 33.2096 129.561 33.0636C128.777 32.9258 128.007 32.7167 127.26 32.4388C126.607 32.203 125.989 31.8805 125.422 31.4798L126.785 28.4027C127.573 28.9207 128.435 29.3183 129.341 29.5826C130.225 29.8397 131.142 29.9693 132.063 29.9677C133.003 29.9677 133.716 29.8368 134.203 29.575C134.69 29.3133 134.933 28.9584 134.93 28.5103C134.932 28.253 134.842 28.0034 134.677 27.8062C134.415 27.5379 134.091 27.3388 133.733 27.2267C133.085 26.9973 132.42 26.8156 131.746 26.683C130.738 26.5039 129.75 26.2289 128.795 25.8618C128.125 25.6122 127.506 25.2439 126.968 24.7745C126.55 24.3992 126.233 23.9264 126.043 23.3983C125.858 22.8473 125.768 22.269 125.776 21.688C125.766 20.7174 126.066 19.7688 126.634 18.981C127.243 18.1467 128.066 17.4915 129.016 17.0838C130.14 16.6002 131.355 16.364 132.578 16.391C133.362 16.3911 134.143 16.4644 134.913 16.61C135.646 16.7457 136.363 16.955 137.054 17.2348C137.639 17.4622 138.182 17.7864 138.66 18.1938L137.32 21.2708C136.613 20.763 135.832 20.3652 135.006 20.091C134.237 19.8344 133.433 19.7018 132.623 19.6983C131.838 19.6983 131.209 19.8487 130.736 20.1495C130.518 20.2682 130.336 20.4437 130.209 20.6574C130.083 20.8711 130.017 21.1151 130.018 21.3633C130.018 21.6081 130.103 21.8453 130.26 22.0335C130.523 22.2977 130.847 22.4923 131.204 22.5998C131.891 22.8392 132.594 23.0285 133.309 23.1661C134.286 23.3483 135.243 23.6272 136.165 23.9986C136.824 24.2594 137.435 24.631 137.969 25.0973C138.387 25.4715 138.711 25.9392 138.913 26.4621C139.103 26.9925 139.197 27.5525 139.191 28.1158C139.216 29.0988 138.924 30.0638 138.358 30.8681C137.803 31.6396 136.993 32.2336 135.929 32.6502C134.864 33.0667 133.56 33.2775 132.015 33.2826Z"
                fill="#042042"
              />
              <path
                d="M149.664 33.075V25.6731L150.563 28.08L142.744 16.6082H147.652L152.371 24.0553H151.261L156.05 16.6082H161L153.156 28.08L154.034 25.675V33.0769L149.664 33.075Z"
                fill="#042042"
              />
            </svg>