<svg width="64" height="64" viewBox="0 0 64 64" fill="none" xmlns="http://www.w3.org/2000/svg">
<circle cx="32" cy="32" r="32" fill="#00A3FF" fill-opacity="0.15"/>
<g clip-path="url(#clip0_2122_4267)">
<path d="M16.7356 37.9815L27.3596 19.6352C28.7091 20.4366 35.5141 24.2353 36.6131 24.9578L25.9891 43.3051C24.8273 44.8535 15.2636 40.3311 16.7356 37.9805V37.9815Z" fill="#7898CD"/>
<path d="M47.2606 37.9811L36.6366 19.636C35.1513 17.1427 31.9526 16.2367 29.3252 17.7092C26.6978 19.1818 25.8978 22.3539 27.3831 24.9585L38.0071 43.3059C39.4923 45.798 42.6912 46.7039 45.3186 45.2315C47.8311 43.7588 48.7458 40.4742 47.2606 37.9833V37.9811Z" fill="#4285F4"/>
<path d="M21.333 45.9405C24.2783 45.9405 26.666 43.5919 26.666 40.6948C26.666 37.7976 24.2783 35.449 21.333 35.449C18.3877 35.449 16 37.7976 16 40.6948C16 43.5919 18.3877 45.9405 21.333 45.9405Z" fill="#173F82"/>
</g>
<defs>
<clipPath id="clip0_2122_4267">
<rect width="32" height="29" fill="white" transform="translate(16 17)"/>
</clipPath>
</defs>
</svg>
