<svg width="64" height="64" viewBox="0 0 64 64" fill="none" xmlns="http://www.w3.org/2000/svg">
<circle opacity="0.2" cx="32" cy="32" r="32" fill="#00A3FF"/>
<path d="M28.916 21.6446V32.7917H26.3327V21.2339L26.3869 21.053C26.5458 20.5196 26.9682 19.6128 27.76 18.821C28.5802 17.9969 29.8137 17.2917 31.4993 17.2917C33.1863 17.2917 34.4172 17.9969 35.2387 18.821C36.0305 19.6128 36.4529 20.5196 36.6118 21.053L36.666 21.2339V24.3145H34.0827V21.6446C33.9236 21.2725 33.6957 20.9337 33.411 20.6461C32.9951 20.2289 32.3958 19.875 31.4993 19.875C30.6029 19.875 30.0036 20.2289 29.5877 20.6461C29.303 20.9337 29.0751 21.2725 28.916 21.6446ZM21.2332 26.3334H24.3138V28.9167H21.6439C21.2718 29.0758 20.9331 29.3036 20.6455 29.5884C20.2283 30.0043 19.8743 30.6036 19.8743 31.5C19.8743 32.3964 20.2283 32.9958 20.6455 33.4117C21.002 33.7682 21.4024 33.9826 21.6439 34.0834H32.791V36.6667H21.2332L21.0523 36.6124C20.5189 36.4536 19.6121 36.0312 18.8203 35.2394C17.9963 34.4192 17.291 33.1856 17.291 31.5C17.291 29.8131 17.9963 28.5821 18.8203 27.7606C19.6121 26.9689 20.5189 26.5465 21.0523 26.3876L21.2332 26.3334ZM30.2077 26.3334H41.7655L41.9464 26.3876C42.4798 26.5465 43.3853 26.9689 44.1796 27.7606C45.0024 28.5809 45.7077 29.8144 45.7077 31.5C45.7077 33.1869 45.0024 34.4179 44.1796 35.2394C43.3866 36.0312 42.4798 36.4536 41.9464 36.6124L41.7655 36.6667H38.6862V34.0834H41.3548C41.7269 33.9243 42.0656 33.6964 42.3532 33.4117C42.7704 32.9958 43.1244 32.3964 43.1244 31.5C43.1244 30.6036 42.7704 30.0043 42.3532 29.5884C42.0656 29.3036 41.7269 29.0758 41.3548 28.9167H30.2077V26.3334ZM36.666 30.2084V41.7662L36.6118 41.947C36.4529 42.4805 36.0305 43.3859 35.2387 44.1803C34.4185 45.0031 33.185 45.7084 31.4993 45.7084C29.8124 45.7084 28.5815 45.0031 27.76 44.1803C26.9682 43.3872 26.5458 42.4805 26.3869 41.947L26.3327 41.7662V38.6869H28.916V41.3554C29.0168 41.597 29.2312 41.9974 29.5877 42.3539C30.0036 42.7711 30.6029 43.125 31.4993 43.125C32.3958 43.125 32.9951 42.7711 33.411 42.3539C33.6957 42.0663 33.9236 41.7276 34.0827 41.3554V30.2084H36.666Z" fill="#00A3FF"/>
</svg>
