<svg width="64" height="64" viewBox="0 0 64 64" fill="none" xmlns="http://www.w3.org/2000/svg">
<circle opacity="0.2" cx="32" cy="32" r="32" fill="#3CDE60"/>
<path d="M23.25 33.25V44.5H20.75V33.25H23.25ZM45.75 33.25V35.75H43.25V44.5H40.75V35.75H38.25V33.25H45.75ZM32 30.75C33.7514 30.7593 35.4656 31.2567 36.95 32.1863L38.7587 30.3738C36.7736 28.9962 34.4163 28.2555 32 28.25C29.6159 28.2547 27.2901 28.9874 25.3337 30.35L27.145 32.1663C28.5993 31.2499 30.2811 30.7593 32 30.75Z" fill="#3CDE60"/>
<path d="M32.0001 25.75C35.078 25.7564 38.0725 26.7511 40.5426 28.5875L42.3263 26.8C39.3737 24.5033 35.7408 23.2543 32.0001 23.25C28.2918 23.2547 24.691 24.496 21.7676 26.7775L23.5501 28.565C25.9913 26.7434 28.9542 25.7563 32.0001 25.75Z" fill="#3CDE60"/>
<path d="M31.9992 20.75C36.4031 20.7507 40.6748 22.2544 44.108 25.0125L45.8917 23.2262C41.994 20.0129 37.1008 18.2539 32.0493 18.25C26.9978 18.2461 22.1019 19.9977 18.1992 23.205L19.983 24.9912C23.3872 22.2479 27.6272 20.7514 31.9992 20.75ZM31.9992 33.25C30.8867 33.25 29.7992 33.5799 28.8741 34.198C27.9491 34.816 27.2281 35.6945 26.8024 36.7224C26.3767 37.7502 26.2653 38.8812 26.4823 39.9724C26.6993 41.0635 27.2351 42.0658 28.0217 42.8525C28.8084 43.6391 29.8107 44.1749 30.9018 44.3919C31.993 44.6089 33.124 44.4975 34.1518 44.0718C35.1796 43.6461 36.0582 42.9251 36.6762 42.0001C37.2943 41.075 37.6242 39.9875 37.6242 38.875C37.6242 37.3831 37.0316 35.9524 35.9767 34.8975C34.9218 33.8426 33.4911 33.25 31.9992 33.25ZM31.9992 42C31.3812 42 30.777 41.8167 30.2631 41.4733C29.7492 41.1299 29.3486 40.6419 29.1121 40.0709C28.8756 39.4998 28.8137 38.8715 28.9343 38.2653C29.0548 37.6591 29.3525 37.1023 29.7895 36.6653C30.2265 36.2282 30.7834 35.9306 31.3896 35.81C31.9958 35.6894 32.6241 35.7513 33.1951 35.9879C33.7661 36.2244 34.2542 36.6249 34.5976 37.1388C34.9409 37.6527 35.1242 38.2569 35.1242 38.875C35.1242 39.7038 34.795 40.4986 34.2089 41.0847C33.6229 41.6707 32.828 42 31.9992 42Z" fill="#3CDE60"/>
</svg>
