<svg width="56" height="56" viewBox="0 0 56 56" fill="none" xmlns="http://www.w3.org/2000/svg">
<path d="M21.1527 41.6362C13.3797 43.7996 25.8568 48.2773 35.7429 44.1518C34.7835 43.7787 33.8577 43.3242 32.9758 42.7934C29.5435 43.5748 25.9981 43.7282 22.5111 43.2462C19.2157 42.8689 21.1527 41.6362 21.1527 41.6362ZM34.5606 37.4101C30.1333 38.3729 25.5769 38.594 21.0772 38.0642C17.7819 37.712 19.9452 36.1272 19.9452 36.1272C11.3924 38.9446 24.6996 42.1645 36.6485 38.6427C35.8716 38.3875 35.1593 37.967 34.5606 37.4101ZM39.1389 12.9338C39.1389 12.9338 21.8571 17.2354 30.1081 26.7442C30.43 27.1301 30.6698 27.5776 30.813 28.0593C30.9562 28.541 30.9997 29.0469 30.9409 29.546C30.882 30.0451 30.722 30.5269 30.4707 30.9621C30.2194 31.3973 29.882 31.7767 29.4792 32.0772C29.4792 32.0772 35.6674 28.8824 32.8248 24.8827C29.9823 20.883 28.1459 19.2982 39.1389 12.9338Z" fill="white"/>
<path d="M43.1889 45.7366C43.1889 45.7366 44.5976 46.8938 41.6041 47.7994C35.8938 49.5351 17.8824 50.0634 12.8765 47.7994C11.0653 47.0195 14.4361 45.9379 15.3921 45.7115C15.9587 45.5652 16.5427 45.4975 17.1278 45.5102C15.1153 44.1015 4.1727 48.2773 11.5684 49.4848C31.8186 52.9311 48.396 48.0761 43.1889 45.7366ZM36.246 33.4607C36.9857 32.9929 37.7593 32.5809 38.5603 32.2281C38.5603 32.2281 34.7618 32.9073 31.0136 33.2343C26.983 33.6234 22.9265 33.6654 18.8887 33.3601C12.9017 32.5803 22.0834 30.2912 22.0834 30.2912C19.3203 30.2697 16.5931 30.917 14.1343 32.1778C8.95225 34.7688 26.9384 35.9008 36.246 33.4607ZM38.5351 39.5987C38.4801 39.6841 38.4123 39.7605 38.3339 39.8251C50.9116 36.5046 46.3333 28.1278 40.296 30.2408C39.9629 30.3633 39.6739 30.5823 39.4659 30.8697C39.4659 30.8697 39.818 30.7439 40.5475 30.5679C43.6165 29.939 47.8929 34.6682 38.5351 39.5987ZM27.7686 30.2912C25.907 26.0902 19.5679 22.3923 27.7686 15.9274C38.0571 7.85246 32.7997 2.62012 32.7997 2.62012C34.9127 10.9466 25.253 13.4621 21.8822 18.6442C19.5427 22.1911 23.0645 25.9896 27.7686 30.2912Z" fill="white"/>
<path d="M38.8622 51.2205C31.2621 52.5217 23.5065 52.6405 15.8701 51.5727C15.8701 51.5727 17.0273 52.5286 23.0143 52.9059C32.0954 53.4845 46.0315 52.6041 46.3837 48.3025C46.3837 48.3025 45.7297 49.9124 38.8622 51.2205Z" fill="white"/>
</svg>
