<svg width="56" height="56" viewBox="0 0 56 56" fill="none" xmlns="http://www.w3.org/2000/svg">
<path d="M26.6481 7.50218C27.1502 7.21147 27.7158 7.05884 28.291 7.05884C28.8663 7.05884 29.4319 7.21147 29.934 7.50218L44.9459 16.2833C45.4163 16.5606 45.8081 16.9609 46.0821 17.4442C46.3562 17.9275 46.5029 18.4768 46.5075 19.0372V36.6515C46.4983 37.2335 46.3376 37.8022 46.0422 38.2975C45.7469 38.7928 45.3279 39.1963 44.8295 39.4656L29.8717 48.2031C29.3602 48.4959 28.7824 48.6414 28.1982 48.6246C27.614 48.6078 27.0448 48.4292 26.5498 48.1075L22.0616 45.4223C21.7331 45.2702 21.438 45.0503 21.1945 44.7759C21.3852 44.5098 21.7264 44.4766 22.0034 44.3602C22.6187 44.1326 23.2121 43.8459 23.7758 43.5039C23.8468 43.4606 23.9287 43.4402 24.0109 43.4454C24.0932 43.4506 24.1721 43.4811 24.2375 43.533C25.5141 44.2916 26.7806 45.0731 28.0652 45.8255C28.3382 45.9897 28.6152 45.7714 28.848 45.6384C33.743 42.773 38.6386 39.9118 43.5349 37.0547C43.6222 37.0096 43.6944 36.9382 43.742 36.85C43.7896 36.7618 43.8105 36.6607 43.8018 36.56C43.8058 30.7503 43.8065 24.9398 43.8038 19.1286C43.8126 19.0157 43.7872 18.9028 43.731 18.8056C43.6749 18.7083 43.5909 18.6317 43.4907 18.5862C38.5208 15.6875 33.5523 12.7875 28.5851 9.88608C28.4988 9.82478 28.3967 9.79197 28.292 9.79197C28.1874 9.79197 28.0853 9.82478 27.999 9.88608C23.0305 12.7847 18.0633 15.6855 13.0974 18.5883C12.9966 18.6325 12.9119 18.7086 12.8553 18.8056C12.7987 18.9026 12.7732 19.0157 12.7823 19.1286V36.56C12.7738 36.6604 12.7952 36.761 12.8437 36.8483C12.8921 36.9356 12.9653 37.0055 13.0533 37.0485C14.378 37.8272 15.7048 38.6031 17.0336 39.3762C17.4016 39.6118 17.8136 39.7644 18.2425 39.8238C18.6714 39.8833 19.1076 39.8483 19.5225 39.7213C19.8827 39.5809 20.1928 39.3299 20.4113 39.0019C20.6298 38.6739 20.7462 38.2845 20.7449 37.886C20.7509 32.1081 20.7409 26.3302 20.7489 20.5565C20.7476 20.4952 20.7587 20.4343 20.7816 20.3777C20.8045 20.3212 20.8387 20.2703 20.8819 20.2283C20.925 20.1864 20.9763 20.1543 21.0322 20.1342C21.0882 20.1141 21.1476 20.1065 21.2066 20.1117C21.8449 20.1076 22.4812 20.1034 23.1194 20.1138C23.1814 20.1168 23.2421 20.1333 23.2975 20.1622C23.3529 20.1912 23.4018 20.2319 23.441 20.2817C23.4802 20.3315 23.5089 20.3893 23.5251 20.4513C23.5412 20.5134 23.5446 20.5782 23.5349 20.6417C23.5329 26.4549 23.541 32.2682 23.5309 38.0793C23.5737 38.8693 23.411 39.6567 23.0597 40.3594C22.7084 41.062 22.1814 41.6541 21.5337 42.074C20.6688 42.4912 19.722 42.6944 18.7681 42.6673C17.8143 42.6403 16.8796 42.3838 16.038 41.9181C14.5787 41.1637 13.1877 40.2762 11.7566 39.4656C11.2581 39.1966 10.8392 38.793 10.5442 38.2976C10.2491 37.8022 10.0889 37.2334 10.0806 36.6515V19.0372C10.0848 18.4655 10.2367 17.9054 10.5205 17.415C10.8043 16.9245 11.2096 16.5216 11.6944 16.248C16.6803 13.3341 21.6656 10.4188 26.6501 7.50218H26.6481Z" fill="white"/>
<path d="M26.5769 19.4811C28.7802 19.1864 31.0191 19.5415 33.0361 20.5057C33.7671 20.9572 34.3714 21.5986 34.7893 22.3663C35.2072 23.1341 35.4242 24.0015 35.4187 24.8828C35.3905 24.993 35.3248 25.089 35.2337 25.1532C35.1427 25.2173 35.0323 25.2453 34.9229 25.232C34.2906 25.232 33.6604 25.2403 33.0301 25.2278C32.9084 25.2201 32.794 25.1654 32.7093 25.0746C32.6245 24.9839 32.5757 24.8635 32.5725 24.7373C32.5008 24.3107 32.3404 23.9052 32.1023 23.5492C31.8642 23.1932 31.5541 22.8951 31.1935 22.6756C29.9935 22.1818 28.6976 21.9894 27.4119 22.1144C26.4644 22.0839 25.5272 22.3256 24.7042 22.8127C24.4207 23.0404 24.2133 23.3543 24.1111 23.7103C24.0088 24.0663 24.0169 24.4466 24.1341 24.7976C24.3369 25.2964 24.8929 25.4564 25.3485 25.604C27.9699 26.3148 30.7479 26.2442 33.3171 27.1774C33.8691 27.3364 34.3786 27.6242 34.8065 28.0187C35.2345 28.4132 35.5695 28.9039 35.786 29.4532C36.0436 30.2322 36.1058 31.0662 35.9668 31.8769C35.8277 32.6876 35.492 33.4484 34.9912 34.088C34.085 35.0628 32.9075 35.7204 31.6231 35.9689C29.9503 36.3209 28.2344 36.3966 26.5388 36.1934C24.9115 36.0966 23.3514 35.4883 22.0667 34.4496C21.5578 33.9654 21.1584 33.3709 20.8971 32.7083C20.6358 32.0458 20.5191 31.3317 20.5553 30.6171C20.5679 30.5024 20.6236 30.3976 20.7104 30.3252C20.7972 30.2528 20.9081 30.2188 21.0189 30.2305C21.6552 30.2243 22.2895 30.2222 22.9258 30.2305C22.9846 30.2294 23.0431 30.2404 23.0978 30.2628C23.1526 30.2852 23.2025 30.3187 23.2446 30.3612C23.2868 30.4037 23.3205 30.4545 23.3436 30.5105C23.3667 30.5666 23.3789 30.6268 23.3794 30.6877C23.4107 31.0952 23.5223 31.4917 23.7073 31.8527C23.8924 32.2138 24.1469 32.5317 24.4553 32.7869C25.8157 33.4801 27.336 33.7666 28.8451 33.6141C30.1085 33.714 31.3698 33.3944 32.446 32.7017C32.694 32.4513 32.8745 32.1381 32.9695 31.7933C33.0646 31.4484 33.071 31.0837 32.988 30.7355C32.8314 30.1536 32.2453 29.8834 31.7415 29.7067C29.1522 28.8588 26.3461 29.1664 23.7829 28.2103C23.2453 28.047 22.7484 27.7649 22.3263 27.3835C21.9042 27.0021 21.5671 26.5304 21.3381 26.001C21.0437 25.2115 20.9693 24.3523 21.1233 23.5211C21.2773 22.69 21.6536 21.9203 22.2092 21.2997C23.4203 20.1923 24.9626 19.5501 26.5769 19.4811Z" fill="white"/>
</svg>
