<svg width="30" height="31" viewBox="0 0 30 31" fill="none" xmlns="http://www.w3.org/2000/svg">
<path d="M14.9975 0.803711C12.1574 0.803711 9.38102 1.6777 7.01957 3.31513C4.65813 4.95257 2.8176 7.2799 1.73075 10.0029C0.643892 12.7258 0.359555 15.7221 0.913629 18.6127C1.4677 21.5034 2.83533 24.1587 4.84358 26.2427C6.85183 28.3268 9.41047 29.7461 12.196 30.3211C14.9815 30.896 17.8688 30.6009 20.4927 29.473C23.1166 28.3452 25.3592 26.4352 26.9371 23.9846C28.515 21.534 29.3572 18.6529 29.3572 15.7055C29.3572 11.7533 27.8443 7.963 25.1513 5.16837C22.4583 2.37373 18.8059 0.803711 14.9975 0.803711V0.803711ZM11.2032 23.0487H7.76912V12.3286H11.2032V23.0487ZM9.48618 10.8628C9.14212 10.8266 8.81558 10.6876 8.54618 10.4626C8.27677 10.2376 8.07607 9.93622 7.9685 9.59514C7.86092 9.25407 7.85109 8.88793 7.94014 8.54115C8.02919 8.19437 8.21332 7.88188 8.47019 7.64159C8.72707 7.4013 9.04563 7.24355 9.38721 7.1875C9.72879 7.13145 10.0787 7.1795 10.3945 7.32582C10.7103 7.47213 10.9783 7.71042 11.1661 8.01176C11.354 8.31311 11.4534 8.66456 11.4525 9.02344C11.4545 9.28561 11.4024 9.54519 11.2999 9.78479C11.1973 10.0244 11.0465 10.2384 10.8577 10.4126C10.6688 10.5868 10.4463 10.7171 10.205 10.7948C9.96365 10.8724 9.70917 10.8956 9.4585 10.8628H9.48618ZM23.5828 23.0487H20.1486V17.3006C20.1486 15.8636 19.6502 14.8721 18.4039 14.8721C18.0168 14.876 17.6403 15.0037 17.3256 15.2377C17.0109 15.4717 16.7733 15.8006 16.6453 16.1798C16.5555 16.4572 16.5179 16.7499 16.5345 17.042V23.0343H13.0727C13.0727 23.0343 13.0727 13.3201 13.0727 12.3142H16.5068V13.8374C16.8148 13.2763 17.266 12.8143 17.8109 12.5024C18.3558 12.1905 18.9731 12.0409 19.5948 12.0699C21.8519 12.0699 23.5551 13.5931 23.5551 16.8839L23.5828 23.0487Z" fill="#DE3C4B"/>
</svg>
