<svg width="30" height="30" viewBox="0 0 30 30" fill="none" xmlns="http://www.w3.org/2000/svg">
<path d="M14.9975 0C12.1574 0 9.38102 0.873985 7.01957 2.51142C4.65813 4.14886 2.8176 6.47619 1.73075 9.19914C0.643892 11.9221 0.359555 14.9184 0.913629 17.809C1.4677 20.6997 2.83533 23.355 4.84358 25.439C6.85183 27.5231 9.41047 28.9424 12.196 29.5173C14.9815 30.0923 17.8688 29.7972 20.4927 28.6693C23.1166 27.5415 25.3592 25.6314 26.9371 23.1809C28.515 20.7303 29.3572 17.8491 29.3572 14.9018C29.3572 10.9496 27.8443 7.15929 25.1513 4.36466C22.4583 1.57002 18.8059 0 14.9975 0V0ZM11.2032 22.245H7.76912V11.5249H11.2032V22.245ZM9.48618 10.0591C9.14212 10.0229 8.81558 9.88389 8.54618 9.65887C8.27677 9.43384 8.07607 9.13251 7.9685 8.79143C7.86092 8.45035 7.85109 8.08422 7.94014 7.73744C8.02919 7.39066 8.21332 7.07817 8.47019 6.83788C8.72707 6.59759 9.04563 6.43984 9.38721 6.38379C9.72879 6.32774 10.0787 6.37579 10.3945 6.52211C10.7103 6.66842 10.9783 6.90671 11.1661 7.20805C11.354 7.5094 11.4534 7.86084 11.4525 8.21973C11.4545 8.4819 11.4024 8.74148 11.2999 8.98108C11.1973 9.22067 11.0465 9.43473 10.8577 9.60892C10.6688 9.7831 10.4463 9.9134 10.205 9.99104C9.96365 10.0687 9.70917 10.0919 9.4585 10.0591H9.48618ZM23.5828 22.245H20.1486V16.4969C20.1486 15.0599 19.6502 14.0684 18.4039 14.0684C18.0168 14.0723 17.6403 14.2 17.3256 14.434C17.0109 14.668 16.7733 14.9969 16.6453 15.3761C16.5555 15.6534 16.5179 15.9462 16.5345 16.2383V22.2306H13.0727C13.0727 22.2306 13.0727 12.5164 13.0727 11.5105H16.5068V13.0337C16.8148 12.4726 17.266 12.0106 17.8109 11.6987C18.3558 11.3868 18.9731 11.2371 19.5948 11.2662C21.8519 11.2662 23.5551 12.7894 23.5551 16.0802L23.5828 22.245Z" fill="#042042"/>
</svg>
