<svg width="64" height="64" viewBox="0 0 64 64" fill="none" xmlns="http://www.w3.org/2000/svg">
<circle opacity="0.1" cx="32" cy="32" r="32" fill="#3CDE60"/>
<path d="M47.2989 40.5016L39.7518 32.9549C38.2631 31.4662 36.0396 31.1762 34.2479 32.0591L27.3775 25.189V21.1869L19.128 15L15.0032 19.1246L21.1904 27.3738H25.1927L32.063 34.2438C31.1865 36.0354 31.4701 38.2589 32.9589 39.7476L40.5059 47.2943C41.4469 48.2352 42.9679 48.2352 43.9024 47.2943L47.2989 43.898C48.2334 42.957 48.2334 41.4361 47.2989 40.5016ZM36.3811 29.5005C38.2051 29.5005 39.9194 30.2095 41.2084 31.4984L42.4587 32.7487C43.477 32.304 44.4438 31.6853 45.2816 30.8475C47.6727 28.4565 48.4848 25.0924 47.7243 22.0376C47.5825 21.4576 46.8542 21.2578 46.4288 21.6831L41.6338 26.478L37.2576 25.7497L36.5294 21.3738L41.3244 16.5789C41.7498 16.1536 41.5435 15.4253 40.9571 15.2771C37.9021 14.5231 34.5379 15.3351 32.1532 17.7197C30.3164 19.5564 29.4528 21.9796 29.4979 24.3963L34.7892 29.6874C35.3113 29.565 35.8526 29.5005 36.3811 29.5005ZM29.6848 34.7852L26.0305 31.131L16.2084 40.9592C14.5972 42.5704 14.5972 45.1804 16.2084 46.7916C17.8197 48.4028 20.4299 48.4028 22.0411 46.7916L30.0071 38.826C29.5173 37.5435 29.369 36.145 29.6848 34.7852ZM19.128 45.4189C18.2773 45.4189 17.5812 44.7229 17.5812 43.8722C17.5812 43.015 18.2708 42.3255 19.128 42.3255C19.9852 42.3255 20.6748 43.015 20.6748 43.8722C20.6748 44.7229 19.9852 45.4189 19.128 45.4189Z" fill="#3CDE60"/>
</svg>
