<svg
              viewBox="0 0 64 64"
              fill="none"
              xmlns="http://www.w3.org/2000/svg"
            >
              <circle opacity="0.1" cx="32" cy="32" r="32" fill="#00A3FF" />
              <path
                d="M49 20.04V25.96C49 29.56 47.56 31 43.96 31H39.64C36.04 31 34.6 29.56 34.6 25.96V20.04C34.6 16.44 36.04 15 39.64 15H43.96C47.56 15 49 16.44 49 20.04ZM31.4 36.04V41.96C31.4 45.56 29.96 47 26.36 47H22.04C18.44 47 17 45.56 17 41.96V36.04C17 32.44 18.44 31 22.04 31H26.36C29.96 31 31.4 32.44 31.4 36.04ZM37.448 47C37.2355 46.9988 37.027 46.9414 36.8439 46.8335C36.6608 46.7256 36.5095 46.5712 36.4055 46.3858C36.3015 46.2005 36.2484 45.9909 36.2516 45.7784C36.2549 45.5659 36.3143 45.3581 36.424 45.176L37.976 42.584C38.312 42.008 39.048 41.832 39.624 42.168C40.2 42.504 40.376 43.24 40.04 43.816L39.752 44.296C41.7159 43.7867 43.4552 42.6401 44.6974 41.0359C45.9396 39.4318 46.6144 37.4608 46.616 35.432C46.616 34.776 47.16 34.232 47.816 34.232C48.472 34.232 49 34.776 49 35.448C49 41.816 43.816 47 37.448 47ZM18.2 27.752C17.544 27.752 17 27.224 17 26.552C17 20.184 22.184 15 28.552 15C29 15 29.384 15.24 29.608 15.608C29.816 15.992 29.816 16.44 29.592 16.824L28.04 19.4C27.688 19.976 26.952 20.168 26.392 19.816C26.2561 19.7354 26.1375 19.6288 26.043 19.5022C25.9485 19.3757 25.88 19.2317 25.8413 19.0785C25.8026 18.9254 25.7946 18.7661 25.8177 18.6098C25.8409 18.4535 25.8946 18.3034 25.976 18.168L26.264 17.688C22.328 18.712 19.4 22.296 19.4 26.552C19.4 27.224 18.856 27.752 18.2 27.752Z"
                fill="#00A3FF"
              />
            </svg>