<svg width="31" height="30" viewBox="0 0 31 30" fill="none" xmlns="http://www.w3.org/2000/svg">
<path d="M15.034 0C6.56404 0 0 6.19024 0 14.5513C0 18.9246 1.79707 22.7038 4.72222 25.3144C5.22728 25.7687 5.12325 26.0318 5.20914 28.8366C5.2159 29.033 5.27063 29.2248 5.36855 29.3953C5.46647 29.5657 5.60461 29.7097 5.77092 29.8145C5.93723 29.9193 6.12665 29.9818 6.32268 29.9966C6.5187 30.0114 6.71536 29.978 6.89551 29.8993C10.0959 28.49 10.137 28.3787 10.6796 28.5263C19.9516 31.0782 30.0015 25.1444 30.0015 14.5513C30.0015 6.19024 23.5046 0 15.034 0ZM24.0611 11.198L19.6456 18.1884C19.4788 18.4513 19.2596 18.6769 19.0016 18.8511C18.7436 19.0252 18.4524 19.1443 18.1463 19.2006C17.8401 19.257 17.5256 19.2496 17.2225 19.1788C16.9194 19.1079 16.6342 18.9753 16.3847 18.7891L12.8716 16.1597C12.7146 16.0419 12.5236 15.9782 12.3272 15.9782C12.1309 15.9782 11.9399 16.0419 11.7829 16.1597L7.0425 19.755C6.4098 20.2347 5.58113 19.4768 6.00756 18.8072L10.4231 11.8167C10.5898 11.5538 10.809 11.3281 11.067 11.1539C11.325 10.9797 11.6162 10.8606 11.9224 10.8042C12.2285 10.7478 12.543 10.7553 12.8462 10.8262C13.1493 10.8971 13.4345 11.0298 13.684 11.2161L17.1958 13.8449C17.3529 13.9626 17.5439 14.0263 17.7402 14.0263C17.9365 14.0263 18.1276 13.9626 18.2846 13.8449L23.0274 10.2531C23.6589 9.77046 24.4875 10.5278 24.0611 11.198V11.198Z" fill="#042042"/>
</svg>
