<svg style="margin-top:1px;" width="31" height="35" viewBox="0 0 31 35" fill="none" xmlns="http://www.w3.org/2000/svg">
<g id="messenger">
<path id="Vector" d="M15.0862 0C6.58684 0 0 6.19024 0 14.5513C0 18.9246 1.80331 22.7038 4.73861 25.3144C5.24543 25.7687 5.14103 26.0318 5.22722 28.8366C5.23401 29.033 5.28893 29.2248 5.38719 29.3953C5.48545 29.5658 5.62407 29.7097 5.79096 29.8145C5.95784 29.9193 6.14793 29.9818 6.34463 29.9966C6.54133 30.0114 6.73868 29.978 6.91946 29.8993C10.1309 28.49 10.1722 28.3787 10.7167 28.5263C20.0209 31.0782 30.1057 25.1444 30.1057 14.5513C30.1057 6.19024 23.5862 0 15.0862 0ZM24.1447 11.198L19.7138 18.1884C19.5465 18.4513 19.3265 18.6769 19.0676 18.8511C18.8087 19.0252 18.5165 19.1443 18.2093 19.2006C17.9021 19.257 17.5865 19.2496 17.2823 19.1788C16.9781 19.1079 16.6919 18.9753 16.4416 18.7891L12.9163 16.1597C12.7587 16.0419 12.567 15.9782 12.37 15.9782C12.173 15.9782 11.9814 16.0419 11.8238 16.1597L7.06695 19.755C6.43206 20.2347 5.60051 19.4768 6.02842 18.8072L10.4593 11.8167C10.6266 11.5538 10.8465 11.3281 11.1054 11.1539C11.3643 10.9797 11.6565 10.8606 11.9638 10.8042C12.271 10.7478 12.5866 10.7553 12.8908 10.8262C13.195 10.8971 13.4812 11.0298 13.7315 11.2161L17.2555 13.8449C17.4131 13.9626 17.6048 14.0263 17.8018 14.0263C17.9988 14.0263 18.1905 13.9626 18.3481 13.8449L23.1073 10.2531C23.741 9.77046 24.5726 10.5278 24.1447 11.198Z" fill="#DE3C4B"/>
</g>
</svg>
