<svg width="369" height="356" viewBox="0 0 369 356" fill="none" xmlns="http://www.w3.org/2000/svg">
<path d="M363.252 99.265L363.252 99.2708C364.067 122.413 353.791 136.309 345.023 148.167C343.373 150.399 341.777 152.557 340.318 154.692C335.693 161.458 332.459 167.92 332.797 175.733C333.136 183.571 337.083 193.025 347.454 205.699L347.501 205.756L347.54 205.818C370.841 242.311 371.854 269.46 359.072 288.961C346.389 308.312 320.404 319.639 290.874 325.277C276.066 328.104 267.772 327.634 262.119 325.843C259.288 324.946 257.172 323.734 255.291 322.524C254.799 322.208 254.332 321.898 253.877 321.597C252.561 320.724 251.345 319.918 249.934 319.221C246.294 317.423 241.343 316.376 230.992 318.379C220.601 320.39 204.914 325.446 179.909 335.721C105 366.5 59.4683 355.053 33.9005 329.589C8.48538 304.276 3.20407 265.476 7.99716 242.187C9.68057 226.638 15.9336 209.892 21.6956 194.461C23.2 190.432 24.6708 186.493 26.0182 182.688C29.2987 173.424 31.8459 164.976 32.4954 157.84C33.1442 150.712 31.8807 145.146 27.8389 141.341C13.7802 128.108 5.43253 114.089 2.72473 100.714C0.0105896 87.3069 2.98203 74.6142 11.4298 64.1842C28.2622 43.402 66.5048 31.9252 123.795 40.6056C150.634 42.6885 166.401 42.3146 175.918 40.4237C180.665 39.4806 183.779 38.1743 185.921 36.6679C188.041 35.1775 189.28 33.4416 190.199 31.4996C190.848 30.1286 191.314 28.7232 191.821 27.1951C192.062 26.4672 192.313 25.7115 192.597 24.9183C193.454 22.5256 194.561 19.9879 196.541 17.4878C200.513 12.471 207.784 7.86291 222.822 4.38087L222.865 4.37074L222.91 4.36377C281.565 -4.84357 316.456 11.5216 336.791 34.0333C357.052 56.4634 362.675 84.788 363.252 99.265Z" fill="#D23BD6" fill-opacity="0.1" stroke="#BC38C7" stroke-width="2.5"/>
</svg>
