<svg width="373" height="462" viewBox="0 0 373 462" fill="none" xmlns="http://www.w3.org/2000/svg">
<mask id="path-1-outside-1_1510_27905" maskUnits="userSpaceOnUse" x="0" y="0" width="373" height="462" fill="black">
<rect fill="white" width="373" height="462"/>
<path d="M338.563 149.097C342.255 129.39 363.766 -4.13069 256.667 3.29852C256.667 3.29852 228.296 3.29852 160.145 37.1942C121.801 50.6597 11.7184 -1.26665 9.07401 84.1693C5.76849 189.571 42.6127 233.978 16.9739 283.552C-11.1231 337.878 -4.24933 499.56 107.257 449.516C186.92 413.762 223.358 449.516 263.743 439.933C300.765 425.074 408.168 404.203 355.941 273.727C320.626 194.211 331.952 184.386 338.563 149.097Z"/>
</mask>
<path d="M338.563 149.097C342.255 129.39 363.766 -4.13069 256.667 3.29852C256.667 3.29852 228.296 3.29852 160.145 37.1942C121.801 50.6597 11.7184 -1.26665 9.07401 84.1693C5.76849 189.571 42.6127 233.978 16.9739 283.552C-11.1231 337.878 -4.24933 499.56 107.257 449.516C186.92 413.762 223.358 449.516 263.743 439.933C300.765 425.074 408.168 404.203 355.941 273.727C320.626 194.211 331.952 184.386 338.563 149.097Z" fill="#FFA115" fill-opacity="0.1"/>
<path d="M338.563 149.097C342.255 129.39 363.766 -4.13069 256.667 3.29852C256.667 3.29852 228.296 3.29852 160.145 37.1942C121.801 50.6597 11.7184 -1.26665 9.07401 84.1693C5.76849 189.571 42.6127 233.978 16.9739 283.552C-11.1231 337.878 -4.24933 499.56 107.257 449.516C186.92 413.762 223.358 449.516 263.743 439.933C300.765 425.074 408.168 404.203 355.941 273.727C320.626 194.211 331.952 184.386 338.563 149.097Z" stroke="#FFA115" stroke-width="5" mask="url(#path-1-outside-1_1510_27905)"/>
</svg>
