<svg width="358" height="380" viewBox="0 0 358 380" fill="none" xmlns="http://www.w3.org/2000/svg">
<mask id="path-1-outside-1_1510_27899" maskUnits="userSpaceOnUse" x="0" y="0" width="358" height="380" fill="black">
<rect fill="white" width="358" height="380"/>
<path d="M334.609 123.912C339.088 105.083 379.399 -2.89573 267.77 3.25254C267.77 3.25254 234.006 9.78502 167.167 31.3039C127.201 42.4477 5.92538 0.178372 3.16913 70.8834C-0.276184 158.112 50.3933 186.802 20.7635 231.761C-8.52179 276.72 29.0091 402.121 112.041 372.533C195.074 342.944 229.183 384.829 267.77 372.533C306.358 360.236 391.802 328.726 337.366 220.747C288.098 150.042 327.719 153.116 334.609 123.912Z"/>
</mask>
<path d="M334.609 123.912C339.088 105.083 379.399 -2.89573 267.77 3.25254C267.77 3.25254 234.006 9.78502 167.167 31.3039C127.201 42.4477 5.92538 0.178372 3.16913 70.8834C-0.276184 158.112 50.3933 186.802 20.7635 231.761C-8.52179 276.72 29.0091 402.121 112.041 372.533C195.074 342.944 229.183 384.829 267.77 372.533C306.358 360.236 391.802 328.726 337.366 220.747C288.098 150.042 327.719 153.116 334.609 123.912Z" fill="#00A3FF" fill-opacity="0.1"/>
<path d="M334.609 123.912C339.088 105.083 379.399 -2.89573 267.77 3.25254C267.77 3.25254 234.006 9.78502 167.167 31.3039C127.201 42.4477 5.92538 0.178372 3.16913 70.8834C-0.276184 158.112 50.3933 186.802 20.7635 231.761C-8.52179 276.72 29.0091 402.121 112.041 372.533C195.074 342.944 229.183 384.829 267.77 372.533C306.358 360.236 391.802 328.726 337.366 220.747C288.098 150.042 327.719 153.116 334.609 123.912Z" stroke="#00A3FF" stroke-width="5" mask="url(#path-1-outside-1_1510_27899)"/>
</svg>
