<svg width="64" height="64" viewBox="0 0 64 64" fill="none" xmlns="http://www.w3.org/2000/svg">
<circle opacity="0.2" cx="32" cy="32" r="32" fill="#DB3CDE"/>
<path d="M32.3518 20.8474L33.4745 18.7078C33.4889 18.6804 33.498 18.6502 33.5013 18.6191C33.5047 18.588 33.5022 18.5564 33.494 18.5263C33.4858 18.4962 33.472 18.4681 33.4536 18.4436C33.4351 18.4191 33.4122 18.3987 33.3863 18.3835C33.3603 18.3683 33.3318 18.3587 33.3023 18.3552C33.2728 18.3517 33.243 18.3543 33.2145 18.363C33.186 18.3716 33.1594 18.3861 33.1362 18.4057C33.113 18.4252 33.0936 18.4494 33.0793 18.4768L31.9449 20.6386C30.9765 20.1901 29.9306 19.9586 28.8732 19.9586C27.8159 19.9586 26.77 20.1901 25.8016 20.6386L24.6672 18.4768C24.6382 18.4211 24.5894 18.3798 24.5317 18.3621C24.4739 18.3444 24.4118 18.3516 24.359 18.3823C24.3063 18.4129 24.2673 18.4644 24.2505 18.5255C24.2337 18.5865 24.2406 18.6521 24.2696 18.7078L25.3923 20.8474C24.3241 21.4039 23.4215 22.2604 22.7837 23.3229C22.1458 24.3854 21.7973 25.6129 21.7762 26.8709H35.9702C35.949 25.6127 35.6001 24.385 34.9618 23.3224C34.3235 22.2599 33.4205 21.4036 32.3518 20.8474ZM25.5981 24.1272C25.4808 24.1272 25.3661 24.0904 25.2686 24.0216C25.171 23.9527 25.095 23.8548 25.0502 23.7403C25.0054 23.6258 24.9937 23.4998 25.0167 23.3782C25.0396 23.2567 25.0962 23.1451 25.1793 23.0576C25.2623 22.97 25.3681 22.9105 25.4832 22.8865C25.5982 22.8624 25.7175 22.875 25.8258 22.9226C25.9341 22.9702 26.0267 23.0507 26.0917 23.1538C26.1567 23.257 26.1913 23.3782 26.191 23.5021C26.1907 23.668 26.1281 23.827 26.017 23.9442C25.9058 24.0614 25.7552 24.1272 25.5981 24.1272ZM32.1495 24.1272C32.0322 24.1272 31.9175 24.0904 31.82 24.0216C31.7225 23.9527 31.6465 23.8548 31.6016 23.7403C31.5568 23.6258 31.5451 23.4998 31.5681 23.3782C31.5911 23.2567 31.6476 23.1451 31.7307 23.0576C31.8137 22.97 31.9195 22.9105 32.0346 22.8865C32.1497 22.8624 32.2689 22.875 32.3772 22.9226C32.4856 22.9702 32.5781 23.0507 32.6431 23.1538C32.7081 23.257 32.7427 23.3782 32.7425 23.5021C32.7421 23.668 32.6795 23.827 32.5684 23.9442C32.4572 24.0614 32.3066 24.1272 32.1495 24.1272ZM21.7739 38.3299C21.7736 38.5684 21.8179 38.8046 21.9042 39.025C21.9905 39.2454 22.1171 39.4457 22.2768 39.6143C22.4365 39.7828 22.6262 39.9165 22.8349 40.0075C23.0436 40.0985 23.2673 40.1451 23.493 40.1446H24.6309V43.8506C24.6309 44.2964 24.7986 44.7238 25.097 45.039C25.3953 45.3542 25.8 45.5313 26.222 45.5313C26.644 45.5313 27.0487 45.3542 27.3471 45.039C27.6455 44.7238 27.8131 44.2964 27.8131 43.8506V40.1446H29.9345V43.8506C29.9345 44.2962 30.1021 44.7235 30.4004 45.0386C30.6987 45.3537 31.1032 45.5307 31.525 45.5307C31.9468 45.5307 32.3514 45.3537 32.6497 45.0386C32.9479 44.7235 33.1155 44.2962 33.1155 43.8506V40.1446H34.2546C34.4801 40.1448 34.7034 40.098 34.9118 40.0069C35.1201 39.9158 35.3094 39.7822 35.4689 39.6138C35.6283 39.4454 35.7548 39.2454 35.841 39.0253C35.9272 38.8052 35.9715 38.5693 35.9714 38.3311V27.4639H21.7739V38.3299ZM19.5905 27.1748C19.1687 27.1754 18.7643 27.3528 18.4661 27.668C18.1679 27.9832 18.0003 28.4105 18 28.8561V35.8592C18 36.0798 18.0411 36.2983 18.1211 36.5021C18.201 36.706 18.3182 36.8912 18.4658 37.0472C18.6135 37.2032 18.7889 37.327 18.9818 37.4114C19.1748 37.4958 19.3816 37.5393 19.5905 37.5393C19.7994 37.5393 20.0062 37.4958 20.1991 37.4114C20.3921 37.327 20.5674 37.2032 20.7151 37.0472C20.8628 36.8912 20.98 36.706 21.0599 36.5021C21.1398 36.2983 21.181 36.0798 21.181 35.8592V28.8561C21.1804 28.4107 21.0126 27.9838 20.7145 27.6688C20.4163 27.3539 20.0121 27.1754 19.5905 27.1748ZM38.1525 27.1748C37.7306 27.1754 37.3263 27.3528 37.0281 27.668C36.7299 27.9832 36.5623 28.4105 36.562 28.8561V35.8592C36.562 36.0798 36.6031 36.2983 36.683 36.5021C36.763 36.706 36.8801 36.8912 37.0278 37.0472C37.1755 37.2032 37.3508 37.327 37.5438 37.4114C37.7368 37.4958 37.9436 37.5393 38.1525 37.5393C38.3613 37.5393 38.5682 37.4958 38.7611 37.4114C38.9541 37.327 39.1294 37.2032 39.2771 37.0472C39.4248 36.8912 39.542 36.706 39.6219 36.5021C39.7018 36.2983 39.743 36.0798 39.743 35.8592V28.8561C39.7423 28.4107 39.5746 27.9838 39.2764 27.6688C38.9783 27.3539 38.5741 27.1754 38.1525 27.1748Z" fill="#DB3CDE"/>
<path d="M43.2814 32.7152C43.3202 36.9066 46.9587 38.3016 46.9988 38.3195C46.9681 38.4176 46.4176 40.3073 45.0821 42.2588C43.9277 43.9461 42.7293 45.6271 40.8421 45.6623C38.9876 45.6962 38.3912 44.5623 36.2707 44.5623C34.1509 44.5623 33.4885 45.6271 31.7328 45.6962C29.9108 45.7653 28.5234 43.8714 27.3594 42.1905C24.9809 38.7518 23.3641 33.1095 25.8048 28.8715C27.0172 26.7668 28.8886 28.2263 31.2405 28.192C33.0294 28.1579 35.3173 27.5125 36.6762 26.8331C37.4925 26.4249 39.0513 24.4787 41.2086 24.6972C42.1118 24.7349 44.6467 25.0619 46.2745 27.4448C46.1436 27.5262 43.2499 29.2108 43.2814 32.7152ZM39.796 22.4224C40.7631 21.2517 41.4142 19.6215 41.2367 18C39.8424 18.056 38.1564 18.929 37.1565 20.0993C36.2602 21.1353 35.4754 22.7941 35.687 24.3835C37.2412 24.5039 38.8286 23.5938 39.796 22.4224Z" fill="#DB3CDE"/>
</svg>
