<svg width="56" height="56" viewBox="0 0 56 56" fill="none" xmlns="http://www.w3.org/2000/svg">
<path d="M27.5861 13.4614C12.7289 13.4614 1.09082 19.778 1.09082 27.8425C1.09082 35.9069 12.7289 42.2235 27.5861 42.2235C42.4433 42.2235 54.0813 35.9069 54.0813 27.8425C54.0813 19.778 42.4433 13.4614 27.5861 13.4614ZM24.835 17.8864H27.7274L26.8089 22.3113H29.3922C31.0304 22.3113 32.13 22.5414 32.7571 23.1144C33.3687 23.6808 33.5541 24.6101 33.309 25.8756L32.1609 31.1612H29.2199L30.2775 26.2738C30.4056 25.6035 30.3548 25.1366 30.1296 24.8911C29.9066 24.6455 29.4142 24.5238 28.6768 24.5238H26.3607L24.963 31.1612H22.0662L24.835 17.8864ZM12.1305 22.3113H18.0169C20.8232 22.3113 22.5233 24.1963 21.8587 27.0084C21.0859 30.2762 19.0193 31.1612 15.2128 31.1612H13.3934L12.8172 34.4799H9.89166L12.1305 22.3113ZM35.3138 22.3113H41.2002C44.0065 22.3113 45.7066 24.1963 45.042 27.0084C44.2692 30.2762 42.2004 31.1612 38.3961 31.1612H36.5768L36.0005 34.4799H33.075L35.3138 22.3113ZM14.6365 24.5238L13.8041 28.9487H15.6919C17.3258 28.9487 18.8448 28.7629 19.0988 26.3203C19.1937 25.3756 18.8007 24.5238 16.9129 24.5238H14.6365ZM37.8199 24.5238L36.9875 28.9487H38.8752C40.5091 28.9487 42.0282 28.7629 42.2821 26.3203C42.377 25.3756 41.9862 24.5238 40.0962 24.5238H37.8199Z" fill="white"/>
</svg>
