<svg width="64" height="64" viewBox="0 0 64 64" fill="none" xmlns="http://www.w3.org/2000/svg">
<circle opacity="0.15" cx="32" cy="32" r="32" fill="#DE3C4B"/>
<path d="M45.6119 25.6642L51 37.3357H47.0258L46.1075 35.2458H40.968L42.0668 32.9802H45.2367L43.7325 29.5444L45.6119 25.6642ZM32.7695 25.6642L35.5752 33.2076L39.5208 25.6642H43.3446L37.5765 37.3357H33.805L31.2083 30.5713L28.485 37.3357H24.723L22.7692 34.6026L24.6913 29.7692L26.8162 33.2063L29.8293 25.6642H32.7695ZM18.9217 25.6642C20.6063 25.6642 21.8857 26.0582 22.7597 26.8487C22.9242 26.9963 23.0725 27.1553 23.203 27.324L21.5025 31.6033L20.8929 33.134C20.3356 33.2631 19.7007 33.329 18.9866 33.329H16.6306V37.3357H13V25.6642H18.9217ZM18.0033 27.9285H16.6322V31.0647H17.9938C18.8758 31.0647 19.4822 30.9097 19.8115 30.6023C20.1123 30.3246 20.2612 29.9487 20.2612 29.4747C20.2612 29.0045 20.0918 28.6299 19.7498 28.3496C19.4078 28.0693 18.8267 27.9285 18.0033 27.9285Z" fill="#DE3C4B"/>
</svg>
