<svg width="56" height="56" viewBox="0 0 56 56" fill="none" xmlns="http://www.w3.org/2000/svg">
<path d="M42.5718 17.6183C44.1197 17.6183 45.6042 18.2345 46.6987 19.3313C47.7932 20.428 48.4081 21.9156 48.4081 23.4666V31.1962C48.4081 31.9642 48.2571 32.7247 47.9638 33.4343C47.6705 34.1438 47.2406 34.7885 46.6987 35.3316C46.1567 35.8746 45.5133 36.3054 44.8052 36.5993C44.0972 36.8932 43.3382 37.0445 42.5718 37.0445H28.0014C28.0014 37.842 28.6544 39.0076 29.4503 39.0076H38.2048V42.4429C38.2048 43.994 37.5899 45.4815 36.4953 46.5783C35.4008 47.6751 33.9163 48.2912 32.3684 48.2912H23.6344C22.0865 48.2912 20.602 47.6751 19.5075 46.5783C18.413 45.4815 17.7981 43.994 17.7981 42.4429V34.7747C17.7981 34.0077 17.9492 33.2482 18.2427 32.5398C18.5363 31.8314 18.9665 31.188 19.5087 30.6466C20.0509 30.1051 20.6945 29.6763 21.4025 29.3846C22.1104 29.0929 22.8689 28.9442 23.6344 28.9469H34.3479C35.1134 28.9469 35.8713 28.7955 36.5783 28.5013C37.2852 28.2071 37.9273 27.776 38.4676 27.2327C39.0079 26.6894 39.4359 26.0445 39.727 25.3351C40.018 24.6256 40.1665 23.8656 40.1638 23.0986V17.6183H42.5718ZM33.8377 41.7272C33.0215 41.7272 32.3684 42.3407 32.3684 43.5472C32.3684 44.7536 33.0215 44.999 33.8377 44.999C34.028 44.999 34.2164 44.9615 34.3922 44.8885C34.568 44.8155 34.7277 44.7086 34.8622 44.5738C34.9968 44.439 35.1035 44.2789 35.1763 44.1028C35.2491 43.9266 35.2866 43.7378 35.2866 43.5472C35.2866 42.3407 34.6336 41.7272 33.8377 41.7272ZM13.431 38.0669C11.8832 38.0669 10.3987 37.4508 9.30414 36.354C8.20962 35.2572 7.59473 33.7697 7.59473 32.2186V24.4891C7.59473 23.7211 7.74569 22.9606 8.03899 22.251C8.33229 21.5415 8.76219 20.8968 9.30414 20.3537C10.3987 19.2569 11.8832 18.6408 13.431 18.6408H28.0014C28.0014 17.8433 27.3484 16.6777 26.5525 16.6777H17.7981V13.2423C17.7981 11.6913 18.413 10.2037 19.5075 9.10697C20.602 8.0102 22.0865 7.39404 23.6344 7.39404H32.3684C33.1349 7.39404 33.8938 7.54531 34.6019 7.83922C35.31 8.13312 35.9534 8.56391 36.4953 9.10697C37.0373 9.65003 37.4672 10.2947 37.7605 11.0043C38.0538 11.7138 38.2048 12.4743 38.2048 13.2423V20.9106C38.2048 21.6776 38.0537 22.4371 37.7601 23.1455C37.4666 23.8539 37.0363 24.4973 36.4941 25.0387C35.9519 25.5802 35.3083 26.009 34.6004 26.3007C33.8924 26.5923 33.1339 26.7411 32.3684 26.7384H21.6549C20.8895 26.7384 20.1315 26.8898 19.4246 27.184C18.7176 27.4781 18.0756 27.9092 17.5352 28.4526C16.9949 28.9959 16.5669 29.6408 16.2759 30.3502C15.9848 31.0596 15.8363 31.8197 15.839 32.5867V38.0669H13.431ZM22.1651 13.958C22.9814 13.958 23.6344 13.3446 23.6344 12.1381C23.6344 10.9317 22.9814 10.6863 22.1651 10.6863C21.3692 10.6863 20.7162 10.9317 20.7162 12.1381C20.7162 13.3446 21.3692 13.958 22.1651 13.958Z" fill="white"/>
</svg>
