<svg width="14" height="13" viewBox="0 0 14 13" fill="none" xmlns="http://www.w3.org/2000/svg">
<path fill-rule="evenodd" clip-rule="evenodd" d="M6.12499 10.9375C6.12499 11.6621 5.5371 12.25 4.81249 12.25H1.3125C0.58789 12.25 0 11.6621 0 10.9375V4.37499C0 1.9578 1.9578 0 4.37499 0H4.59374C4.95741 0 5.24999 0.292583 5.24999 0.656249V1.96875C5.24999 2.33241 4.95741 2.625 4.59374 2.625H4.37499C3.40977 2.625 2.625 3.40977 2.625 4.37499V6.12499H4.81249C5.5371 6.12499 6.12499 6.71288 6.12499 7.43749V10.9375ZM14 10.9375C14 11.6621 13.4121 12.25 12.6875 12.25H9.18749C8.46288 12.25 7.87499 11.6621 7.87499 10.9375V4.37499C7.87499 1.9578 9.83279 0 12.25 0H12.4687C12.8324 0 13.125 0.292583 13.125 0.656249V1.96875C13.125 2.33241 12.8324 2.625 12.4687 2.625H12.25C11.2848 2.625 10.5 3.40977 10.5 4.37499V6.12499H12.6875C13.4121 6.12499 14 6.71288 14 7.43749V10.9375Z" fill="white"/>
</svg>
