<svg width="56" height="56" viewBox="0 0 56 56" fill="none" xmlns="http://www.w3.org/2000/svg">
<path d="M41.2639 21.6369L39.9768 21.2069C39.9768 20.9203 40.1198 20.6337 40.1198 20.3471C41.1209 15.6179 40.4058 11.7486 38.2606 10.4589C36.1154 9.3124 32.683 10.4589 29.2507 13.4683C28.9647 13.7549 28.5356 14.0416 28.2496 14.3282C27.9636 14.1849 27.8205 13.8982 27.5345 13.7549C24.1022 10.6022 20.5268 9.3124 18.3816 10.6022C16.2364 11.7486 15.6643 15.4746 16.5224 19.9172C16.6654 20.3471 16.6654 20.777 16.8084 21.2069C16.2364 21.3503 15.8073 21.4936 15.3783 21.6369C11.0879 23.0699 8.37061 25.5062 8.37061 27.7991C8.37061 30.2353 11.2309 32.8149 15.6643 34.248C15.9504 34.3913 16.3794 34.5346 16.8084 34.5346C16.6654 34.9645 16.5224 35.5377 16.5224 35.9676C15.6643 40.4102 16.3794 43.8496 18.3816 45.1393C20.5268 46.4291 24.1022 45.1393 27.6775 41.9866C27.9636 41.7 28.2496 41.4133 28.5356 41.27C28.8216 41.5566 29.2507 41.9866 29.6797 42.2732C33.1121 45.2827 36.4014 46.4291 38.5466 45.1393C40.6918 43.8496 41.4069 40.1236 40.5488 35.5377C40.5488 35.2511 40.4058 34.8212 40.2628 34.3913C40.5488 34.248 40.8348 34.248 40.9779 34.1046C45.5543 32.5283 48.5576 30.092 48.5576 27.6558C48.4146 25.5062 45.5543 23.2133 41.2639 21.6369ZM30.5378 14.9014C33.5411 12.3219 36.2584 11.3187 37.5455 12.0352C38.8326 12.7518 39.4047 15.9046 38.5466 20.0605C38.5466 20.3471 38.4036 20.6337 38.4036 20.9203C36.6874 20.4904 34.8282 20.2038 33.1121 20.0605C32.111 18.6274 30.9669 17.1943 29.6797 15.7612L30.5378 14.9014ZM20.2408 29.9487C20.6698 30.6653 20.9559 31.3818 21.3849 32.0983C21.8139 32.8149 22.243 33.5314 22.672 34.1046C21.3849 33.9613 20.2408 33.818 18.9537 33.5314C19.2397 32.385 19.6687 31.2385 20.2408 29.9487ZM20.2408 25.9361C19.6687 24.7896 19.3827 23.6432 18.9537 22.4967C20.0978 22.2101 21.3849 22.0668 22.529 21.9235C22.1 22.64 21.6709 23.2133 21.2419 23.9298C20.9559 24.503 20.5268 25.2196 20.2408 25.9361ZM21.0989 27.9424C21.6709 26.7959 22.243 25.7928 22.815 24.6463C23.3871 23.6432 24.1022 22.4967 24.8172 21.4936C25.9614 21.3503 27.2485 21.3503 28.5356 21.3503C29.8227 21.3503 30.9669 21.3503 32.254 21.4936C32.9691 22.4967 33.5411 23.4999 34.1132 24.6463C34.6852 25.6495 35.2573 26.7959 35.8293 27.9424C35.2573 29.0889 34.6852 30.092 34.1132 31.2385C33.5411 32.2416 32.826 33.3881 32.254 34.3913C31.1099 34.5346 29.8227 34.5346 28.5356 34.5346C27.2485 34.5346 26.1044 34.5346 24.9603 34.3913C24.2452 33.3881 23.6731 32.385 22.9581 31.2385C22.243 30.092 21.6709 29.0889 21.0989 27.9424ZM35.4003 32.0983C35.8293 31.3818 36.2584 30.6653 36.5444 29.9487C37.1165 31.0952 37.5455 32.2416 37.8315 33.5314C36.5444 33.818 35.4003 33.9613 34.1132 34.1046C34.6852 33.3881 35.1143 32.6716 35.4003 32.0983ZM36.5444 25.9361C36.1154 25.2196 35.8293 24.503 35.4003 23.7865C34.9713 23.0699 34.5422 22.4967 34.2562 21.7802C35.5433 21.9235 36.6874 22.2101 37.9746 22.3534C37.5455 23.6432 37.1165 24.7896 36.5444 25.9361ZM28.3926 16.9077C29.2507 17.7676 29.9658 18.7707 30.6808 19.7739C29.1077 19.6306 27.5345 19.6306 25.9614 19.7739C26.8194 18.7707 27.6775 17.7676 28.3926 16.9077ZM19.2397 12.0352C20.5268 11.3187 23.5301 12.3219 26.6764 15.188L27.2485 15.7612C25.9614 17.051 24.8172 18.4841 23.8161 20.0605C21.957 20.2038 20.2408 20.4904 18.5246 20.9203C18.3816 20.4904 18.3816 20.0605 18.2386 19.6306C17.3805 15.7612 17.9526 12.7518 19.2397 12.0352ZM17.2375 33.1015C16.9515 32.9582 16.5224 32.9582 16.2364 32.8149C14.2342 32.0983 12.661 31.2385 11.5169 30.3786C10.5158 29.5188 10.0868 28.659 10.0868 27.9424C10.0868 26.5093 12.232 24.6463 15.9504 23.3566C16.3794 23.2133 16.8084 23.0699 17.3805 22.9266C17.8095 24.6463 18.3816 26.366 19.2397 27.9424C18.3816 29.6621 17.8095 31.3818 17.2375 33.1015ZM26.5334 40.9834C24.9603 42.4165 23.3871 43.2763 22.1 43.8496C20.8128 44.2795 19.9548 44.2795 19.2397 43.9929C17.9526 43.2763 17.3805 40.4102 18.0956 36.6842C18.2386 36.111 18.3816 35.681 18.3816 35.1078C20.0978 35.5377 21.957 35.8243 23.8161 35.8243C24.8172 37.2574 25.9614 38.6905 27.2485 40.1236C26.9625 40.4102 26.8194 40.6968 26.5334 40.9834ZM28.3926 38.9771C27.5345 38.1173 26.8194 37.1141 25.9614 36.111H30.6808C30.1088 37.1141 29.2507 38.1173 28.3926 38.9771ZM38.8326 41.4133C38.5466 42.7031 38.1176 43.563 37.5455 43.8496C36.2584 44.5661 33.5411 43.563 30.6808 41.1267C30.3948 40.8401 29.9658 40.5535 29.6797 40.2669C30.8238 38.9771 31.968 37.544 32.9691 35.9676C34.8282 35.8243 36.5444 35.5377 38.4036 35.1078C38.5466 35.3944 38.5466 35.8243 38.6896 36.111C39.1187 38.1173 39.1187 39.9803 38.8326 41.4133ZM40.2628 32.8149C39.9768 32.8149 39.8337 32.9582 39.5477 32.9582C38.9757 31.2385 38.2606 29.5188 37.5455 27.7991C38.2606 26.2227 38.9757 24.503 39.5477 22.7833C39.9768 22.9266 40.4058 23.0699 40.6918 23.2133C44.4102 24.503 46.6984 26.366 46.6984 27.7991C46.6984 29.5188 44.2672 31.5251 40.2628 32.8149Z" fill="white"/>
<path d="M28.5607 31.455C29.2757 31.455 29.9908 31.3117 30.5629 30.8817C31.1349 30.4518 31.564 29.8786 31.85 29.3054C32.136 28.5888 32.136 27.8723 31.993 27.1557C31.85 26.4392 31.564 25.866 30.9919 25.2927C30.5629 24.7195 29.8478 24.4329 29.1327 24.2896C28.4176 24.1463 27.7026 24.2896 26.9875 24.4329C26.2724 24.7195 25.7004 25.1494 25.4143 25.7227C24.9853 26.2959 24.8423 27.0124 24.8423 27.729C24.8423 28.1589 24.9853 28.7321 25.1283 29.162C25.2713 29.592 25.5574 30.0219 25.8434 30.3085C26.1294 30.5951 26.5585 30.8817 26.9875 31.0251C27.5596 31.3117 28.1316 31.455 28.5607 31.455Z" fill="white"/>
</svg>
