<svg width="102" height="109" viewBox="0 0 102 109" fill="none" xmlns="http://www.w3.org/2000/svg">
<ellipse opacity="0.15" cx="55.7045" cy="53.875" rx="46.2963" ry="46.875" fill="#DE3C3C"/>
<path d="M54.2163 34.0693C50.3904 34.0695 46.6505 35.2301 43.4689 37.4044C40.2873 39.5788 37.8068 42.6693 36.3409 46.2855C34.8749 49.9018 34.4891 53.8816 35.2324 57.7221C35.9757 61.5626 37.8146 65.0915 40.5168 67.863C40.9353 68.2921 41.1701 68.8737 41.1696 69.48C41.169 70.0863 40.9331 70.6675 40.5138 71.0958C40.0945 71.5241 39.5261 71.7644 38.9336 71.7638C38.3412 71.7632 37.7732 71.5218 37.3547 71.0927C34.6514 68.3202 32.6407 64.922 31.4929 61.1857C30.3451 57.4494 30.094 53.485 30.7609 49.6284C31.4277 45.7717 32.9929 42.1362 35.3239 39.0299C37.6549 35.9235 40.683 33.4376 44.1519 31.7827C47.6208 30.1279 51.4283 29.3528 55.252 29.523C59.0757 29.6933 62.803 30.8039 66.1183 32.7609C69.4336 34.7178 72.2393 37.4635 74.2978 40.7653C76.3563 44.0672 77.607 47.828 77.944 51.7294C76.7004 49.8875 74.8403 48.5758 72.7155 48.0426C71.4957 43.9964 69.0413 40.4565 65.7121 37.9418C62.383 35.4271 58.3541 34.07 54.2163 34.0693ZM68.0229 48.1645C66.7246 44.8899 64.3547 42.1789 61.3186 40.4951C58.2825 38.8113 54.7691 38.2595 51.3793 38.934C47.9895 39.6086 44.9342 41.4676 42.736 44.1929C40.5378 46.9183 39.3334 50.3406 39.3288 53.8744C39.3288 58.0701 40.9902 61.8757 43.67 64.6302C44.0885 65.0597 44.6566 65.3014 45.2494 65.3023C45.8421 65.3032 46.4109 65.063 46.8306 64.6347C47.2503 64.2064 47.4866 63.6251 47.4874 63.0185C47.4882 62.412 47.2536 61.8299 46.8351 61.4004C45.7233 60.258 44.879 58.8725 44.3659 57.3482C43.8528 55.8238 43.6841 54.2002 43.8726 52.5995C44.061 50.9988 44.6017 49.4626 45.4539 48.1065C46.3061 46.7505 47.4477 45.6098 48.7928 44.7703C50.1379 43.9308 51.6516 43.4144 53.2198 43.2598C54.7881 43.1052 56.3702 43.3165 57.8472 43.8779C59.3242 44.4392 60.6575 45.3359 61.747 46.5006C62.8365 47.6652 63.6538 49.0675 64.1373 50.602C65.2048 49.4593 66.5435 48.6195 68.0229 48.1645ZM48.2613 53.8744C48.2613 52.2582 48.8887 50.7082 50.0055 49.5654C51.1222 48.4226 52.6369 47.7806 54.2163 47.7806C55.7956 47.7806 57.3103 48.4226 58.4271 49.5654C59.5439 50.7082 60.1713 52.2582 60.1713 53.8744C60.1713 55.4906 59.5439 57.0406 58.4271 58.1835C57.3103 59.3263 55.7956 59.9683 54.2163 59.9683C52.6369 59.9683 51.1222 59.3263 50.0055 58.1835C48.8887 57.0406 48.2613 55.4906 48.2613 53.8744ZM76.5475 56.9214C76.5475 58.5376 75.9201 60.0876 74.8033 61.2304C73.6866 62.3732 72.1719 63.0153 70.5925 63.0153C69.0132 63.0153 67.4985 62.3732 66.3817 61.2304C65.2649 60.0876 64.6375 58.5376 64.6375 56.9214C64.6375 55.3052 65.2649 53.7552 66.3817 52.6124C67.4985 51.4695 69.0132 50.8275 70.5925 50.8275C72.1719 50.8275 73.6866 51.4695 74.8033 52.6124C75.9201 53.7552 76.5475 55.3052 76.5475 56.9214ZM81.0138 70.6326C81.0138 74.4261 78.0363 78.25 70.5925 78.25C63.1488 78.25 60.1713 74.4413 60.1713 70.6326C60.1713 69.4205 60.6418 68.258 61.4794 67.4009C62.317 66.5437 63.453 66.0622 64.6375 66.0622H76.5475C77.732 66.0622 78.868 66.5437 79.7056 67.4009C80.5432 68.258 81.0138 69.4205 81.0138 70.6326Z" fill="#DE3C4B"/>
<path d="M55.0859 107C48.1145 107 41.2114 105.642 34.7706 103.004C28.3299 100.365 22.4777 96.4982 17.5482 91.6231C12.6186 86.748 8.70832 80.9605 6.04048 74.5909C3.37264 68.2213 1.99952 61.3944 1.99952 54.5C1.99952 47.6056 3.37264 40.7787 6.04048 34.4091C8.70832 28.0395 12.6186 22.252 17.5482 17.3769C22.4777 12.5018 28.3299 8.63469 34.7706 5.99632C41.2114 3.35795 48.1145 2 55.0859 2" stroke="#DE3C3C" stroke-width="3.7" stroke-linecap="round"/>
</svg>
