<svg width="177" height="213" viewBox="0 0 177 213" fill="none" xmlns="http://www.w3.org/2000/svg">
<path d="M173 75C173 86.031 170.814 96.9541 166.568 107.145C162.321 117.337 156.097 126.597 148.251 134.397C140.404 142.197 131.089 148.384 120.837 152.606C110.585 156.827 99.5967 159 88.5 159C77.4033 159 66.4153 156.827 56.1632 152.606C45.9112 148.384 36.596 142.197 28.7495 134.397C20.9029 126.597 14.6787 117.337 10.4322 107.145C6.18566 96.9541 4 86.031 4 75" stroke="#DE3C4B" stroke-width="8" stroke-linecap="round"/>
<path d="M89 156.667C86.0545 156.667 83.6667 159.054 83.6667 162C83.6667 164.946 86.0545 167.333 89 167.333C91.9455 167.333 94.3333 164.946 94.3333 162C94.3333 159.054 91.9455 156.667 89 156.667ZM88 212C88 212.552 88.4477 213 89 213C89.5523 213 90 212.552 90 212L88 212ZM88 162L88 212L90 212L90 162L88 162Z" fill="#DE3C4B"/>
<circle opacity="0.25" cx="89" cy="75" r="75" fill="#DE3C3C"/>
<path d="M88.4997 53.875C83.6813 53.8753 78.971 55.3036 74.964 57.9797C70.9569 60.6557 67.8329 64.4593 65.9866 68.91C64.1403 73.3607 63.6545 78.2587 64.5906 82.9854C65.5267 87.712 67.8427 92.0552 71.246 95.4662C71.7731 95.9943 72.0688 96.7102 72.0681 97.4564C72.0674 98.2025 71.7704 98.9179 71.2422 99.445C70.7141 99.9721 69.9983 100.268 69.2521 100.267C68.5059 100.266 67.7906 99.9693 67.2635 99.4412C63.8588 96.029 61.3264 91.8466 59.8808 87.2482C58.4353 82.6498 58.119 77.7707 58.9589 73.0241C59.7988 68.2776 61.7701 63.8033 64.7058 59.9801C67.6416 56.157 71.4554 53.0975 75.8242 51.0608C80.1931 49.0241 84.9885 48.0702 89.8042 48.2797C94.6199 48.4893 99.3143 49.8562 103.49 52.2647C107.665 54.6732 111.199 58.0523 113.791 62.1161C116.384 66.1798 117.959 70.8084 118.383 75.61C116.817 73.343 114.475 71.7287 111.798 71.0725C110.262 66.0926 107.171 61.7359 102.978 58.641C98.7853 55.5461 93.7112 53.8758 88.4997 53.875ZM105.888 71.2225C104.253 67.1924 101.269 63.8557 97.4447 61.7835C93.621 59.7112 89.196 59.032 84.9267 59.8622C80.6575 60.6924 76.8094 62.9803 74.0409 66.3345C71.2724 69.6887 69.7555 73.9008 69.7497 78.25C69.7497 83.4137 71.8422 88.0975 75.2172 91.4875C75.7444 92.0161 76.4599 92.3136 77.2064 92.3147C77.9529 92.3158 78.6693 92.0202 79.1979 91.4931C79.7265 90.966 80.024 90.2505 80.0251 89.5039C80.0261 88.7574 79.7306 88.0411 79.2035 87.5125C77.8032 86.1065 76.74 84.4013 76.0938 82.5252C75.4475 80.6491 75.235 78.6509 75.4724 76.6808C75.7097 74.7107 76.3907 72.8201 77.464 71.1512C78.5373 69.4822 79.9751 68.0784 81.6692 67.0452C83.3633 66.012 85.2696 65.3763 87.2448 65.1861C89.2199 64.9958 91.2125 65.2559 93.0727 65.9468C94.9329 66.6376 96.6122 67.7412 97.9843 69.1746C99.3565 70.6081 100.386 72.3339 100.995 74.2225C102.339 72.8161 104.025 71.7825 105.888 71.2225ZM80.9997 78.25C80.9997 76.2608 81.7899 74.3532 83.1964 72.9467C84.603 71.5401 86.5106 70.75 88.4997 70.75C90.4889 70.75 92.3965 71.5401 93.803 72.9467C95.2096 74.3532 95.9997 76.2608 95.9997 78.25C95.9997 80.2391 95.2096 82.1467 93.803 83.5533C92.3965 84.9598 90.4889 85.75 88.4997 85.75C86.5106 85.75 84.603 84.9598 83.1964 83.5533C81.7899 82.1467 80.9997 80.2391 80.9997 78.25ZM116.625 82C116.625 83.9891 115.835 85.8967 114.428 87.3033C113.022 88.7098 111.114 89.5 109.125 89.5C107.136 89.5 105.228 88.7098 103.821 87.3033C102.415 85.8967 101.625 83.9891 101.625 82C101.625 80.0108 102.415 78.1032 103.821 76.6967C105.228 75.2901 107.136 74.5 109.125 74.5C111.114 74.5 113.022 75.2901 114.428 76.6967C115.835 78.1032 116.625 80.0108 116.625 82ZM122.25 98.875C122.25 103.544 118.5 108.25 109.125 108.25C99.7497 108.25 95.9997 103.562 95.9997 98.875C95.9997 97.3831 96.5924 95.9524 97.6473 94.8975C98.7022 93.8426 100.133 93.25 101.625 93.25H116.625C118.117 93.25 119.547 93.8426 120.602 94.8975C121.657 95.9524 122.25 97.3831 122.25 98.875Z" fill="#DE3C4B"/>
</svg>
