<svg width="102" height="109" viewBox="0 0 102 109" fill="none" xmlns="http://www.w3.org/2000/svg">
<ellipse opacity="0.15" cx="46.2963" cy="53.875" rx="46.2963" ry="46.875" fill="#00A3FF"/>
<g clip-path="url(#clip0_2168_7416)">
<path d="M31.115 50.2812H30.247C29.8786 50.2812 29.5253 50.4294 29.2649 50.6931C29.0044 50.9569 28.8581 51.3145 28.8581 51.6875V53.0938C28.8581 53.4667 29.0044 53.8244 29.2649 54.0881C29.5253 54.3518 29.8786 54.5 30.247 54.5H31.6306C31.6186 58.2927 31.154 62.0701 30.247 65.75H41.3581C40.4511 62.0701 39.9865 58.2927 39.9744 54.5H41.3581C41.7264 54.5 42.0797 54.3518 42.3402 54.0881C42.6006 53.8244 42.747 53.4667 42.747 53.0938V51.6875C42.747 51.3145 42.6006 50.9569 42.3402 50.6931C42.0797 50.4294 41.7264 50.2812 41.3581 50.2812H40.49L43.4319 42.3377C43.5107 42.1248 43.5375 41.8957 43.5097 41.6701C43.482 41.4444 43.4006 41.229 43.2726 41.0421C43.1446 40.8553 42.9737 40.7027 42.7747 40.5974C42.5756 40.4921 42.3544 40.4372 42.1298 40.4375H37.1914V37.625H39.2747C39.4589 37.625 39.6356 37.5509 39.7658 37.4191C39.896 37.2872 39.9692 37.1084 39.9692 36.9219V35.5156C39.9692 35.3291 39.896 35.1503 39.7658 35.0184C39.6356 34.8866 39.4589 34.8125 39.2747 34.8125H37.1914V32.7031C37.1914 32.5166 37.1182 32.3378 36.988 32.2059C36.8578 32.0741 36.6811 32 36.497 32H35.1081C34.9239 32 34.7473 32.0741 34.617 32.2059C34.4868 32.3378 34.4136 32.5166 34.4136 32.7031V34.8125H32.3303C32.1461 34.8125 31.9695 34.8866 31.8392 35.0184C31.709 35.1503 31.6359 35.3291 31.6359 35.5156V36.9219C31.6359 37.1084 31.709 37.2872 31.8392 37.4191C31.9695 37.5509 32.1461 37.625 32.3303 37.625H34.4136V40.4375H29.4735C29.2489 40.4372 29.0277 40.4921 28.8286 40.5974C28.6296 40.7027 28.4587 40.8553 28.3307 41.0421C28.2027 41.229 28.1213 41.4444 28.0936 41.6701C28.0658 41.8957 28.0926 42.1248 28.1714 42.3377L31.115 50.2812ZM46.1463 72.3928L44.1358 71.375V69.9688C44.1358 69.5958 43.9895 69.2381 43.7291 68.9744C43.4686 68.7107 43.1153 68.5625 42.747 68.5625H28.8581C28.4897 68.5625 28.1364 68.7107 27.876 68.9744C27.6155 69.2381 27.4692 69.5958 27.4692 69.9688V71.375L25.4596 72.3928C25.2289 72.5095 25.0347 72.689 24.8991 72.9111C24.7634 73.1333 24.6915 73.3893 24.6914 73.6505V75.5938C24.6914 75.9667 24.8377 76.3244 25.0982 76.5881C25.3587 76.8518 25.7119 77 26.0803 77H45.5247C45.8931 77 46.2464 76.8518 46.5068 76.5881C46.7673 76.3244 46.9136 75.9667 46.9136 75.5938V73.6505C46.9137 73.3894 46.8419 73.1334 46.7063 72.9113C46.5708 72.6892 46.3769 72.5096 46.1463 72.3928ZM54.1992 58.5254L53.9136 65.75H64.9136L64.628 58.5245L66.7635 56.6973C67.072 56.4329 67.3198 56.1036 67.4897 55.7323C67.6596 55.361 67.7474 54.9567 67.747 54.5475V49.4023C67.747 49.2625 67.6921 49.1284 67.5944 49.0295C67.4967 48.9306 67.3643 48.875 67.2261 48.875H64.9362C64.7981 48.875 64.6656 48.9306 64.5679 49.0295C64.4702 49.1284 64.4154 49.2625 64.4154 49.4023V51.6875H62.2704V49.4023C62.2704 49.2625 62.2155 49.1284 62.1179 49.0295C62.0202 48.9306 61.8877 48.875 61.7496 48.875H57.0786C56.9404 48.875 56.8079 48.9306 56.7103 49.0295C56.6126 49.1284 56.5577 49.2625 56.5577 49.4023V51.6875H54.4128V49.4023C54.4128 49.2625 54.3579 49.1284 54.2602 49.0295C54.1625 48.9306 54.0301 48.875 53.8919 48.875H51.6011C51.463 48.875 51.3305 48.9306 51.2328 49.0295C51.1352 49.1284 51.0803 49.2625 51.0803 49.4023V54.5527C51.081 54.9613 51.1695 55.3647 51.3398 55.7351C51.5101 56.1054 51.7581 56.4338 52.0664 56.6973L54.1992 58.5254ZM58.0247 58.7188C58.0247 58.3458 58.1711 57.9881 58.4315 57.7244C58.692 57.4607 59.0453 57.3125 59.4136 57.3125C59.782 57.3125 60.1353 57.4607 60.3957 57.7244C60.6562 57.9881 60.8025 58.3458 60.8025 58.7188V61.5312H58.0247V58.7188ZM68.3685 72.3928L66.3581 71.375V69.9688C66.3581 69.5958 66.2117 69.2381 65.9513 68.9744C65.6908 68.7107 65.3375 68.5625 64.9692 68.5625H53.8581C53.4897 68.5625 53.1364 68.7107 52.876 68.9744C52.6155 69.2381 52.4692 69.5958 52.4692 69.9688V71.375L50.4596 72.3928C50.2289 72.5095 50.0347 72.689 49.8991 72.9111C49.7634 73.1333 49.6915 73.3893 49.6914 73.6505V75.5938C49.6914 75.9667 49.8377 76.3244 50.0982 76.5881C50.3587 76.8518 50.7119 77 51.0803 77H67.747C68.1153 77 68.4686 76.8518 68.7291 76.5881C68.9895 76.3244 69.1358 75.9667 69.1358 75.5938V73.6505C69.1359 73.3894 69.0641 73.1334 68.9286 72.9113C68.793 72.6892 68.5991 72.5096 68.3685 72.3928Z" fill="#00A3FF"/>
</g>
<path d="M46.9141 2C53.8855 2 60.7886 3.35795 67.2294 5.99632C73.6701 8.6347 79.5223 12.5018 84.4518 17.3769C89.3814 22.252 93.2917 28.0395 95.9595 34.4091C98.6274 40.7787 100 47.6056 100 54.5C100 61.3944 98.6274 68.2213 95.9595 74.5909C93.2917 80.9605 89.3814 86.748 84.4518 91.6231C79.5223 96.4982 73.6701 100.365 67.2294 103.004C60.7886 105.642 53.8855 107 46.9141 107" stroke="#00A3FF" stroke-width="3.7" stroke-linecap="round"/>
<defs>
<clipPath id="clip0_2168_7416">
<rect width="44.4444" height="45" fill="white" transform="translate(24.6914 32)"/>
</clipPath>
</defs>
</svg>
