<svg width="178" height="213" viewBox="0 0 178 213" fill="none" xmlns="http://www.w3.org/2000/svg">
<path d="M4.75 138C4.75 126.969 6.93565 116.046 11.1822 105.855C15.4287 95.6632 21.6529 86.4031 29.4995 78.603C37.346 70.8029 46.6612 64.6155 56.9133 60.3941C67.1653 56.1727 78.1533 54 89.25 54C100.347 54 111.335 56.1727 121.587 60.3941C131.839 64.6155 141.154 70.8029 149.001 78.603C156.847 86.4032 163.071 95.6632 167.318 105.855C171.564 116.046 173.75 126.969 173.75 138" stroke="#00A3FF" stroke-width="8" stroke-linecap="round"/>
<path d="M89.75 56.3333C92.6955 56.3333 95.0833 53.9455 95.0833 51C95.0833 48.0545 92.6955 45.6667 89.75 45.6667C86.8045 45.6667 84.4167 48.0545 84.4167 51C84.4167 53.9455 86.8045 56.3333 89.75 56.3333ZM90.75 1C90.75 0.447716 90.3023 0 89.75 0C89.1977 0 88.75 0.447716 88.75 1H90.75ZM90.75 51V1H88.75V51H90.75Z" fill="#00A3FF"/>
<circle opacity="0.15" cx="89.75" cy="138" r="75" fill="#00A3FF"/>
<g clip-path="url(#clip0_2122_4249)">
<path d="M66.1445 131.406H64.875C64.3363 131.406 63.8196 131.62 63.4387 132.001C63.0578 132.382 62.8438 132.899 62.8438 133.438V135.469C62.8438 136.007 63.0578 136.524 63.4387 136.905C63.8196 137.286 64.3363 137.5 64.875 137.5H66.8986C66.881 142.978 66.2015 148.435 64.875 153.75H81.125C79.7985 148.435 79.119 142.978 79.1014 137.5H81.125C81.6637 137.5 82.1804 137.286 82.5613 136.905C82.9422 136.524 83.1562 136.007 83.1562 135.469V133.438C83.1562 132.899 82.9422 132.382 82.5613 132.001C82.1804 131.62 81.6637 131.406 81.125 131.406H79.8555L84.1579 119.932C84.2733 119.625 84.3124 119.294 84.2718 118.968C84.2312 118.642 84.1122 118.331 83.925 118.061C83.7378 117.791 83.4879 117.571 83.1968 117.418C82.9057 117.266 82.5821 117.187 82.2536 117.188H75.0312V113.125H78.0781C78.3475 113.125 78.6058 113.018 78.7963 112.828C78.9867 112.637 79.0938 112.379 79.0938 112.109V110.078C79.0938 109.809 78.9867 109.55 78.7963 109.36C78.6058 109.17 78.3475 109.062 78.0781 109.062H75.0312V106.016C75.0312 105.746 74.9242 105.488 74.7338 105.297C74.5433 105.107 74.285 105 74.0156 105H71.9844C71.715 105 71.4567 105.107 71.2662 105.297C71.0758 105.488 70.9688 105.746 70.9688 106.016V109.062H67.9219C67.6525 109.062 67.3942 109.17 67.2037 109.36C67.0133 109.55 66.9062 109.809 66.9062 110.078V112.109C66.9062 112.379 67.0133 112.637 67.2037 112.828C67.3942 113.018 67.6525 113.125 67.9219 113.125H70.9688V117.188H63.7438C63.4154 117.187 63.0918 117.266 62.8007 117.418C62.5096 117.571 62.2597 117.791 62.0725 118.061C61.8852 118.331 61.7662 118.642 61.7257 118.968C61.6851 119.294 61.7242 119.625 61.8396 119.932L66.1445 131.406ZM88.1277 163.345L85.1875 161.875V159.844C85.1875 159.305 84.9735 158.788 84.5926 158.407C84.2116 158.027 83.695 157.812 83.1562 157.812H62.8438C62.305 157.812 61.7884 158.027 61.4074 158.407C61.0265 158.788 60.8125 159.305 60.8125 159.844V161.875L57.8735 163.345C57.536 163.514 57.2521 163.773 57.0537 164.094C56.8552 164.415 56.7501 164.785 56.75 165.162V167.969C56.75 168.507 56.964 169.024 57.3449 169.405C57.7259 169.786 58.2425 170 58.7812 170H87.2188C87.7575 170 88.2741 169.786 88.6551 169.405C89.036 169.024 89.25 168.507 89.25 167.969V165.162C89.25 164.785 89.1451 164.415 88.9469 164.094C88.7486 163.773 88.465 163.514 88.1277 163.345ZM99.9052 143.314L99.4875 153.75H115.575L115.157 143.313L118.28 140.674C118.732 140.292 119.094 139.816 119.342 139.28C119.591 138.744 119.719 138.16 119.719 137.569V130.137C119.719 129.935 119.638 129.741 119.496 129.598C119.353 129.455 119.159 129.375 118.957 129.375H115.608C115.406 129.375 115.212 129.455 115.069 129.598C114.927 129.741 114.846 129.935 114.846 130.137V133.438H111.709V130.137C111.709 129.935 111.629 129.741 111.486 129.598C111.343 129.455 111.15 129.375 110.948 129.375H104.116C103.914 129.375 103.72 129.455 103.578 129.598C103.435 129.741 103.354 129.935 103.354 130.137V133.438H100.217V130.137C100.217 129.935 100.137 129.741 99.9944 129.598C99.8515 129.455 99.6578 129.375 99.4558 129.375H96.1055C95.9035 129.375 95.7097 129.455 95.5669 129.598C95.424 129.741 95.3438 129.935 95.3438 130.137V137.576C95.3447 138.166 95.4743 138.749 95.7233 139.284C95.9724 139.819 96.335 140.293 96.7859 140.674L99.9052 143.314ZM105.5 143.594C105.5 143.055 105.714 142.538 106.095 142.157C106.476 141.777 106.993 141.562 107.531 141.562C108.07 141.562 108.587 141.777 108.968 142.157C109.348 142.538 109.562 143.055 109.562 143.594V147.656H105.5V143.594ZM120.628 163.345L117.688 161.875V159.844C117.688 159.305 117.473 158.788 117.093 158.407C116.712 158.027 116.195 157.812 115.656 157.812H99.4062C98.8675 157.812 98.3509 158.027 97.9699 158.407C97.589 158.788 97.375 159.305 97.375 159.844V161.875L94.436 163.345C94.0985 163.514 93.8146 163.773 93.6162 164.094C93.4177 164.415 93.3126 164.785 93.3125 165.162V167.969C93.3125 168.507 93.5265 169.024 93.9074 169.405C94.2884 169.786 94.805 170 95.3438 170H119.719C120.257 170 120.774 169.786 121.155 169.405C121.536 169.024 121.75 168.507 121.75 167.969V165.162C121.75 164.785 121.645 164.415 121.447 164.094C121.249 163.773 120.965 163.514 120.628 163.345Z" fill="#00A3FF"/>
</g>
<defs>
<clipPath id="clip0_2122_4249">
<rect width="65" height="65" fill="white" transform="translate(56.75 105)"/>
</clipPath>
</defs>
</svg>
