<svg width="102" height="109" viewBox="0 0 102 109" fill="none" xmlns="http://www.w3.org/2000/svg">
<ellipse opacity="0.25" cx="55.7045" cy="53.875" rx="46.2963" ry="46.875" fill="#3CDE60"/>
<path d="M55.0859 107C48.1145 107 41.2114 105.642 34.7706 103.004C28.3299 100.365 22.4777 96.4982 17.5482 91.6231C12.6186 86.748 8.70832 80.9605 6.04047 74.5909C3.37263 68.2213 1.99951 61.3944 1.99951 54.5C1.99951 47.6056 3.37263 40.7787 6.04048 34.4091C8.70832 28.0395 12.6186 22.252 17.5482 17.3769C22.4777 12.5018 28.3299 8.63469 34.7706 5.99632C41.2114 3.35795 48.1145 2 55.0859 2" stroke="#3CDE60" stroke-width="3.7" stroke-linecap="round"/>
<path d="M62.0826 61.5834C62.0826 59.454 56.1177 57.7292 48.7595 57.7292M62.0826 61.5834C62.0826 63.7128 56.1177 65.4376 48.7595 65.4376C41.4014 65.4376 35.4365 63.7128 35.4365 61.5834M62.0826 61.5834V71.0974C62.0826 73.2924 56.1177 75.073 48.7595 75.073C41.4014 75.073 35.4365 73.2943 35.4365 71.0974V61.5834M62.0826 61.5834C69.3608 61.5834 75.4056 59.6814 75.4056 57.7292V38.4584M48.7595 57.7292C41.4014 57.7292 35.4365 59.454 35.4365 61.5834M48.7595 57.7292C40.3508 57.7292 33.5332 55.8272 33.5332 53.8751V44.2397M48.7595 40.3855C40.3508 40.3855 33.5332 42.1102 33.5332 44.2397M33.5332 44.2397C33.5332 46.3691 40.3508 48.0938 48.7595 48.0938C48.7595 50.046 54.9509 51.948 62.2291 51.948C69.5054 51.948 75.4056 50.046 75.4056 48.0938M75.4056 38.4584C75.4056 36.329 69.5054 34.6042 62.2291 34.6042C54.9509 34.6042 49.0526 36.329 49.0526 38.4584M75.4056 38.4584C75.4056 40.5878 69.5054 42.3126 62.2291 42.3126C54.9529 42.3126 49.0526 40.5878 49.0526 38.4584M49.0526 38.4584V58.0491" stroke="#3CDE60" stroke-width="3"/>
</svg>
