<svg width="178" height="213" viewBox="0 0 178 213" fill="none" xmlns="http://www.w3.org/2000/svg">
<path d="M4.25 138C4.25 126.969 6.43566 116.046 10.6822 105.855C14.9287 95.6632 21.1529 86.4031 28.9995 78.603C36.846 70.8029 46.1612 64.6155 56.4133 60.3941C66.6653 56.1727 77.6533 54 88.75 54C99.8467 54 110.835 56.1727 121.087 60.3941C131.339 64.6155 140.654 70.8029 148.501 78.603C156.347 86.4032 162.571 95.6632 166.818 105.855C171.064 116.046 173.25 126.969 173.25 138" stroke="#FFA115" stroke-width="8" stroke-linecap="round"/>
<path d="M89.25 56.3333C92.1955 56.3333 94.5833 53.9455 94.5833 51C94.5833 48.0545 92.1955 45.6667 89.25 45.6667C86.3045 45.6667 83.9167 48.0545 83.9167 51C83.9167 53.9455 86.3045 56.3333 89.25 56.3333ZM90.25 1C90.25 0.447716 89.8023 0 89.25 0C88.6977 0 88.25 0.447716 88.25 1H90.25ZM90.25 51V1H88.25V51H90.25Z" fill="#FFA115"/>
<circle opacity="0.25" cx="89.25" cy="138" r="75" fill="#FFA115"/>
<path d="M81.1389 122.198C75.6139 128.4 71.8223 137.31 71.4702 138.15L61.666 133.952L72.6348 122.983C73.9077 121.71 75.7493 121.142 77.5368 121.494L81.1389 122.198ZM86.5014 151.042C86.5014 151.042 96.6306 146.844 102.454 141.021C117.079 126.396 114.641 114.967 113.856 112.394C111.283 111.581 99.8535 109.171 85.2285 123.796C79.4056 129.619 75.2077 139.748 75.2077 139.748L86.5014 151.042ZM104.051 145.11C97.8493 150.635 88.9389 154.427 88.0993 154.779L92.2973 164.583L103.266 153.615C104.539 152.342 105.108 150.5 104.756 148.713L104.051 145.11ZM80.6243 153.75C80.6243 155.998 79.7035 158.029 78.241 159.492C75.0452 162.688 61.666 164.583 61.666 164.583C61.666 164.583 63.5618 151.204 66.7577 148.008C67.8919 146.868 69.3394 146.091 70.9163 145.775C72.4932 145.459 74.1285 145.619 75.6144 146.234C77.1003 146.849 78.3699 147.892 79.2619 149.23C80.1539 150.569 80.6281 152.142 80.6243 153.75ZM91.4577 129.375C91.4577 126.396 93.8952 123.958 96.8743 123.958C99.8535 123.958 102.291 126.396 102.291 129.375C102.291 132.354 99.8535 134.792 96.8743 134.792C93.8952 134.792 91.4577 132.354 91.4577 129.375Z" fill="#FFA115"/>
</svg>
