<svg width="102" height="109" viewBox="0 0 102 109" fill="none" xmlns="http://www.w3.org/2000/svg">
<ellipse opacity="0.25" cx="46.2963" cy="53.875" rx="46.2963" ry="46.875" fill="#FFA115"/>
<path d="M41.0898 41.0728C36.7857 45.9648 33.8319 52.993 33.5576 53.6552L25.9199 50.3441L34.4648 41.6923C35.4565 40.6883 36.8912 40.2397 38.2837 40.5174L41.0898 41.0728ZM45.2673 63.8237C45.2673 63.8237 53.1582 60.5125 57.6944 55.9196C69.0876 44.384 67.1887 35.3691 66.5769 33.3397C64.5725 32.6988 55.6689 30.7976 44.2757 42.3332C39.7395 46.9261 36.4692 54.9156 36.4692 54.9156L45.2673 63.8237ZM58.9392 59.1453C54.1076 63.5032 47.1662 66.494 46.5121 66.7717L49.7824 74.5048L58.3273 65.8531C59.319 64.8491 59.762 63.3964 59.4877 61.9865L58.9392 59.1453ZM40.6889 65.9599C40.6889 67.733 39.9716 69.3352 38.8322 70.4887C36.3426 73.0095 25.9199 74.5048 25.9199 74.5048C25.9199 74.5048 27.3968 63.9518 29.8865 61.4311C30.7701 60.5318 31.8977 59.9186 33.1261 59.6694C34.3546 59.4202 35.6285 59.5463 36.786 60.0316C37.9436 60.5169 38.9326 61.3395 39.6275 62.395C40.3224 63.4506 40.6919 64.6914 40.6889 65.9599ZM49.1283 46.7338C49.1283 44.384 51.0272 42.4614 53.3481 42.4614C55.6689 42.4614 57.5678 44.384 57.5678 46.7338C57.5678 49.0837 55.6689 51.0063 53.3481 51.0063C51.0272 51.0063 49.1283 49.0837 49.1283 46.7338Z" fill="#FFA115"/>
<path d="M46.9141 2C53.8855 2 60.7886 3.35795 67.2294 5.99632C73.6701 8.6347 79.5223 12.5018 84.4518 17.3769C89.3814 22.252 93.2917 28.0395 95.9595 34.4091C98.6274 40.7787 100 47.6056 100 54.5C100 61.3944 98.6274 68.2213 95.9595 74.5909C93.2917 80.9605 89.3814 86.748 84.4518 91.6231C79.5223 96.4982 73.6701 100.365 67.2294 103.004C60.7886 105.642 53.8855 107 46.9141 107" stroke="#FFA115" stroke-width="3.7" stroke-linecap="round"/>
</svg>
