<svg width="178" height="213" viewBox="0 0 178 213" fill="none" xmlns="http://www.w3.org/2000/svg">
<path d="M173.5 75C173.5 86.031 171.314 96.9541 167.068 107.145C162.821 117.337 156.597 126.597 148.751 134.397C140.904 142.197 131.589 148.384 121.337 152.606C111.085 156.827 100.097 159 89 159C77.9033 159 66.9153 156.827 56.6632 152.606C46.4112 148.384 37.096 142.197 29.2495 134.397C21.4029 126.597 15.1787 117.337 10.9322 107.145C6.68566 96.9541 4.5 86.031 4.5 75" stroke="#3CDE60" stroke-width="8" stroke-linecap="round"/>
<path d="M90.5 156.667C87.5545 156.667 85.1667 159.054 85.1667 162C85.1667 164.946 87.5545 167.333 90.5 167.333C93.4455 167.333 95.8333 164.946 95.8333 162C95.8333 159.054 93.4455 156.667 90.5 156.667ZM89.5 212C89.5 212.552 89.9477 213 90.5 213C91.0523 213 91.5 212.552 91.5 212L89.5 212ZM89.5 162L89.5 212L91.5 212L91.5 162L89.5 162Z" fill="#3CDE60"/>
<circle opacity="0.25" cx="89.5" cy="75" r="75" fill="#3CDE60"/>
<path d="M99.834 85.3333C99.834 82.3406 91.3461 79.9166 80.8757 79.9166M99.834 85.3333C99.834 88.326 91.3461 90.75 80.8757 90.75C70.4052 90.75 61.9173 88.326 61.9173 85.3333M99.834 85.3333V98.7043C99.834 101.789 91.3461 104.292 80.8757 104.292C70.4052 104.292 61.9173 101.792 61.9173 98.7043V85.3333M99.834 85.3333C110.191 85.3333 118.792 82.6602 118.792 79.9166V52.8333M80.8757 79.9166C70.4052 79.9166 61.9173 82.3406 61.9173 85.3333M80.8757 79.9166C68.9102 79.9166 59.209 77.2435 59.209 74.5V60.9583M80.8757 55.5416C68.9102 55.5416 59.209 57.9656 59.209 60.9583M59.209 60.9583C59.209 63.951 68.9102 66.375 80.8757 66.375C80.8757 69.1185 89.6859 71.7916 100.043 71.7916C110.396 71.7916 118.792 69.1185 118.792 66.375M118.792 52.8333C118.792 49.8406 110.396 47.4166 100.043 47.4166C89.6859 47.4166 81.2927 49.8406 81.2927 52.8333M118.792 52.8333C118.792 55.826 110.396 58.25 100.043 58.25C89.6886 58.25 81.2927 55.826 81.2927 52.8333M81.2927 52.8333V80.3662" stroke="#3CDE60" stroke-width="4"/>
</svg>
