<svg width="102" height="109" viewBox="0 0 102 109" fill="none" xmlns="http://www.w3.org/2000/svg">
<ellipse opacity="0.25" cx="55.7045" cy="53.875" rx="46.2963" ry="46.875" fill="#DB3CDE"/>
<path d="M55.0859 107C48.1145 107 41.2114 105.642 34.7706 103.004C28.3299 100.365 22.4777 96.4982 17.5482 91.6231C12.6186 86.748 8.70832 80.9605 6.04047 74.5909C3.37263 68.2213 1.99951 61.3944 1.99951 54.5C1.99951 47.6056 3.37263 40.7787 6.04048 34.4091C8.70832 28.0395 12.6186 22.252 17.5482 17.3769C22.4777 12.5018 28.3299 8.63469 34.7706 5.99632C41.2114 3.35795 48.1145 2 55.0859 2" stroke="#DB3CDE" stroke-width="3.7" stroke-linecap="round"/>
<path d="M65.6577 57.0781L74.9941 47.625M53.775 50.2031L60.5651 57.0781M37.6484 61.375L48.6824 50.2031" stroke="#DB3CDE" stroke-width="2" stroke-linecap="round" stroke-linejoin="round"/>
<path d="M77.5404 47.625C78.9467 47.625 80.0867 46.4707 80.0867 45.0469C80.0867 43.623 78.9467 42.4688 77.5404 42.4688C76.1342 42.4688 74.9941 43.623 74.9941 45.0469C74.9941 46.4707 76.1342 47.625 77.5404 47.625Z" stroke="#DB3CDE" stroke-width="4" stroke-linecap="round" stroke-linejoin="round"/>
<path d="M63.1107 62.2344C64.517 62.2344 65.657 61.0801 65.657 59.6562C65.657 58.2324 64.517 57.0781 63.1107 57.0781C61.7045 57.0781 60.5645 58.2324 60.5645 59.6562C60.5645 61.0801 61.7045 62.2344 63.1107 62.2344Z" stroke="#DB3CDE" stroke-width="4" stroke-linecap="round" stroke-linejoin="round"/>
<path d="M51.2279 50.2031C52.6342 50.2031 53.7742 49.0489 53.7742 47.625C53.7742 46.2011 52.6342 45.0469 51.2279 45.0469C49.8217 45.0469 48.6816 46.2011 48.6816 47.625C48.6816 49.0489 49.8217 50.2031 51.2279 50.2031Z" stroke="#DB3CDE" stroke-width="4" stroke-linecap="round" stroke-linejoin="round"/>
<path d="M35.101 66.5312C36.5073 66.5312 37.6473 65.377 37.6473 63.9531C37.6473 62.5293 36.5073 61.375 35.101 61.375C33.6947 61.375 32.5547 62.5293 32.5547 63.9531C32.5547 65.377 33.6947 66.5312 35.101 66.5312Z" stroke="#DB3CDE" stroke-width="4" stroke-linecap="round" stroke-linejoin="round"/>
</svg>
