<svg width="64" height="64" viewBox="0 0 64 64" fill="none" xmlns="http://www.w3.org/2000/svg">
<circle opacity="0.2" cx="32" cy="32" r="32" fill="#DB3CDE"/>
<path d="M25.3333 26.6667H21.3333C20.9797 26.6667 20.6406 26.8072 20.3905 27.0572C20.1405 27.3073 20 27.6464 20 28V30.6667C20 31.0203 20.1405 31.3594 20.3905 31.6095C20.6406 31.8595 20.9797 32 21.3333 32H24C24.3536 32 24.6928 32.1405 24.9428 32.3905C25.1929 32.6406 25.3333 32.9797 25.3333 33.3334V36C25.3333 36.3536 25.1929 36.6928 24.9428 36.9428C24.6928 37.1929 24.3536 37.3334 24 37.3334H20M34.6667 37.3334H29.3333V26.6667H34.6667M30.6667 32H33.3333M38.6667 28C38.6667 27.6464 38.8071 27.3073 39.0572 27.0572C39.3072 26.8072 39.6464 26.6667 40 26.6667H42.6667C43.0203 26.6667 43.3594 26.8072 43.6095 27.0572C43.8595 27.3073 44 27.6464 44 28V36C44 36.3536 43.8595 36.6928 43.6095 36.9428C43.3594 37.1929 43.0203 37.3334 42.6667 37.3334H40C39.6464 37.3334 39.3072 37.1929 39.0572 36.9428C38.8071 36.6928 38.6667 36.3536 38.6667 36V28Z" stroke="#DB3CDE" stroke-width="2.5" stroke-linecap="round" stroke-linejoin="round"/>
</svg>
