<svg width="31" height="31" viewBox="0 0 31 31" fill="none" xmlns="http://www.w3.org/2000/svg">
<path d="M29.7791 18.3324C29.994 17.3485 30.1087 16.3281 30.1087 15.2798C30.1087 7.42537 23.7416 1.05756 15.8864 1.05756C15.0577 1.05756 14.246 1.12959 13.4549 1.26628C12.184 0.465078 10.6811 0 9.06746 0C4.5131 0 0.81958 3.69197 0.81958 8.24826C0.81958 9.77013 1.23354 11.1948 1.95381 12.4181C1.76523 13.344 1.6657 14.3005 1.6657 15.2802C1.6657 23.1343 8.03197 29.5017 15.8864 29.5017C16.7767 29.5017 17.6464 29.4184 18.4922 29.2635C19.6531 29.8862 20.9794 30.2413 22.3898 30.2413C26.9449 30.2413 30.6376 26.5505 30.6376 21.9942C30.6372 20.6772 30.3275 19.4345 29.7791 18.3324V18.3324ZM23.1817 22.0771C22.523 23.0068 21.5506 23.7449 20.2921 24.2681C19.044 24.7878 17.55 25.0507 15.8469 25.0507C13.8054 25.0507 12.0926 24.6898 10.7558 23.9811C9.80051 23.4638 9.01247 22.766 8.41457 21.9032C7.81008 21.0323 7.503 20.1672 7.503 19.3335C7.503 18.8134 7.70359 18.3615 8.09703 17.9917C8.48659 17.625 8.98536 17.4383 9.58133 17.4383C10.0696 17.4383 10.4917 17.5855 10.8337 17.8743C11.1609 18.1524 11.442 18.5621 11.6666 19.0934C11.9191 19.6696 12.1944 20.1575 12.4845 20.5417C12.7625 20.9092 13.1649 21.2209 13.6776 21.4629C14.1922 21.7073 14.8877 21.8316 15.7427 21.8316C16.9184 21.8316 17.883 21.5802 18.6068 21.0842C19.3158 20.6005 19.6601 20.0204 19.6601 19.3095C19.6601 18.7483 19.4796 18.3065 19.1098 17.9611C18.7233 17.5994 18.2133 17.3175 17.5934 17.1246C16.9471 16.9229 16.0684 16.7056 14.9834 16.4779C13.508 16.162 12.2545 15.7871 11.2562 15.3627C10.2365 14.929 9.41404 14.3272 8.81343 13.5748C8.20313 12.8096 7.89334 11.8508 7.89334 10.7239C7.89334 9.64969 8.21785 8.68198 8.85912 7.84592C9.49536 7.01606 10.4244 6.37169 11.619 5.92946C12.8001 5.49226 14.2042 5.27231 15.7919 5.27231C17.0621 5.27231 18.1789 5.41907 19.1106 5.70795C20.0481 6.00148 20.8381 6.39376 21.4596 6.88014C22.0838 7.36884 22.5501 7.89123 22.8409 8.43375C23.1371 8.98209 23.287 9.52849 23.287 10.0567C23.287 10.5647 23.0907 11.0256 22.703 11.4287C22.3135 11.8334 21.8228 12.0382 21.2427 12.0382C20.7161 12.0382 20.3037 11.9104 20.0179 11.6575C19.7515 11.4221 19.475 11.055 19.1694 10.5272C18.8143 9.85416 18.3861 9.32286 17.8935 8.94801C17.4152 8.58478 16.616 8.40045 15.5193 8.40045C14.4985 8.40045 13.6694 8.60453 13.0549 9.00842C12.4612 9.39721 12.1735 9.84254 12.1735 10.3719C12.1735 10.696 12.2661 10.9663 12.4566 11.1991C12.6599 11.4469 12.9438 11.6618 13.305 11.8434C13.6787 12.0308 14.0633 12.1807 14.449 12.2868C14.8455 12.3972 15.5073 12.5598 16.4177 12.7693C17.5674 13.0175 18.6258 13.2936 19.5606 13.593C20.5074 13.8962 21.3264 14.2703 21.9936 14.7048C22.6752 15.1474 23.2146 15.7178 23.5983 16.3978C23.9813 17.0813 24.1753 17.9227 24.1753 18.9021C24.1753 20.0739 23.8411 21.1419 23.1817 22.0771V22.0771Z" fill="#042042"/>
</svg>
