<svg width="31" height="31" viewBox="0 0 31 31" fill="none" xmlns="http://www.w3.org/2000/svg">
<path d="M29.7791 18.5737C29.994 17.5897 30.1087 16.5693 30.1087 15.521C30.1087 7.66658 23.7416 1.29877 15.8864 1.29877C15.0577 1.29877 14.246 1.3708 13.4549 1.50749C12.184 0.706289 10.6811 0.241211 9.06746 0.241211C4.5131 0.241211 0.81958 3.93318 0.81958 8.48947C0.81958 10.0113 1.23354 11.436 1.95381 12.6593C1.76523 13.5852 1.6657 14.5417 1.6657 15.5214C1.6657 23.3755 8.03197 29.7429 15.8864 29.7429C16.7767 29.7429 17.6464 29.6596 18.4922 29.5047C19.6531 30.1274 20.9794 30.4825 22.3898 30.4825C26.9449 30.4825 30.6376 26.7917 30.6376 22.2354C30.6372 20.9184 30.3275 19.6757 29.7791 18.5737V18.5737ZM23.1817 22.3183C22.523 23.2481 21.5506 23.9861 20.2921 24.5093C19.044 25.029 17.55 25.2919 15.8469 25.2919C13.8054 25.2919 12.0926 24.931 10.7558 24.2224C9.80051 23.705 9.01247 23.0072 8.41457 22.1444C7.81008 21.2735 7.503 20.4084 7.503 19.5747C7.503 19.0546 7.70359 18.6027 8.09703 18.2329C8.48659 17.8662 8.98536 17.6795 9.58133 17.6795C10.0696 17.6795 10.4917 17.8267 10.8337 18.1155C11.1609 18.3936 11.442 18.8033 11.6666 19.3346C11.9191 19.9108 12.1944 20.3987 12.4845 20.7829C12.7625 21.1504 13.1649 21.4621 13.6776 21.7041C14.1922 21.9485 14.8877 22.0728 15.7427 22.0728C16.9184 22.0728 17.883 21.8215 18.6068 21.3254C19.3158 20.8417 19.6601 20.2616 19.6601 19.5507C19.6601 18.9896 19.4796 18.5477 19.1098 18.2023C18.7233 17.8406 18.2133 17.5587 17.5934 17.3658C16.9471 17.1641 16.0684 16.9469 14.9834 16.7192C13.508 16.4032 12.2545 16.0283 11.2562 15.6039C10.2365 15.1702 9.41404 14.5684 8.81343 13.816C8.20313 13.0508 7.89334 12.092 7.89334 10.9651C7.89334 9.89091 8.21785 8.92319 8.85912 8.08713C9.49536 7.25727 10.4244 6.6129 11.619 6.17067C12.8001 5.73347 14.2042 5.51352 15.7919 5.51352C17.0621 5.51352 18.1789 5.66028 19.1106 5.94916C20.0481 6.24269 20.8381 6.63497 21.4596 7.12135C22.0838 7.61005 22.5501 8.13244 22.8409 8.67496C23.1371 9.2233 23.287 9.7697 23.287 10.2979C23.287 10.806 23.0907 11.2668 22.703 11.6699C22.3135 12.0746 21.8228 12.2794 21.2427 12.2794C20.7161 12.2794 20.3037 12.1516 20.0179 11.8988C19.7515 11.6633 19.475 11.2962 19.1694 10.7684C18.8143 10.0954 18.3861 9.56407 17.8935 9.18922C17.4152 8.82599 16.616 8.64166 15.5193 8.64166C14.4985 8.64166 13.6694 8.84574 13.0549 9.24963C12.4612 9.63842 12.1735 10.0838 12.1735 10.6131C12.1735 10.9372 12.2661 11.2075 12.4566 11.4403C12.6599 11.6881 12.9438 11.903 13.305 12.0846C13.6787 12.2721 14.0633 12.4219 14.449 12.528C14.8455 12.6384 15.5073 12.801 16.4177 13.0105C17.5674 13.2588 18.6258 13.5349 19.5606 13.8342C20.5074 14.1374 21.3264 14.5115 21.9936 14.946C22.6752 15.3886 23.2146 15.959 23.5983 16.639C23.9813 17.3225 24.1753 18.164 24.1753 19.1433C24.1753 20.3151 23.8411 21.3831 23.1817 22.3183V22.3183Z" fill="#DE3C4B"/>
</svg>
