<svg width="67" height="11" viewBox="0 0 67 11" fill="none" xmlns="http://www.w3.org/2000/svg">
<path d="M2.1886 10.9058L3.12993 6.87249L0 4.16084L4.12289 3.80405L5.73758 0L7.35226 3.80329L11.4744 4.16008L8.34522 6.87173L9.28655 10.905L5.73758 8.76426L2.1886 10.9058Z" fill="#FFA115"/>
<path d="M16.0695 10.9058L17.0108 6.87249L13.8809 4.16084L18.0037 3.80405L19.6184 0L21.2331 3.80329L25.3553 4.16008L22.2261 6.87173L23.1674 10.905L19.6184 8.76426L16.0695 10.9058Z" fill="#FFA115"/>
<path d="M29.9523 10.9058L30.8936 6.87249L27.7637 4.16084L31.8866 3.80405L33.5012 0L35.1159 3.80329L39.2381 4.16008L36.1089 6.87173L37.0502 10.905L33.5012 8.76426L29.9523 10.9058Z" fill="#FFA115"/>
<path d="M43.8331 10.9058L44.7745 6.87249L41.6445 4.16084L45.7674 3.80405L47.3821 0L48.9968 3.80329L53.1189 4.16008L49.9897 6.87173L50.9311 10.905L47.3821 8.76426L43.8331 10.9058Z" fill="#FFA115"/>
<path d="M57.714 10.9058L58.6553 6.87249L55.5254 4.16084L59.6483 3.80405L61.263 0L62.8777 3.80329L66.9998 4.16008L63.8706 6.87173L64.8119 10.905L61.263 8.76426L57.714 10.9058Z" fill="#FFA115"/>
</svg>
