<svg width="56" height="56" viewBox="0 0 56 56" fill="none" xmlns="http://www.w3.org/2000/svg">
<path fill-rule="evenodd" clip-rule="evenodd" d="M47.81 7.89928H20.8843V21.2527H34.1331C34.3598 21.2527 34.5772 21.3419 34.7375 21.5004C34.8978 21.659 34.9879 21.874 34.988 22.0982V35.022H48.6649V8.74593C48.6651 8.63477 48.6431 8.52466 48.6003 8.4219C48.5574 8.31915 48.4944 8.22576 48.415 8.14709C48.3356 8.06842 48.2413 8.00601 48.1375 7.96343C48.0337 7.92084 47.9224 7.89928 47.81 7.89928Z" fill="white"/>
<path opacity="0.405" fill-rule="evenodd" clip-rule="evenodd" d="M20.8824 7.8999V21.2533H8.25135C8.16642 21.2533 8.0834 21.2283 8.01287 21.1815C7.94233 21.1347 7.88747 21.0682 7.85525 20.9904C7.82302 20.9127 7.81491 20.8272 7.83192 20.7449C7.84894 20.6626 7.89032 20.5872 7.95081 20.5282L20.8824 7.8999ZM35.7159 47.6645C35.6557 47.723 35.5795 47.7626 35.4967 47.7784C35.4139 47.7942 35.3283 47.7854 35.2505 47.7533C35.1727 47.7211 35.1063 47.6669 35.0595 47.5976C35.0127 47.5282 34.9877 47.4467 34.9875 47.3633V35.0222H48.6645L35.7159 47.6631V47.6645Z" fill="white"/>
<path opacity="0.405" fill-rule="evenodd" clip-rule="evenodd" d="M20.8813 21.2528H34.5601C34.7943 21.2528 34.9865 21.4414 34.9865 21.6749V35.0218H21.738C21.6257 35.0218 21.5145 35 21.4108 34.9575C21.307 34.915 21.2127 34.8528 21.1333 34.7742C21.0539 34.6957 20.9909 34.6025 20.9479 34.4999C20.9049 34.3973 20.8828 34.2873 20.8828 34.1762V21.2524L20.8813 21.2528Z" fill="white"/>
</svg>
