<svg width="56" height="56" viewBox="0 0 56 56" fill="none" xmlns="http://www.w3.org/2000/svg">
<path fill-rule="evenodd" clip-rule="evenodd" d="M26.2423 11.2578C30.9767 8.18165 37.5243 9.61582 40.8395 14.4549C41.6262 15.5779 42.1853 16.8499 42.4834 18.1961C42.7815 19.5424 42.813 20.9358 42.5759 22.2946C42.3464 23.5923 41.8613 24.829 41.1499 25.93C42.1881 27.9491 42.5365 30.2635 42.1401 32.5072C41.9058 33.8393 41.4016 35.1069 40.6595 36.2289C39.9174 37.3509 38.954 38.3027 37.8307 39.0232L29.5164 44.4271C24.7829 47.5032 18.2353 46.0696 14.9192 41.23C14.1326 40.1069 13.5738 38.835 13.2757 37.4887C12.9775 36.1425 12.9459 34.7491 13.1828 33.3903C13.4125 32.0926 13.8978 30.8559 14.6094 29.7549C13.5707 27.736 13.222 25.4214 13.6186 23.1777C13.853 21.8456 14.3574 20.5781 15.0995 19.4562C15.8416 18.3342 16.8051 17.3825 17.9283 16.662L26.2423 11.2578ZM21.4733 41.4824C22.7408 41.9616 24.122 42.0326 25.4304 41.6857C26.0282 41.5228 26.598 41.2675 27.1199 40.9286L35.4336 35.5253C36.109 35.0919 36.6884 34.5196 37.1346 33.8449C37.5809 33.1702 37.8842 32.4079 38.0252 31.6069C38.1677 30.7897 38.1487 29.9517 37.9694 29.1421C37.79 28.3325 37.4539 27.5676 36.9807 26.8923C36.2102 25.7595 35.1173 24.8951 33.8497 24.4159C32.5821 23.9367 31.2008 23.8658 29.8925 24.2128C29.2951 24.3755 28.7257 24.6307 28.2041 24.9694L25.0318 27.0313C24.8739 27.1336 24.7017 27.2108 24.5211 27.2601C24.1269 27.3643 23.7108 27.3427 23.329 27.1982C22.9472 27.0537 22.6181 26.7932 22.3861 26.4519C22.2437 26.2482 22.1425 26.0176 22.0886 25.7735C22.0347 25.5295 22.029 25.2769 22.072 25.0306C22.1145 24.7893 22.2059 24.5597 22.3403 24.3564C22.4747 24.1532 22.6493 23.9808 22.8527 23.8502L31.1673 18.4464C31.3251 18.344 31.4973 18.2668 31.678 18.2176C32.072 18.1133 32.4879 18.1349 32.8696 18.2794C33.2512 18.4238 33.5802 18.6842 33.8121 19.0255C34.0661 19.3921 34.185 19.8386 34.1476 20.2859L34.119 20.6007L34.4279 20.6963C35.5969 21.0559 36.6969 21.6167 37.6806 22.3543L38.1064 22.6728L38.263 22.1858C38.3467 21.927 38.413 21.6621 38.4616 21.394C38.6041 20.5768 38.5851 19.7388 38.4057 18.9292C38.2264 18.1196 37.8903 17.3547 37.4171 16.6794C36.6466 15.5466 35.5537 14.6822 34.2861 14.203C33.0185 13.7238 31.6372 13.6529 30.3288 13.9999C29.7311 14.1627 29.1613 14.4179 28.6393 14.7567L20.3254 20.1609C19.6499 20.5941 19.0706 21.1663 18.6243 21.841C18.1781 22.5156 17.8749 23.2778 17.734 24.0787C17.5915 24.8959 17.6105 25.7339 17.7899 26.5435C17.9692 27.3531 18.3054 28.118 18.7785 28.7933C19.549 29.9261 20.6419 30.7905 21.9095 31.2697C23.1771 31.7489 24.5584 31.8198 25.8668 31.4728C26.464 31.31 27.0334 31.0551 27.5551 30.7168L30.7281 28.654C30.8856 28.5518 31.0575 28.4747 31.2379 28.4255C31.6321 28.3212 32.0482 28.3428 32.4301 28.4873C32.8119 28.6318 33.1411 28.8923 33.3732 29.2337C33.5155 29.4374 33.6166 29.668 33.6706 29.912C33.7247 30.1559 33.7305 30.4085 33.6878 30.6548C33.6451 30.8961 33.5537 31.1257 33.4192 31.3289C33.2847 31.5322 33.1102 31.7047 32.9068 31.8354L24.5922 37.2387C24.4345 37.3412 24.2623 37.4184 24.0816 37.4677C23.6875 37.572 23.2716 37.5504 22.89 37.406C22.5083 37.2615 22.1793 37.0011 21.9474 36.6599C21.693 36.2932 21.5742 35.8466 21.6119 35.3991L21.6405 35.0846L21.3313 34.989C20.1626 34.6294 19.0627 34.0688 18.0789 33.3316L17.6531 33.0128L17.4965 33.4995C17.4122 33.7586 17.3459 34.0232 17.2979 34.2913C17.1554 35.1085 17.1744 35.9465 17.3538 36.7561C17.5332 37.5657 17.8693 38.3306 18.3424 39.006C19.1129 40.1388 20.2057 41.0032 21.4733 41.4824Z" fill="white"/>
</svg>
