<svg width="58" height="57" viewBox="0 0 58 57" fill="none" xmlns="http://www.w3.org/2000/svg">
<g opacity="1" clip-path="url(#clip0_745_5170)">
<path fill-rule="evenodd" clip-rule="evenodd" d="M43.4946 49.9178C36.7805 53.7961 27.5489 54.1951 18.2603 50.2146C10.741 47.0155 4.4995 41.4153 0.5 35.0146C2.419 36.6154 4.661 37.8955 7.05975 39.0141C16.6524 43.51 26.2426 43.2036 32.99 39.026L32.9805 39.0141C23.3807 31.654 15.2203 22.0543 9.14025 14.2144C7.85775 12.9343 6.90063 11.3359 5.93875 9.89425C13.3012 16.6155 24.9815 25.0942 29.1401 27.4954C20.3407 18.2163 12.5009 6.6975 12.8191 7.01575C26.739 21.0947 39.7018 29.0961 39.7018 29.0961C40.1292 29.336 40.4618 29.5379 40.7277 29.7184C41.008 29.0059 41.2526 28.2649 41.4592 27.4954C43.7012 19.3349 41.141 10.0558 35.5408 2.375C48.4988 10.2149 56.1795 24.9351 52.9804 37.2542C52.8973 37.5868 52.8046 37.9169 52.7073 38.2375L52.8213 38.3753C59.2195 46.3766 57.4596 54.8578 56.6593 53.257C53.1894 46.4645 46.7626 48.5403 43.4946 49.9178Z" fill="white"/>
</g>
<defs>
<clipPath id="clip0_745_5170">
<rect width="57" height="57" fill="white" transform="translate(0.5)"/>
</clipPath>
</defs>
</svg>
