<svg width="64" height="64" viewBox="0 0 64 64" fill="none" xmlns="http://www.w3.org/2000/svg">
<circle cx="32" cy="32" r="32" fill="#DB3CDE" fill-opacity="0.1"/>
<path d="M20.0474 40.8644C19.7535 40.8689 19.4616 40.8156 19.1887 40.7077C18.9159 40.5999 18.6675 40.4395 18.458 40.236C18.2486 40.0325 18.0823 39.79 17.9688 39.5224C17.8552 39.2549 17.7968 38.9678 17.7968 38.6778C17.7969 38.3877 17.8554 38.1006 17.969 37.8331C18.0825 37.5656 18.2489 37.3231 18.4584 37.1197C18.6679 36.9162 18.9163 36.7559 19.1892 36.6481C19.4621 36.5403 19.754 36.4871 20.048 36.4917C20.6297 36.5007 21.1845 36.735 21.5927 37.1441C22.0008 37.5532 22.2295 38.1043 22.2294 38.6783C22.2294 39.2523 22.0005 39.8033 21.5923 40.2123C21.184 40.6213 20.6292 40.8555 20.0474 40.8644ZM15.5846 48.7938V44.5098C15.5846 42.9649 16.871 41.7096 18.4385 41.7096H21.4986C23.066 41.7096 24.466 42.9649 24.466 44.5098V48.7938H15.5841H15.5846ZM43.022 40.679C43.6096 40.6784 44.173 40.4478 44.5885 40.0377C45.0039 39.6276 45.2374 39.0716 45.2377 38.4918C45.2442 38.2007 45.1917 37.9112 45.0833 37.6404C44.9749 37.3695 44.8127 37.1228 44.6063 36.9146C44.3999 36.7064 44.1534 36.541 43.8814 36.4281C43.6093 36.3152 43.3171 36.257 43.022 36.257C42.7268 36.257 42.4346 36.3152 42.1625 36.4281C41.8905 36.541 41.644 36.7064 41.4376 36.9146C41.2312 37.1228 41.069 37.3695 40.9606 37.6404C40.8522 37.9112 40.7997 38.2007 40.8062 38.4918C40.8063 39.0717 41.0398 39.6277 41.4553 40.0378C41.8707 40.448 42.4342 40.6786 43.022 40.679ZM47.4826 48.7938V44.5098C47.4826 42.9649 46.1962 41.7096 44.6276 41.7096H41.5708C40.0006 41.7096 38.6028 42.9649 38.6028 44.5098V48.7938H47.4826ZM31.5306 40.8527C30.2922 40.8527 29.289 39.8704 29.289 38.6597C29.289 37.449 30.2922 36.4662 31.5306 36.4662C32.768 36.4662 33.7712 37.4484 33.7712 38.6597C33.7712 39.8709 32.7686 40.8527 31.5306 40.8527ZM26.1326 48.7938L27.8966 44.0524C28.603 41.6304 30.6605 41.7054 30.6605 41.7054H32.4067C32.4067 41.7054 34.4631 41.631 35.1706 44.0524L36.9346 48.7938H26.1326ZM31.5306 33.6978V28.5102L30.6578 27.649V32.834H17.4531V16.3398H30.6578V24.8132L31.5306 25.6738V15.4775H16.5835V33.6973L31.5306 33.6978Z" fill="#DB3CDE"/>
<path d="M23.9271 19.8848C24.2309 19.872 24.5179 19.7439 24.7282 19.5273C24.9385 19.3108 25.056 19.0224 25.056 18.7224C25.056 18.4225 24.9385 18.1341 24.7282 17.9175C24.5179 17.7009 24.2309 17.5729 23.9271 17.5601C23.6147 17.5601 23.315 17.6825 23.094 17.9005C22.8731 18.1185 22.749 18.4142 22.749 18.7224C22.749 19.0307 22.8731 19.3264 23.094 19.5444C23.315 19.7623 23.6147 19.8848 23.9271 19.8848ZM27.8175 24.7155C27.8175 24.7155 26.851 21.4764 26.8493 21.4738C26.4643 20.2131 25.3863 20.2508 25.3863 20.2508H22.47C22.47 20.2508 21.3904 20.2131 21.006 21.4738L20.0394 24.7155C20.0194 24.7783 20.0123 24.8444 20.0185 24.91C20.0247 24.9756 20.0441 25.0393 20.0756 25.0974C20.107 25.1555 20.1499 25.2068 20.2016 25.2484C20.2534 25.2899 20.3131 25.3209 20.3771 25.3395C20.4411 25.3581 20.5083 25.3638 20.5746 25.3565C20.641 25.3492 20.7052 25.3289 20.7635 25.2968C20.8218 25.2647 20.873 25.2215 20.9142 25.1697C20.9553 25.1178 20.9856 25.0584 21.0033 24.9949L21.9262 21.8951L21.9283 21.8961L22.3397 21.8951V25.4226L20.7152 30.9231C20.6851 31.0245 20.6793 31.1314 20.6984 31.2353C20.7174 31.3393 20.7607 31.4374 20.8249 31.5219C20.8891 31.6065 20.9723 31.6751 21.0681 31.7224C21.1638 31.7697 21.2694 31.7943 21.3764 31.7944C21.6753 31.7944 21.951 31.6015 22.0393 31.3051L23.6439 25.8736H24.212L25.8166 31.3051C25.8419 31.3909 25.8841 31.4709 25.9408 31.5405C25.9975 31.6102 26.0676 31.6681 26.147 31.711C26.2264 31.7539 26.3137 31.7809 26.4037 31.7905C26.4937 31.8 26.5848 31.792 26.6717 31.7667C26.7586 31.7417 26.8396 31.7 26.9102 31.6441C26.9808 31.5882 27.0395 31.519 27.0831 31.4407C27.1266 31.3623 27.154 31.2763 27.1638 31.1875C27.1736 31.0987 27.1655 31.0089 27.1401 30.9231L25.5156 25.4252V21.8956L25.927 21.8967L25.9291 21.8956L26.8531 24.9954C26.8907 25.1215 26.9775 25.2278 27.0944 25.2907C27.1523 25.3219 27.2159 25.3415 27.2815 25.3485C27.347 25.3554 27.4134 25.3495 27.4767 25.3312C27.5399 25.3128 27.5989 25.2824 27.6503 25.2415C27.7017 25.2007 27.7443 25.1503 27.7759 25.0931C27.8075 25.036 27.8274 24.9733 27.8345 24.9086C27.8415 24.8439 27.8356 24.7784 27.817 24.716L27.8175 24.7155ZM43.0118 24.2272C42.4335 24.2147 41.8831 23.9791 41.4786 23.5711C41.0741 23.1631 40.8475 22.6151 40.8475 22.0443C40.8475 21.4736 41.0741 20.9255 41.4786 20.5175C41.8831 20.1095 42.4335 19.874 43.0118 19.8614C43.3024 19.8612 43.5903 19.9176 43.8588 20.0273C44.1273 20.137 44.3712 20.2979 44.5766 20.5008C44.782 20.7037 44.9448 20.9445 45.0556 21.2096C45.1665 21.4746 45.2233 21.7587 45.2227 22.0454C45.2232 22.332 45.1663 22.6159 45.0553 22.8807C44.9444 23.1456 44.7815 23.3863 44.5761 23.5889C44.3708 23.7916 44.1269 23.9523 43.8584 24.0619C43.59 24.1714 43.3023 24.2276 43.0118 24.2272ZM43.0118 27.4737C43.0118 27.4737 43.5487 27.5422 43.8771 27.0933C44.1743 26.6832 44.1964 25.3243 44.1986 25.0783H41.8229C41.8148 26.0563 41.93 26.7693 42.167 27.1284C42.406 27.495 43.0118 27.4742 43.0118 27.4742V27.4737Z" fill="#DB3CDE"/>
<path d="M33.3712 29.3985C33.2899 29.5303 33.1634 29.798 33.1634 29.9669C33.1634 30.4769 33.5807 30.8865 34.096 30.8865H37.1636C37.512 30.8865 37.9697 30.7479 38.1651 30.4589C38.8247 29.4925 39.522 28.4741 39.7277 28.1697V33.8924H47.4536V28.0236C47.4536 26.4889 46.2383 25.1071 44.8006 25.1071C44.8044 25.8274 44.7064 27.0238 44.2788 27.5476C43.8324 28.0826 43.3069 28.0359 43.3069 28.0359V30.2687C43.4725 30.3354 43.6094 30.4568 43.6941 30.6122C43.7788 30.7676 43.8061 30.9473 43.7712 31.1203C43.7363 31.2934 43.6414 31.4491 43.5028 31.5606C43.3643 31.6722 43.1907 31.7327 43.0118 31.7318C42.9105 31.7318 42.8102 31.7122 42.7166 31.6739C42.623 31.6357 42.538 31.5796 42.4664 31.5089C42.3948 31.4382 42.3381 31.3542 42.2995 31.2618C42.2608 31.1694 42.2411 31.0704 42.2413 30.9705C42.2413 30.6544 42.4362 30.3834 42.7151 30.2687V28.0258C42.7151 28.0258 42.2564 28.0629 41.8229 27.6342C41.244 27.0392 41.2225 25.353 41.2236 25.0773H41.083C40.6159 25.077 40.1558 25.1906 39.7439 25.408C39.3319 25.6255 38.9809 25.94 38.7219 26.3236L36.8852 29.058L34.0987 29.0569L30.1636 25.174C30.1285 25.1391 30.0868 25.1115 30.0408 25.0926C29.9948 25.0737 29.9455 25.064 29.8957 25.064C29.8459 25.064 29.7966 25.0737 29.7506 25.0926C29.7046 25.1115 29.6629 25.1391 29.6278 25.174C29.5924 25.2087 29.5643 25.2499 29.5451 25.2953C29.5259 25.3407 29.516 25.3894 29.5159 25.4386C29.5158 25.4878 29.5255 25.5366 29.5445 25.582C29.5636 25.6275 29.5915 25.6689 29.6267 25.7037L33.3717 29.399L33.3712 29.3985Z" fill="#DB3CDE"/>
</svg>
