<svg width="30" height="31" viewBox="0 0 30 31" fill="none" xmlns="http://www.w3.org/2000/svg">
<path d="M14.9106 0.818115C11.9617 0.817946 9.07897 1.69225 6.62699 3.33045C4.17501 4.96866 2.2639 7.29719 1.13533 10.0216C0.00676175 12.746 -0.288567 15.7438 0.28669 18.636C0.861947 21.5283 2.28195 24.185 4.36713 26.2701C6.4523 28.3553 9.10899 29.7753 12.0012 30.3506C14.8935 30.9258 17.8913 30.6305 20.6157 29.5019C23.3401 28.3734 25.6686 26.4623 27.3068 24.0103C28.945 21.5583 29.8193 18.6756 29.8192 15.7267C29.8195 13.7688 29.4341 11.83 28.685 10.021C27.9359 8.21209 26.8377 6.56845 25.4533 5.18399C24.0688 3.79953 22.4252 2.70139 20.6162 1.95228C18.8073 1.20317 16.8685 0.817778 14.9106 0.818115V0.818115ZM22.231 11.0319L19.7858 22.5624C19.6054 23.3798 19.1189 23.5782 18.4391 23.1934L14.7113 20.4463L12.9158 22.1777C12.8274 22.2926 12.7135 22.3856 12.5831 22.4492C12.4527 22.5128 12.3094 22.5454 12.1643 22.5445L12.4285 18.7508L19.336 12.5094C19.637 12.2452 19.2702 12.0947 18.8735 12.3589L10.3372 17.7334L6.66068 16.5851C5.86126 16.3286 5.84331 15.7857 6.83168 15.401L21.2059 9.85801C21.8728 9.61775 22.4559 10.0205 22.2396 11.0302L22.231 11.0319Z" fill="#DE3C4B"/>
</svg>
