<svg width="30" height="30" viewBox="0 0 30 30" fill="none" xmlns="http://www.w3.org/2000/svg">
<path d="M14.9106 2.20747e-07C11.9617 -0.000168881 9.07897 0.874133 6.62699 2.51234C4.17501 4.15055 2.2639 6.47908 1.13533 9.20346C0.00676175 11.9278 -0.288567 14.9257 0.28669 17.8179C0.861947 20.7102 2.28195 23.3669 4.36713 25.452C6.4523 27.5372 9.10899 28.9572 12.0012 29.5325C14.8935 30.1077 17.8913 29.8124 20.6157 28.6838C23.3401 27.5553 25.6686 25.6441 27.3068 23.1922C28.945 20.7402 29.8193 17.8575 29.8192 14.9086C29.8195 12.9507 29.4341 11.0119 28.685 9.20293C27.9359 7.39398 26.8377 5.75033 25.4533 4.36588C24.0688 2.98142 22.4252 1.88327 20.6162 1.13416C18.8073 0.385056 16.8685 -0.000336722 14.9106 2.20747e-07V2.20747e-07ZM22.231 10.2138L19.7858 21.7443C19.6054 22.5617 19.1189 22.76 18.4391 22.3753L14.7113 19.6282L12.9158 21.3596C12.8274 21.4745 12.7135 21.5674 12.5831 21.6311C12.4527 21.6947 12.3094 21.7273 12.1643 21.7264L12.4285 17.9327L19.336 11.6912C19.637 11.427 19.2702 11.2766 18.8735 11.5408L10.3372 16.9153L6.66068 15.767C5.86126 15.5105 5.84331 14.9676 6.83168 14.5828L21.2059 9.03989C21.8728 8.79964 22.4559 9.20234 22.2396 10.2121L22.231 10.2138Z" fill="#042042"/>
</svg>
