<svg width="64" height="64" viewBox="0 0 64 64" fill="none" xmlns="http://www.w3.org/2000/svg">
<circle cx="32" cy="32" r="32" fill="#DE3C4B" fill-opacity="0.1"/>
<g clip-path="url(#clip0_2064_3349)">
<path d="M46.0514 16.6276C45.9614 16.4037 45.7886 16.223 45.5689 16.1232C45.3491 16.0234 45.0994 16.0122 44.8716 16.0919C44.6438 16.1715 44.4555 16.336 44.3458 16.5509C44.2361 16.7659 44.2136 17.0149 44.2828 17.2461C45.7227 21.3846 42.8645 24.4753 40.6853 26.1307L39.8049 24.869C39.5088 24.4458 38.847 24.094 38.3324 24.0878L33.391 24.1095C32.7873 24.1277 32.1998 24.3087 31.6906 24.6334L17.1299 34.8432C16.7912 35.0816 16.5608 35.4444 16.489 35.8523C16.4173 36.2601 16.51 36.6798 16.7471 37.0194L23.364 46.4868C23.86 47.1921 24.6521 47.1068 25.3589 46.6139L39.9196 36.4025C40.3381 36.1065 40.8217 35.4679 40.9922 34.9796L42.5391 30.1049C42.7096 29.6182 42.6057 28.8757 42.3097 28.4526L41.7734 27.6838C44.6998 25.4409 47.7378 21.4776 46.0514 16.6276ZM39.2763 31.1325C39.0081 31.3203 38.7054 31.4534 38.3858 31.5242C38.0661 31.5949 37.7356 31.602 37.4131 31.545C37.0907 31.488 36.7827 31.368 36.5066 31.192C36.2306 31.0159 35.9919 30.7871 35.8043 30.5187C35.4244 29.9757 35.2756 29.3041 35.3904 28.6515C35.5051 27.9988 35.8742 27.4183 36.4166 27.0374C36.8417 26.7396 37.3494 26.582 37.8685 26.5867C38.3876 26.5914 38.8923 26.7582 39.312 27.0638C38.8904 27.318 38.6005 27.4668 38.5463 27.49C38.3541 27.5817 38.1988 27.7358 38.1057 27.9273C38.0127 28.1187 37.9874 28.3361 38.034 28.5438C38.0807 28.7514 38.1965 28.9371 38.3625 29.0704C38.5285 29.2036 38.7348 29.2766 38.9477 29.2772C39.081 29.2772 39.2174 29.2462 39.3461 29.1857C39.6468 29.0431 39.9692 28.8742 40.3055 28.6742C40.3829 29.1393 40.3273 29.6168 40.1452 30.0517C39.9632 30.4866 39.662 30.8613 39.2763 31.1325Z" fill="#DE3C4B"/>
</g>
<defs>
<clipPath id="clip0_2064_3349">
<rect width="31" height="31" fill="white" transform="translate(16 16)"/>
</clipPath>
</defs>
</svg>
