<svg width="64" height="64" viewBox="0 0 64 64" fill="none" xmlns="http://www.w3.org/2000/svg">
<circle cx="32" cy="32" r="32" fill="#00A3FF" fill-opacity="0.1"/>
<g clip-path="url(#clip0_2476_19641)">
<path d="M39.0833 19.7317C41.22 20.9654 42.9975 22.7358 44.2397 24.8675C45.482 26.9993 46.1459 29.4185 46.1658 31.8857C46.1858 34.353 45.561 36.7826 44.3533 38.9342C43.1457 41.0857 41.3971 42.8846 39.2806 44.1526C37.1641 45.4207 34.7531 46.114 32.2863 46.1639C29.8195 46.2139 27.3824 45.6187 25.2163 44.4373C23.0503 43.2559 21.2303 41.5293 19.9366 39.4283C18.6429 37.3274 17.9203 34.925 17.8404 32.459L17.8333 32L17.8404 31.541C17.9197 29.0944 18.6317 26.7101 19.9068 24.6206C21.1819 22.531 22.9767 20.8076 25.1162 19.6182C27.2557 18.4288 29.6669 17.8141 32.1147 17.834C34.5625 17.8539 36.9634 18.5077 39.0833 19.7317ZM32 23.5C31.653 23.5001 31.3181 23.6274 31.0588 23.858C30.7995 24.0886 30.6338 24.4063 30.5932 24.7509L30.5833 24.9167V32L30.5961 32.1856C30.6284 32.4314 30.7246 32.6644 30.8751 32.8613L30.9984 33.003L35.2484 37.253L35.3816 37.3692C35.63 37.5619 35.9355 37.6666 36.25 37.6666C36.5644 37.6666 36.87 37.5619 37.1184 37.3692L37.2516 37.2516L37.3691 37.1184C37.5619 36.87 37.6665 36.5645 37.6665 36.25C37.6665 35.9356 37.5619 35.63 37.3691 35.3816L37.2516 35.2484L33.4166 31.4121V24.9167L33.4067 24.7509C33.3661 24.4063 33.2005 24.0886 32.9412 23.858C32.6819 23.6274 32.347 23.5001 32 23.5Z" fill="#00A3FF"/>
</g>
<defs>
<clipPath id="clip0_2476_19641">
<rect width="34" height="34" fill="white" transform="translate(15 15)"/>
</clipPath>
</defs>
</svg>
