<svg
              viewBox="0 0 64 64"
              fill="none"
              xmlns="http://www.w3.org/2000/svg"
            >
              <circle opacity="0.1" cx="32" cy="32" r="32" fill="#DE3C3C" />
              <path
                d="M43 23.537C42.7586 23.537 42 23.5852 42 24.2604C42 24.7267 42.3793 25 43 25C43.6207 25 44 24.7267 44 24.2604C44 23.7299 43.4828 23.537 43 23.537ZM43 22.2058C43.4655 22.2058 43.7586 21.9646 43.7586 21.5949C43.7586 21.1447 43.3621 21 43 21C42.6379 21 42.2414 21.1608 42.2414 21.5949C42.2414 21.9646 42.5345 22.2058 43 22.2058Z"
                fill="#DE3C3C"
              />
              <path
                d="M43.5038 16C41.875 15.9985 40.3053 16.6094 39.1064 17.7112C37.9076 18.8131 37.1672 20.3253 37.0325 21.9475C37 22.1263 37 22.3213 37 22.5C37 26.0913 39.9104 29 43.5038 29C44.0729 29 44.6094 28.935 45.1297 28.7887C46.6606 28.3921 47.9944 27.4513 48.8813 26.1427C49.7682 24.8341 50.1475 23.2472 49.9481 21.6792C49.7488 20.1113 48.9845 18.6697 47.7983 17.6243C46.612 16.5789 45.0853 16.0015 43.5038 16ZM43.5038 26.075C41.8941 26.075 40.9023 25.2625 40.9023 23.9463C40.9023 23.3125 41.1949 22.7438 41.7152 22.3538C41.325 22.0125 41.1136 21.5413 41.1136 21.005C41.1136 19.7538 42.073 18.925 43.4875 18.925C44.9021 18.925 45.8614 19.77 45.8614 21.005C45.8614 21.5413 45.6663 22.0125 45.2598 22.3538C45.7964 22.7275 46.089 23.2963 46.089 23.9463C46.1053 25.2625 45.1135 26.075 43.5038 26.075Z"
                fill="#DE3C3C"
              />
              <path
                d="M43.4118 31.6103C41.6534 31.6169 39.9352 31.0831 38.4882 30.0808C38.4646 30.0631 38.4366 30.0523 38.4072 30.0496C38.3778 30.047 38.3483 30.0526 38.3219 30.0658C38.2955 30.079 38.2733 30.0994 38.2578 30.1245C38.2423 30.1497 38.2341 30.1787 38.2341 30.2083L38.25 37.8874C38.25 38.2043 38.1245 38.5082 37.9011 38.7323C37.6777 38.9564 37.3747 39.0822 37.0588 39.0822C36.7429 39.0822 36.4399 38.9564 36.2165 38.7323C35.9931 38.5082 35.8676 38.2043 35.8676 37.8874V30.0171C35.8676 29.4914 36.2171 29.0453 36.6935 28.886C36.8206 28.8382 36.9 28.6629 36.8047 28.5673C35.4333 26.9855 34.6776 24.9601 34.6765 22.8638C34.6765 22.5929 34.6924 22.3062 34.7241 22.0353C34.7241 21.9716 34.74 21.9238 34.74 21.8601C34.7633 21.6842 34.7315 21.5053 34.649 21.3483C34.5665 21.1913 34.4373 21.0639 34.2794 20.9838L32.85 20.2988C32.427 20.102 31.9663 20 31.5 20C31.0337 20 30.573 20.102 30.15 20.2988L19.8265 25.1739C18.7147 25.6996 18 26.8148 18 28.0575V39.9426C18 41.1852 18.7147 42.3004 19.8265 42.8262L30.15 47.7013C31.0076 48.0996 31.9924 48.0996 32.85 47.7013L43.1735 42.8262C44.2853 42.3004 45 41.1852 45 39.9426V32.4387C45 31.9448 44.5394 31.5625 44.0471 31.5943C43.8406 31.6103 43.6341 31.6103 43.4118 31.6103ZM33.4853 34.7966C33.4853 37.2182 31.5318 39.1778 29.1176 39.1778C26.7035 39.1778 24.75 37.2182 24.75 34.7966V30.0171C24.75 29.3639 25.29 28.8222 25.9412 28.8222C26.5924 28.8222 27.1324 29.3639 27.1324 30.0171V34.7966C27.1324 35.3248 27.3415 35.8313 27.7138 36.2048C28.0861 36.5783 28.5911 36.7881 29.1176 36.7881C29.6442 36.7881 30.1491 36.5783 30.5215 36.2048C30.8938 35.8313 31.1029 35.3248 31.1029 34.7966V30.0171C31.1029 29.3639 31.6429 28.8222 32.2941 28.8222C32.9453 28.8222 33.4853 29.3639 33.4853 30.0171V34.7966Z"
                fill="#DE3C3C"
              />
            </svg>