<svg width="28" height="28" viewBox="0 0 28 28" fill="none" xmlns="http://www.w3.org/2000/svg">
<path d="M18.2 9.1001C18.2 8.17184 17.8312 7.2816 17.1749 6.62522C16.5185 5.96885 15.6282 5.6001 14.7 5.6001H6.29999C5.37173 5.6001 4.48149 5.96885 3.82511 6.62522C3.16874 7.2816 2.79999 8.17184 2.79999 9.1001V18.9001C2.79999 19.8284 3.16874 20.7186 3.82511 21.375C4.48149 22.0313 5.37173 22.4001 6.29999 22.4001H14.7C15.6282 22.4001 16.5185 22.0313 17.1749 21.375C17.8312 20.7186 18.2 19.8284 18.2 18.9001V9.1001ZM19.6 11.1021V16.9149L23.4696 20.2049C23.6224 20.3349 23.8091 20.4184 24.0079 20.4455C24.2066 20.4727 24.4089 20.4423 24.591 20.3581C24.773 20.2738 24.9271 20.1392 25.035 19.9702C25.1429 19.8011 25.2002 19.6047 25.2 19.4041V8.6703C25.1996 8.4709 25.1425 8.27572 25.0353 8.1076C24.9281 7.93947 24.7753 7.80534 24.5947 7.72089C24.414 7.63645 24.2131 7.60519 24.0153 7.63076C23.8176 7.65633 23.6312 7.73768 23.478 7.8653L19.6 11.1021Z" fill="white"/>
</svg>
