<svg width="32" height="32" viewBox="0 0 32 32" fill="none" xmlns="http://www.w3.org/2000/svg">
<path d="M20.7999 10.4C20.7999 9.33913 20.3785 8.32171 19.6284 7.57157C18.8782 6.82142 17.8608 6.39999 16.8 6.39999H7.19995C6.13909 6.39999 5.12167 6.82142 4.37152 7.57157C3.62138 8.32171 3.19995 9.33913 3.19995 10.4V21.6C3.19995 22.6609 3.62138 23.6783 4.37152 24.4284C5.12167 25.1786 6.13909 25.6 7.19995 25.6H16.8C17.8608 25.6 18.8782 25.1786 19.6284 24.4284C20.3785 23.6783 20.7999 22.6609 20.7999 21.6V10.4ZM22.4 12.688V19.3312L26.8223 23.0912C26.9969 23.2397 27.2104 23.3352 27.4375 23.3662C27.6647 23.3972 27.8959 23.3625 28.1039 23.2663C28.312 23.17 28.4881 23.0161 28.6114 22.8229C28.7348 22.6297 28.8002 22.4052 28.7999 22.176V9.90879C28.7996 9.68091 28.7343 9.45785 28.6118 9.26571C28.4893 9.07356 28.3146 8.92027 28.1081 8.82376C27.9017 8.72726 27.6721 8.69153 27.4461 8.72075C27.2201 8.74998 27.007 8.84295 26.832 8.98879L22.4 12.688Z" fill="white"/>
</svg>
