<svg width="31" height="30" viewBox="0 0 31 30" fill="none" xmlns="http://www.w3.org/2000/svg">
<g clip-path="url(#clip0_52_123)">
<circle cx="15.3572" cy="15" r="15" fill="#DE3C4B"/>
<path d="M22.3616 7.90625C20.4911 6.03125 18 5 15.3527 5C9.88843 5 5.442 9.44643 5.442 14.9107C5.442 16.6563 5.89736 18.3616 6.76343 19.8661L5.35718 25L10.6116 23.6205C12.0581 24.4107 13.6875 24.8259 15.3482 24.8259H15.3527C20.8125 24.8259 25.3572 20.3795 25.3572 14.9152C25.3572 12.2679 24.2322 9.78125 22.3616 7.90625V7.90625ZM15.3527 23.1563C13.8706 23.1563 12.4197 22.7589 11.1563 22.0089L10.8572 21.8304L7.74111 22.6473L8.57146 19.6071L8.37503 19.2946C7.54914 17.9821 7.11611 16.4688 7.11611 14.9107C7.11611 10.3705 10.8125 6.67411 15.3572 6.67411C17.5581 6.67411 19.625 7.53125 21.1786 9.08929C22.7322 10.6473 23.6875 12.7143 23.6831 14.9152C23.6831 19.4598 19.8929 23.1563 15.3527 23.1563V23.1563ZM19.8706 16.9866C19.625 16.8616 18.4063 16.2634 18.1786 16.183C17.9509 16.0982 17.7858 16.058 17.6206 16.308C17.4554 16.558 16.9822 17.1116 16.8349 17.2813C16.692 17.4464 16.5447 17.4688 16.2991 17.3438C14.8438 16.6161 13.8884 16.0446 12.9286 14.3973C12.6741 13.9598 13.1831 13.9911 13.6563 13.0446C13.7366 12.8795 13.6965 12.7366 13.634 12.6116C13.5715 12.4866 13.0759 11.2679 12.8706 10.7723C12.6697 10.2902 12.4643 10.3571 12.3125 10.3482C12.1697 10.3393 12.0045 10.3393 11.8393 10.3393C11.6741 10.3393 11.4063 10.4018 11.1786 10.6473C10.9509 10.8973 10.3125 11.4955 10.3125 12.7143C10.3125 13.933 11.2009 15.1116 11.3215 15.2768C11.4465 15.442 13.067 17.942 15.5536 19.0179C17.125 19.6964 17.7411 19.7545 18.5268 19.6384C19.0045 19.567 19.9911 19.0402 20.1965 18.4598C20.4018 17.8795 20.4018 17.3839 20.3393 17.2813C20.2813 17.1696 20.1161 17.1071 19.8706 16.9866Z" fill="white"/>
</g>
<defs>
<clipPath id="clip0_52_123">
<rect width="30" height="30" fill="white" transform="translate(0.357178)"/>
</clipPath>
</defs>
</svg>
