<svg width="422" height="392" viewBox="0 0 422 392" fill="none" xmlns="http://www.w3.org/2000/svg">
<mask id="path-1-outside-1_1408_21692" maskUnits="userSpaceOnUse" x="0" y="0" width="422" height="392" fill="black">
<rect fill="white" width="422" height="392"/>
<path d="M413.26 105.52C412.138 75.0917 391.335 -13.7217 276.492 5.76607C217.761 20.4674 230.106 59.443 124.241 50.5538C11.6423 32.0917 -29.8808 102.521 31.0945 153.805C83.84 206.798 35.2094 229.885 31.0945 271.254C21.7424 320.145 51.669 434.678 198.683 369.377C297.237 325.601 286.813 362.293 344.796 350.327C402.779 338.361 445.424 302.462 399.786 225.195C358.637 170.834 415.131 162.958 413.26 105.52Z"/>
</mask>
<path d="M413.26 105.52C412.138 75.0917 391.335 -13.7217 276.492 5.76607C217.761 20.4674 230.106 59.443 124.241 50.5538C11.6423 32.0917 -29.8808 102.521 31.0945 153.805C83.84 206.798 35.2094 229.885 31.0945 271.254C21.7424 320.145 51.669 434.678 198.683 369.377C297.237 325.601 286.813 362.293 344.796 350.327C402.779 338.361 445.424 302.462 399.786 225.195C358.637 170.834 415.131 162.958 413.26 105.52Z" fill="#D23BD6" fill-opacity="0.1"/>
<path d="M413.26 105.52C412.138 75.0917 391.335 -13.7217 276.492 5.76607C217.761 20.4674 230.106 59.443 124.241 50.5538C11.6423 32.0917 -29.8808 102.521 31.0945 153.805C83.84 206.798 35.2094 229.885 31.0945 271.254C21.7424 320.145 51.669 434.678 198.683 369.377C297.237 325.601 286.813 362.293 344.796 350.327C402.779 338.361 445.424 302.462 399.786 225.195C358.637 170.834 415.131 162.958 413.26 105.52Z" stroke="#BC38C7" stroke-width="5" mask="url(#path-1-outside-1_1408_21692)"/>
</svg>
