<svg width="64" height="64" viewBox="0 0 64 64" fill="none" xmlns="http://www.w3.org/2000/svg">
<circle cx="32" cy="32" r="32" fill="#DB3CDE" fill-opacity="0.15"/>
<path fill-rule="evenodd" clip-rule="evenodd" d="M31.4949 32.7917H31.5207C35.0876 32.7917 37.979 29.9003 37.979 26.3333C37.979 22.7664 35.0876 19.875 31.5207 19.875H31.469C27.926 19.9028 25.0624 22.7838 25.0624 26.3333C25.0624 29.8828 27.926 32.7639 31.469 32.7917H31.4949ZM36.6473 26.9792H35.3557C35.3298 27.4248 35.2756 27.8569 35.1974 28.2708H36.3121C36.4768 27.864 36.5911 27.4306 36.648 26.9792H36.6473ZM35.5539 29.5625H34.8564C34.724 29.9435 34.569 30.3007 34.394 30.6281C34.8326 30.3339 35.2237 29.9746 35.5539 29.5625ZM33.8799 28.2708C33.9684 27.8659 34.0311 27.4332 34.0614 26.9792H32.1665V28.2708H33.8799ZM32.1665 29.5625H33.4731C33.3751 29.7943 33.2614 30.0192 33.1327 30.2355C32.8098 30.7721 32.4759 31.1041 32.1665 31.292V29.5625ZM30.8749 28.2708V26.9792H28.9387C28.969 27.4332 29.0317 27.8659 29.1201 28.2708H30.8749ZM29.527 29.5625H30.8749V31.3166C30.5545 31.1332 30.2045 30.7967 29.8674 30.2355C29.7387 30.0192 29.625 29.7943 29.527 29.5625ZM27.8026 28.2708C27.7226 27.8441 27.6697 27.4126 27.6444 26.9792H26.3941C26.4503 27.4306 26.5646 27.864 26.7299 28.2708H27.8026ZM27.4875 29.5625H28.1436C28.2696 29.9268 28.4175 30.269 28.5828 30.5836C28.1703 30.2979 27.8014 29.954 27.4875 29.5625ZM35.3557 25.6875C35.3303 25.254 35.2774 24.8226 35.1974 24.3958H36.3121C36.4768 24.8027 36.5911 25.2361 36.648 25.6875H35.3563H35.3557ZM35.5539 23.1042H34.8564C34.7304 22.7374 34.5758 22.3811 34.394 22.0385C34.8326 22.3327 35.2237 22.6921 35.5539 23.1042ZM32.1665 23.1042H33.4731C33.3751 22.8723 33.2614 22.6475 33.1327 22.4312C32.8098 21.8939 32.4759 21.5626 32.1665 21.3746V23.1042ZM33.8799 24.3958H32.1665V25.6875H34.0614C34.0328 25.2531 33.9722 24.8213 33.8799 24.3958ZM30.8749 21.3501V23.1042H29.527C29.6304 22.8607 29.7453 22.6353 29.8674 22.4312C30.2039 21.87 30.5545 21.5335 30.8749 21.3501ZM30.8749 24.3958H29.1201C29.0279 24.8213 28.9673 25.2531 28.9387 25.6875H30.8749V24.3958ZM28.5822 22.0831C28.4106 22.4121 28.2638 22.7534 28.143 23.1042H27.4875C27.8014 22.7127 28.1697 22.3688 28.5822 22.0831ZM27.8033 24.3958H26.7299C26.5622 24.8099 26.4493 25.2442 26.3941 25.6875H27.6451C27.6709 25.2419 27.7251 24.8098 27.8033 24.3958Z" fill="#DB3CDE"/>
<path d="M22.5287 37.0678C22.8949 37.4565 23.2585 37.8428 23.6008 38.3336V39.25H28.4013V38.3336C28.3154 37.6206 28.1643 36.336 28.1507 35.9789C28.1326 35.4764 27.4584 34.5606 27.4584 34.5606L25.3885 31.9515C25.3885 31.9515 24.8027 31.3328 24.4675 30.6469C24.1317 29.9604 23.4187 30.8238 23.3244 31.4413C23.2288 32.0587 23.4096 32.3842 23.4096 32.3842L24.5915 34.7337C24.5915 34.7337 23.2211 32.8563 22.7955 32.1019C22.5797 31.7196 22.5197 30.9097 22.4519 30.0049C22.3866 29.1234 22.3143 28.1514 22.085 27.3958C21.62 25.8651 20.2754 26.2481 20.0423 26.9327C19.8098 27.6166 19.8621 32.1368 19.9467 32.8905C20.0132 33.4808 20.3691 34.0582 20.7701 34.7092C20.8812 34.89 20.9962 35.076 21.1092 35.2691C21.5587 36.0389 22.0456 36.5563 22.5287 37.0678ZM39.4005 38.3336C39.7428 37.8428 40.1064 37.4565 40.4726 37.0678C40.9556 36.5563 41.4426 36.0389 41.8927 35.2691C42.0051 35.0754 42.1201 34.89 42.2312 34.7098C42.6322 34.0588 42.9881 33.4808 43.0546 32.8905C43.1392 32.1368 43.1922 27.6166 42.959 26.9327C42.7259 26.2481 41.3813 25.8651 40.9163 27.3964C40.6876 28.152 40.6153 29.1234 40.5494 30.0049C40.4816 30.9097 40.4215 31.7196 40.2058 32.1019C39.7802 32.8569 38.4091 34.7337 38.4091 34.7337L39.5916 32.3842C39.5916 32.3842 39.7725 32.0587 39.6775 31.4413C39.5826 30.8238 38.869 29.9604 38.5344 30.6469C38.1986 31.3328 37.6128 31.9515 37.6128 31.9515L35.5429 34.5606C35.5429 34.5606 34.8687 35.4764 34.8506 35.9789C34.8377 36.336 34.6859 37.6206 34.6 38.3336V39.25H39.4005V38.3336ZM32.7917 42.4792C32.7917 42.6505 32.8597 42.8148 32.9808 42.9359C33.1019 43.057 33.2662 43.125 33.4375 43.125H38.6042C38.7754 43.125 38.9397 43.057 39.0608 42.9359C39.182 42.8148 39.25 42.6505 39.25 42.4792V41.1875C39.25 41.0162 39.182 40.852 39.0608 40.7309C38.9397 40.6097 38.7754 40.5417 38.6042 40.5417H33.4375C33.2662 40.5417 33.1019 40.6097 32.9808 40.7309C32.8597 40.852 32.7917 41.0162 32.7917 41.1875V42.4792ZM30.2096 42.4792C30.2096 42.6505 30.1416 42.8148 30.0205 42.9359C29.8993 43.057 29.7351 43.125 29.5638 43.125H24.3971C24.2258 43.125 24.0616 43.057 23.9405 42.9359C23.8193 42.8148 23.7513 42.6505 23.7513 42.4792V41.1875C23.7513 41.0162 23.8193 40.852 23.9405 40.7309C24.0616 40.6097 24.2258 40.5417 24.3971 40.5417H29.5638C29.7351 40.5417 29.8993 40.6097 30.0205 40.7309C30.1416 40.852 30.2096 41.0162 30.2096 41.1875V42.4792Z" fill="#DB3CDE"/>
</svg>
