<svg width="409" height="441" viewBox="0 0 409 441" fill="none" xmlns="http://www.w3.org/2000/svg">
<mask id="path-1-outside-1_1408_21687" maskUnits="userSpaceOnUse" x="0" y="0" width="409" height="441" fill="black">
<rect fill="white" width="409" height="441"/>
<path d="M371.511 143.549C387.272 128.801 399.161 -3.86905 281.666 3.2785C281.666 3.2785 246.128 10.8727 175.776 35.8891C133.71 48.8441 6.06219 -0.295307 3.1611 81.9015C-0.465271 183.307 58.6447 223.959 27.4579 276.226C-3.36627 328.492 30.3589 466.976 117.755 432.578C205.15 398.181 248.814 437.654 289.429 423.359C330.045 409.064 447.873 388.984 390.576 263.455C338.719 181.258 364.259 177.5 371.511 143.549Z"/>
</mask>
<path d="M371.511 143.549C387.272 128.801 399.161 -3.86905 281.666 3.2785C281.666 3.2785 246.128 10.8727 175.776 35.8891C133.71 48.8441 6.06219 -0.295307 3.1611 81.9015C-0.465271 183.307 58.6447 223.959 27.4579 276.226C-3.36627 328.492 30.3589 466.976 117.755 432.578C205.15 398.181 248.814 437.654 289.429 423.359C330.045 409.064 447.873 388.984 390.576 263.455C338.719 181.258 364.259 177.5 371.511 143.549Z" fill="#FFA115" fill-opacity="0.1"/>
<path d="M371.511 143.549C387.272 128.801 399.161 -3.86905 281.666 3.2785C281.666 3.2785 246.128 10.8727 175.776 35.8891C133.71 48.8441 6.06219 -0.295307 3.1611 81.9015C-0.465271 183.307 58.6447 223.959 27.4579 276.226C-3.36627 328.492 30.3589 466.976 117.755 432.578C205.15 398.181 248.814 437.654 289.429 423.359C330.045 409.064 447.873 388.984 390.576 263.455C338.719 181.258 364.259 177.5 371.511 143.549Z" stroke="#FFA115" stroke-width="5" mask="url(#path-1-outside-1_1408_21687)"/>
</svg>
