<svg width="379" height="388" viewBox="0 0 379 388" fill="none" xmlns="http://www.w3.org/2000/svg">
<mask id="path-1-outside-1_1408_21681" maskUnits="userSpaceOnUse" x="-0.0734863" y="0" width="379" height="388" fill="black">
<rect fill="white" x="-0.0734863" width="379" height="388"/>
<path d="M354.324 126.499C359.069 107.267 401.776 -3.02184 283.511 3.25794C283.511 3.25794 247.739 9.93015 176.926 31.9094C134.585 43.2915 6.0993 0.118016 3.17917 72.3355C-0.470978 161.43 53.2108 190.733 21.8195 236.654C-9.20679 282.575 30.5554 410.658 118.524 380.437C206.493 350.216 242.629 392.997 283.511 380.437C324.393 367.877 414.916 335.694 357.244 225.405C305.047 153.188 347.023 156.327 354.324 126.499Z"/>
</mask>
<path d="M354.324 126.499C359.069 107.267 401.776 -3.02184 283.511 3.25794C283.511 3.25794 247.739 9.93015 176.926 31.9094C134.585 43.2915 6.0993 0.118016 3.17917 72.3355C-0.470978 161.43 53.2108 190.733 21.8195 236.654C-9.20679 282.575 30.5554 410.658 118.524 380.437C206.493 350.216 242.629 392.997 283.511 380.437C324.393 367.877 414.916 335.694 357.244 225.405C305.047 153.188 347.023 156.327 354.324 126.499Z" fill="#00A3FF" fill-opacity="0.1"/>
<path d="M354.324 126.499C359.069 107.267 401.776 -3.02184 283.511 3.25794C283.511 3.25794 247.739 9.93015 176.926 31.9094C134.585 43.2915 6.0993 0.118016 3.17917 72.3355C-0.470978 161.43 53.2108 190.733 21.8195 236.654C-9.20679 282.575 30.5554 410.658 118.524 380.437C206.493 350.216 242.629 392.997 283.511 380.437C324.393 367.877 414.916 335.694 357.244 225.405C305.047 153.188 347.023 156.327 354.324 126.499Z" stroke="#00A3FF" stroke-width="5" mask="url(#path-1-outside-1_1408_21681)"/>
</svg>
