<svg width="64" height="64" viewBox="0 0 64 64" fill="none" xmlns="http://www.w3.org/2000/svg">
<circle opacity="0.15" cx="32" cy="32" r="32" fill="#00A3FF"/>
<path d="M31.5007 18.5833C24.3836 18.5833 18.584 24.3829 18.584 31.5C18.584 38.6171 24.3836 44.4166 31.5007 44.4166C38.6177 44.4166 44.4173 38.6171 44.4173 31.5C44.4173 24.3829 38.6177 18.5833 31.5007 18.5833ZM19.8886 31.5C19.8886 29.8208 20.2502 28.2191 20.8961 26.7725L26.4373 41.9496C22.5623 40.0637 19.8886 36.0983 19.8886 31.5ZM31.5007 43.1121C30.364 43.1121 29.2661 42.9441 28.2198 42.6341L31.7073 32.5075L35.2723 42.2854C35.2982 42.3371 35.324 42.4016 35.3498 42.4404C34.1486 42.8796 32.8569 43.1121 31.5007 43.1121ZM33.1023 26.0491C33.7998 26.0104 34.4327 25.9329 34.4327 25.9329C35.0527 25.8554 34.9882 24.9383 34.3552 24.9771C34.3552 24.9771 32.4694 25.1191 31.2552 25.1191C30.1186 25.1191 28.194 24.9771 28.194 24.9771C27.574 24.9512 27.4965 25.9071 28.1294 25.9458C28.1294 25.9458 28.7236 26.0233 29.3436 26.0621L31.1519 31.0221L28.6073 38.6429L24.3836 26.0491C25.0811 26.0233 25.714 25.9458 25.714 25.9458C26.334 25.8683 26.2694 24.9512 25.6365 24.99C25.6365 24.99 23.7507 25.1321 22.5365 25.1321C22.3169 25.1321 22.0586 25.1321 21.7873 25.1191C23.8798 21.9675 27.4448 19.8879 31.5007 19.8879C34.5232 19.8879 37.2744 21.0375 39.3411 22.9362C39.2894 22.9362 39.2377 22.9233 39.1861 22.9233C38.0494 22.9233 37.2357 23.9179 37.2357 24.99C37.2357 25.9458 37.7911 26.7596 38.3723 27.7154C38.8115 28.4904 39.3281 29.485 39.3281 30.9187C39.3281 31.9133 38.9406 33.0629 38.4498 34.6775L37.2873 38.5525L33.1023 26.0491ZM41.6919 25.9329C43.1427 28.5881 43.4996 31.7048 42.6866 34.6192C41.8735 37.5336 39.9548 40.0155 37.339 41.5362L40.8911 31.2804C41.5498 29.6271 41.7694 28.2966 41.7694 27.1212C41.7694 26.695 41.7436 26.2946 41.6919 25.9329Z" fill="#00A3FF"/>
</svg>
