<svg width="64" height="64" viewBox="0 0 64 64" fill="none" xmlns="http://www.w3.org/2000/svg">
<circle cx="32" cy="32" r="32" fill="#FF8000" fill-opacity="0.15"/>
<g clip-path="url(#clip0_2122_4277)">
<path d="M30.7688 20.1C30.8438 20.1 30.9375 20.1375 31.0188 20.25C30.6562 19.7313 31.425 19.9563 31.4688 19.4625C31.9062 19.1375 31.75 18.925 31.875 18.9125L32.0125 18.8C31.7438 18.9 31.65 18.9188 31.575 18.9188H31.45C31.3562 18.9188 31.2 18.9375 30.8313 19.05C29.9875 19.1125 29.3813 20.025 29.0938 20.05C28.8 20.2063 28.8125 20.2375 28.8813 20.2375C28.9 20.2375 28.925 20.2312 28.95 20.2312C28.975 20.2312 28.9937 20.225 29.0125 20.225C29.0813 20.225 29.0625 20.2562 28.6625 20.4437C28.7563 20.4688 27.9625 20.8187 27.9563 21.3688C27.9313 21.5813 28.0188 21.725 28.1625 21.725C28.2875 21.725 28.4438 21.6313 28.6125 21.3938C29.175 20.7438 30.3625 20.6813 30.875 20.2875C30.5562 20.2625 30.6188 20.1 30.7688 20.1ZM27.9125 20.3187C27.8563 20.3187 27.9312 20.25 28.0125 20.1813C28.1 20.1125 28.2 20.0437 28.2 20.0437L28.1938 20.05C28.5312 19.9188 28.325 19.8875 28.5063 19.8H28.4937C28.4562 19.8 28.525 19.75 28.5875 19.6937C28.65 19.6437 28.7062 19.5875 28.65 19.5875C28.6187 19.5875 28.5375 19.6062 28.4 19.6625C28.4437 19.6 28.6125 19.5562 28.85 19.425C28.5063 19.5375 28.2375 19.6063 28.2063 19.6063C28.1813 19.6063 28.325 19.5562 28.7563 19.425C28.775 19.425 28.7937 19.4313 28.8062 19.4313C28.85 19.4313 28.8688 19.4188 28.8625 19.4062C28.8562 19.3937 28.8313 19.3875 28.7875 19.3875C28.1688 19.4375 27.7063 19.825 27.8438 19.875C27.925 19.85 27.9812 19.8375 28.0188 19.8375C28.1 19.8375 28.0625 19.9062 27.9 20.0062C27.975 20.1813 26.65 20.6312 26.5 20.7937C26.575 20.75 26.625 20.7375 26.65 20.7375C26.75 20.7375 26.6188 20.9313 26.4875 21.025C26.5688 21.1 26.6312 21.125 26.6812 21.125C26.8125 21.125 26.8687 20.9437 26.9812 20.8875C27.0062 20.9375 27.0312 20.9625 27.0625 20.9625C27.1687 20.9625 27.3 20.7 27.4062 20.5625C27.4375 20.5938 27.475 20.6188 27.525 20.6188C27.625 20.6188 27.775 20.5375 28.0125 20.3063C27.9625 20.3125 27.925 20.3187 27.9125 20.3187ZM26.475 21.4688C26.25 21.6062 26.1313 21.6625 26.0813 21.6625C25.9875 21.6625 26.1125 21.4875 26.225 21.3063C26.3375 21.1312 26.4375 20.9563 26.2937 20.9563C26.225 20.9563 26.1 20.9938 25.9 21.0938C25.3562 21.4563 24.4375 22.4563 24.0312 22.4563H23.9938C24.65 21.975 24.4563 21.0312 25.375 20.7875C26.2812 20.2687 26.9 20.4313 27.7063 19.8375C27.4688 19.9563 27.1188 20.0875 27.0375 20.0875C26.9875 20.0875 27.0625 20.025 27.3875 19.8688C27.3562 19.875 27.3313 19.8812 27.3125 19.8812C27.0938 19.8812 28.75 19.2875 28.8313 19.275C28.15 19.3688 27.05 19.9375 26.9 19.9375C26.8812 19.9375 26.8813 19.9313 26.8813 19.9188C26.9062 19.9 26.9062 19.8875 26.8813 19.8875C26.8 19.8875 26.4625 20 26.1187 20.1125C25.7812 20.225 25.4375 20.3438 25.3625 20.3438C25.3375 20.3438 25.3375 20.3313 25.375 20.3063C22.425 21.9812 19.9625 24.8062 19.1937 28.1562C19.5125 28.8875 19.2937 30.2812 19.8187 30.6875C20.4187 31.1938 19.3062 32.6625 19.6 33.5688C19.9 35.2063 21.1938 36.325 21.3313 38C21.5688 39.15 22.4375 40.5562 22.8 41.2875C23.075 41.5625 23.8313 42.3563 23.9625 42.3563C24.0125 42.3563 23.9812 42.2375 23.7812 41.9188C23.6562 41.5625 22.9313 40.6313 23.2812 40.6313C23.3 40.6313 23.3187 40.6313 23.3438 40.6375C22.9125 40.2 24.3 40.3188 23.3313 39.725C23.2188 39.5875 23.1937 39.5438 23.2188 39.5438C23.25 39.5438 23.3375 39.5938 23.4375 39.6437C23.5437 39.6937 23.6688 39.7437 23.7688 39.7437C23.925 39.7437 24.0312 39.6375 23.9688 39.25C23.9938 39.2625 24.0188 39.2625 24.0375 39.2625C24.2 39.2625 24.1438 38.9438 24.1562 38.625C24.1687 38.3062 24.25 37.9875 24.6875 37.9875C24.7375 37.9875 24.7938 37.9937 24.85 38C25.8625 37.45 24.9812 35.9312 26.1438 35.375C26.1 34.1125 24.4062 34.05 23.7688 33.5375C23.6625 33.6 23.5625 33.6187 23.4625 33.6187C23.35 33.6187 23.25 33.5938 23.1625 33.5625C23.075 33.5375 22.9938 33.5063 22.9375 33.5063C22.925 33.5063 22.9125 33.5063 22.9 33.5125C23.9875 33.225 23.1937 31.7125 22.2937 31.7125H22.2312C22.1625 31.0562 21.825 31.3062 21.7875 30.7625C21.7312 30.7937 21.675 30.8062 21.6188 30.8062C21.4688 30.8062 21.3313 30.7 21.2125 30.6C21.0938 30.4938 20.9938 30.3938 20.9062 30.3938C20.8375 30.3938 20.775 30.4625 20.7188 30.6625C20.7812 30.3563 20.7625 30.2563 20.7 30.2563C20.6375 30.2563 20.525 30.3625 20.4 30.4688C20.2812 30.575 20.1437 30.6812 20.0375 30.6812H20.0062C19.275 30.1625 20.0125 29.2438 19.625 28.5375C19.875 28.2688 19.975 27.8125 19.8625 27.8125C19.8062 27.8125 19.6937 27.925 19.5187 28.2312C19.2687 27.5938 19.9313 26.15 20.4938 26.0688C20.5125 26.0688 20.525 26.0625 20.5437 26.0625C20.6437 26.0625 20.7438 26.1125 20.8313 26.2188C20.8813 26.5125 20.7562 27.1313 20.8063 27.1313C20.8313 27.1313 20.8812 27.0062 21.0062 26.6812C21.1687 25.9375 22.3063 25.4 22.425 24.9438C22.4313 24.95 22.4313 24.95 22.4375 24.95C22.5687 24.95 23.4125 24.2063 23.7812 24.125C23.925 23.9812 24.025 23.9313 24.1 23.9313C24.1813 23.9313 24.225 23.9938 24.2563 24.05C24.2875 24.1125 24.3125 24.1687 24.3438 24.1687C24.3687 24.1687 24.4 24.1312 24.4563 24.025C24.2625 23.6437 24.7625 23.2812 24.625 23.2812C24.575 23.2812 24.425 23.3313 24.1187 23.4563C24.0687 23.4813 24.0437 23.4875 24.0312 23.4875C23.9938 23.4875 24.1438 23.3875 24.3625 23.2875C24.5813 23.1875 24.8562 23.0875 25.0875 23.0875C25.2 23.0875 25.3 23.1125 25.375 23.175C26.3438 22.9438 25.8125 22.625 25.8625 22.625H25.875C26.15 22.4625 26.0688 21.85 26.475 21.4688ZM22.1438 24.025C22.1313 24.025 22.1875 23.9437 22.375 23.7125C22.7625 23.425 23.075 23.2312 22.7188 23.0437C22.875 22.975 23.025 22.8938 23.1687 22.8063C23.1625 23.1125 22.9062 23.8562 22.7688 23.8562C22.7375 23.8562 22.7062 23.8125 22.6937 23.7188C22.775 23.575 22.7812 23.5188 22.75 23.5188C22.7 23.5188 22.5562 23.6438 22.4187 23.775C22.2812 23.8938 22.1562 24.025 22.1438 24.025ZM22.5 24.1938C22.3313 24.1938 22.3625 24.0875 22.8812 23.9812C23.1062 23.95 22.9312 23.9625 23.2 23.9C22.9375 24.1125 22.6438 24.1938 22.5 24.1938ZM32.2188 23.5625C32.2938 23.55 32.35 23.55 32.3937 23.55C32.575 23.55 32.4938 23.625 32.3875 23.7C32.2812 23.775 32.15 23.85 32.225 23.85C32.2688 23.85 32.3875 23.825 32.6313 23.7562C33.8625 23.6687 32.15 22.625 32.425 22.275L32.35 22.25C31.8438 22.8938 32.6875 22.9062 32.2188 23.5625ZM31.7063 23.5875C31.7937 23.5875 31.9062 23.4875 32.025 23.2063C32.1875 23.0125 32.1187 22.9875 31.9438 22.8938C31.4625 23.0188 31.5063 23.5875 31.7063 23.5875ZM36.0187 25.5688C36 25.5688 35.9875 25.575 35.975 25.5813C36.025 25.5938 36.075 25.6062 36.125 25.6062C36.075 25.5813 36.0437 25.5688 36.0187 25.5688ZM44.4125 27.125C44.5188 27.3562 44.575 27.45 44.5812 27.45C44.625 27.45 43.7938 25.425 43.45 25.0625C41.6562 22.1125 38.7062 19.8563 35.3438 19.0125H35.3375C35.25 19.0125 35.35 19.0562 35.4688 19.1C35.5875 19.1437 35.7313 19.1875 35.7313 19.1875C35.7313 19.1875 35.6375 19.1562 35.35 19.075C35.0312 18.9813 34.7062 18.9125 34.375 18.8875C34.3188 18.9062 35.7438 19.4688 36.7 19.7625C36.3813 19.6625 36.05 19.575 35.9688 19.575C35.9125 19.575 35.9688 19.6125 36.2 19.7125C35.9188 19.6313 35.8 19.5938 35.7875 19.5938C35.7688 19.5938 36.1625 19.725 36.5312 19.8563C36.9062 19.9875 37.2625 20.1188 37.1625 20.1188C37.1375 20.1188 37.0688 20.1063 36.9625 20.0875C37.2812 20.2625 37.3937 20.3313 37.375 20.3313C37.3438 20.3313 36.95 20.1438 36.5438 19.9562C36.1438 19.7687 35.7375 19.5812 35.6812 19.5812C35.65 19.5812 35.7313 19.6438 36.0063 19.8063C36.3813 19.9688 36.7563 20.1312 36.65 20.1312C36.6 20.1312 36.4562 20.1 36.175 20.0188C36.8 20.3375 35.7313 20.2125 36.0938 20.6438C35.8937 20.4563 35.8125 20.3938 35.7938 20.3938C35.775 20.3938 35.825 20.4688 35.875 20.5437C35.925 20.6187 35.9625 20.6937 35.9188 20.6937H35.9062C36.3438 21.1687 35.6 20.7437 36.1313 21.1687C35.7313 20.9875 35.05 20.6875 35.3563 20.6875C35.4313 20.6875 35.575 20.7062 35.8 20.7562C35.3937 20.2812 34.2437 20.2625 34.2188 20.2063C33.9312 20.225 33.925 20.4437 33.975 20.8438C33.9688 21.475 33.35 21.4875 33.4312 21.85C33.4312 21.8438 33.4375 21.8438 33.4375 21.8438C33.45 21.8438 33.4562 21.9688 33.4937 22.1C33.5375 22.225 33.6125 22.3562 33.775 22.3562C33.8625 22.3562 33.975 22.3187 34.1125 22.225C34.3062 22.575 34.4812 22.7 34.6187 22.7C34.825 22.7 34.95 22.4187 34.9375 22.1625C34.7125 22.0375 34.4187 21 34.7437 21C34.7937 21 34.8563 21.025 34.9375 21.0813C34.4312 22.325 36.9375 21.4938 35.5187 22.0625C35.8375 22.4812 35.3188 22.4625 35.4688 22.9688C35.225 23.0375 34.9562 23.1 34.7188 23.1C34.3687 23.1 34.1 22.95 34.1313 22.425C33.6938 22.6562 34.5688 23.4375 33.7 23.4375H33.65C33.2312 24.2063 31.6625 23.9438 32.8937 24.7563C32.9625 25.1125 32.7375 25.175 32.45 25.175C32.375 25.175 32.2937 25.1688 32.2125 25.1625C32.1313 25.1562 32.05 25.1562 31.975 25.1562C31.65 25.1562 31.4187 25.2375 31.6187 25.7437C31.475 26.2687 31.8125 26.5 32.225 26.5C32.725 26.5 33.3375 26.175 33.3813 25.6375C33.65 25.2312 33.9937 25.0625 34.35 25.0625C34.9125 25.0625 35.5062 25.4875 35.8937 26.0125C35.925 26.0625 35.95 26.0813 35.9625 26.0813C35.9937 26.0813 35.9625 25.9563 35.95 25.8313C35.9375 25.7312 35.9375 25.6313 35.975 25.6C35.4188 25.4438 34.9937 24.7688 35.1812 24.7688C35.2437 24.7688 35.375 24.8438 35.5875 25.0437H35.6187C35.9688 25.0437 36.2437 25.3188 36.4562 25.5938C36.675 25.8687 36.8375 26.1438 36.9813 26.1438C37.0375 26.1438 37.0938 26.0938 37.1437 25.9812C37.1187 25.9437 37.0562 25.8375 37.025 25.7312C36.9875 25.6 36.9875 25.4688 37.1562 25.4688C37.225 25.4688 37.3188 25.4937 37.45 25.5437C37.875 25.4312 37.1812 24.325 37.7437 24.325C37.8 24.325 37.8687 24.3375 37.9562 24.3625C37.95 24.5563 38.0375 24.625 38.1187 24.625C38.2812 24.625 38.4437 24.3938 38.05 24.325C38.2 24.1812 38.2875 24.125 38.35 24.125C38.5688 24.125 38.3937 24.85 39.15 24.85C39.4062 25.4563 36.925 24.8937 37.7188 26.0562C37.9 26.1875 38.125 26.2125 38.3438 26.2125C38.4125 26.2125 38.475 26.2125 38.5375 26.2063C38.6 26.2063 38.6625 26.2 38.7188 26.2C39.1063 26.2 39.3813 26.2937 39.2125 27.0938C39.0063 27.2437 38.775 27.2937 38.5375 27.2937C38.325 27.2937 38.1125 27.2563 37.9062 27.2188C37.7 27.1812 37.5 27.1438 37.3188 27.1438C37.0375 27.1438 36.8125 27.2375 36.675 27.5625C35.9437 27.2625 34.9813 27.25 35.075 26.3438C33.8 26.525 32.4688 26.4312 31.5312 27.2125C31.475 28.3562 29.5125 28.725 29.9875 30.025C29.4187 31.225 30.675 32.9062 31.9563 32.9062C32 32.9062 32.05 32.9062 32.0938 32.9C32.7938 32.8937 33.5 32.5812 34.1187 32.5812C34.4375 32.5812 34.725 32.6625 34.975 32.9125C35.0312 32.9062 35.0812 32.9 35.125 32.9C36.0812 32.9 34.8188 34.4187 35.9625 34.675C37 35.75 35.325 36.8563 36.1437 37.8875C36.2312 38.6938 36.6313 39.3687 36.6313 40.1562C36.7375 40.1688 36.8375 40.175 36.9438 40.175C38.2625 40.175 39.0875 39.025 39.8625 38.1562C39.625 36.8563 41.7062 36.6 40.9937 35.1437C40.6625 33.55 42.5625 32.6063 42.4562 31.0125C42.475 30.7875 42.4125 30.7188 42.3188 30.7188C42.225 30.7188 42.0875 30.7875 41.9562 30.85C41.8187 30.9188 41.6687 30.9812 41.55 30.9812C41.3937 30.9812 41.275 30.875 41.2625 30.525C40.3438 29.6687 39.925 28.5063 39.0688 27.5625C40.1812 28.1 40.8125 29.3125 41.325 30.4125C41.3688 30.425 41.4125 30.4312 41.4625 30.4312C42.3687 30.4312 43.6313 28.2625 42.2563 27.7375C42.1812 27.9438 42.0812 28.0188 41.9625 28.0188C41.7563 28.0188 41.5188 27.7687 41.35 27.525C41.1812 27.275 41.0938 27.025 41.1875 27.025C41.25 27.025 41.3875 27.125 41.625 27.3875C41.8937 27.5562 42.1562 27.6 42.4312 27.6C42.7 27.6 42.975 27.5562 43.2625 27.5312C43.625 27.675 43.7812 28.1375 43.8937 28.1375C43.9125 28.1375 43.9375 28.1187 43.9562 28.075C44.2437 28.7625 44.575 29.9875 44.875 30.3188C44.7188 29.2688 44.6812 28.1562 44.4125 27.125ZM40.925 25.6812C40.2188 25.5 39.9875 24.625 39.4312 24.1187C39.425 23.9812 39.6312 24.0063 39.5812 23.775C40.3312 24.0063 40.0875 24.2375 40.0187 24.2812C40.2937 24.7375 41.0625 25.05 40.925 25.6812ZM31.2188 20.925C30.5375 21.125 30.4438 20.9062 30.5625 21.325C30.6125 21.3625 30.7063 21.375 30.8 21.375C31.1313 21.3812 31.5813 21.1875 31.2188 20.925ZM41.225 38.1437C42.1187 37.3875 42.2312 36.4875 42.275 35.575C41.875 36.3563 40.6875 37.2188 41.225 38.1437ZM37.1562 25.9563C37.15 25.9625 37.15 25.9625 37.15 25.9688C37.1562 25.9812 37.1625 25.9812 37.1625 25.9812C37.1625 25.9812 37.1625 25.975 37.1562 25.9563ZM32 16C23.1625 16 16 23.1625 16 32C16 40.8375 23.1625 48 32 48C40.8375 48 48 40.8375 48 32C48 23.1625 40.8375 16 32 16ZM32 46.7687C23.8438 46.7687 17.2313 40.1562 17.2313 32C17.2313 23.8438 23.8438 17.2313 32 17.2313C40.1562 17.2313 46.7687 23.8438 46.7687 32C46.7687 40.1562 40.1562 46.7687 32 46.7687Z" fill="#FF8000"/>
</g>
<defs>
<clipPath id="clip0_2122_4277">
<rect width="32" height="32" fill="white" transform="translate(16 16)"/>
</clipPath>
</defs>
</svg>
