<svg width="56" height="56" viewBox="0 0 56 56" fill="none" xmlns="http://www.w3.org/2000/svg">
<path d="M11.6895 27.8418C11.6895 34.5387 15.4699 40.3256 20.9514 43.0683L13.1123 20.9564C12.1725 23.123 11.6877 25.469 11.6895 27.8418ZM39.2165 26.9882C39.2165 24.8974 38.487 23.4493 37.861 22.322C37.028 20.9286 36.2474 19.7484 36.2474 18.355C36.2474 16.7996 37.393 15.3518 39.0067 15.3518C39.0796 15.3518 39.1485 15.3613 39.2198 15.3654C36.2962 12.6077 32.401 10.9243 28.1227 10.9243C22.3817 10.9243 17.3309 13.9567 14.3925 18.5502C14.7784 18.5617 15.1415 18.5702 15.4501 18.5702C17.169 18.5702 19.8298 18.3553 19.8298 18.3553C20.7156 18.3017 20.8198 19.6411 19.9353 19.7491C19.9353 19.7491 19.0449 19.857 18.0542 19.9104L24.0385 38.2358L27.6346 27.1318L25.0744 19.91C24.1896 19.8564 23.3512 19.7484 23.3512 19.7484C22.4654 19.6951 22.5696 18.301 23.4548 18.355C23.4548 18.355 26.169 18.5695 27.7836 18.5695C29.5018 18.5695 32.1632 18.355 32.1632 18.355C33.0494 18.301 33.1536 19.6404 32.2684 19.7484C32.2684 19.7484 31.3764 19.8564 30.3877 19.9097L36.3262 38.0966L37.9652 32.457C38.6756 30.1173 39.2165 28.4366 39.2165 26.9882ZM28.4109 29.3218L23.4805 44.072C24.9879 44.5291 26.5512 44.7612 28.1227 44.7612C29.9813 44.7619 31.8265 44.4375 33.5797 43.8021C33.5342 43.7281 33.4951 43.6502 33.4629 43.5691L28.4109 29.3218ZM42.5421 19.725C42.6126 20.2638 42.6529 20.842 42.6529 21.4647C42.6529 23.1814 42.3412 25.1113 41.403 27.5243L36.3836 42.466C41.2691 39.5328 44.5551 34.0837 44.5551 27.8425C44.5596 25.0052 43.8671 22.2128 42.5421 19.725ZM28.1227 8.12085C17.5605 8.12085 8.9668 16.9676 8.9668 27.8418C8.9668 38.7176 17.5605 47.5641 28.1227 47.5641C38.6848 47.5641 47.2795 38.7176 47.2795 27.8418C47.2795 16.9676 38.6848 8.12085 28.1227 8.12085ZM28.1227 46.6599C18.0449 46.6599 9.84503 38.2182 9.84503 27.8418C9.84503 17.4664 18.0446 9.02502 28.1227 9.02502C38.2004 9.02502 46.3996 17.4664 46.3996 27.8418C46.3996 38.2182 38.2004 46.6599 28.1227 46.6599Z" fill="white"/>
</svg>
